<svg width="832" height="416" viewBox="0 0 832 416" fill="none" xmlns="http://www.w3.org/2000/svg">
<path d="M328.437 263.589C329.052 263.979 329.604 264.396 330.094 264.833C332.943 267.422 336.021 270.849 338.542 274.234C338.599 274.318 338.667 274.396 338.724 274.474C339.094 273.354 339.432 272.229 339.661 271.219C338.792 269.547 334.458 266.229 328.437 263.589ZM364.901 330.453C348.823 330.453 311.203 309.537 310.823 309.276C299.135 301.063 296.187 273.781 296.516 270.005C296.87 266.021 299.437 262.891 303.766 261.203C306.031 260.313 308.781 259.844 311.672 259.75C310.286 259.734 308.906 259.807 307.521 259.974C302.776 260.552 294.281 263.557 284.448 267.052C258.469 276.26 222.891 288.88 200.187 278.526C168.302 263.979 169.333 227.99 169.349 227.625C169.411 225.906 170.865 224.604 172.594 224.63C174.323 224.693 175.667 226.151 175.599 227.875C175.552 229.177 174.766 260.057 202.781 272.833C223.187 282.135 258.797 269.505 282.354 261.151C292.963 257.385 301.344 254.417 306.771 253.766C321.687 251.943 337.708 259.771 343.542 266.094C345.479 268.198 346.271 270.198 345.88 272.042C345.057 276.078 342.719 281.703 342.193 282.948C342.135 283.089 342.078 283.229 342 283.37C341.234 284.87 339.417 285.495 337.885 284.776C336.745 284.24 336.078 283.104 336.088 281.917C335.255 280.016 330.682 273.828 325.88 269.474C322.604 266.49 311.995 264.703 306.036 267.037C302.948 268.234 302.807 269.917 302.75 270.552C302.432 274.167 305.792 298.089 314.417 304.151C315.88 305.182 327.292 311.26 339.995 316.672C362.474 326.245 366.432 324.125 366.588 324.026C373.068 320.125 403.281 278.656 409.333 245.104C409.646 243.412 411.271 242.271 412.969 242.583C414.672 242.891 415.802 244.521 415.495 246.219C409.588 278.953 379.458 323.568 369.818 329.391C368.599 330.125 366.922 330.453 364.901 330.453Z" fill="#F4F6FC"/>
<mask id="mask0_97_42" style="mask-type:luminance" maskUnits="userSpaceOnUse" x="0" y="129" width="447" height="227">
<path d="M0.677002 129.333H446.667V356H0.677002V129.333Z" fill="white"/>
</mask>
<g mask="url(#mask0_97_42)">
<path d="M338.083 354.672C326.489 354.677 282.885 324.474 278.786 320.51C275.229 317.057 275.088 311.109 278.432 304.99C282.849 296.911 293.255 289.557 305.661 292.469C307.338 292.865 308.385 294.557 307.989 296.234C307.594 297.917 305.906 298.953 304.224 298.557C294.953 296.375 287.349 301.729 283.922 307.99C282.078 311.37 281.755 314.672 283.146 316.016C285.323 318.12 296.646 326.172 310.156 334.5C328.609 345.875 336.328 348.583 337.984 348.427C352.239 346.646 401.427 337.693 407.224 333.141C407.661 331.12 409.172 326.911 412.604 317.365C418.521 300.948 427.448 276.146 433.463 253.286C442.599 218.542 439.401 208.922 436.682 206.276C404.958 175.474 270.849 150.089 220.359 140.526C213.016 139.13 207.208 138.036 203.844 137.328C178.505 131.932 6.05719 148.771 4.32281 148.937C2.59885 149.099 1.06761 147.849 0.900938 146.125C0.729064 144.411 1.98948 142.88 3.71344 142.708C10.8541 142.005 178.87 125.609 205.146 131.198C208.432 131.901 214.208 132.995 221.521 134.38C272.521 144.036 407.974 169.677 441.042 201.786C453.958 214.339 437.833 265.776 418.495 319.479C415.932 326.583 413.521 333.286 413.328 334.531C413.099 337.214 412.818 340.635 377.812 347.802C360.776 351.286 342.745 354.146 338.755 354.641C338.542 354.661 338.323 354.672 338.083 354.672Z" fill="#F4F6FC"/>
</g>
<path d="M373.906 403.115C355.844 403.115 323.5 394.859 311.328 382.531C298.203 369.245 268.37 343.568 258.13 341.87C209.292 333.781 192.125 309.292 179.594 291.417C172.979 281.974 167.761 274.531 159.922 272.297C140.453 266.745 62.6511 305.734 34.323 321.219C32.8074 322.052 30.9011 321.5 30.0782 319.974C29.2449 318.458 29.8074 316.563 31.323 315.734C41.9741 309.911 136.151 259.01 161.646 266.276C171.615 269.12 177.682 277.792 184.719 287.823C197.281 305.74 212.901 328.042 259.162 335.693C272.578 337.917 305.365 367.578 315.776 378.13C327.354 389.859 363 398.255 377.948 396.667C382.417 396.198 384.266 392.516 385.042 389.505C387.886 378.458 381.302 360.38 365.354 349.266C363.938 348.281 363.594 346.328 364.583 344.911C365.568 343.495 367.516 343.146 368.938 344.135C379.745 351.672 385.354 360.964 388.156 367.432C391.755 375.75 392.828 384.359 391.104 391.073C389.344 397.927 384.787 402.24 378.599 402.891C377.182 403.042 375.609 403.115 373.906 403.115Z" fill="#F4F6FC"/>
<mask id="mask1_97_42" style="mask-type:luminance" maskUnits="userSpaceOnUse" x="460" y="253" width="372" height="163">
<path d="M460 253.646H831.375V415.338H460V253.646Z" fill="white"/>
</mask>
<g mask="url(#mask1_97_42)">
<path d="M489.13 415.427C482.052 415.427 475.297 413.297 469.276 408.083C462.531 402.239 459.391 391.807 460.662 379.448C462.458 361.979 473.99 337.958 500.969 322.922C523.136 310.568 532.458 294.614 540.688 280.542C547.089 269.594 552.615 260.146 562.729 254.76C564.261 253.953 566.156 254.531 566.964 256.062C567.771 257.578 567.193 259.479 565.672 260.286C557.115 264.833 552.005 273.573 546.089 283.698C537.88 297.734 527.672 315.208 504.016 328.385C479.13 342.25 468.521 364.187 466.88 380.094C465.844 390.239 468.266 398.932 473.38 403.354C494.75 421.854 530.656 391.344 549.953 374.953C552.005 373.198 553.865 371.625 555.5 370.281C557.146 368.932 558.604 367.677 559.953 366.542C573.109 355.338 575.854 353.005 631.901 345.167C668.162 340.083 688.193 311.349 704.287 288.26C714.792 273.187 723.089 261.286 733.427 260.182C758.177 257.521 806.698 260.016 829.646 271.448C831.188 272.213 831.813 274.094 831.047 275.641C830.271 277.193 828.391 277.818 826.854 277.052C805.781 266.547 758.63 263.771 734.094 266.401C726.589 267.198 718.63 278.614 709.422 291.838C693.516 314.656 671.734 345.906 632.766 351.359C578.521 358.953 576.016 361.078 564.005 371.302C562.641 372.474 561.151 373.734 559.469 375.114C557.865 376.432 556.031 377.989 554.005 379.713C538.182 393.156 511.964 415.427 489.13 415.427Z" fill="#F4F6FC"/>
</g>
<mask id="mask2_97_42" style="mask-type:luminance" maskUnits="userSpaceOnUse" x="433" y="118" width="399" height="256">
<path d="M433.182 118.688H831.375V373.333H433.182V118.688Z" fill="white"/>
</mask>
<g mask="url(#mask2_97_42)">
<path d="M465.828 372.672C465.75 372.672 465.677 372.672 465.594 372.662C464.115 372.552 450.865 371.432 444.938 365.24C435.75 355.651 433.74 331.615 433.365 318.141C432.813 298.474 435.01 277.823 438.823 266.74C442.167 257.042 442.359 244.578 442.542 232.537C442.755 218.49 442.958 205.219 448.24 197.089C452.573 190.417 467.589 183.135 492.885 175.443C512.583 169.453 538.01 163.474 560.911 159.427C602.271 152.13 634.141 143.031 660.76 135.073C694.625 124.958 738.406 121.125 769.167 119.693C802.438 118.151 828.094 119 828.354 119C830.083 119.068 831.432 120.51 831.375 122.24C831.318 123.969 829.875 125.328 828.135 125.26C827.891 125.245 802.427 124.412 769.406 125.943C739.01 127.359 695.797 131.135 662.552 141.068C635.76 149.073 603.688 158.234 561.995 165.589C515.365 173.818 460.62 189.505 453.484 200.495C449.188 207.115 448.995 219.51 448.802 232.625C448.604 245.172 448.411 258.135 444.74 268.781C437.25 290.526 437.109 348.042 449.448 360.917C453.073 364.698 462.661 366.172 466.057 366.417C467.776 366.547 469.073 368.047 468.948 369.771C468.823 371.417 467.458 372.672 465.828 372.672Z" fill="#F4F6FC"/>
</g>
<path d="M475.604 322.214C474.786 322.214 473.964 321.896 473.354 321.25C472.151 320.01 472.193 318.021 473.438 316.828C495.38 295.755 518.974 271.589 520.479 267.625C521.401 263.609 516.854 251.365 503.776 237.109C502.604 235.839 502.698 233.854 503.964 232.693C505.24 231.521 507.219 231.604 508.391 232.88C521.068 246.688 528.365 261.266 526.542 269.151C525.12 275.344 491.964 307.708 477.771 321.344C477.167 321.927 476.385 322.214 475.604 322.214Z" fill="#F4F6FC"/>
<path d="M522.515 273.443C521.625 273.443 520.745 273.063 520.125 272.328C519.015 271.01 519.177 269.036 520.505 267.922C527.26 262.229 545.062 255.047 555.573 264.24C556.875 265.38 557.005 267.354 555.87 268.656C554.724 269.958 552.745 270.089 551.453 268.953C543.708 262.182 529.062 268.896 524.531 272.708C523.948 273.203 523.234 273.443 522.515 273.443Z" fill="#F4F6FC"/>
<path d="M508.365 314.422C506.823 314.422 505.479 313.276 505.266 311.703C505.01 309.719 502.818 292.109 506.24 284.391C506.948 282.818 508.792 282.099 510.375 282.802C511.948 283.5 512.662 285.344 511.964 286.927C509.912 291.542 510.573 304.068 511.479 310.891C511.698 312.604 510.49 314.167 508.776 314.401C508.646 314.417 508.505 314.422 508.365 314.422Z" fill="#F4F6FC"/>
<path d="M304.349 297.125C302.693 297.125 301.318 295.833 301.229 294.162C301.136 292.438 302.464 290.964 304.182 290.875C304.745 290.839 305.896 290.781 306.781 288.573C309.333 282.167 306.063 269.318 304.292 266.797C303.156 266.323 302.354 265.198 302.365 263.885C302.375 262.167 303.771 260.776 305.484 260.776C305.495 260.776 305.495 260.776 305.505 260.776C312.052 260.807 313.849 278.115 313.927 281.521C314.261 295.13 307.453 296.969 304.516 297.115C304.458 297.115 304.401 297.125 304.349 297.125Z" fill="#F4F6FC"/>
<path d="M296.703 332.745C296.406 332.745 296.115 332.703 295.818 332.609C294.161 332.115 293.214 330.37 293.708 328.714C296.927 317.885 279.62 312.214 279.448 312.156C277.802 311.63 276.896 309.875 277.411 308.229C277.943 306.589 279.693 305.677 281.333 306.193C289.422 308.755 303.682 317.125 299.703 330.505C299.302 331.859 298.057 332.745 296.703 332.745Z" fill="#F4F6FC"/>
<mask id="mask3_97_42" style="mask-type:luminance" maskUnits="userSpaceOnUse" x="460" y="359" width="56" height="57">
<path d="M460.594 359.089H516V415.339H460.594V359.089Z" fill="white"/>
</mask>
<g mask="url(#mask3_97_42)">
<path d="M489.51 415.354C488.464 415.354 487.443 414.828 486.849 413.875C485.932 412.396 486.385 410.469 487.859 409.563C501.229 401.297 509.042 390.875 509.287 380.99C509.417 375.891 507.401 371.526 503.766 369.01C499.766 366.255 494.625 365.464 489.656 366.844C483.583 368.537 474.698 374.25 466.781 391.87C466.073 393.453 464.229 394.151 462.646 393.443C461.073 392.734 460.375 390.88 461.073 389.307C469.984 369.479 480.62 362.865 487.974 360.818C494.729 358.932 501.781 360.031 507.328 363.865C512.729 367.589 515.719 373.896 515.537 381.146C515.24 393.182 506.354 405.479 491.156 414.885C490.635 415.208 490.068 415.354 489.51 415.354Z" fill="#F4F6FC"/>
</g>
<mask id="mask4_97_42" style="mask-type:luminance" maskUnits="userSpaceOnUse" x="432" y="0" width="8" height="104">
<path d="M432 0.338501H440V104H432V0.338501Z" fill="white"/>
</mask>
<g mask="url(#mask4_97_42)">
<path d="M436.401 103.812C434.682 103.812 433.281 102.411 433.281 100.682V3.72915C433.281 1.99477 434.682 0.598938 436.401 0.598938C438.13 0.598938 439.531 1.99477 439.531 3.72915V100.682C439.531 102.411 438.13 103.812 436.401 103.812Z" fill="#F4F6FC"/>
</g>
<path d="M370.292 128.484C369.573 128.484 368.849 128.234 368.266 127.734L247.844 25.0365C246.521 23.9167 246.365 21.9375 247.49 20.6302C248.615 19.3125 250.583 19.1562 251.901 20.276L372.318 122.969C373.635 124.094 373.792 126.068 372.672 127.38C372.052 128.104 371.172 128.484 370.292 128.484Z" fill="#F4F6FC"/>
<path d="M502.531 128.484C501.641 128.484 500.771 128.104 500.141 127.38C499.021 126.068 499.177 124.094 500.495 122.969L620.911 20.276C622.229 19.1562 624.203 19.3125 625.328 20.6302C626.448 21.9375 626.292 23.9167 624.974 25.0365L504.557 127.734C503.963 128.234 503.239 128.484 502.531 128.484Z" fill="#F4F6FC"/>
<path d="M352.969 275.172C352.901 275.172 352.833 275.172 352.776 275.167L342.828 274.578C341.995 274.531 341.203 274.141 340.651 273.51C340.099 272.875 339.828 272.052 339.896 271.208C340.521 263.219 344.875 254.219 345.068 253.839C345.818 252.292 347.693 251.646 349.245 252.396C350.792 253.156 351.443 255.031 350.682 256.583C350.651 256.656 347.786 262.583 346.588 268.531L353.146 268.922C354.87 269.021 356.187 270.5 356.078 272.224C355.979 273.885 354.604 275.172 352.969 275.172Z" fill="#F4F6FC"/>
<path d="M339.755 295.396C338.104 295.396 336.724 294.104 336.641 292.427L336.094 282.109C335.995 280.385 337.323 278.911 339.052 278.823C340.776 278.698 342.25 280.057 342.339 281.781L342.885 292.099C342.974 293.828 341.646 295.297 339.927 295.385C339.87 295.396 339.813 295.396 339.755 295.396Z" fill="#F4F6FC"/>
</svg>
