<svg width="1418" height="219" viewBox="0 0 1418 219" fill="none" xmlns="http://www.w3.org/2000/svg">
<path d="M328.342 130.805C328.342 127.253 327.529 124.258 325.903 121.826C324.277 119.383 322.193 117.326 319.649 115.66C317.106 113.982 314.302 112.587 311.248 111.472C308.189 110.347 305.249 109.337 302.43 108.43C298.344 107.113 294.185 105.524 289.963 103.66C285.737 101.8 281.885 99.5137 278.414 96.8053C274.938 94.097 272.098 90.9043 269.888 87.222C267.678 83.5293 266.573 79.1908 266.573 74.2012C266.573 69.2012 267.678 64.7428 269.888 60.8262C272.098 56.8991 274.98 53.5762 278.539 50.8678C282.094 48.1595 286.133 46.1074 290.651 44.7012C295.165 43.2845 299.704 42.5762 304.264 42.5762C309.309 42.5762 314.167 43.4199 318.836 45.097C323.516 46.7637 327.665 49.1126 331.282 52.1387C334.893 55.1699 337.786 58.8366 339.954 63.1387C342.132 67.4303 343.279 72.2324 343.394 77.5345H328.259C327.826 74.2012 326.998 71.1699 325.778 68.4303C324.553 65.696 322.933 63.347 320.921 61.3887C318.904 59.4199 316.501 57.8887 313.708 56.8053C310.925 55.7116 307.777 55.1595 304.264 55.1595C301.455 55.1595 298.709 55.5658 296.03 56.3678C293.346 57.1595 290.954 58.3574 288.859 59.9512C286.758 61.5345 285.085 63.5033 283.834 65.847C282.584 68.1803 281.958 70.8835 281.958 73.9512C282.01 77.3001 282.86 80.1335 284.502 82.4512C286.154 84.7585 288.238 86.7116 290.756 88.3053C293.283 89.8887 296.019 91.2168 298.969 92.2845C301.914 93.3418 304.692 94.2637 307.308 95.0553C310.169 95.9616 313.062 96.9876 315.98 98.1387C318.899 99.2793 321.713 100.592 324.423 102.076C327.133 103.566 329.656 105.238 331.991 107.097C334.336 108.946 336.389 111.05 338.14 113.41C339.891 115.774 341.252 118.378 342.226 121.222C343.211 124.055 343.706 127.201 343.706 130.66C343.706 135.857 342.549 140.389 340.246 144.264C337.937 148.139 334.951 151.368 331.282 153.951C327.613 156.524 323.464 158.462 318.836 159.764C314.219 161.055 309.606 161.701 304.994 161.701C299.834 161.701 294.784 160.91 289.838 159.326C284.903 157.732 280.483 155.43 276.58 152.43C272.671 149.43 269.497 145.774 267.053 141.451C264.603 137.118 263.306 132.196 263.154 126.68H278.206C278.691 130.295 279.676 133.493 281.166 136.285C282.651 139.066 284.564 141.425 286.899 143.368C289.234 145.3 291.928 146.758 294.987 147.743C298.042 148.717 301.377 149.201 304.994 149.201C307.855 149.201 310.675 148.847 313.458 148.139C316.251 147.42 318.737 146.3 320.921 144.785C323.099 143.274 324.882 141.363 326.258 139.055C327.644 136.753 328.342 134.003 328.342 130.805Z" fill="#F4F4F4"/>
<path d="M397.246 129.535L401.082 139.972L427.37 73.9512H443.86L400.123 173.41C399.107 175.644 397.814 178.003 396.246 180.493C394.687 182.993 392.79 185.305 390.554 187.43C388.329 189.555 385.728 191.331 382.758 192.764C379.782 194.191 376.358 194.91 372.48 194.91C371.782 194.91 371.011 194.868 370.166 194.785C369.317 194.712 368.462 194.607 367.602 194.472C366.753 194.347 365.955 194.201 365.205 194.035C364.465 193.878 363.86 193.748 363.391 193.639L365.789 181.618C366.148 181.618 366.648 181.644 367.289 181.701C367.925 181.753 368.587 181.805 369.27 181.847C369.963 181.899 370.63 181.941 371.271 181.972C371.907 181.998 372.418 182.014 372.793 182.014C374.805 182.014 376.65 181.456 378.317 180.347C379.996 179.232 381.486 177.91 382.779 176.368C384.082 174.826 385.202 173.227 386.135 171.576C387.063 169.936 387.792 168.581 388.324 167.514L394.223 156.055L357.095 73.9512H373.585L397.246 129.535Z" fill="#F4F4F4"/>
<path d="M520.748 137.264C520.748 135.514 520.399 133.941 519.706 132.534C519.023 131.118 517.856 129.826 516.203 128.659C514.562 127.493 512.388 126.425 509.678 125.451C506.968 124.467 503.596 123.571 499.568 122.764C494.617 121.764 490.108 120.55 486.038 119.118C481.978 117.675 478.502 115.961 475.615 113.972C472.722 111.987 470.476 109.654 468.881 106.972C467.281 104.295 466.484 101.175 466.484 97.6177C466.484 94.1073 467.302 90.826 468.944 87.7843C470.596 84.7323 472.91 82.0656 475.886 79.7843C478.856 77.4927 482.4 75.6906 486.518 74.3677C490.645 73.0343 495.174 72.3677 500.11 72.3677C505.431 72.3677 510.21 73.0656 514.452 74.451C518.705 75.826 522.317 77.7375 525.293 80.1802C528.263 82.6125 530.556 85.4614 532.172 88.7218C533.798 91.9875 534.611 95.5083 534.611 99.2843H519.872C519.872 97.425 519.393 95.6073 518.434 93.826C517.486 92.05 516.162 90.4718 514.452 89.0968C512.753 87.7114 510.7 86.5916 508.282 85.7427C505.863 84.8989 503.138 84.4718 500.11 84.4718C496.983 84.4718 494.236 84.8208 491.875 85.5135C489.509 86.1958 487.544 87.1177 485.976 88.2843C484.402 89.451 483.213 90.8052 482.411 92.3468C481.619 93.8885 481.223 95.4875 481.223 97.1385C481.223 98.8364 481.54 100.347 482.182 101.68C482.817 103.003 483.922 104.196 485.496 105.264C487.065 106.321 489.165 107.274 491.792 108.118C494.419 108.967 497.754 109.795 501.798 110.597C507.104 111.711 511.857 112.993 516.058 114.451C520.253 115.909 523.781 117.659 526.648 119.701C529.525 121.743 531.713 124.118 533.214 126.826C534.726 129.534 535.487 132.67 535.487 136.222C535.487 140.055 534.622 143.545 532.902 146.68C531.177 149.805 528.774 152.487 525.689 154.722C522.614 156.946 518.924 158.67 514.619 159.889C510.309 161.097 505.603 161.701 500.506 161.701C494.669 161.701 489.462 160.92 484.892 159.368C480.331 157.8 476.469 155.732 473.301 153.159C470.142 150.576 467.724 147.592 466.046 144.201C464.378 140.8 463.544 137.264 463.544 133.597H478.283C478.492 136.628 479.294 139.175 480.701 141.243C482.119 143.316 483.875 144.987 485.976 146.264C488.071 147.545 490.395 148.446 492.938 148.972C495.492 149.503 498.015 149.764 500.506 149.764C506.729 149.764 511.643 148.628 515.244 146.347C518.856 144.055 520.691 141.029 520.748 137.264Z" fill="#F4F4F4"/>
<path d="M596.281 53.0969V73.9511H629.115V85.3469H596.281V132.159C596.281 135.508 596.703 138.274 597.553 140.451C598.413 142.633 599.585 144.378 601.076 145.68C602.561 146.972 604.271 147.883 606.204 148.409C608.148 148.941 610.207 149.201 612.375 149.201C613.97 149.201 615.617 149.113 617.316 148.93C619.025 148.753 620.682 148.529 622.298 148.264C623.924 147.988 625.435 147.701 626.843 147.409C628.245 147.118 629.396 146.868 630.303 146.659L632.388 157.097C631.163 157.837 629.678 158.488 627.927 159.055C626.176 159.613 624.258 160.087 622.173 160.472C620.099 160.873 617.91 161.18 615.606 161.389C613.297 161.597 611.004 161.701 608.727 161.701C604.891 161.701 601.311 161.159 597.991 160.076C594.681 158.993 591.804 157.274 589.36 154.909C586.911 152.55 584.982 149.503 583.565 145.764C582.158 142.014 581.459 137.482 581.459 132.159V85.3469H558.84V73.9511H581.459V53.0969H596.281Z" fill="#F4F4F4"/>
<path d="M697.394 161.701C691.332 161.701 685.766 160.665 680.695 158.597C675.619 156.529 671.278 153.639 667.666 149.93C664.049 146.211 661.235 141.8 659.223 136.701C657.206 131.607 656.2 126.055 656.2 120.055V116.722C656.2 109.764 657.31 103.545 659.536 98.0552C661.772 92.5552 664.732 87.9093 668.417 84.1177C672.112 80.3156 676.307 77.4041 681.008 75.3885C685.719 73.3781 690.54 72.3677 695.476 72.3677C701.698 72.3677 707.134 73.4458 711.778 75.5968C716.416 77.7375 720.283 80.7114 723.369 84.5135C726.454 88.3052 728.752 92.7791 730.269 97.9302C731.78 103.086 732.541 108.654 732.541 114.639V121.264H670.939C671.106 125.196 671.861 128.883 673.211 132.326C674.572 135.774 676.432 138.784 678.798 141.368C681.159 143.941 683.989 145.967 687.283 147.451C690.577 148.941 694.209 149.68 698.186 149.68C703.45 149.68 708.13 148.628 712.216 146.514C716.302 144.389 719.7 141.571 722.41 138.055L731.415 145.076C729.982 147.243 728.189 149.326 726.037 151.326C723.879 153.316 721.393 155.076 718.574 156.618C715.765 158.159 712.58 159.389 709.026 160.305C705.466 161.232 701.589 161.701 697.394 161.701ZM695.476 84.4718C692.5 84.4718 689.685 85.0239 687.033 86.1177C684.375 87.201 681.988 88.7948 679.861 90.8885C677.735 92.9875 675.942 95.5656 674.483 98.6177C673.024 101.659 672.002 105.175 671.418 109.159H717.803V108.034C717.636 105.175 717.083 102.342 716.156 99.5343C715.223 96.7166 713.852 94.1958 712.049 91.9718C710.24 89.7375 707.968 87.9302 705.232 86.5552C702.506 85.1698 699.254 84.4718 695.476 84.4718Z" fill="#F4F4F4"/>
<path d="M764.004 73.951L764.401 82.076C766.152 79.05 768.445 76.6906 771.28 74.9927C774.126 73.3 777.576 72.425 781.62 72.3677C789.526 72.3677 794.806 75.4458 797.463 81.5968C799.173 78.8364 801.414 76.6177 804.197 74.951C806.99 73.2843 810.378 72.425 814.37 72.3677C820.676 72.3677 825.534 74.3052 828.942 78.1802C832.345 82.0552 834.05 87.925 834.05 95.7843V160.118H820.02V95.6177C820.02 88.3989 816.695 84.8156 810.055 84.8677C808.304 84.8677 806.787 85.1125 805.51 85.5968C804.244 86.0708 803.181 86.7166 802.321 87.5343C801.471 88.3573 800.809 89.3156 800.34 90.4093C799.866 91.4927 799.548 92.6177 799.381 93.7843V160.118H785.352V95.5343C785.352 92.0916 784.58 89.4406 783.038 87.576C781.505 85.7166 779.066 84.8156 775.72 84.8677C772.635 84.8677 770.243 85.4823 768.549 86.701C766.85 87.925 765.599 89.5448 764.797 91.5552V160.118H750.767V73.951H764.004Z" fill="#F4F4F4"/>
<path d="M1013.8 130.805C1013.8 127.253 1012.99 124.258 1011.36 121.826C1009.74 119.383 1007.65 117.326 1005.11 115.66C1002.56 113.982 999.761 112.587 996.707 111.472C993.648 110.347 990.708 109.337 987.889 108.43C983.803 107.113 979.644 105.524 975.422 103.66C971.196 101.8 967.344 99.5137 963.873 96.8053C960.397 94.097 957.557 90.9043 955.347 87.222C953.137 83.5293 952.032 79.1908 952.032 74.2012C952.032 69.2012 953.137 64.7428 955.347 60.8262C957.557 56.8991 960.439 53.5762 963.998 50.8678C967.553 48.1595 971.592 46.1074 976.11 44.7012C980.624 43.2845 985.163 42.5762 989.723 42.5762C994.768 42.5762 999.626 43.4199 1004.3 45.097C1008.98 46.7637 1013.12 49.1126 1016.74 52.1387C1020.35 55.1699 1023.24 58.8366 1025.41 63.1387C1027.59 67.4303 1028.74 72.2324 1028.85 77.5345H1013.72C1013.29 74.2012 1012.46 71.1699 1011.24 68.4303C1010.01 65.696 1008.39 63.347 1006.38 61.3887C1004.36 59.4199 1001.96 57.8887 999.167 56.8053C996.384 55.7116 993.236 55.1595 989.723 55.1595C986.914 55.1595 984.168 55.5658 981.489 56.3678C978.805 57.1595 976.413 58.3574 974.318 59.9512C972.217 61.5345 970.544 63.5033 969.293 65.847C968.043 68.1803 967.417 70.8835 967.417 73.9512C967.469 77.3001 968.319 80.1335 969.961 82.4512C971.613 84.7585 973.697 86.7116 976.215 88.3053C978.742 89.8887 981.478 91.2168 984.428 92.2845C987.373 93.3418 990.151 94.2637 992.767 95.0553C995.628 95.9616 998.521 96.9876 1001.44 98.1387C1004.36 99.2793 1007.17 100.592 1009.88 102.076C1012.59 103.566 1015.11 105.238 1017.45 107.097C1019.79 108.946 1021.85 111.05 1023.6 113.41C1025.35 115.774 1026.71 118.378 1027.69 121.222C1028.67 124.055 1029.17 127.201 1029.17 130.66C1029.17 135.857 1028.01 140.389 1025.7 144.264C1023.4 148.139 1020.41 151.368 1016.74 153.951C1013.07 156.524 1008.92 158.462 1004.3 159.764C999.678 161.055 995.065 161.701 990.453 161.701C985.293 161.701 980.243 160.91 975.297 159.326C970.362 157.732 965.942 155.43 962.039 152.43C958.13 149.43 954.956 145.774 952.512 141.451C950.062 137.118 948.765 132.196 948.613 126.68H963.665C964.15 130.295 965.135 133.493 966.625 136.285C968.11 139.066 970.023 141.425 972.358 143.368C974.693 145.3 977.387 146.758 980.446 147.743C983.501 148.717 986.836 149.201 990.453 149.201C993.314 149.201 996.134 148.847 998.917 148.139C1001.71 147.42 1004.2 146.3 1006.38 144.785C1008.56 143.274 1010.34 141.363 1011.72 139.055C1013.1 136.753 1013.8 134.003 1013.8 130.805Z" fill="#F4F4F4"/>
<path d="M1085.89 53.0969V73.9511H1118.73V85.3469H1085.89V132.159C1085.89 135.508 1086.32 138.274 1087.17 140.451C1088.03 142.633 1089.2 144.378 1090.69 145.68C1092.17 146.972 1093.88 147.883 1095.82 148.409C1097.76 148.941 1099.82 149.201 1101.99 149.201C1103.58 149.201 1105.23 149.113 1106.93 148.93C1108.64 148.753 1110.3 148.529 1111.91 148.264C1113.54 147.988 1115.05 147.701 1116.46 147.409C1117.86 147.118 1119.01 146.868 1119.92 146.659L1122 157.097C1120.78 157.837 1119.29 158.488 1117.54 159.055C1115.79 159.613 1113.87 160.087 1111.79 160.472C1109.71 160.873 1107.52 161.18 1105.22 161.389C1102.91 161.597 1100.62 161.701 1098.34 161.701C1094.5 161.701 1090.92 161.159 1087.6 160.076C1084.29 158.993 1081.42 157.274 1078.97 154.909C1076.52 152.55 1074.6 149.503 1073.18 145.764C1071.77 142.014 1071.07 137.482 1071.07 132.159V85.3469H1048.45V73.9511H1071.07V53.0969H1085.89Z" fill="#F4F4F4"/>
<path d="M1205.58 160.118C1205 159.008 1204.53 157.618 1204.18 155.951C1203.84 154.274 1203.59 152.529 1203.43 150.722C1201.93 152.211 1200.27 153.618 1198.43 154.951C1196.61 156.274 1194.6 157.441 1192.39 158.451C1190.18 159.451 1187.82 160.243 1185.32 160.826C1182.83 161.409 1180.18 161.701 1177.38 161.701C1172.8 161.701 1168.67 161.04 1164.97 159.722C1161.29 158.389 1158.16 156.597 1155.57 154.347C1153 152.086 1151 149.404 1149.59 146.305C1148.18 143.196 1147.48 139.836 1147.48 136.222C1147.48 131.503 1148.43 127.362 1150.32 123.805C1152.2 120.253 1154.87 117.295 1158.32 114.93C1161.78 112.571 1165.94 110.805 1170.79 109.639C1175.65 108.472 1181.09 107.889 1187.09 107.889H1203.18V101.118C1203.18 98.5083 1202.7 96.1698 1201.75 94.0968C1200.79 92.0291 1199.43 90.2635 1197.68 88.8052C1195.93 87.3468 1193.79 86.2218 1191.26 85.4302C1188.74 84.6281 1185.92 84.2218 1182.8 84.2218C1179.86 84.2218 1177.24 84.5968 1174.94 85.3468C1172.63 86.0864 1170.67 87.0656 1169.08 88.2843C1167.48 89.5083 1166.24 90.9614 1165.37 92.6385C1164.49 94.3052 1164.05 96.0448 1164.05 97.8468H1149.23C1149.28 94.7114 1150.1 91.6333 1151.67 88.6177C1153.24 85.5916 1155.5 82.8677 1158.45 80.451C1161.39 78.0343 1164.98 76.0864 1169.2 74.5968C1173.43 73.1125 1178.22 72.3677 1183.59 72.3677C1188.47 72.3677 1193 72.9666 1197.2 74.1593C1201.4 75.3573 1205.02 77.1593 1208.08 79.576C1211.14 81.9927 1213.55 85.0083 1215.3 88.6177C1217.05 92.2323 1217.92 96.4458 1217.92 101.264V141.326C1217.92 144.191 1218.18 147.232 1218.72 150.451C1219.26 153.659 1220 156.461 1220.95 158.847V160.118H1205.58ZM1179.52 148.889C1182.38 148.889 1185.07 148.524 1187.57 147.784C1190.07 147.034 1192.34 146.05 1194.39 144.826C1196.43 143.607 1198.19 142.217 1199.68 140.659C1201.17 139.092 1202.33 137.451 1203.18 135.743V118.305H1189.49C1180.87 118.305 1174.17 119.586 1169.39 122.139C1164.61 124.68 1162.22 128.691 1162.22 134.159C1162.22 136.284 1162.58 138.253 1163.3 140.055C1164.02 141.862 1165.1 143.42 1166.54 144.722C1167.96 146.014 1169.77 147.034 1171.93 147.784C1174.11 148.524 1176.65 148.889 1179.52 148.889Z" fill="#F4F4F4"/>
<path d="M1281.74 53.0969V73.9511H1314.57V85.3469H1281.74V132.159C1281.74 135.508 1282.16 138.274 1283.01 140.451C1283.87 142.633 1285.04 144.378 1286.53 145.68C1288.02 146.972 1289.73 147.883 1291.66 148.409C1293.61 148.941 1295.67 149.201 1297.83 149.201C1299.43 149.201 1301.08 149.113 1302.77 148.93C1304.48 148.753 1306.14 148.529 1307.76 148.264C1309.38 147.988 1310.89 147.701 1312.3 147.409C1313.7 147.118 1314.86 146.868 1315.76 146.659L1317.85 157.097C1316.62 157.837 1315.14 158.488 1313.39 159.055C1311.63 159.613 1309.72 160.087 1307.63 160.472C1305.56 160.873 1303.37 161.18 1301.07 161.389C1298.76 161.597 1296.46 161.701 1294.19 161.701C1290.35 161.701 1286.77 161.159 1283.45 160.076C1280.14 158.993 1277.26 157.274 1274.82 154.909C1272.37 152.55 1270.44 149.503 1269.02 145.764C1267.62 142.014 1266.92 137.482 1266.92 132.159V85.3469H1244.3V73.9511H1266.92V53.0969H1281.74Z" fill="#F4F4F4"/>
<path d="M1382.85 161.701C1376.79 161.701 1371.23 160.665 1366.15 158.597C1361.08 156.529 1356.74 153.639 1353.12 149.93C1349.51 146.211 1346.69 141.8 1344.68 136.701C1342.67 131.607 1341.66 126.055 1341.66 120.055V116.722C1341.66 109.764 1342.77 103.545 1344.99 98.0552C1347.23 92.5552 1350.19 87.9093 1353.88 84.1177C1357.57 80.3156 1361.77 77.4041 1366.47 75.3885C1371.18 73.3781 1376 72.3677 1380.93 72.3677C1387.16 72.3677 1392.59 73.4458 1397.24 75.5968C1401.88 77.7375 1405.74 80.7114 1408.83 84.5135C1411.91 88.3052 1414.21 92.7791 1415.73 97.9302C1417.24 103.086 1418 108.654 1418 114.639V121.264H1356.4C1356.56 125.196 1357.32 128.883 1358.67 132.326C1360.03 135.774 1361.89 138.784 1364.26 141.368C1366.62 143.941 1369.45 145.967 1372.74 147.451C1376.04 148.941 1379.67 149.68 1383.64 149.68C1388.91 149.68 1393.59 148.628 1397.67 146.514C1401.76 144.389 1405.16 141.571 1407.87 138.055L1416.87 145.076C1415.44 147.243 1413.65 149.326 1411.5 151.326C1409.34 153.316 1406.85 155.076 1404.03 156.618C1401.22 158.159 1398.04 159.389 1394.48 160.305C1390.93 161.232 1387.05 161.701 1382.85 161.701ZM1380.93 84.4718C1377.96 84.4718 1375.14 85.0239 1372.49 86.1177C1369.83 87.201 1367.45 88.7948 1365.32 90.8885C1363.19 92.9875 1361.4 95.5656 1359.94 98.6177C1358.48 101.659 1357.46 105.175 1356.88 109.159H1403.26V108.034C1403.09 105.175 1402.54 102.342 1401.61 99.5343C1400.68 96.7166 1399.31 94.1958 1397.51 91.9718C1395.7 89.7375 1393.43 87.9302 1390.69 86.5552C1387.97 85.1698 1384.71 84.4718 1380.93 84.4718Z" fill="#F4F4F4"/>
<mask id="mask0_19_69" style="mask-type:luminance" maskUnits="userSpaceOnUse" x="0" y="0" width="219" height="219">
<path d="M0 0H218.141V219H0V0Z" fill="white"/>
</mask>
<g mask="url(#mask0_19_69)">
<path d="M217.625 111.912L172.132 81.7553L215.884 96.3803C215.988 96.4115 216.087 96.4271 216.191 96.4271C216.431 96.4271 216.645 96.3542 216.827 96.198C217.01 96.0417 217.124 95.849 217.161 95.6094C217.197 95.3751 217.156 95.1511 217.031 94.948C216.911 94.7396 216.733 94.599 216.504 94.5261L171.459 79.5H212.569C212.835 79.5 213.064 79.4063 213.257 79.2136C213.445 79.0209 213.539 78.7917 213.539 78.5261C213.539 78.2553 213.445 78.0261 213.257 77.8334C213.064 77.6459 212.835 77.5521 212.569 77.5521H170.579L206.649 63.2969C206.899 63.198 207.076 63.0261 207.18 62.7813C207.285 62.5313 207.29 62.2865 207.191 62.0365C207.092 61.7865 206.92 61.6094 206.675 61.5C206.43 61.3959 206.185 61.3907 205.935 61.4844L169.656 75.8178L198.206 48.1667C198.414 47.9792 198.524 47.75 198.534 47.474C198.545 47.1928 198.451 46.9532 198.258 46.7553C198.065 46.5573 197.831 46.4584 197.554 46.4584C197.273 46.4584 197.044 46.5625 196.851 46.7657L168.624 74.0886L187.381 34.5261C187.48 34.2865 187.48 34.0469 187.386 33.8021C187.293 33.5625 187.131 33.3855 186.897 33.2761C186.662 33.1667 186.422 33.1511 186.177 33.2292C185.932 33.3125 185.745 33.4636 185.625 33.6928L167.337 72.2605L174.461 22.8386C174.503 22.5678 174.441 22.3282 174.279 22.1094C174.112 21.8907 173.899 21.7605 173.628 21.724C173.362 21.6875 173.117 21.75 172.898 21.9115C172.679 22.073 172.554 22.2917 172.517 22.5625L165.607 70.5261L159.822 13.4063C159.796 13.1407 159.676 12.9167 159.467 12.7448C159.259 12.5782 159.019 12.5053 158.753 12.5313C158.482 12.5573 158.263 12.6771 158.091 12.8855C157.919 13.0938 157.847 13.3334 157.878 13.6042L163.532 69.1042L143.853 6.47921C143.785 6.20838 143.629 6.00526 143.384 5.86984C143.139 5.73442 142.884 5.70838 142.618 5.79171C142.352 5.87505 142.159 6.04171 142.034 6.29171C141.914 6.54692 141.904 6.80213 141.998 7.06255L161.187 68.1459L126.999 2.20317C126.873 1.96359 126.686 1.80213 126.425 1.724C126.17 1.64067 125.925 1.6615 125.685 1.7865C125.445 1.9115 125.284 2.10421 125.206 2.35942C125.122 2.61463 125.143 2.86463 125.268 3.10421L158.774 67.7344L109.68 0.697963C109.529 0.45838 109.315 0.317755 109.039 0.265671C108.763 0.213589 108.513 0.27088 108.289 0.437546C108.059 0.604213 107.929 0.822964 107.898 1.10421C107.861 1.38546 107.934 1.63026 108.117 1.849L158.248 70.2813L87.3792 2.86463C87.1864 2.68234 86.9519 2.5938 86.6861 2.599C86.4151 2.60421 86.191 2.70838 86.0033 2.9063C85.8209 3.099 85.7323 3.33338 85.7375 3.599C85.7428 3.86463 85.847 4.0938 86.0398 4.2813L153.693 68.6511L70.7018 7.68234C70.4881 7.51046 70.2432 7.44275 69.9722 7.48442C69.696 7.52088 69.4823 7.65109 69.3155 7.86984C69.1539 8.0938 69.0966 8.33859 69.1435 8.60942C69.1852 8.88026 69.3207 9.0938 69.55 9.25005L151.801 69.6875L54.999 15.0886C54.7645 14.9532 54.5143 14.9219 54.2537 14.9948C53.9931 15.0625 53.7951 15.2188 53.6596 15.4532C53.5241 15.6875 53.4928 15.9375 53.5658 16.198C53.6335 16.4584 53.7899 16.6563 54.0244 16.7917L150.201 71.0365L40.6929 24.9063C40.4427 24.8021 40.1978 24.7969 39.9476 24.9011C39.6975 25 39.5203 25.1771 39.416 25.4271C39.3118 25.6719 39.3066 25.9219 39.4108 26.1719C39.5098 26.4219 39.687 26.599 39.932 26.7032L148.929 72.599L28.1379 36.875C27.8773 36.7813 27.622 36.7969 27.3718 36.9219C27.1216 37.0521 26.9549 37.25 26.8767 37.5157C26.7985 37.7865 26.8298 38.0417 26.9705 38.2865C27.1112 38.5261 27.3197 38.6771 27.5907 38.7448L147.897 74.323L17.6468 50.6875C17.381 50.6407 17.1412 50.6928 16.9171 50.849C16.6983 51 16.5627 51.2136 16.5158 51.474C16.4689 51.7396 16.5211 51.9844 16.6722 52.2084C16.8285 52.4271 17.037 52.5625 17.3028 52.6094L147.163 76.1823L9.49048 65.9948C9.21947 65.974 8.98495 66.0521 8.78169 66.2292C8.57322 66.4011 8.46378 66.625 8.44293 66.8959C8.42208 67.1667 8.50026 67.4011 8.67746 67.6042C8.85466 67.8125 9.07355 67.9219 9.34455 67.9428L146.699 78.1042L3.89312 82.4011C3.62212 82.4011 3.39801 82.5 3.21039 82.6928C3.02277 82.8907 2.92896 83.1198 2.93417 83.3907C2.93938 83.6563 3.03841 83.8855 3.23124 84.073C3.42407 84.2605 3.65339 84.3542 3.92439 84.349H3.95045L146.553 80.0573L0.932882 99.4896C0.667086 99.5053 0.442983 99.6146 0.265786 99.8178C0.0885874 100.021 0.0052007 100.255 0.0208361 100.526C0.0416829 100.797 0.151128 101.021 0.354384 101.198C0.557641 101.375 0.792166 101.453 1.05796 101.438H1.18826L146.584 82.0313L0.750473 116.818C0.515947 116.88 0.333538 117.016 0.198034 117.214C0.0625303 117.412 0.00520036 117.635 0.0364712 117.875C0.0625293 118.115 0.166763 118.318 0.343961 118.479C0.521158 118.641 0.729626 118.729 0.974576 118.734C1.04754 118.734 1.1205 118.724 1.19868 118.703L146.912 83.9323L3.31984 133.958C3.09574 134.037 2.92896 134.177 2.80909 134.38C2.68922 134.583 2.65274 134.802 2.68922 135.037C2.73092 135.271 2.84036 135.464 3.01756 135.615C3.19476 135.766 3.40322 135.844 3.63775 135.849C3.75241 135.849 3.85664 135.828 3.96088 135.792L147.47 85.8073L8.57844 150.453C8.37518 150.552 8.21883 150.703 8.11981 150.906C8.02079 151.115 7.99472 151.328 8.04163 151.547C8.09375 151.771 8.20841 151.953 8.3856 152.099C8.5628 152.24 8.76606 152.313 8.99537 152.313C9.13609 152.313 9.27159 152.281 9.40188 152.219L148.262 87.5886L16.396 165.901C16.2084 166.01 16.0728 166.167 15.9895 166.37C15.9113 166.573 15.8957 166.781 15.953 166.99C16.0103 167.203 16.125 167.375 16.297 167.51C16.4689 167.641 16.667 167.714 16.8807 167.714C17.0579 167.714 17.2194 167.667 17.3706 167.578L149.268 89.2553L26.5692 179.912C26.3972 180.037 26.2826 180.203 26.22 180.401C26.1523 180.604 26.1575 180.802 26.22 181.005C26.2878 181.203 26.4076 181.365 26.5744 181.49C26.7464 181.609 26.9392 181.672 27.1477 181.672C27.3718 181.672 27.5698 181.604 27.7418 181.464L150.493 90.8073L38.8271 192.089C38.4883 192.385 38.3997 192.745 38.5613 193.167C38.7229 193.589 39.0304 193.797 39.4786 193.792C39.7287 193.792 39.9476 193.708 40.13 193.542L151.853 92.1563L52.8622 202.167C52.685 202.37 52.6016 202.604 52.6172 202.87C52.6329 203.141 52.7371 203.365 52.9404 203.542C53.1228 203.708 53.3417 203.797 53.5918 203.797C53.8785 203.792 54.1182 203.682 54.311 203.469L153.427 93.3178L68.3201 209.88C68.0855 210.198 68.0595 210.537 68.2419 210.896C68.4191 211.25 68.7057 211.427 69.107 211.427C69.4354 211.427 69.7012 211.297 69.894 211.026L155.131 94.3073L84.8047 215.021C84.6691 215.25 84.6327 215.5 84.7004 215.76C84.7734 216.016 84.9193 216.214 85.1538 216.349C85.305 216.443 85.4665 216.484 85.6385 216.484C86.0138 216.484 86.2952 216.318 86.4828 215.995L156.955 95.0313L101.878 217.469C101.769 217.714 101.764 217.958 101.857 218.214C101.951 218.464 102.123 218.641 102.368 218.755C102.493 218.813 102.629 218.839 102.764 218.844C103.186 218.839 103.478 218.651 103.65 218.266L158.884 95.5001L119.129 217.162C119.045 217.417 119.066 217.662 119.186 217.901C119.311 218.141 119.499 218.302 119.754 218.391C119.848 218.422 119.952 218.443 120.057 218.443C120.265 218.443 120.453 218.38 120.625 218.255C120.797 218.13 120.911 217.969 120.979 217.771L160.89 95.6771L136.114 214.115C136.062 214.38 136.109 214.62 136.254 214.849C136.4 215.073 136.604 215.214 136.869 215.271C136.937 215.276 137.005 215.276 137.068 215.271C137.297 215.266 137.505 215.193 137.682 215.052C137.86 214.906 137.969 214.719 138.016 214.495L162.907 95.5157L152.369 208.417C152.343 208.682 152.416 208.922 152.588 209.125C152.76 209.333 152.974 209.448 153.245 209.474H153.333C153.589 209.474 153.807 209.391 153.995 209.224C154.177 209.052 154.287 208.844 154.308 208.594L164.903 95.0261L167.514 200.172C167.519 200.432 167.618 200.656 167.806 200.844C167.994 201.026 168.223 201.12 168.484 201.12H168.51C168.775 201.115 169 201.016 169.182 200.828C169.37 200.635 169.458 200.412 169.458 200.146L166.826 94.1823L181.148 189.656C181.184 189.896 181.294 190.099 181.482 190.255C181.664 190.417 181.878 190.49 182.123 190.49H182.269C182.534 190.448 182.748 190.323 182.904 190.104C183.066 189.891 183.128 189.651 183.087 189.385L168.598 92.9011L192.932 177.089C192.994 177.292 193.109 177.464 193.286 177.594C193.458 177.724 193.651 177.787 193.87 177.787C193.958 177.787 194.052 177.776 194.141 177.75C194.396 177.672 194.589 177.521 194.719 177.281C194.85 177.047 194.876 176.802 194.803 176.547L170.146 91.2501L202.573 162.828C202.745 163.214 203.042 163.406 203.459 163.406C203.626 163.406 203.782 163.365 203.928 163.287C204.074 163.208 204.189 163.099 204.277 162.958C204.371 162.818 204.418 162.667 204.434 162.5C204.444 162.333 204.413 162.177 204.345 162.026L171.355 89.1615L209.828 147.162C210.021 147.448 210.292 147.594 210.641 147.594C210.834 147.594 211.011 147.542 211.173 147.432C211.397 147.287 211.537 147.078 211.59 146.813C211.642 146.552 211.595 146.307 211.449 146.083L172.127 86.8021L214.518 130.62C214.711 130.818 214.946 130.917 215.217 130.917C215.649 130.912 215.946 130.714 216.113 130.318C216.28 129.922 216.212 129.573 215.915 129.26L172.387 84.2709L216.546 113.542C216.713 113.646 216.89 113.698 217.083 113.698C217.296 113.698 217.489 113.635 217.661 113.505C217.833 113.38 217.948 113.214 218.01 113.01C218.073 112.802 218.068 112.599 218 112.396C217.927 112.198 217.802 112.037 217.625 111.917V111.912Z" fill="white"/>
</g>
</svg>
