<svg width="219" height="219" viewBox="0 0 219 219" fill="none" xmlns="http://www.w3.org/2000/svg">
<mask id="mask0_18_68" style="mask-type:luminance" maskUnits="userSpaceOnUse" x="0" y="0" width="219" height="219">
<path d="M0 0H218.141V219H0V0Z" fill="white"/>
</mask>
<g mask="url(#mask0_18_68)">
<path d="M217.625 111.912L172.132 81.7553L215.884 96.3803C215.988 96.4115 216.087 96.4271 216.191 96.4271C216.431 96.4271 216.645 96.3542 216.827 96.198C217.01 96.0417 217.124 95.849 217.161 95.6094C217.197 95.3751 217.156 95.1511 217.031 94.948C216.911 94.7396 216.733 94.599 216.504 94.5261L171.459 79.5H212.569C212.835 79.5 213.064 79.4063 213.257 79.2136C213.445 79.0209 213.539 78.7917 213.539 78.5261C213.539 78.2553 213.445 78.0261 213.257 77.8334C213.064 77.6459 212.835 77.5521 212.569 77.5521H170.579L206.649 63.2969C206.899 63.198 207.076 63.0261 207.18 62.7813C207.285 62.5313 207.29 62.2865 207.191 62.0365C207.092 61.7865 206.92 61.6094 206.675 61.5C206.43 61.3959 206.185 61.3907 205.935 61.4844L169.656 75.8178L198.206 48.1667C198.414 47.9792 198.524 47.75 198.534 47.474C198.545 47.1928 198.451 46.9532 198.258 46.7553C198.065 46.5573 197.831 46.4584 197.554 46.4584C197.273 46.4584 197.044 46.5625 196.851 46.7657L168.624 74.0886L187.381 34.5261C187.48 34.2865 187.48 34.0469 187.386 33.8021C187.293 33.5625 187.131 33.3855 186.897 33.2761C186.662 33.1667 186.422 33.1511 186.177 33.2292C185.932 33.3125 185.745 33.4636 185.625 33.6928L167.337 72.2605L174.461 22.8386C174.503 22.5678 174.441 22.3282 174.279 22.1094C174.112 21.8907 173.899 21.7605 173.628 21.724C173.362 21.6875 173.117 21.75 172.898 21.9115C172.679 22.073 172.554 22.2917 172.517 22.5625L165.607 70.5261L159.822 13.4063C159.796 13.1407 159.676 12.9167 159.467 12.7448C159.259 12.5782 159.019 12.5053 158.753 12.5313C158.482 12.5573 158.263 12.6771 158.091 12.8855C157.919 13.0938 157.847 13.3334 157.878 13.6042L163.532 69.1042L143.853 6.47921C143.785 6.20838 143.629 6.00526 143.384 5.86984C143.139 5.73442 142.884 5.70838 142.618 5.79171C142.352 5.87505 142.159 6.04171 142.034 6.29171C141.914 6.54692 141.904 6.80213 141.998 7.06255L161.187 68.1459L126.999 2.20317C126.873 1.96359 126.686 1.80213 126.425 1.724C126.17 1.64067 125.925 1.6615 125.685 1.7865C125.445 1.9115 125.284 2.10421 125.206 2.35942C125.122 2.61463 125.143 2.86463 125.268 3.10421L158.774 67.7344L109.68 0.697963C109.529 0.45838 109.315 0.317755 109.039 0.265671C108.763 0.213589 108.513 0.27088 108.289 0.437546C108.059 0.604213 107.929 0.822964 107.898 1.10421C107.861 1.38546 107.934 1.63026 108.117 1.849L158.248 70.2813L87.3792 2.86463C87.1864 2.68234 86.9519 2.5938 86.6861 2.599C86.4151 2.60421 86.191 2.70838 86.0033 2.9063C85.8209 3.099 85.7323 3.33338 85.7375 3.599C85.7428 3.86463 85.847 4.0938 86.0398 4.2813L153.693 68.6511L70.7018 7.68234C70.4881 7.51046 70.2432 7.44275 69.9722 7.48442C69.696 7.52088 69.4823 7.65109 69.3155 7.86984C69.1539 8.0938 69.0966 8.33859 69.1435 8.60942C69.1852 8.88026 69.3207 9.0938 69.55 9.25005L151.801 69.6875L54.999 15.0886C54.7645 14.9532 54.5143 14.9219 54.2537 14.9948C53.9931 15.0625 53.7951 15.2188 53.6596 15.4532C53.5241 15.6875 53.4928 15.9375 53.5658 16.198C53.6335 16.4584 53.7899 16.6563 54.0244 16.7917L150.201 71.0365L40.6929 24.9063C40.4427 24.8021 40.1978 24.7969 39.9476 24.9011C39.6975 25 39.5203 25.1771 39.416 25.4271C39.3118 25.6719 39.3066 25.9219 39.4108 26.1719C39.5098 26.4219 39.687 26.599 39.932 26.7032L148.929 72.599L28.1379 36.875C27.8773 36.7813 27.622 36.7969 27.3718 36.9219C27.1216 37.0521 26.9549 37.25 26.8767 37.5157C26.7985 37.7865 26.8298 38.0417 26.9705 38.2865C27.1112 38.5261 27.3197 38.6771 27.5907 38.7448L147.897 74.323L17.6468 50.6875C17.381 50.6407 17.1412 50.6928 16.9171 50.849C16.6983 51 16.5627 51.2136 16.5158 51.474C16.4689 51.7396 16.5211 51.9844 16.6722 52.2084C16.8285 52.4271 17.037 52.5625 17.3028 52.6094L147.163 76.1823L9.49048 65.9948C9.21947 65.974 8.98495 66.0521 8.78169 66.2292C8.57322 66.4011 8.46378 66.625 8.44293 66.8959C8.42208 67.1667 8.50026 67.4011 8.67746 67.6042C8.85466 67.8125 9.07355 67.9219 9.34455 67.9428L146.699 78.1042L3.89312 82.4011C3.62212 82.4011 3.39801 82.5 3.21039 82.6928C3.02277 82.8907 2.92896 83.1198 2.93417 83.3907C2.93938 83.6563 3.03841 83.8855 3.23124 84.073C3.42407 84.2605 3.65339 84.3542 3.92439 84.349H3.95045L146.553 80.0573L0.932882 99.4896C0.667086 99.5053 0.442983 99.6146 0.265786 99.8178C0.0885874 100.021 0.0052007 100.255 0.0208361 100.526C0.0416829 100.797 0.151128 101.021 0.354384 101.198C0.557641 101.375 0.792166 101.453 1.05796 101.438H1.18826L146.584 82.0313L0.750473 116.818C0.515947 116.88 0.333538 117.016 0.198034 117.214C0.0625303 117.412 0.00520036 117.635 0.0364712 117.875C0.0625293 118.115 0.166763 118.318 0.343961 118.479C0.521158 118.641 0.729626 118.729 0.974576 118.734C1.04754 118.734 1.1205 118.724 1.19868 118.703L146.912 83.9323L3.31984 133.958C3.09574 134.037 2.92896 134.177 2.80909 134.38C2.68922 134.583 2.65274 134.802 2.68922 135.037C2.73092 135.271 2.84036 135.464 3.01756 135.615C3.19476 135.766 3.40322 135.844 3.63775 135.849C3.75241 135.849 3.85664 135.828 3.96088 135.792L147.47 85.8073L8.57844 150.453C8.37518 150.552 8.21883 150.703 8.11981 150.906C8.02079 151.115 7.99472 151.328 8.04163 151.547C8.09375 151.771 8.20841 151.953 8.3856 152.099C8.5628 152.24 8.76606 152.313 8.99537 152.313C9.13609 152.313 9.27159 152.281 9.40188 152.219L148.262 87.5886L16.396 165.901C16.2084 166.01 16.0728 166.167 15.9895 166.37C15.9113 166.573 15.8957 166.781 15.953 166.99C16.0103 167.203 16.125 167.375 16.297 167.51C16.4689 167.641 16.667 167.714 16.8807 167.714C17.0579 167.714 17.2194 167.667 17.3706 167.578L149.268 89.2553L26.5692 179.912C26.3972 180.037 26.2826 180.203 26.22 180.401C26.1523 180.604 26.1575 180.802 26.22 181.005C26.2878 181.203 26.4076 181.365 26.5744 181.49C26.7464 181.609 26.9392 181.672 27.1477 181.672C27.3718 181.672 27.5698 181.604 27.7418 181.464L150.493 90.8073L38.8271 192.089C38.4883 192.385 38.3997 192.745 38.5613 193.167C38.7229 193.589 39.0304 193.797 39.4786 193.792C39.7287 193.792 39.9476 193.708 40.13 193.542L151.853 92.1563L52.8622 202.167C52.685 202.37 52.6016 202.604 52.6172 202.87C52.6329 203.141 52.7371 203.365 52.9404 203.542C53.1228 203.708 53.3417 203.797 53.5918 203.797C53.8785 203.792 54.1182 203.682 54.311 203.469L153.427 93.3178L68.3201 209.88C68.0855 210.198 68.0595 210.537 68.2419 210.896C68.4191 211.25 68.7057 211.427 69.107 211.427C69.4354 211.427 69.7012 211.297 69.894 211.026L155.131 94.3073L84.8047 215.021C84.6691 215.25 84.6327 215.5 84.7004 215.76C84.7734 216.016 84.9193 216.214 85.1538 216.349C85.305 216.443 85.4665 216.484 85.6385 216.484C86.0138 216.484 86.2952 216.318 86.4828 215.995L156.955 95.0313L101.878 217.469C101.769 217.714 101.764 217.958 101.857 218.214C101.951 218.464 102.123 218.641 102.368 218.755C102.493 218.813 102.629 218.839 102.764 218.844C103.186 218.839 103.478 218.651 103.65 218.266L158.884 95.5001L119.129 217.162C119.045 217.417 119.066 217.662 119.186 217.901C119.311 218.141 119.499 218.302 119.754 218.391C119.848 218.422 119.952 218.443 120.057 218.443C120.265 218.443 120.453 218.38 120.625 218.255C120.797 218.13 120.911 217.969 120.979 217.771L160.89 95.6771L136.114 214.115C136.062 214.38 136.109 214.62 136.254 214.849C136.4 215.073 136.604 215.214 136.869 215.271C136.937 215.276 137.005 215.276 137.068 215.271C137.297 215.266 137.505 215.193 137.682 215.052C137.86 214.906 137.969 214.719 138.016 214.495L162.907 95.5157L152.369 208.417C152.343 208.682 152.416 208.922 152.588 209.125C152.76 209.333 152.974 209.448 153.245 209.474H153.333C153.589 209.474 153.807 209.391 153.995 209.224C154.177 209.052 154.287 208.844 154.308 208.594L164.903 95.0261L167.514 200.172C167.519 200.432 167.618 200.656 167.806 200.844C167.994 201.026 168.223 201.12 168.484 201.12H168.51C168.775 201.115 169 201.016 169.182 200.828C169.37 200.635 169.458 200.412 169.458 200.146L166.826 94.1823L181.148 189.656C181.184 189.896 181.294 190.099 181.482 190.255C181.664 190.417 181.878 190.49 182.123 190.49H182.269C182.534 190.448 182.748 190.323 182.904 190.104C183.066 189.891 183.128 189.651 183.087 189.385L168.598 92.9011L192.932 177.089C192.994 177.292 193.109 177.464 193.286 177.594C193.458 177.724 193.651 177.787 193.87 177.787C193.958 177.787 194.052 177.776 194.141 177.75C194.396 177.672 194.589 177.521 194.719 177.281C194.85 177.047 194.876 176.802 194.803 176.547L170.146 91.2501L202.573 162.828C202.745 163.214 203.042 163.406 203.459 163.406C203.626 163.406 203.782 163.365 203.928 163.287C204.074 163.208 204.189 163.099 204.277 162.958C204.371 162.818 204.418 162.667 204.434 162.5C204.444 162.333 204.413 162.177 204.345 162.026L171.355 89.1615L209.828 147.162C210.021 147.448 210.292 147.594 210.641 147.594C210.834 147.594 211.011 147.542 211.173 147.432C211.397 147.287 211.537 147.078 211.59 146.813C211.642 146.552 211.595 146.307 211.449 146.083L172.127 86.8021L214.518 130.62C214.711 130.818 214.946 130.917 215.217 130.917C215.649 130.912 215.946 130.714 216.113 130.318C216.28 129.922 216.212 129.573 215.915 129.26L172.387 84.2709L216.546 113.542C216.713 113.646 216.89 113.698 217.083 113.698C217.296 113.698 217.489 113.635 217.661 113.505C217.833 113.38 217.948 113.214 218.01 113.01C218.073 112.802 218.068 112.599 218 112.396C217.927 112.198 217.802 112.037 217.625 111.917V111.912Z" fill="white"/>
</g>
</svg>
