<svg width="792" height="793" viewBox="0 0 792 793" fill="none" xmlns="http://www.w3.org/2000/svg">
<mask id="mask0_22_82" style="mask-type:luminance" maskUnits="userSpaceOnUse" x="0" y="0" width="792" height="793">
<path d="M0 0H792V792.661H0V0Z" fill="white"/>
</mask>
<g mask="url(#mask0_22_82)">
<mask id="mask1_22_82" style="mask-type:luminance" maskUnits="userSpaceOnUse" x="0" y="0" width="792" height="793">
<path d="M723.438 742.224L732.167 734.88L791.974 785.203L783.245 792.552L723.438 742.224ZM783.656 710.24L791.563 703.594L731.755 653.266L723.854 659.911L783.656 710.24ZM784.073 627.927L791.146 621.979L731.339 571.651L724.266 577.599L784.073 627.927ZM784.49 545.615L790.729 540.365L730.922 490.042L724.682 495.286L784.49 545.615ZM784.906 463.302L790.313 458.755L730.505 408.432L725.099 412.979L784.906 463.302ZM785.323 380.99L789.896 377.141L730.089 326.818L725.516 330.667L785.323 380.99ZM785.734 298.677L789.479 295.526L729.672 245.203L725.932 248.354L785.734 298.677ZM786.156 216.37L789.068 213.917L729.26 163.594L726.349 166.042L786.156 216.37ZM786.568 134.057L788.651 132.307L728.844 81.9791L726.766 83.7291L786.568 134.057ZM786.984 51.7447L788.234 50.6926L728.427 0.36971L727.177 1.41659L786.984 51.7447ZM677.38 792.552L686.115 785.203L626.307 734.88L617.573 742.224L677.38 792.552ZM677.797 710.24L685.698 703.594L625.891 653.266L617.99 659.911L677.797 710.24ZM678.214 627.927L685.281 621.979L625.474 571.651L618.406 577.599L678.214 627.927ZM678.63 545.615L684.87 540.365L625.063 490.042L618.823 495.286L678.63 545.615ZM679.047 463.302L684.453 458.755L624.646 408.427L619.24 412.979L679.047 463.302ZM679.464 380.99L684.037 377.141L624.229 326.818L619.656 330.667L679.464 380.99ZM679.875 298.677L683.62 295.526L623.813 245.203L620.073 248.354L679.875 298.677ZM680.292 216.37L683.203 213.917L623.396 163.594L620.484 166.042L680.292 216.37ZM680.708 134.057L682.787 132.307L622.979 81.9791L620.901 83.7291L680.708 134.057ZM681.125 51.7447L682.37 50.6926L622.563 0.364502L621.318 1.41659L681.125 51.7447ZM553.875 792.552L562.609 785.203L502.802 734.88L494.073 742.224L553.875 792.552ZM554.292 710.24L562.193 703.594L502.385 653.266L494.484 659.911L554.292 710.24ZM554.708 627.927L561.781 621.979L501.974 571.651L494.901 577.599L554.708 627.927ZM555.125 545.615L561.365 540.365L501.557 490.042L495.318 495.286L555.125 545.615ZM555.542 463.302L560.948 458.755L501.141 408.432L495.734 412.979L555.542 463.302ZM555.958 380.99L560.531 377.141L500.724 326.818L496.151 330.667L555.958 380.99ZM556.375 298.677L560.115 295.526L500.307 245.203L496.568 248.354L556.375 298.677ZM556.787 216.37L559.698 213.917L499.896 163.594L496.984 166.042L556.787 216.37ZM557.203 134.057L559.281 132.307L499.474 81.9791L497.396 83.7291L557.203 134.057ZM557.62 51.7447L558.865 50.6926L499.063 0.364502L497.813 1.41659L557.62 51.7447ZM430.375 792.552L439.104 785.203L379.297 734.88L370.568 742.224L430.375 792.552ZM430.787 710.24L438.693 703.594L378.885 653.266L370.984 659.911L430.787 710.24ZM431.203 627.927L438.276 621.979L378.469 571.651L371.396 577.599L431.203 627.927ZM431.62 545.615L437.859 540.365L378.052 490.042L371.813 495.286L431.62 545.615ZM432.037 463.302L437.443 458.755L377.635 408.427L372.229 412.979L432.037 463.302ZM432.453 380.99L437.026 377.141L377.219 326.818L372.646 330.667L432.453 380.99ZM432.87 298.677L436.609 295.526L376.807 245.203L373.063 248.354L432.87 298.677ZM433.287 216.37L436.198 213.917L376.391 163.594L373.479 166.042L433.287 216.37ZM433.698 134.057L435.781 132.307L375.974 81.9791L373.896 83.7291L433.698 134.057ZM434.115 51.7447L435.365 50.6926L375.557 0.364502L374.307 1.41659L434.115 51.7447ZM306.87 792.552L315.604 785.203L255.797 734.88L247.063 742.224L306.87 792.552ZM307.287 710.24L315.188 703.594L255.38 653.266L247.479 659.911L307.287 710.24ZM307.698 627.927L314.771 621.979L254.964 571.651L247.896 577.599L307.698 627.927ZM308.115 545.615L314.354 540.365L254.547 490.042L248.307 495.286L308.115 545.615ZM308.531 463.302L313.938 458.755L254.13 408.427L248.724 412.979L308.531 463.302ZM308.948 380.99L313.521 377.141L253.714 326.818L249.141 330.667L308.948 380.99ZM309.365 298.677L313.109 295.526L253.302 245.203L249.557 248.354L309.365 298.677ZM309.781 216.37L312.693 213.917L252.885 163.594L249.974 166.042L309.781 216.37ZM310.198 134.057L312.276 132.307L252.469 81.9791L250.391 83.7291L310.198 134.057ZM310.609 51.7447L311.859 50.6926L252.052 0.364502L250.807 1.41659L310.609 51.7447ZM183.365 792.552L192.099 785.203L132.292 734.88L123.557 742.224L183.365 792.552ZM183.781 710.24L191.682 703.594L131.875 653.266L123.974 659.911L183.781 710.24ZM184.198 627.927L191.266 621.979L131.458 571.651L124.391 577.599L184.198 627.927ZM184.609 545.615L190.849 540.365L131.042 490.042L124.807 495.286L184.609 545.615ZM185.026 463.302L190.432 458.755L130.625 408.427L125.219 412.979L185.026 463.302ZM185.443 380.99L190.016 377.141L130.214 326.818L125.635 330.667L185.443 380.99ZM185.859 298.677L189.604 295.526L129.797 245.203L126.052 248.354L185.859 298.677ZM186.276 216.37L189.188 213.917L129.38 163.594L126.469 166.042L186.276 216.37ZM186.693 134.057L188.771 132.307L128.964 81.9791L126.885 83.7291L186.693 134.057ZM187.109 51.7447L188.354 50.6926L128.547 0.364502L127.302 1.41659L187.109 51.7447ZM59.8594 792.552L68.5938 785.203L8.7865 734.88L0.052124 742.224L59.8594 792.552ZM60.2761 710.24L68.1771 703.594L8.36983 653.266L0.468791 659.911L60.2761 710.24ZM60.6928 627.927L67.7605 621.979L7.95317 571.651L0.885457 577.599L60.6928 627.927ZM61.1094 545.615L67.349 540.365L7.54171 490.042L1.30212 495.286L61.1094 545.615ZM61.5209 463.302L66.9271 458.755L7.12504 408.427L1.71879 412.979L61.5209 463.302ZM61.9375 380.99L66.5157 377.141L6.70837 326.818L2.13025 330.667L61.9375 380.99ZM62.3542 298.677L66.099 295.526L6.29171 245.203L2.54692 248.354L62.3542 298.677ZM62.7709 216.37L65.6823 213.917L5.87504 163.594L2.96358 166.042L62.7709 216.37ZM63.1875 134.057L65.2657 132.307L5.45837 81.9791L3.38025 83.7291L63.1875 134.057ZM63.6042 51.7447L64.849 50.6926L5.04171 0.364502L3.79692 1.41659L63.6042 51.7447Z" fill="white"/>
</mask>
<g mask="url(#mask1_22_82)">
<path d="M791.974 0.364502H0.052124V792.552H791.974V0.364502Z" fill="url(#paint0_linear_22_82)"/>
</g>
</g>
<defs>
<linearGradient id="paint0_linear_22_82" x1="396.014" y1="0.366768" x2="396.014" y2="792.551" gradientUnits="userSpaceOnUse">
<stop stop-color="#5E17EB"/>
<stop offset="0.00390625" stop-color="#5F18EB"/>
<stop offset="0.0078125" stop-color="#5F19EB"/>
<stop offset="0.0117188" stop-color="#6019EB"/>
<stop offset="0.015625" stop-color="#601AEB"/>
<stop offset="0.0195312" stop-color="#611BEB"/>
<stop offset="0.0234375" stop-color="#621CEC"/>
<stop offset="0.0273438" stop-color="#621DEC"/>
<stop offset="0.03125" stop-color="#631EEC"/>
<stop offset="0.0351562" stop-color="#641FEC"/>
<stop offset="0.0390625" stop-color="#6420EC"/>
<stop offset="0.0429687" stop-color="#6521EC"/>
<stop offset="0.046875" stop-color="#6522EC"/>
<stop offset="0.0507812" stop-color="#6623EC"/>
<stop offset="0.0546875" stop-color="#6723EC"/>
<stop offset="0.0585937" stop-color="#6724EC"/>
<stop offset="0.0625" stop-color="#6825EC"/>
<stop offset="0.0664062" stop-color="#6926EC"/>
<stop offset="0.0703125" stop-color="#6927EC"/>
<stop offset="0.0742188" stop-color="#6A28ED"/>
<stop offset="0.078125" stop-color="#6B29ED"/>
<stop offset="0.0820312" stop-color="#6B2AED"/>
<stop offset="0.0859375" stop-color="#6C2BED"/>
<stop offset="0.0898438" stop-color="#6C2CED"/>
<stop offset="0.09375" stop-color="#6D2CED"/>
<stop offset="0.0976563" stop-color="#6E2DED"/>
<stop offset="0.101563" stop-color="#6E2EED"/>
<stop offset="0.105469" stop-color="#6F2FED"/>
<stop offset="0.109375" stop-color="#7030ED"/>
<stop offset="0.113281" stop-color="#7031ED"/>
<stop offset="0.117188" stop-color="#7132ED"/>
<stop offset="0.121094" stop-color="#7133ED"/>
<stop offset="0.125" stop-color="#7234EE"/>
<stop offset="0.128906" stop-color="#7335EE"/>
<stop offset="0.132812" stop-color="#7336EE"/>
<stop offset="0.136719" stop-color="#7436EE"/>
<stop offset="0.140625" stop-color="#7537EE"/>
<stop offset="0.144531" stop-color="#7538EE"/>
<stop offset="0.148437" stop-color="#7639EE"/>
<stop offset="0.152344" stop-color="#763AEE"/>
<stop offset="0.15625" stop-color="#773BEE"/>
<stop offset="0.160156" stop-color="#783CEE"/>
<stop offset="0.164062" stop-color="#783DEE"/>
<stop offset="0.167969" stop-color="#793EEE"/>
<stop offset="0.171875" stop-color="#7A3FEF"/>
<stop offset="0.175781" stop-color="#7A40EF"/>
<stop offset="0.179687" stop-color="#7B40EF"/>
<stop offset="0.183594" stop-color="#7C41EF"/>
<stop offset="0.1875" stop-color="#7C42EF"/>
<stop offset="0.191406" stop-color="#7D43EF"/>
<stop offset="0.195312" stop-color="#7D44EF"/>
<stop offset="0.199219" stop-color="#7E45EF"/>
<stop offset="0.203125" stop-color="#7F46EF"/>
<stop offset="0.207031" stop-color="#7F47EF"/>
<stop offset="0.210937" stop-color="#8048EF"/>
<stop offset="0.214844" stop-color="#8149EF"/>
<stop offset="0.21875" stop-color="#814AEF"/>
<stop offset="0.222656" stop-color="#824AF0"/>
<stop offset="0.226562" stop-color="#824BF0"/>
<stop offset="0.230469" stop-color="#834CF0"/>
<stop offset="0.234375" stop-color="#844DF0"/>
<stop offset="0.238281" stop-color="#844EF0"/>
<stop offset="0.242187" stop-color="#854FF0"/>
<stop offset="0.246094" stop-color="#8650F0"/>
<stop offset="0.25" stop-color="#8651F0"/>
<stop offset="0.253906" stop-color="#8752F0"/>
<stop offset="0.257813" stop-color="#8753F0"/>
<stop offset="0.261719" stop-color="#8854F0"/>
<stop offset="0.265625" stop-color="#8954F0"/>
<stop offset="0.269531" stop-color="#8955F0"/>
<stop offset="0.273438" stop-color="#8A56F1"/>
<stop offset="0.277344" stop-color="#8B57F1"/>
<stop offset="0.28125" stop-color="#8B58F1"/>
<stop offset="0.285156" stop-color="#8C59F1"/>
<stop offset="0.289062" stop-color="#8C5AF1"/>
<stop offset="0.292969" stop-color="#8D5BF1"/>
<stop offset="0.296875" stop-color="#8E5CF1"/>
<stop offset="0.300781" stop-color="#8E5DF1"/>
<stop offset="0.304688" stop-color="#8F5DF1"/>
<stop offset="0.308594" stop-color="#905EF1"/>
<stop offset="0.3125" stop-color="#905FF1"/>
<stop offset="0.316406" stop-color="#9160F1"/>
<stop offset="0.320312" stop-color="#9261F1"/>
<stop offset="0.324219" stop-color="#9262F2"/>
<stop offset="0.328125" stop-color="#9363F2"/>
<stop offset="0.332031" stop-color="#9364F2"/>
<stop offset="0.335938" stop-color="#9465F2"/>
<stop offset="0.339844" stop-color="#9566F2"/>
<stop offset="0.34375" stop-color="#9567F2"/>
<stop offset="0.347656" stop-color="#9667F2"/>
<stop offset="0.351562" stop-color="#9768F2"/>
<stop offset="0.355469" stop-color="#9769F2"/>
<stop offset="0.359375" stop-color="#986AF2"/>
<stop offset="0.363281" stop-color="#986BF2"/>
<stop offset="0.367188" stop-color="#996CF2"/>
<stop offset="0.371094" stop-color="#9A6DF2"/>
<stop offset="0.375" stop-color="#9A6EF3"/>
<stop offset="0.378906" stop-color="#9B6FF3"/>
<stop offset="0.382812" stop-color="#9C70F3"/>
<stop offset="0.386719" stop-color="#9C71F3"/>
<stop offset="0.390625" stop-color="#9D71F3"/>
<stop offset="0.394531" stop-color="#9D72F3"/>
<stop offset="0.398438" stop-color="#9E73F3"/>
<stop offset="0.402344" stop-color="#9F74F3"/>
<stop offset="0.40625" stop-color="#9F75F3"/>
<stop offset="0.410156" stop-color="#A076F3"/>
<stop offset="0.414062" stop-color="#A177F3"/>
<stop offset="0.417969" stop-color="#A178F3"/>
<stop offset="0.421875" stop-color="#A279F3"/>
<stop offset="0.425781" stop-color="#A37AF4"/>
<stop offset="0.429688" stop-color="#A37BF4"/>
<stop offset="0.433594" stop-color="#A47BF4"/>
<stop offset="0.4375" stop-color="#A47CF4"/>
<stop offset="0.441406" stop-color="#A57DF4"/>
<stop offset="0.445312" stop-color="#A67EF4"/>
<stop offset="0.449219" stop-color="#A67FF4"/>
<stop offset="0.453125" stop-color="#A780F4"/>
<stop offset="0.457031" stop-color="#A881F4"/>
<stop offset="0.460938" stop-color="#A882F4"/>
<stop offset="0.464844" stop-color="#A983F4"/>
<stop offset="0.46875" stop-color="#A984F4"/>
<stop offset="0.472656" stop-color="#AA85F4"/>
<stop offset="0.476562" stop-color="#AB85F5"/>
<stop offset="0.480469" stop-color="#AB86F5"/>
<stop offset="0.484375" stop-color="#AC87F5"/>
<stop offset="0.488281" stop-color="#AD88F5"/>
<stop offset="0.492188" stop-color="#AD89F5"/>
<stop offset="0.496094" stop-color="#AE8AF5"/>
<stop offset="0.5" stop-color="#AE8BF5"/>
<stop offset="0.503906" stop-color="#AF8CF5"/>
<stop offset="0.507813" stop-color="#B08DF5"/>
<stop offset="0.511719" stop-color="#B08EF5"/>
<stop offset="0.515625" stop-color="#B18EF5"/>
<stop offset="0.519531" stop-color="#B28FF5"/>
<stop offset="0.523438" stop-color="#B290F6"/>
<stop offset="0.527344" stop-color="#B391F6"/>
<stop offset="0.53125" stop-color="#B392F6"/>
<stop offset="0.535156" stop-color="#B493F6"/>
<stop offset="0.539062" stop-color="#B594F6"/>
<stop offset="0.542969" stop-color="#B595F6"/>
<stop offset="0.546875" stop-color="#B696F6"/>
<stop offset="0.550781" stop-color="#B797F6"/>
<stop offset="0.554687" stop-color="#B798F6"/>
<stop offset="0.558594" stop-color="#B898F6"/>
<stop offset="0.5625" stop-color="#B999F6"/>
<stop offset="0.566406" stop-color="#B99AF6"/>
<stop offset="0.570312" stop-color="#BA9BF6"/>
<stop offset="0.574219" stop-color="#BA9CF7"/>
<stop offset="0.578125" stop-color="#BB9DF7"/>
<stop offset="0.582031" stop-color="#BC9EF7"/>
<stop offset="0.585937" stop-color="#BC9FF7"/>
<stop offset="0.589844" stop-color="#BDA0F7"/>
<stop offset="0.59375" stop-color="#BEA1F7"/>
<stop offset="0.597656" stop-color="#BEA2F7"/>
<stop offset="0.601562" stop-color="#BFA2F7"/>
<stop offset="0.605469" stop-color="#BFA3F7"/>
<stop offset="0.609375" stop-color="#C0A4F7"/>
<stop offset="0.613281" stop-color="#C1A5F7"/>
<stop offset="0.617187" stop-color="#C1A6F7"/>
<stop offset="0.621094" stop-color="#C2A7F7"/>
<stop offset="0.625" stop-color="#C3A8F8"/>
<stop offset="0.628906" stop-color="#C3A9F8"/>
<stop offset="0.632812" stop-color="#C4AAF8"/>
<stop offset="0.636719" stop-color="#C4ABF8"/>
<stop offset="0.640625" stop-color="#C5ACF8"/>
<stop offset="0.644531" stop-color="#C6ACF8"/>
<stop offset="0.648437" stop-color="#C6ADF8"/>
<stop offset="0.652344" stop-color="#C7AEF8"/>
<stop offset="0.65625" stop-color="#C8AFF8"/>
<stop offset="0.660156" stop-color="#C8B0F8"/>
<stop offset="0.664062" stop-color="#C9B1F8"/>
<stop offset="0.667969" stop-color="#CAB2F8"/>
<stop offset="0.671875" stop-color="#CAB3F8"/>
<stop offset="0.675781" stop-color="#CBB4F9"/>
<stop offset="0.679688" stop-color="#CBB5F9"/>
<stop offset="0.683594" stop-color="#CCB6F9"/>
<stop offset="0.6875" stop-color="#CDB6F9"/>
<stop offset="0.691406" stop-color="#CDB7F9"/>
<stop offset="0.695312" stop-color="#CEB8F9"/>
<stop offset="0.699219" stop-color="#CFB9F9"/>
<stop offset="0.703125" stop-color="#CFBAF9"/>
<stop offset="0.707031" stop-color="#D0BBF9"/>
<stop offset="0.710937" stop-color="#D0BCF9"/>
<stop offset="0.714844" stop-color="#D1BDF9"/>
<stop offset="0.71875" stop-color="#D2BEF9"/>
<stop offset="0.722656" stop-color="#D2BFF9"/>
<stop offset="0.726562" stop-color="#D3BFFA"/>
<stop offset="0.730469" stop-color="#D4C0FA"/>
<stop offset="0.734375" stop-color="#D4C1FA"/>
<stop offset="0.738281" stop-color="#D5C2FA"/>
<stop offset="0.742188" stop-color="#D5C3FA"/>
<stop offset="0.746094" stop-color="#D6C4FA"/>
<stop offset="0.75" stop-color="#D7C5FA"/>
<stop offset="0.753906" stop-color="#D7C6FA"/>
<stop offset="0.757812" stop-color="#D8C7FA"/>
<stop offset="0.761719" stop-color="#D9C8FA"/>
<stop offset="0.765625" stop-color="#D9C9FA"/>
<stop offset="0.769531" stop-color="#DAC9FA"/>
<stop offset="0.773437" stop-color="#DBCAFA"/>
<stop offset="0.777344" stop-color="#DBCBFB"/>
<stop offset="0.78125" stop-color="#DCCCFB"/>
<stop offset="0.785156" stop-color="#DCCDFB"/>
<stop offset="0.789062" stop-color="#DDCEFB"/>
<stop offset="0.792969" stop-color="#DECFFB"/>
<stop offset="0.796875" stop-color="#DED0FB"/>
<stop offset="0.800781" stop-color="#DFD1FB"/>
<stop offset="0.804688" stop-color="#E0D2FB"/>
<stop offset="0.808594" stop-color="#E0D3FB"/>
<stop offset="0.8125" stop-color="#E1D3FB"/>
<stop offset="0.816406" stop-color="#E1D4FB"/>
<stop offset="0.820312" stop-color="#E2D5FB"/>
<stop offset="0.824219" stop-color="#E3D6FB"/>
<stop offset="0.828125" stop-color="#E3D7FC"/>
<stop offset="0.832031" stop-color="#E4D8FC"/>
<stop offset="0.835937" stop-color="#E5D9FC"/>
<stop offset="0.839844" stop-color="#E5DAFC"/>
<stop offset="0.84375" stop-color="#E6DBFC"/>
<stop offset="0.847656" stop-color="#E6DCFC"/>
<stop offset="0.851562" stop-color="#E7DDFC"/>
<stop offset="0.855469" stop-color="#E8DDFC"/>
<stop offset="0.859375" stop-color="#E8DEFC"/>
<stop offset="0.863281" stop-color="#E9DFFC"/>
<stop offset="0.867188" stop-color="#EAE0FC"/>
<stop offset="0.871094" stop-color="#EAE1FC"/>
<stop offset="0.875" stop-color="#EBE2FD"/>
<stop offset="0.878906" stop-color="#EBE3FD"/>
<stop offset="0.882812" stop-color="#ECE4FD"/>
<stop offset="0.886719" stop-color="#EDE5FD"/>
<stop offset="0.890625" stop-color="#EDE6FD"/>
<stop offset="0.894531" stop-color="#EEE6FD"/>
<stop offset="0.898437" stop-color="#EFE7FD"/>
<stop offset="0.902344" stop-color="#EFE8FD"/>
<stop offset="0.90625" stop-color="#F0E9FD"/>
<stop offset="0.910156" stop-color="#F1EAFD"/>
<stop offset="0.914063" stop-color="#F1EBFD"/>
<stop offset="0.917969" stop-color="#F2ECFD"/>
<stop offset="0.921875" stop-color="#F2EDFD"/>
<stop offset="0.925781" stop-color="#F3EEFE"/>
<stop offset="0.929688" stop-color="#F4EFFE"/>
<stop offset="0.933594" stop-color="#F4F0FE"/>
<stop offset="0.9375" stop-color="#F5F0FE"/>
<stop offset="0.941406" stop-color="#F6F1FE"/>
<stop offset="0.945312" stop-color="#F6F2FE"/>
<stop offset="0.949219" stop-color="#F7F3FE"/>
<stop offset="0.953125" stop-color="#F7F4FE"/>
<stop offset="0.957031" stop-color="#F8F5FE"/>
<stop offset="0.960937" stop-color="#F9F6FE"/>
<stop offset="0.964844" stop-color="#F9F7FE"/>
<stop offset="0.96875" stop-color="#FAF8FE"/>
<stop offset="0.972656" stop-color="#FBF9FE"/>
<stop offset="0.976563" stop-color="#FBFAFF"/>
<stop offset="0.980469" stop-color="#FCFAFF"/>
<stop offset="0.984375" stop-color="#FCFBFF"/>
<stop offset="0.988281" stop-color="#FDFCFF"/>
<stop offset="0.992188" stop-color="#FEFDFF"/>
<stop offset="0.996094" stop-color="#FEFEFF"/>
<stop offset="1" stop-color="white"/>
</linearGradient>
</defs>
</svg>
