<svg width="772" height="839" viewBox="0 0 772 839" fill="none" xmlns="http://www.w3.org/2000/svg">
<g clip-path="url(#clip0_32_25)">
<mask id="mask0_32_25" style="mask-type:luminance" maskUnits="userSpaceOnUse" x="0" y="0" width="842" height="839">
<path d="M841.333 0H0V838.667H841.333V0Z" fill="white"/>
</mask>
<g mask="url(#mask0_32_25)">
<mask id="mask1_32_25" style="mask-type:luminance" maskUnits="userSpaceOnUse" x="1" y="1" width="841" height="838">
<path d="M1.151 1.42725H841.151V838.401H1.151V1.42725Z" fill="white"/>
</mask>
<g mask="url(#mask1_32_25)">
<mask id="mask2_32_25" style="mask-type:luminance" maskUnits="userSpaceOnUse" x="1" y="1" width="841" height="838">
<path d="M808.859 820.74H840.687V825.516H808.859V820.74ZM448.76 835.719L452.891 838.104L468.807 810.542L464.672 808.151L448.76 835.719ZM375.562 835.719L379.693 838.104L395.609 810.542L391.474 808.151L375.562 835.719ZM296.807 827.151L298.672 831.547L327.969 819.109L326.104 814.714L296.807 827.151ZM223.276 825.516H255.099V820.74H223.276V825.516ZM150.411 819.109L179.708 831.542L181.573 827.146L152.276 814.714L150.411 819.109ZM79.8541 813.563L102.354 836.068L105.729 832.693L83.2291 810.188L79.8541 813.563ZM9.57288 810.542L25.4843 838.104L29.6145 835.719L13.7031 808.151L9.57288 810.542ZM519.042 759.49L522.417 762.865L544.922 740.359L541.547 736.984L519.042 759.49ZM452.359 764.677L456.969 765.911L465.208 735.172L460.594 733.938L452.359 764.677ZM377.411 763.786L381.833 765.578L393.755 736.068L389.333 734.276L377.411 763.786ZM299.448 759.49L302.823 762.865L325.328 740.359L321.953 736.984L299.448 759.49ZM223.276 752.313H255.099V747.536H223.276V752.313ZM153.052 740.359L175.557 762.865L178.932 759.49L156.427 736.984L153.052 740.359ZM84.6198 736.068L96.5416 765.578L100.964 763.786L89.0416 734.276L84.6198 736.068ZM13.1718 735.172L21.4062 765.917L26.0208 764.682L17.7812 733.938L13.1718 735.172ZM521.958 689.313L526.089 691.698L542.005 664.135L537.87 661.75L521.958 689.313ZM456.396 692.635H461.172V660.813H456.396V692.635ZM383.198 692.635H387.974V660.813H383.198V692.635ZM310 692.635H314.771V660.813H310V692.635ZM223.276 679.109H255.099V674.333H223.276V679.109ZM163.604 692.635H168.38V660.813H163.604V692.635ZM90.4062 692.635H95.177V660.813H90.4062V692.635ZM17.2083 692.635H21.9791V660.813H17.2083V692.635ZM808.859 605.906H840.687V601.135H808.859V605.906ZM735.661 605.906H767.49V601.135H735.661V605.906ZM662.292 603.188L662.901 607.922L694.469 603.859L693.859 599.125L662.292 603.188ZM590.344 609.745L592.823 613.828L620.016 597.297L617.536 593.219L590.344 609.745ZM525.557 618.276L530.167 619.51L538.406 588.766L533.792 587.531L525.557 618.276ZM452.359 588.766L460.594 619.51L465.208 618.276L456.969 587.531L452.359 588.766ZM377.901 589.385L388.786 619.292L393.271 617.656L382.385 587.75L377.901 589.385ZM299.448 593.958L321.953 616.464L325.328 613.089L302.823 590.583L299.448 593.958ZM223.276 605.906H255.099V601.135H223.276V605.906ZM153.052 613.089L156.427 616.464L178.932 593.958L175.557 590.583L153.052 613.089ZM84.6198 617.38L89.0416 619.172L100.964 589.661L96.5416 587.87L84.6198 617.38ZM13.1718 618.276L17.7812 619.51L26.0208 588.766L21.4062 587.531L13.1718 618.276ZM525.557 515.568L533.792 546.307L538.406 545.073L530.167 514.333L525.557 515.568ZM449.203 517.391L464.146 545.49L468.365 543.25L453.422 515.146L449.203 517.391ZM372.646 520.755L395.151 543.26L398.526 539.885L376.021 517.38L372.646 520.755ZM296.807 526.297L326.104 538.734L327.969 534.339L298.672 521.901L296.807 526.297ZM223.276 532.708H255.099V527.932H223.276V532.708ZM150.411 534.339L152.276 538.734L181.573 526.297L179.708 521.901L150.411 534.339ZM79.8541 539.885L83.2291 543.26L105.734 520.755L102.359 517.38L79.8541 539.885ZM9.57288 542.906L13.7031 545.297L29.6145 517.729L25.4843 515.344L9.57288 542.906ZM522.406 444.188L537.349 472.286L541.562 470.047L526.62 441.948L522.406 444.188ZM445.844 447.552L468.349 470.057L471.724 466.682L449.219 444.177L445.844 447.552ZM370.609 451.224L398.172 467.141L400.557 463.005L372.995 447.094L370.609 451.224ZM296.396 455.302L327.141 463.542L328.375 458.932L297.635 450.693L296.396 455.302ZM223.276 459.505H255.099V454.729H223.276V459.505ZM150 458.932L151.24 463.542L181.979 455.302L180.745 450.693L150 458.932ZM77.8177 463.005L80.2031 467.141L107.766 451.224L105.38 447.094L77.8177 463.005ZM6.65621 466.682L10.0312 470.057L32.5312 447.552L29.1562 444.177L6.65621 466.682ZM808.859 386.302H840.687V381.526H808.859V386.302ZM735.5 383.151L766.719 389.359L767.651 384.677L736.432 378.469L735.5 383.151ZM662.766 380.031L692.167 392.208L693.995 387.802L664.594 375.62L662.766 380.031ZM590.391 377.568L617.453 394.318L619.969 390.26L592.906 373.51L590.391 377.568ZM519.042 374.349L541.547 396.854L544.922 393.479L522.417 370.974L519.042 374.349ZM444.911 375.755L469.646 395.786L472.651 392.073L447.917 372.047L444.911 375.755ZM370.937 377.25L397.63 394.583L400.229 390.578L373.536 373.245L370.937 377.25ZM297.125 378.818L325.479 393.266L327.646 389.01L299.292 374.563L297.125 378.818ZM223.479 380.438L253.187 391.844L254.896 387.385L225.187 375.984L223.479 380.438ZM150 382.099L180.745 390.339L181.979 385.729L151.24 377.49L150 382.099ZM76.7031 383.781L108.135 388.76L108.88 384.047L77.4479 379.068L76.7031 383.781ZM3.68225 386.302H35.5052V381.526H3.68225V386.302ZM809.25 314.938L811.172 319.307L840.302 306.484L838.375 302.115L809.25 314.938ZM735.661 313.099H767.49V308.323H735.661V313.099ZM663.078 305.719L691.536 319.974L693.672 315.703L665.219 301.453L663.078 305.719ZM592.24 301.146L614.745 323.651L618.12 320.276L595.615 297.771L592.24 301.146ZM445.844 301.146L468.349 323.651L471.724 320.276L449.219 297.771L445.844 301.146ZM809.401 242.255L811.469 246.557L840.151 232.76L838.078 228.458L809.401 242.255ZM735.661 239.896H767.49V235.12H735.661V239.896ZM663.693 230.938L690.49 248.099L693.068 244.083L666.266 226.917L663.693 230.938ZM593.036 226.953L613.698 251.167L617.328 248.068L596.667 223.859L593.036 226.953ZM372.646 227.943L395.151 250.448L398.526 247.073L376.021 224.568L372.646 227.943ZM808.859 166.693H840.687V161.917H808.859V166.693ZM735.661 166.693H767.49V161.917H735.661V166.693ZM662.464 166.693H694.292V161.917H662.464V166.693ZM601.88 148.557L603.714 180.333L608.479 180.057L606.646 148.281L601.88 148.557ZM299.448 154.74L321.953 177.245L325.328 173.87L302.823 151.365L299.448 154.74ZM76.8802 166.693H108.703V161.917H76.8802V166.693ZM3.68225 166.693H35.5052V161.917H3.68225V166.693ZM809.26 86.8333L838.354 99.7448L840.292 95.3802L811.198 82.4688L809.26 86.8333ZM735.661 93.4948H767.49V88.7188H735.661V93.4948ZM665.562 100.839L668.984 104.167L691.193 81.375L687.776 78.0417L665.562 100.839ZM596.266 104.505L600.589 106.526L614.094 77.7083L609.771 75.6823L596.266 104.505ZM303.172 77.9167L317.328 106.417L321.604 104.297L307.448 75.7917L303.172 77.9167ZM231.255 77.1042L242.667 106.818L247.125 105.104L235.714 75.3958L231.255 77.1042ZM157.615 77.3646L169.969 106.698L174.37 104.844L162.01 75.5156L157.615 77.3646ZM76.7291 90.2188L107.891 96.6719L108.859 91.9948L77.6927 85.5417L76.7291 90.2188ZM3.51038 90.7292L34.8593 96.1823L35.6823 91.4792L4.32809 86.026L3.51038 90.7292ZM808.812 19.9167L810.104 24.5104L840.74 15.8854L839.443 11.2917L808.812 19.9167ZM736.906 24.5104L739.495 28.526L766.245 11.2917L763.661 7.27604L736.906 24.5104ZM668.115 30.2969L672.203 32.7604L688.641 5.51042L684.552 3.04167L668.115 30.2969ZM599.271 32.8698L603.927 33.9427L611.089 2.93229L606.432 1.85937L599.271 32.8698ZM308.01 2.41667L312.026 33.9896L316.766 33.3854L312.745 1.8125L308.01 2.41667ZM236.802 33.8177H241.578V1.98958H236.802V33.8177ZM163.536 33.8073L168.312 33.8229L168.448 2L163.672 1.97917L163.536 33.8073ZM86.901 2.92708L94.0312 33.9479L98.6875 32.8802L91.552 1.85937L86.901 2.92708ZM6.13538 9.08333L29.8698 30.2813L33.052 26.724L9.31767 5.52083L6.13538 9.08333ZM808.859 752.313H840.687V747.536H808.859V752.313ZM735.5 750.688L736.432 755.375L767.651 749.161L766.719 744.479L735.5 750.688ZM662.766 753.813L664.594 758.224L693.995 746.042L692.167 741.63L662.766 753.813ZM590.391 756.271L592.906 760.328L619.969 743.578L617.453 739.521L590.391 756.271ZM735.359 825.516H767.182V820.74H735.359V825.516ZM662 823.891L662.932 828.573L694.146 822.365L693.214 817.682L662 823.891ZM589.26 827.016L591.089 831.422L620.49 819.245L618.661 814.833L589.26 827.016ZM516.891 829.474L519.401 833.531L546.464 816.781L543.953 812.724L516.891 829.474ZM520.109 303.198L540.141 327.932L543.849 324.927L523.823 300.193L520.109 303.198ZM521.312 228.813L538.646 255.505L542.651 252.906L525.318 226.214L521.312 228.813ZM522.63 154.563L537.078 182.922L541.333 180.755L526.885 152.396L522.63 154.563ZM524.052 80.4531L535.453 110.167L539.911 108.458L528.51 78.7448L524.052 80.4531ZM525.557 6.5L533.792 37.2396L538.406 36.0052L530.167 5.26563L525.557 6.5ZM446.911 229.411L466.943 254.146L470.656 251.141L450.625 226.406L446.911 229.411ZM448.115 155.026L465.448 181.719L469.453 179.12L452.12 152.427L448.115 155.026ZM449.432 80.776L463.88 109.135L468.135 106.969L453.687 78.6094L449.432 80.776ZM450.854 6.66667L462.255 36.3802L466.714 34.6719L455.312 4.95833L450.854 6.66667ZM373.719 154.349L393.745 179.083L397.458 176.078L377.427 151.344L373.719 154.349ZM374.917 79.9635L392.25 106.656L396.255 104.057L378.922 77.3646L374.917 79.9635ZM376.234 5.71354L390.682 34.0729L394.937 31.901L380.49 3.54687L376.234 5.71354ZM369.365 302.552L394.099 322.583L397.104 318.87L372.37 298.844L369.365 302.552ZM295.391 304.047L322.078 321.38L324.682 317.38L297.99 300.042L295.391 304.047ZM221.573 305.615L249.932 320.063L252.099 315.807L223.74 301.359L221.573 305.615ZM147.927 307.24L177.641 318.646L179.349 314.188L149.635 302.781L147.927 307.24ZM74.4531 308.901L105.193 317.135L106.427 312.526L75.6875 304.286L74.4531 308.901ZM1.151 310.583L32.5885 315.557L33.3333 310.844L1.901 305.865L1.151 310.583ZM297.667 229.349L322.401 249.38L325.406 245.672L300.672 225.641L297.667 229.349ZM223.693 230.844L250.385 248.177L252.984 244.177L226.297 226.839L223.693 230.844ZM149.88 232.411L178.234 246.859L180.401 242.609L152.042 228.156L149.88 232.411ZM76.2343 234.036L105.943 245.443L107.651 240.984L77.9427 229.578L76.2343 234.036ZM2.75517 235.698L33.4948 243.932L34.7343 239.323L3.98954 231.089L2.75517 235.698ZM224.479 162.714L252.984 176.875L255.104 172.599L226.604 158.438L224.479 162.714ZM150.51 168.016L182.078 172.036L182.682 167.302L151.109 163.281L150.51 168.016ZM592.547 686.286L595.922 689.661L618.427 667.161L615.052 663.781L592.547 686.286ZM809.005 677.484L809.937 682.167L841.151 675.964L840.219 671.276L809.005 677.484ZM736.266 680.609L738.094 685.021L767.5 672.839L765.672 668.427L736.266 680.609ZM663.896 683.068L666.411 687.125L693.474 670.38L690.958 666.318L663.896 683.068ZM808.703 456.354L839.917 462.563L840.849 457.88L809.635 451.672L808.703 456.354ZM735.964 453.234L765.365 465.411L767.193 461.005L737.786 448.823L735.964 453.234ZM663.594 450.771L690.656 467.521L693.167 463.464L666.104 446.714L663.594 450.771ZM592.24 447.552L614.745 470.057L618.12 466.682L595.615 444.177L592.24 447.552ZM808.859 532.708H840.687V527.932H808.859V532.708ZM735.661 532.708H767.49V527.932H735.661V532.708ZM662.292 530.656L693.859 534.719L694.469 529.984L662.901 525.922L662.292 530.656ZM590.344 524.094L617.536 540.625L620.016 536.547L592.823 520.016L590.344 524.094Z" fill="white"/>
</mask>
<g mask="url(#mask2_32_25)">
<path d="M805 824V1.8125H1.151V838.104L805 824Z" fill="url(#paint0_linear_32_25)"/>
</g>
</g>
</g>
</g>
<defs>
<linearGradient id="paint0_linear_32_25" x1="841.153" y1="419.96" x2="1.1526" y2="419.96" gradientUnits="userSpaceOnUse">
<stop stop-color="white"/>
<stop offset="0.00390625" stop-color="#FEFEFF"/>
<stop offset="0.0078125" stop-color="#FEFDFF"/>
<stop offset="0.0117188" stop-color="#FDFCFF"/>
<stop offset="0.015625" stop-color="#FCFBFF"/>
<stop offset="0.0195312" stop-color="#FCFAFF"/>
<stop offset="0.0234375" stop-color="#FBFAFF"/>
<stop offset="0.0273438" stop-color="#FBF9FE"/>
<stop offset="0.03125" stop-color="#FAF8FE"/>
<stop offset="0.0351563" stop-color="#F9F7FE"/>
<stop offset="0.0390625" stop-color="#F9F6FE"/>
<stop offset="0.0429687" stop-color="#F8F5FE"/>
<stop offset="0.046875" stop-color="#F7F4FE"/>
<stop offset="0.0507812" stop-color="#F7F3FE"/>
<stop offset="0.0546875" stop-color="#F6F2FE"/>
<stop offset="0.0585937" stop-color="#F6F1FE"/>
<stop offset="0.0625" stop-color="#F5F0FE"/>
<stop offset="0.0664062" stop-color="#F4F0FE"/>
<stop offset="0.0703125" stop-color="#F4EFFE"/>
<stop offset="0.0742187" stop-color="#F3EEFE"/>
<stop offset="0.078125" stop-color="#F2EDFD"/>
<stop offset="0.0820312" stop-color="#F2ECFD"/>
<stop offset="0.0859375" stop-color="#F1EBFD"/>
<stop offset="0.0898437" stop-color="#F1EAFD"/>
<stop offset="0.09375" stop-color="#F0E9FD"/>
<stop offset="0.0976562" stop-color="#EFE8FD"/>
<stop offset="0.101562" stop-color="#EFE7FD"/>
<stop offset="0.105469" stop-color="#EEE7FD"/>
<stop offset="0.109375" stop-color="#EDE6FD"/>
<stop offset="0.113281" stop-color="#EDE5FD"/>
<stop offset="0.117187" stop-color="#ECE4FD"/>
<stop offset="0.121094" stop-color="#ECE3FD"/>
<stop offset="0.125" stop-color="#EBE2FD"/>
<stop offset="0.128906" stop-color="#EAE1FC"/>
<stop offset="0.132813" stop-color="#EAE0FC"/>
<stop offset="0.136719" stop-color="#E9DFFC"/>
<stop offset="0.140625" stop-color="#E8DEFC"/>
<stop offset="0.144531" stop-color="#E8DDFC"/>
<stop offset="0.148438" stop-color="#E7DDFC"/>
<stop offset="0.152344" stop-color="#E6DCFC"/>
<stop offset="0.15625" stop-color="#E6DBFC"/>
<stop offset="0.160156" stop-color="#E5DAFC"/>
<stop offset="0.164062" stop-color="#E5D9FC"/>
<stop offset="0.167969" stop-color="#E4D8FC"/>
<stop offset="0.171875" stop-color="#E3D7FC"/>
<stop offset="0.175781" stop-color="#E3D6FC"/>
<stop offset="0.179687" stop-color="#E2D5FB"/>
<stop offset="0.183594" stop-color="#E1D4FB"/>
<stop offset="0.1875" stop-color="#E1D3FB"/>
<stop offset="0.191406" stop-color="#E0D3FB"/>
<stop offset="0.195312" stop-color="#E0D2FB"/>
<stop offset="0.199219" stop-color="#DFD1FB"/>
<stop offset="0.203125" stop-color="#DED0FB"/>
<stop offset="0.207031" stop-color="#DECFFB"/>
<stop offset="0.210937" stop-color="#DDCEFB"/>
<stop offset="0.214844" stop-color="#DCCDFB"/>
<stop offset="0.21875" stop-color="#DCCCFB"/>
<stop offset="0.222656" stop-color="#DBCBFB"/>
<stop offset="0.226562" stop-color="#DBCAFA"/>
<stop offset="0.230469" stop-color="#DACAFA"/>
<stop offset="0.234375" stop-color="#D9C9FA"/>
<stop offset="0.238281" stop-color="#D9C8FA"/>
<stop offset="0.242187" stop-color="#D8C7FA"/>
<stop offset="0.246094" stop-color="#D7C6FA"/>
<stop offset="0.25" stop-color="#D7C5FA"/>
<stop offset="0.253906" stop-color="#D6C4FA"/>
<stop offset="0.257812" stop-color="#D6C3FA"/>
<stop offset="0.261719" stop-color="#D5C2FA"/>
<stop offset="0.265625" stop-color="#D4C1FA"/>
<stop offset="0.269531" stop-color="#D4C0FA"/>
<stop offset="0.273437" stop-color="#D3C0FA"/>
<stop offset="0.277344" stop-color="#D2BFF9"/>
<stop offset="0.28125" stop-color="#D2BEF9"/>
<stop offset="0.285156" stop-color="#D1BDF9"/>
<stop offset="0.289062" stop-color="#D0BCF9"/>
<stop offset="0.292969" stop-color="#D0BBF9"/>
<stop offset="0.296875" stop-color="#CFBAF9"/>
<stop offset="0.300781" stop-color="#CFB9F9"/>
<stop offset="0.304687" stop-color="#CEB8F9"/>
<stop offset="0.308594" stop-color="#CDB7F9"/>
<stop offset="0.3125" stop-color="#CDB6F9"/>
<stop offset="0.316406" stop-color="#CCB6F9"/>
<stop offset="0.320312" stop-color="#CBB5F9"/>
<stop offset="0.324219" stop-color="#CBB4F9"/>
<stop offset="0.328125" stop-color="#CAB3F8"/>
<stop offset="0.332031" stop-color="#CAB2F8"/>
<stop offset="0.335938" stop-color="#C9B1F8"/>
<stop offset="0.339844" stop-color="#C8B0F8"/>
<stop offset="0.34375" stop-color="#C8AFF8"/>
<stop offset="0.347656" stop-color="#C7AEF8"/>
<stop offset="0.351562" stop-color="#C6ADF8"/>
<stop offset="0.355469" stop-color="#C6ADF8"/>
<stop offset="0.359375" stop-color="#C5ACF8"/>
<stop offset="0.363281" stop-color="#C5ABF8"/>
<stop offset="0.367187" stop-color="#C4AAF8"/>
<stop offset="0.371094" stop-color="#C3A9F8"/>
<stop offset="0.375" stop-color="#C3A8F8"/>
<stop offset="0.378906" stop-color="#C2A7F7"/>
<stop offset="0.382812" stop-color="#C1A6F7"/>
<stop offset="0.386719" stop-color="#C1A5F7"/>
<stop offset="0.390625" stop-color="#C0A4F7"/>
<stop offset="0.394531" stop-color="#C0A3F7"/>
<stop offset="0.398437" stop-color="#BFA3F7"/>
<stop offset="0.402344" stop-color="#BEA2F7"/>
<stop offset="0.40625" stop-color="#BEA1F7"/>
<stop offset="0.410156" stop-color="#BDA0F7"/>
<stop offset="0.414062" stop-color="#BC9FF7"/>
<stop offset="0.417969" stop-color="#BC9EF7"/>
<stop offset="0.421875" stop-color="#BB9DF7"/>
<stop offset="0.425781" stop-color="#BA9CF7"/>
<stop offset="0.429687" stop-color="#BA9BF6"/>
<stop offset="0.433594" stop-color="#B99AF6"/>
<stop offset="0.4375" stop-color="#B999F6"/>
<stop offset="0.441406" stop-color="#B899F6"/>
<stop offset="0.445312" stop-color="#B798F6"/>
<stop offset="0.449219" stop-color="#B797F6"/>
<stop offset="0.453125" stop-color="#B696F6"/>
<stop offset="0.457031" stop-color="#B595F6"/>
<stop offset="0.460938" stop-color="#B594F6"/>
<stop offset="0.464844" stop-color="#B493F6"/>
<stop offset="0.46875" stop-color="#B492F6"/>
<stop offset="0.472656" stop-color="#B391F6"/>
<stop offset="0.476562" stop-color="#B290F6"/>
<stop offset="0.480469" stop-color="#B290F5"/>
<stop offset="0.484375" stop-color="#B18FF5"/>
<stop offset="0.488281" stop-color="#B08EF5"/>
<stop offset="0.492187" stop-color="#B08DF5"/>
<stop offset="0.496094" stop-color="#AF8CF5"/>
<stop offset="0.5" stop-color="#AF8BF5"/>
<stop offset="0.503906" stop-color="#AE8AF5"/>
<stop offset="0.507812" stop-color="#AD89F5"/>
<stop offset="0.511719" stop-color="#AD88F5"/>
<stop offset="0.515625" stop-color="#AC87F5"/>
<stop offset="0.519531" stop-color="#AB86F5"/>
<stop offset="0.523438" stop-color="#AB86F5"/>
<stop offset="0.527344" stop-color="#AA85F5"/>
<stop offset="0.53125" stop-color="#AA84F4"/>
<stop offset="0.535156" stop-color="#A983F4"/>
<stop offset="0.539062" stop-color="#A882F4"/>
<stop offset="0.542969" stop-color="#A881F4"/>
<stop offset="0.546875" stop-color="#A780F4"/>
<stop offset="0.550781" stop-color="#A67FF4"/>
<stop offset="0.554688" stop-color="#A67EF4"/>
<stop offset="0.558594" stop-color="#A57DF4"/>
<stop offset="0.5625" stop-color="#A47CF4"/>
<stop offset="0.566406" stop-color="#A47CF4"/>
<stop offset="0.570312" stop-color="#A37BF4"/>
<stop offset="0.574219" stop-color="#A37AF4"/>
<stop offset="0.578125" stop-color="#A279F3"/>
<stop offset="0.582031" stop-color="#A178F3"/>
<stop offset="0.585938" stop-color="#A177F3"/>
<stop offset="0.589844" stop-color="#A076F3"/>
<stop offset="0.59375" stop-color="#9F75F3"/>
<stop offset="0.597656" stop-color="#9F74F3"/>
<stop offset="0.601562" stop-color="#9E73F3"/>
<stop offset="0.605469" stop-color="#9E73F3"/>
<stop offset="0.609375" stop-color="#9D72F3"/>
<stop offset="0.613281" stop-color="#9C71F3"/>
<stop offset="0.617188" stop-color="#9C70F3"/>
<stop offset="0.621094" stop-color="#9B6FF3"/>
<stop offset="0.625" stop-color="#9A6EF3"/>
<stop offset="0.628906" stop-color="#9A6DF2"/>
<stop offset="0.632812" stop-color="#996CF2"/>
<stop offset="0.636719" stop-color="#996BF2"/>
<stop offset="0.640625" stop-color="#986AF2"/>
<stop offset="0.644531" stop-color="#9769F2"/>
<stop offset="0.648438" stop-color="#9769F2"/>
<stop offset="0.652344" stop-color="#9668F2"/>
<stop offset="0.65625" stop-color="#9567F2"/>
<stop offset="0.660156" stop-color="#9566F2"/>
<stop offset="0.664062" stop-color="#9465F2"/>
<stop offset="0.667969" stop-color="#9464F2"/>
<stop offset="0.671875" stop-color="#9363F2"/>
<stop offset="0.675781" stop-color="#9262F2"/>
<stop offset="0.679688" stop-color="#9261F1"/>
<stop offset="0.683594" stop-color="#9160F1"/>
<stop offset="0.6875" stop-color="#905FF1"/>
<stop offset="0.691406" stop-color="#905FF1"/>
<stop offset="0.695312" stop-color="#8F5EF1"/>
<stop offset="0.699219" stop-color="#8E5DF1"/>
<stop offset="0.703125" stop-color="#8E5CF1"/>
<stop offset="0.707031" stop-color="#8D5BF1"/>
<stop offset="0.710938" stop-color="#8D5AF1"/>
<stop offset="0.714844" stop-color="#8C59F1"/>
<stop offset="0.71875" stop-color="#8B58F1"/>
<stop offset="0.722656" stop-color="#8B57F1"/>
<stop offset="0.726562" stop-color="#8A56F1"/>
<stop offset="0.730469" stop-color="#8955F0"/>
<stop offset="0.734375" stop-color="#8955F0"/>
<stop offset="0.738281" stop-color="#8854F0"/>
<stop offset="0.742188" stop-color="#8853F0"/>
<stop offset="0.746094" stop-color="#8752F0"/>
<stop offset="0.75" stop-color="#8651F0"/>
<stop offset="0.753906" stop-color="#8650F0"/>
<stop offset="0.757812" stop-color="#854FF0"/>
<stop offset="0.761719" stop-color="#844EF0"/>
<stop offset="0.765625" stop-color="#844DF0"/>
<stop offset="0.769531" stop-color="#834CF0"/>
<stop offset="0.773438" stop-color="#834CF0"/>
<stop offset="0.777344" stop-color="#824BF0"/>
<stop offset="0.78125" stop-color="#814AEF"/>
<stop offset="0.785156" stop-color="#8149EF"/>
<stop offset="0.789062" stop-color="#8048EF"/>
<stop offset="0.792969" stop-color="#7F47EF"/>
<stop offset="0.796875" stop-color="#7F46EF"/>
<stop offset="0.800781" stop-color="#7E45EF"/>
<stop offset="0.804688" stop-color="#7E44EF"/>
<stop offset="0.808594" stop-color="#7D43EF"/>
<stop offset="0.8125" stop-color="#7C42EF"/>
<stop offset="0.816406" stop-color="#7C42EF"/>
<stop offset="0.820312" stop-color="#7B41EF"/>
<stop offset="0.824219" stop-color="#7A40EF"/>
<stop offset="0.828125" stop-color="#7A3FEF"/>
<stop offset="0.832031" stop-color="#793EEE"/>
<stop offset="0.835938" stop-color="#783DEE"/>
<stop offset="0.839844" stop-color="#783CEE"/>
<stop offset="0.84375" stop-color="#773BEE"/>
<stop offset="0.847656" stop-color="#773AEE"/>
<stop offset="0.851562" stop-color="#7639EE"/>
<stop offset="0.855469" stop-color="#7538EE"/>
<stop offset="0.859375" stop-color="#7538EE"/>
<stop offset="0.863281" stop-color="#7437EE"/>
<stop offset="0.867188" stop-color="#7336EE"/>
<stop offset="0.871094" stop-color="#7335EE"/>
<stop offset="0.875" stop-color="#7234EE"/>
<stop offset="0.878906" stop-color="#7233EE"/>
<stop offset="0.882812" stop-color="#7132ED"/>
<stop offset="0.886719" stop-color="#7031ED"/>
<stop offset="0.890625" stop-color="#7030ED"/>
<stop offset="0.894531" stop-color="#6F2FED"/>
<stop offset="0.898438" stop-color="#6E2FED"/>
<stop offset="0.902344" stop-color="#6E2EED"/>
<stop offset="0.90625" stop-color="#6D2DED"/>
<stop offset="0.910156" stop-color="#6D2CED"/>
<stop offset="0.914062" stop-color="#6C2BED"/>
<stop offset="0.917969" stop-color="#6B2AED"/>
<stop offset="0.921875" stop-color="#6B29ED"/>
<stop offset="0.925781" stop-color="#6A28ED"/>
<stop offset="0.929688" stop-color="#6927ED"/>
<stop offset="0.933594" stop-color="#6926EC"/>
<stop offset="0.9375" stop-color="#6825EC"/>
<stop offset="0.941406" stop-color="#6825EC"/>
<stop offset="0.945312" stop-color="#6724EC"/>
<stop offset="0.949219" stop-color="#6623EC"/>
<stop offset="0.953125" stop-color="#6622EC"/>
<stop offset="0.957031" stop-color="#6521EC"/>
<stop offset="0.960938" stop-color="#6420EC"/>
<stop offset="0.964844" stop-color="#641FEC"/>
<stop offset="0.96875" stop-color="#631EEC"/>
<stop offset="0.972656" stop-color="#621DEC"/>
<stop offset="0.976562" stop-color="#621CEC"/>
<stop offset="0.980469" stop-color="#611BEB"/>
<stop offset="0.984375" stop-color="#611BEB"/>
<stop offset="0.988281" stop-color="#601AEB"/>
<stop offset="0.992188" stop-color="#5F19EB"/>
<stop offset="0.996094" stop-color="#5F18EB"/>
<stop offset="1" stop-color="#5E17EB"/>
</linearGradient>
<clipPath id="clip0_32_25">
<rect width="772" height="839" fill="white"/>
</clipPath>
</defs>
</svg>
