<svg width="1155" height="153" viewBox="0 0 1155 153" fill="none" xmlns="http://www.w3.org/2000/svg">
<path d="M65.3423 88.8053C65.3423 85.2533 64.5293 82.2585 62.9033 79.8262C61.2772 77.3835 59.1925 75.3262 56.6492 73.6595C54.1059 71.9824 51.302 70.5866 48.248 69.472C45.1887 68.347 42.2493 67.3366 39.4298 66.4303C35.3438 65.1126 31.1849 63.5241 26.9634 61.6595C22.7367 59.8001 18.8853 57.5137 15.4143 54.8053C11.9381 52.097 9.09774 48.9043 6.88799 45.222C4.67823 41.5293 3.57335 37.1908 3.57335 32.2012C3.57335 27.2012 4.67823 22.7428 6.88799 18.8262C9.09774 14.8991 11.9798 11.5762 15.5394 8.86784C19.0938 6.15951 23.1328 4.10742 27.6514 2.70117C32.1647 1.28451 36.7041 0.576172 41.2643 0.576172C46.3092 0.576172 51.1665 1.41992 55.8362 3.09701C60.5163 4.76367 64.6648 7.11263 68.2817 10.1387C71.8934 13.1699 74.7859 16.8366 76.954 21.1387C79.1325 25.4303 80.279 30.2324 80.3937 35.5345H65.2589C64.8264 32.2012 63.9977 29.1699 62.7782 26.4303C61.5534 23.696 59.9326 21.347 57.9209 19.3887C55.904 17.4199 53.5014 15.8887 50.7079 14.8053C47.9249 13.7116 44.777 13.1595 41.2643 13.1595C38.4552 13.1595 35.7086 13.5658 33.0298 14.3678C30.3458 15.1595 27.9536 16.3574 25.8585 17.9512C23.7582 19.5345 22.0853 21.5033 20.8345 23.847C19.5837 26.1803 18.9583 28.8835 18.9583 31.9512C19.0104 35.3001 19.8599 38.1335 21.5016 40.4512C23.1537 42.7585 25.2384 44.7116 27.7556 46.3053C30.2833 47.8887 33.0194 49.2168 35.9692 50.2845C38.9138 51.3418 41.6917 52.2637 44.3079 53.0553C47.1692 53.9616 50.0616 54.9876 52.9802 56.1387C55.8987 57.2793 58.7131 58.5918 61.4231 60.0762C64.1332 61.5658 66.6557 63.2376 68.9905 65.097C71.3358 66.946 73.3892 69.0501 75.1403 71.4095C76.8914 73.7741 78.2517 76.3783 79.2263 79.222C80.2113 82.0553 80.7064 85.2012 80.7064 88.6595C80.7064 93.8574 79.5494 98.3887 77.2458 102.264C74.9371 106.139 71.9508 109.368 68.2817 111.951C64.6127 114.524 60.4642 116.462 55.8362 117.764C51.2186 119.055 46.6063 119.701 41.9939 119.701C36.8344 119.701 31.7842 118.91 26.8383 117.326C21.9029 115.732 17.4834 113.43 13.5798 110.43C9.67103 107.43 6.49711 103.774 4.05283 99.4512C1.60333 95.1178 0.305619 90.196 0.15448 84.6803H15.2058C15.6905 88.2949 16.6755 91.4928 18.1661 94.2845C19.6514 97.0658 21.5641 99.4251 23.899 101.368C26.2338 103.3 28.9282 104.758 31.9875 105.743C35.0415 106.717 38.377 107.201 41.9939 107.201C44.8552 107.201 47.6747 106.847 50.4577 106.139C53.2512 105.42 55.7372 104.3 57.9209 102.785C60.0994 101.274 61.8818 99.3626 63.2577 97.0553C64.644 94.7533 65.3423 92.0033 65.3423 88.8053Z" fill="#F4F4F4"/>
<path d="M134.246 87.5345L138.082 97.972L164.37 31.9512H180.86L137.123 131.41C136.107 133.644 134.814 136.003 133.246 138.493C131.687 140.993 129.79 143.305 127.554 145.43C125.329 147.555 122.728 149.331 119.758 150.764C116.782 152.191 113.358 152.91 109.48 152.91C108.782 152.91 108.011 152.868 107.166 152.785C106.317 152.712 105.462 152.607 104.602 152.472C103.753 152.347 102.955 152.201 102.205 152.035C101.465 151.878 100.86 151.748 100.391 151.639L102.789 139.618C103.148 139.618 103.648 139.644 104.289 139.701C104.925 139.753 105.587 139.805 106.27 139.847C106.963 139.899 107.63 139.941 108.271 139.972C108.907 139.998 109.418 140.014 109.793 140.014C111.805 140.014 113.65 139.456 115.317 138.347C116.996 137.232 118.486 135.91 119.779 134.368C121.082 132.826 122.202 131.227 123.135 129.576C124.063 127.936 124.792 126.581 125.324 125.514L131.223 114.055L94.0954 31.9512H110.585L134.246 87.5345Z" fill="#F4F4F4"/>
<path d="M257.748 95.2635C257.748 93.5135 257.399 91.9406 256.706 90.5343C256.023 89.1177 254.856 87.826 253.203 86.6593C251.562 85.4927 249.388 84.425 246.678 83.451C243.968 82.4666 240.596 81.5708 236.568 80.7635C231.617 79.7635 227.108 78.55 223.038 77.1177C218.978 75.675 215.502 73.9614 212.615 71.9718C209.722 69.9875 207.476 67.6541 205.881 64.9718C204.281 62.2948 203.484 59.175 203.484 55.6177C203.484 52.1073 204.302 48.826 205.944 45.7843C207.596 42.7323 209.91 40.0656 212.886 37.7843C215.856 35.4927 219.4 33.6906 223.518 32.3677C227.645 31.0343 232.174 30.3677 237.11 30.3677C242.431 30.3677 247.21 31.0656 251.452 32.451C255.705 33.826 259.317 35.7375 262.293 38.1802C265.263 40.6125 267.556 43.4614 269.172 46.7218C270.798 49.9875 271.611 53.5083 271.611 57.2843H256.872C256.872 55.425 256.393 53.6073 255.434 51.826C254.486 50.05 253.162 48.4718 251.452 47.0968C249.753 45.7114 247.7 44.5916 245.282 43.7427C242.863 42.8989 240.138 42.4718 237.11 42.4718C233.983 42.4718 231.236 42.8208 228.875 43.5135C226.509 44.1958 224.544 45.1177 222.976 46.2843C221.402 47.451 220.213 48.8052 219.411 50.3468C218.619 51.8885 218.223 53.4875 218.223 55.1385C218.223 56.8364 218.54 58.3468 219.182 59.6802C219.817 61.0031 220.922 62.1958 222.496 63.2635C224.065 64.3208 226.165 65.2739 228.792 66.1177C231.419 66.9666 234.754 67.7948 238.798 68.5968C244.104 69.7114 248.857 70.9927 253.058 72.451C257.253 73.9093 260.781 75.6593 263.648 77.701C266.525 79.7427 268.713 82.1177 270.214 84.826C271.726 87.5343 272.487 90.6698 272.487 94.2218C272.487 98.0552 271.622 101.545 269.902 104.68C268.177 107.805 265.774 110.487 262.689 112.722C259.614 114.946 255.924 116.67 251.619 117.889C247.309 119.097 242.603 119.701 237.506 119.701C231.669 119.701 226.462 118.92 221.892 117.368C217.331 115.8 213.469 113.732 210.301 111.159C207.142 108.576 204.724 105.592 203.046 102.201C201.378 98.8 200.544 95.2635 200.544 91.5968H215.283C215.492 94.6281 216.294 97.175 217.701 99.2427C219.119 101.316 220.875 102.987 222.976 104.264C225.071 105.545 227.395 106.446 229.938 106.972C232.492 107.503 235.015 107.764 237.506 107.764C243.729 107.764 248.643 106.628 252.244 104.347C255.856 102.055 257.691 99.0291 257.748 95.2635Z" fill="#F4F4F4"/>
<path d="M333.281 11.0969V31.9511H366.115V43.3469H333.281V90.1594C333.281 93.5084 333.703 96.274 334.553 98.4511C335.413 100.633 336.585 102.378 338.076 103.68C339.561 104.972 341.271 105.883 343.204 106.409C345.148 106.941 347.207 107.201 349.375 107.201C350.97 107.201 352.617 107.113 354.316 106.93C356.025 106.753 357.682 106.529 359.298 106.264C360.924 105.988 362.435 105.701 363.843 105.409C365.245 105.118 366.396 104.868 367.303 104.659L369.388 115.097C368.163 115.837 366.678 116.488 364.927 117.055C363.176 117.613 361.258 118.087 359.173 118.472C357.099 118.873 354.91 119.18 352.606 119.389C350.297 119.597 348.004 119.701 345.727 119.701C341.891 119.701 338.311 119.159 334.991 118.076C331.681 116.993 328.804 115.274 326.36 112.909C323.911 110.55 321.982 107.503 320.565 103.764C319.158 100.014 318.459 95.4823 318.459 90.1594V43.3469H295.84V31.9511H318.459V11.0969H333.281Z" fill="#F4F4F4"/>
<path d="M434.394 119.701C428.332 119.701 422.766 118.665 417.695 116.597C412.619 114.529 408.278 111.639 404.666 107.93C401.049 104.211 398.235 99.8 396.223 94.701C394.206 89.6073 393.2 84.0552 393.2 78.0552V74.7218C393.2 67.7635 394.31 61.5448 396.536 56.0552C398.772 50.5552 401.732 45.9093 405.417 42.1177C409.112 38.3156 413.307 35.4041 418.008 33.3885C422.719 31.3781 427.54 30.3677 432.476 30.3677C438.698 30.3677 444.134 31.4458 448.778 33.5968C453.416 35.7375 457.283 38.7114 460.369 42.5135C463.454 46.3052 465.752 50.7791 467.269 55.9302C468.78 61.0864 469.541 66.6541 469.541 72.6385V79.2635H407.939C408.106 83.1958 408.861 86.8833 410.211 90.326C411.572 93.7739 413.432 96.7843 415.798 99.3677C418.159 101.941 420.989 103.967 424.283 105.451C427.577 106.941 431.209 107.68 435.186 107.68C440.45 107.68 445.13 106.628 449.216 104.514C453.302 102.389 456.7 99.5708 459.41 96.0552L468.415 103.076C466.982 105.243 465.189 107.326 463.037 109.326C460.879 111.316 458.393 113.076 455.574 114.618C452.765 116.159 449.58 117.389 446.026 118.305C442.466 119.232 438.589 119.701 434.394 119.701ZM432.476 42.4718C429.5 42.4718 426.685 43.0239 424.033 44.1177C421.375 45.201 418.988 46.7948 416.861 48.8885C414.735 50.9875 412.942 53.5656 411.483 56.6177C410.024 59.6593 409.002 63.175 408.418 67.1593H454.803V66.0343C454.636 63.175 454.083 60.3416 453.156 57.5343C452.223 54.7166 450.852 52.1958 449.049 49.9718C447.24 47.7375 444.968 45.9302 442.232 44.5552C439.506 43.1698 436.254 42.4718 432.476 42.4718Z" fill="#F4F4F4"/>
<path d="M501.004 31.951L501.401 40.076C503.152 37.05 505.445 34.6906 508.28 32.9927C511.126 31.3 514.576 30.425 518.62 30.3677C526.526 30.3677 531.806 33.4458 534.463 39.5968C536.173 36.8364 538.414 34.6177 541.197 32.951C543.99 31.2843 547.378 30.425 551.37 30.3677C557.676 30.3677 562.534 32.3052 565.942 36.1802C569.345 40.0552 571.05 45.925 571.05 53.7843V118.118H557.02V53.6177C557.02 46.3989 553.695 42.8156 547.055 42.8677C545.304 42.8677 543.787 43.1125 542.51 43.5968C541.244 44.0708 540.181 44.7166 539.321 45.5343C538.471 46.3573 537.809 47.3156 537.34 48.4093C536.866 49.4927 536.548 50.6177 536.381 51.7843V118.118H522.352V53.5343C522.352 50.0916 521.58 47.4406 520.038 45.576C518.505 43.7166 516.066 42.8156 512.72 42.8677C509.635 42.8677 507.243 43.4823 505.549 44.701C503.85 45.925 502.599 47.5448 501.797 49.5552V118.118H487.767V31.951H501.004Z" fill="#F4F4F4"/>
<path d="M750.801 88.8053C750.801 85.2533 749.988 82.2585 748.362 79.8262C746.736 77.3835 744.652 75.3262 742.108 73.6595C739.565 71.9824 736.761 70.5866 733.707 69.472C730.648 68.347 727.708 67.3366 724.889 66.4303C720.803 65.1126 716.644 63.5241 712.422 61.6595C708.196 59.8001 704.344 57.5137 700.873 54.8053C697.397 52.097 694.557 48.9043 692.347 45.222C690.137 41.5293 689.032 37.1908 689.032 32.2012C689.032 27.2012 690.137 22.7428 692.347 18.8262C694.557 14.8991 697.439 11.5762 700.998 8.86784C704.553 6.15951 708.592 4.10742 713.11 2.70117C717.624 1.28451 722.163 0.576172 726.723 0.576172C731.768 0.576172 736.626 1.41992 741.295 3.09701C745.975 4.76367 750.124 7.11263 753.741 10.1387C757.352 13.1699 760.245 16.8366 762.413 21.1387C764.591 25.4303 765.738 30.2324 765.853 35.5345H750.718C750.285 32.2012 749.457 29.1699 748.237 26.4303C747.012 23.696 745.392 21.347 743.38 19.3887C741.363 17.4199 738.96 15.8887 736.167 14.8053C733.384 13.7116 730.236 13.1595 726.723 13.1595C723.914 13.1595 721.168 13.5658 718.489 14.3678C715.805 15.1595 713.413 16.3574 711.318 17.9512C709.217 19.5345 707.544 21.5033 706.293 23.847C705.043 26.1803 704.417 28.8835 704.417 31.9512C704.469 35.3001 705.319 38.1335 706.961 40.4512C708.613 42.7585 710.697 44.7116 713.215 46.3053C715.742 47.8887 718.478 49.2168 721.428 50.2845C724.373 51.3418 727.151 52.2637 729.767 53.0553C732.628 53.9616 735.521 54.9876 738.439 56.1387C741.358 57.2793 744.172 58.5918 746.882 60.0762C749.592 61.5658 752.115 63.2376 754.449 65.097C756.795 66.946 758.848 69.0501 760.599 71.4095C762.35 73.7741 763.711 76.3783 764.685 79.222C765.67 82.0553 766.165 85.2012 766.165 88.6595C766.165 93.8574 765.008 98.3887 762.705 102.264C760.396 106.139 757.41 109.368 753.741 111.951C750.072 114.524 745.923 116.462 741.295 117.764C736.678 119.055 732.065 119.701 727.453 119.701C722.293 119.701 717.243 118.91 712.297 117.326C707.362 115.732 702.942 113.43 699.039 110.43C695.13 107.43 691.956 103.774 689.512 99.4512C687.062 95.1178 685.765 90.196 685.613 84.6803H700.665C701.15 88.2949 702.135 91.4928 703.625 94.2845C705.11 97.0658 707.023 99.4251 709.358 101.368C711.693 103.3 714.387 104.758 717.446 105.743C720.501 106.717 723.836 107.201 727.453 107.201C730.314 107.201 733.134 106.847 735.917 106.139C738.71 105.42 741.196 104.3 743.38 102.785C745.558 101.274 747.341 99.3626 748.717 97.0553C750.103 94.7533 750.801 92.0033 750.801 88.8053Z" fill="#F4F4F4"/>
<path d="M822.895 11.0969V31.9511H855.729V43.3469H822.895V90.1594C822.895 93.5084 823.317 96.274 824.167 98.4511C825.026 100.633 826.199 102.378 827.69 103.68C829.175 104.972 830.884 105.883 832.818 106.409C834.762 106.941 836.821 107.201 838.989 107.201C840.583 107.201 842.23 107.113 843.929 106.93C845.639 106.753 847.296 106.529 848.912 106.264C850.538 105.988 852.049 105.701 853.456 105.409C854.858 105.118 856.01 104.868 856.917 104.659L859.002 115.097C857.777 115.837 856.291 116.488 854.54 117.055C852.789 117.613 850.871 118.087 848.787 118.472C846.712 118.873 844.523 119.18 842.22 119.389C839.911 119.597 837.618 119.701 835.34 119.701C831.505 119.701 827.924 119.159 824.604 118.076C821.295 116.993 818.418 115.274 815.974 112.909C813.524 110.55 811.596 107.503 810.178 103.764C808.771 100.014 808.073 95.4823 808.073 90.1594V43.3469H785.454V31.9511H808.073V11.0969H822.895Z" fill="#F4F4F4"/>
<path d="M942.582 118.118C941.998 117.008 941.529 115.618 941.185 113.951C940.836 112.274 940.586 110.529 940.434 108.722C938.933 110.211 937.266 111.618 935.431 112.951C933.607 114.274 931.595 115.441 929.386 116.451C927.176 117.451 924.82 118.243 922.319 118.826C919.827 119.409 917.18 119.701 914.376 119.701C909.8 119.701 905.667 119.04 901.972 117.722C898.287 116.389 895.155 114.597 892.57 112.347C889.996 110.086 888.005 107.404 886.587 104.305C885.18 101.196 884.482 97.8364 884.482 94.2218C884.482 89.5031 885.425 85.3625 887.317 81.8052C889.203 78.2531 891.872 75.2948 895.322 72.9302C898.783 70.5708 902.936 68.8052 907.788 67.6385C912.651 66.4718 918.087 65.8885 924.091 65.8885H940.184V59.1177C940.184 56.5083 939.705 54.1698 938.746 52.0968C937.787 50.0291 936.432 48.2635 934.681 46.8052C932.93 45.3468 930.788 44.2218 928.26 43.4302C925.743 42.6281 922.923 42.2218 919.796 42.2218C916.862 42.2218 914.24 42.5968 911.937 43.3468C909.628 44.0864 907.674 45.0656 906.079 46.2843C904.479 47.5083 903.244 48.9614 902.368 50.6385C901.493 52.3052 901.055 54.0448 901.055 55.8468H886.233C886.285 52.7114 887.098 49.6333 888.672 46.6177C890.241 43.5916 892.497 40.8677 895.447 38.451C898.392 36.0343 901.977 34.0864 906.204 32.5968C910.425 31.1125 915.22 30.3677 920.588 30.3677C925.466 30.3677 930.001 30.9666 934.201 32.1593C938.397 33.3573 942.024 35.1593 945.083 37.576C948.137 39.9927 950.545 43.0083 952.296 46.6177C954.047 50.2323 954.923 54.4458 954.923 59.2635V99.326C954.923 102.191 955.184 105.232 955.715 108.451C956.257 111.659 956.997 114.461 957.946 116.847V118.118H942.582ZM916.523 106.889C919.384 106.889 922.068 106.524 924.57 105.784C927.072 105.034 929.344 104.05 931.387 102.826C933.43 101.607 935.191 100.217 936.682 98.6593C938.167 97.0916 939.335 95.451 940.184 93.7427V76.3052H926.488C917.868 76.3052 911.171 77.5864 906.392 80.1385C901.607 82.6802 899.22 86.6906 899.22 92.1593C899.22 94.2843 899.58 96.2531 900.304 98.0552C901.024 99.8625 902.102 101.42 903.536 102.722C904.964 104.014 906.767 105.034 908.935 105.784C911.113 106.524 913.646 106.889 916.523 106.889Z" fill="#F4F4F4"/>
<path d="M1018.74 11.0969V31.9511H1051.57V43.3469H1018.74V90.1594C1018.74 93.5084 1019.16 96.274 1020.01 98.4511C1020.87 100.633 1022.04 102.378 1023.53 103.68C1025.02 104.972 1026.73 105.883 1028.66 106.409C1030.61 106.941 1032.67 107.201 1034.83 107.201C1036.43 107.201 1038.08 107.113 1039.77 106.93C1041.48 106.753 1043.14 106.529 1044.76 106.264C1046.38 105.988 1047.89 105.701 1049.3 105.409C1050.7 105.118 1051.86 104.868 1052.76 104.659L1054.85 115.097C1053.62 115.837 1052.14 116.488 1050.39 117.055C1048.63 117.613 1046.72 118.087 1044.63 118.472C1042.56 118.873 1040.37 119.18 1038.07 119.389C1035.76 119.597 1033.46 119.701 1031.19 119.701C1027.35 119.701 1023.77 119.159 1020.45 118.076C1017.14 116.993 1014.26 115.274 1011.82 112.909C1009.37 110.55 1007.44 107.503 1006.02 103.764C1004.62 100.014 1003.92 95.4823 1003.92 90.1594V43.3469H981.299V31.9511H1003.92V11.0969H1018.74Z" fill="#F4F4F4"/>
<path d="M1119.85 119.701C1113.79 119.701 1108.23 118.665 1103.15 116.597C1098.08 114.529 1093.74 111.639 1090.12 107.93C1086.51 104.211 1083.69 99.8 1081.68 94.701C1079.66 89.6073 1078.66 84.0552 1078.66 78.0552V74.7218C1078.66 67.7635 1079.77 61.5448 1081.99 56.0552C1084.23 50.5552 1087.19 45.9093 1090.88 42.1177C1094.57 38.3156 1098.77 35.4041 1103.47 33.3885C1108.18 31.3781 1113 30.3677 1117.93 30.3677C1124.16 30.3677 1129.59 31.4458 1134.24 33.5968C1138.88 35.7375 1142.74 38.7114 1145.83 42.5135C1148.91 46.3052 1151.21 50.7791 1152.73 55.9302C1154.24 61.0864 1155 66.6541 1155 72.6385V79.2635H1093.4C1093.56 83.1958 1094.32 86.8833 1095.67 90.326C1097.03 93.7739 1098.89 96.7843 1101.26 99.3677C1103.62 101.941 1106.45 103.967 1109.74 105.451C1113.04 106.941 1116.67 107.68 1120.64 107.68C1125.91 107.68 1130.59 106.628 1134.67 104.514C1138.76 102.389 1142.16 99.5708 1144.87 96.0552L1153.87 103.076C1152.44 105.243 1150.65 107.326 1148.5 109.326C1146.34 111.316 1143.85 113.076 1141.03 114.618C1138.22 116.159 1135.04 117.389 1131.48 118.305C1127.93 119.232 1124.05 119.701 1119.85 119.701ZM1117.93 42.4718C1114.96 42.4718 1112.14 43.0239 1109.49 44.1177C1106.83 45.201 1104.45 46.7948 1102.32 48.8885C1100.19 50.9875 1098.4 53.5656 1096.94 56.6177C1095.48 59.6593 1094.46 63.175 1093.88 67.1593H1140.26V66.0343C1140.09 63.175 1139.54 60.3416 1138.61 57.5343C1137.68 54.7166 1136.31 52.1958 1134.51 49.9718C1132.7 47.7375 1130.43 45.9302 1127.69 44.5552C1124.97 43.1698 1121.71 42.4718 1117.93 42.4718Z" fill="#F4F4F4"/>
</svg>
