<svg width="1300" height="270" viewBox="0 0 1300 270" fill="none" xmlns="http://www.w3.org/2000/svg">
<mask id="mask0_16_13" style="mask-type:luminance" maskUnits="userSpaceOnUse" x="0" y="0" width="1301" height="270">
<path d="M0 0H1300V270H0V0Z" fill="white"/>
</mask>
<g mask="url(#mask0_16_13)">
<mask id="mask1_16_13" style="mask-type:luminance" maskUnits="userSpaceOnUse" x="0" y="-53" width="1301" height="853">
<path d="M49.9765 -35.2012H0.722436V-40.065H49.9765V-35.2012ZM607.276 -50.4638L600.878 -52.8983L576.251 -24.8024L582.649 -22.3679L607.276 -50.4638ZM720.562 -50.4638L714.16 -52.8983L689.533 -24.8024L695.931 -22.3679L720.562 -50.4638ZM842.445 -41.7329L839.559 -46.2133L794.218 -33.5359L797.104 -29.0555L842.445 -41.7329ZM956.241 -40.065H906.987V-35.1986H956.241V-40.065ZM1069.01 -33.5359L1023.67 -46.2107L1020.78 -41.7303L1066.12 -29.0555L1069.01 -33.5359ZM1178.2 -27.8845L1143.38 -50.8233L1138.15 -47.3843L1172.98 -24.4455L1178.2 -27.8845ZM1286.97 -24.8024L1262.35 -52.8983L1255.95 -50.4638L1280.58 -22.3679L1286.97 -24.8024ZM498.505 27.2315L493.284 23.7925L458.454 46.7313L463.68 50.1703L498.505 27.2315ZM601.705 21.9448L594.569 20.684L581.822 52.0206L588.958 53.2788L601.705 21.9448ZM717.696 22.8541L710.849 21.0303L692.399 51.1087L699.25 52.9326L717.696 22.8541ZM838.355 27.2315L833.13 23.7925L798.304 46.7313L803.526 50.1703L838.355 27.2315ZM956.241 34.5482H906.987V39.4146H956.241V34.5482ZM1064.92 46.7313L1030.09 23.7925L1024.87 27.2315L1059.7 50.1703L1064.92 46.7313ZM1170.83 51.1087L1152.38 21.0303L1145.53 22.8541L1163.98 52.9326L1170.83 51.1087ZM1281.41 52.018L1268.65 20.684L1261.52 21.9422L1274.27 53.2788L1281.41 52.018ZM493.994 98.7626L487.596 96.3307L462.969 124.427L469.367 126.858L493.994 98.7626ZM595.46 95.3738H588.071V127.815H595.46V95.3738ZM708.742 95.3738H701.353V127.815H708.742V95.3738ZM822.024 95.3738H814.635V127.815H822.024V95.3738ZM956.241 109.164H906.987V114.03H956.241V109.164ZM1048.59 95.3738H1041.2V127.815H1048.59V95.3738ZM1161.87 95.3738H1154.49V127.815H1161.87V95.3738ZM1275.16 95.3738H1267.77V127.815H1275.16V95.3738ZM49.9765 183.777H0.722436V188.644H49.9765V183.777ZM163.259 183.777H114.008V188.644H163.263V183.777H163.259ZM276.81 186.553L275.866 181.726L227.014 185.868L227.961 190.692L276.81 186.553ZM388.161 179.865L384.324 175.707L342.234 192.556L346.071 196.714L388.161 179.865ZM488.423 171.171L481.287 169.913L468.54 201.25L475.676 202.508L488.423 171.171ZM601.705 201.25L588.958 169.913L581.822 171.171L594.569 202.508L601.705 201.25ZM716.938 200.621L700.093 170.135L693.154 171.8L709.998 202.286L716.938 200.621ZM838.355 195.958L803.526 173.019L798.304 176.461L833.13 199.399L838.355 195.958ZM956.241 183.777H906.987V188.644H956.241V183.777ZM1064.92 176.461L1059.7 173.019L1024.87 195.958L1030.09 199.399L1064.92 176.461ZM1170.83 172.083L1163.98 170.259L1145.53 200.338L1152.38 202.162L1170.83 172.083ZM1281.41 171.171L1274.27 169.913L1261.52 201.25L1268.65 202.508L1281.41 171.171ZM488.423 275.863L475.676 244.526L468.54 245.787L481.287 277.121L488.423 275.863ZM606.586 274.005L583.464 245.361L576.938 247.645L600.064 276.288L606.586 274.005ZM725.073 270.574L690.244 247.635L685.022 251.076L719.848 274.015L725.073 270.574ZM842.445 264.925L797.104 252.247L794.218 256.728L839.559 269.403L842.445 264.925ZM956.241 258.393H906.987V263.259H956.241V258.393ZM1069.01 256.728L1066.12 252.247L1020.78 264.925L1023.67 269.403L1069.01 256.728ZM1178.2 251.076L1172.98 247.635L1138.15 270.574L1143.38 274.015L1178.2 251.076ZM1286.97 247.994L1280.58 245.56L1255.95 273.656L1262.35 276.09L1286.97 247.994ZM493.304 348.618L470.178 319.975L463.656 322.261L486.778 350.904L493.304 348.618ZM611.787 345.189L576.962 322.251L571.736 325.69L606.562 348.628L611.787 345.189ZM728.224 341.444L685.568 325.222L681.872 329.435L724.527 345.657L728.224 341.444ZM843.075 337.288L795.499 328.891L793.584 333.59L841.161 341.986L843.075 337.288ZM956.241 333.009H906.987V337.875H956.241V333.009ZM1069.64 333.59L1067.73 328.893L1020.15 337.288L1022.06 341.988L1069.64 333.59ZM1181.35 329.438L1177.66 325.224L1135 341.446L1138.7 345.657L1181.35 329.438ZM1291.49 325.69L1286.26 322.251L1251.44 345.189L1256.66 348.628L1291.49 325.69ZM49.9765 407.622H0.722436V412.488H49.9765V407.622ZM163.507 410.834L115.2 404.503L113.756 409.277L162.067 415.605L163.507 410.834ZM276.079 414.014L230.574 401.598L227.748 406.094L273.249 418.51L276.079 414.014ZM388.085 416.522L346.2 399.449L342.314 403.588L384.196 420.659L388.085 416.522ZM498.505 419.805L463.68 396.866L458.454 400.305L493.284 423.244L498.505 419.805ZM613.228 418.373L574.951 397.955L570.303 401.735L608.58 422.152L613.228 418.373ZM727.714 416.85L686.407 399.179L682.381 403.261L723.693 420.929L727.714 416.85ZM841.947 415.251L798.063 400.525L794.712 404.86L838.596 419.588L841.947 415.251ZM955.924 413.596L909.945 401.971L907.3 406.515L953.283 418.14L955.924 413.596ZM1069.64 411.904L1022.06 403.506L1020.15 408.206L1067.73 416.601L1069.64 411.904ZM1183.08 410.189L1134.43 405.114L1133.28 409.919L1181.92 414.994L1183.08 410.189ZM1296.09 407.622H1246.83V412.488H1296.09V407.622ZM49.3785 480.361L46.4005 475.907L1.32045 488.976L4.2985 493.43L49.3785 480.361ZM163.259 482.235H114.008V487.102H163.263V482.235H163.259ZM275.589 489.758L231.553 475.23L228.242 479.581L272.282 494.109L275.589 489.758ZM385.223 494.418L350.398 471.48L345.172 474.921L380.002 497.86L385.223 494.418ZM611.787 494.418L576.962 471.48L571.736 474.921L606.562 497.86L611.787 494.418ZM49.1417 554.446L45.9389 550.06L1.55324 564.126L4.75604 568.508L49.1417 554.446ZM163.259 556.851H114.008V561.718H163.263V556.851H163.259ZM274.646 565.984L233.166 548.488L229.185 552.585L270.661 570.081L274.646 565.984ZM383.995 570.041L352.019 545.366L346.4 548.525L378.376 573.2L383.995 570.041ZM725.073 569.034L690.244 546.093L685.022 549.534L719.848 572.473L725.073 569.034ZM49.9765 631.467H0.722436V636.333H49.9765V631.467ZM163.259 631.467H114.008V636.333H163.263V631.467H163.259ZM276.545 631.467H227.291V636.333H276.545V631.467ZM370.305 649.952L367.463 617.566L360.09 617.846L362.932 650.235L370.305 649.952ZM838.355 643.65L803.526 620.709L798.304 624.15L833.13 647.089L838.355 643.65ZM1182.8 631.467H1133.55V636.333H1182.8V631.467ZM1296.09 631.467H1246.83V636.333H1296.09V631.467ZM49.3544 712.871L4.33462 699.707L1.33651 704.156L46.3563 717.317L49.3544 712.871ZM163.259 706.08H114.008V710.947H163.263V706.08H163.259ZM271.744 698.594L266.455 695.198L232.079 718.432L237.373 721.829L271.744 698.594ZM378.99 694.857L372.3 692.792L351.405 722.17L358.096 724.232L378.99 694.857ZM832.596 721.959L810.682 692.903L804.064 695.068L825.973 724.124L832.596 721.959ZM943.891 722.783L926.232 692.499L919.332 694.243L936.992 724.528L943.891 722.783ZM1057.86 722.516L1038.73 692.62L1031.93 694.51L1051.05 724.406L1057.86 722.516ZM1183.04 709.419L1134.81 702.842L1133.31 707.605L1181.54 714.185L1183.04 709.419ZM1296.36 708.895L1247.83 703.336L1246.57 708.131L1295.09 713.69L1296.36 708.895ZM50.0528 781.074L48.0541 776.39L0.642166 785.184L2.64492 789.868L50.0528 781.074ZM161.336 776.39L157.335 772.298L115.927 789.868L119.928 793.96L161.336 776.39ZM267.795 770.495L261.47 767.982L236.032 795.76L242.357 798.274L267.795 770.495ZM374.338 767.871L367.138 766.776L356.057 798.385L363.257 799.479L374.338 767.871ZM825.103 798.911L818.886 766.731L811.557 767.345L817.774 799.527L825.103 798.911ZM935.306 766.908H927.917V799.35H935.306V766.908ZM1048.69 766.919L1041.3 766.898L1041.09 799.339L1048.48 799.358L1048.69 766.919ZM1167.3 798.39L1156.26 766.776L1149.06 767.865L1160.1 799.479L1167.3 798.39ZM1292.29 792.118L1255.55 770.509L1250.63 774.138L1287.37 795.747L1292.29 792.118ZM49.9765 34.5482H0.722436V39.4146H49.9765V34.5482ZM163.507 36.203L162.067 31.4291L113.756 37.7599L115.2 42.5311L163.507 36.203ZM276.079 33.0204L273.249 28.5241L227.748 40.9398L230.574 45.4361L276.079 33.0204ZM388.085 30.5145L384.196 26.3777L342.314 43.4483L346.2 47.5878L388.085 30.5145ZM163.732 -40.065H114.478V-35.1986H163.732V-40.065ZM277.263 -38.4129L275.818 -43.1841L227.511 -36.856L228.956 -32.0821L277.263 -38.4129ZM389.839 -41.5928L387.009 -46.0891L341.504 -33.6734L344.333 -29.1771L389.839 -41.5928ZM501.836 -44.1013L497.951 -48.2381L456.066 -31.1675L459.955 -27.0281L501.836 -44.1013ZM496.852 492.33L465.855 467.118L460.112 470.179L491.108 495.391L496.852 492.33ZM494.993 568.149L468.167 540.938L461.97 543.59L488.796 570.797L494.993 568.149ZM492.95 643.832L470.591 614.928L464.005 617.135L486.364 646.042L492.95 643.832ZM490.755 719.368L473.107 689.084L466.208 690.826L483.856 721.113L490.755 719.368ZM488.423 794.753L475.676 763.417L468.54 764.675L481.287 796.011L488.423 794.753ZM610.134 567.541L579.137 542.329L573.394 545.39L604.39 570.602L610.134 567.541ZM608.275 643.357L581.449 616.149L575.252 618.8L602.078 646.008L608.275 643.357ZM606.236 719.043L583.877 690.136L577.291 692.345L599.65 721.25L606.236 719.043ZM604.037 794.579L586.39 764.294L579.49 766.036L597.138 796.323L604.037 794.579ZM723.416 644.052L692.419 618.84L686.676 621.901L717.672 647.113L723.416 644.052ZM721.557 719.87L694.731 692.663L688.534 695.311L715.36 722.519L721.557 719.87ZM719.518 795.554L697.159 766.649L690.573 768.857L712.932 797.764L719.518 795.554ZM730.15 492.988L691.873 472.571L687.222 476.351L725.499 496.768L730.15 492.988ZM844.636 491.463L803.329 473.793L799.304 477.874L840.615 495.544L844.636 491.463ZM958.87 489.864L914.986 475.138L911.634 479.473L955.518 494.202L958.87 489.864ZM1072.85 488.212L1026.87 476.584L1024.22 481.128L1070.21 492.753L1072.85 488.212ZM1186.57 486.517L1138.99 478.12L1137.07 482.819L1184.65 491.217L1186.57 486.517ZM1300 484.802L1251.35 479.729L1250.2 484.535L1298.85 489.608L1300 484.802ZM841.109 567.602L802.831 547.184L798.18 550.967L836.457 571.382L841.109 567.602ZM955.595 566.079L914.287 548.408L910.262 552.49L951.569 570.16L955.595 566.079ZM1069.83 564.48L1025.95 549.751L1022.6 554.089L1066.48 568.815L1069.83 564.48ZM1183.81 562.825L1137.83 551.2L1135.18 555.741L1181.16 567.369L1183.81 562.825ZM1297.52 561.131L1249.95 552.735L1248.03 557.435L1295.61 565.831L1297.52 561.131ZM954.374 635.522L910.266 621.089L906.979 625.448L951.091 639.881L954.374 635.522ZM1068.86 630.119L1020 626.022L1019.06 630.848L1067.92 634.943L1068.86 630.119ZM384.75 101.847L379.528 98.4057L344.698 121.345L349.92 124.786L384.75 101.847ZM49.7518 110.819L48.3069 106.045L0 112.373L1.44487 117.147L49.7518 110.819ZM162.323 107.636L159.498 103.14L113.992 115.556L116.818 120.052L162.323 107.636ZM274.325 105.13L270.44 100.991L228.555 118.064L232.44 122.201L274.325 105.13ZM50.2214 336.218L1.91446 329.89L0.473597 334.661L48.7805 340.992L50.2214 336.218ZM162.797 339.398L117.292 326.982L114.466 331.478L159.967 343.894L162.797 339.398ZM274.799 341.909L232.913 324.836L229.028 328.973L270.91 346.046L274.799 341.909ZM385.223 345.189L350.398 322.251L345.172 325.69L380.002 348.628L385.223 345.189ZM49.9765 258.393H0.722436V263.259H49.9765V258.393ZM163.259 258.393H114.008V263.259H163.263V258.393H163.259ZM276.81 260.484L227.961 256.342L227.014 261.169L275.866 265.308L276.81 260.484ZM388.161 267.172L346.071 250.32L342.234 254.478L384.324 271.33L388.161 267.172Z" fill="white"/>
</mask>
<g mask="url(#mask1_16_13)">
<path d="M0 0V270H1300V0H0Z" fill="url(#paint0_linear_16_13)"/>
</g>
</g>
<defs>
<linearGradient id="paint0_linear_16_13" x1="0.00175795" y1="373.313" x2="1300" y2="373.313" gradientUnits="userSpaceOnUse">
<stop stop-color="#5E17EB"/>
<stop offset="0.00390625" stop-color="#5F18EB"/>
<stop offset="0.0078125" stop-color="#5F19EB"/>
<stop offset="0.0117187" stop-color="#601AEB"/>
<stop offset="0.015625" stop-color="#611BEB"/>
<stop offset="0.0195312" stop-color="#611BEB"/>
<stop offset="0.0234375" stop-color="#621CEC"/>
<stop offset="0.0273438" stop-color="#621DEC"/>
<stop offset="0.03125" stop-color="#631EEC"/>
<stop offset="0.0351562" stop-color="#641FEC"/>
<stop offset="0.0390625" stop-color="#6420EC"/>
<stop offset="0.0429687" stop-color="#6521EC"/>
<stop offset="0.046875" stop-color="#6622EC"/>
<stop offset="0.0507812" stop-color="#6623EC"/>
<stop offset="0.0546875" stop-color="#6724EC"/>
<stop offset="0.0585937" stop-color="#6825EC"/>
<stop offset="0.0625" stop-color="#6825EC"/>
<stop offset="0.0664062" stop-color="#6926EC"/>
<stop offset="0.0703125" stop-color="#6927ED"/>
<stop offset="0.0742188" stop-color="#6A28ED"/>
<stop offset="0.078125" stop-color="#6B29ED"/>
<stop offset="0.0820312" stop-color="#6B2AED"/>
<stop offset="0.0859375" stop-color="#6C2BED"/>
<stop offset="0.0898437" stop-color="#6D2CED"/>
<stop offset="0.09375" stop-color="#6D2DED"/>
<stop offset="0.0976563" stop-color="#6E2EED"/>
<stop offset="0.101562" stop-color="#6E2FED"/>
<stop offset="0.105469" stop-color="#6F2FED"/>
<stop offset="0.109375" stop-color="#7030ED"/>
<stop offset="0.113281" stop-color="#7031ED"/>
<stop offset="0.117188" stop-color="#7132ED"/>
<stop offset="0.121094" stop-color="#7233EE"/>
<stop offset="0.125" stop-color="#7234EE"/>
<stop offset="0.128906" stop-color="#7335EE"/>
<stop offset="0.132812" stop-color="#7336EE"/>
<stop offset="0.136719" stop-color="#7437EE"/>
<stop offset="0.140625" stop-color="#7538EE"/>
<stop offset="0.144531" stop-color="#7538EE"/>
<stop offset="0.148437" stop-color="#7639EE"/>
<stop offset="0.152344" stop-color="#773AEE"/>
<stop offset="0.15625" stop-color="#773BEE"/>
<stop offset="0.160156" stop-color="#783CEE"/>
<stop offset="0.164062" stop-color="#783DEE"/>
<stop offset="0.167969" stop-color="#793EEE"/>
<stop offset="0.171875" stop-color="#7A3FEF"/>
<stop offset="0.175781" stop-color="#7A40EF"/>
<stop offset="0.179687" stop-color="#7B41EF"/>
<stop offset="0.183594" stop-color="#7C42EF"/>
<stop offset="0.1875" stop-color="#7C42EF"/>
<stop offset="0.191406" stop-color="#7D43EF"/>
<stop offset="0.195312" stop-color="#7E44EF"/>
<stop offset="0.199219" stop-color="#7E45EF"/>
<stop offset="0.203125" stop-color="#7F46EF"/>
<stop offset="0.207031" stop-color="#7F47EF"/>
<stop offset="0.210937" stop-color="#8048EF"/>
<stop offset="0.214844" stop-color="#8149EF"/>
<stop offset="0.21875" stop-color="#814AEF"/>
<stop offset="0.222656" stop-color="#824BF0"/>
<stop offset="0.226562" stop-color="#834CF0"/>
<stop offset="0.230469" stop-color="#834CF0"/>
<stop offset="0.234375" stop-color="#844DF0"/>
<stop offset="0.238281" stop-color="#844EF0"/>
<stop offset="0.242187" stop-color="#854FF0"/>
<stop offset="0.246094" stop-color="#8650F0"/>
<stop offset="0.25" stop-color="#8651F0"/>
<stop offset="0.253906" stop-color="#8752F0"/>
<stop offset="0.257812" stop-color="#8853F0"/>
<stop offset="0.261719" stop-color="#8854F0"/>
<stop offset="0.265625" stop-color="#8955F0"/>
<stop offset="0.269531" stop-color="#8955F0"/>
<stop offset="0.273438" stop-color="#8A56F1"/>
<stop offset="0.277344" stop-color="#8B57F1"/>
<stop offset="0.28125" stop-color="#8B58F1"/>
<stop offset="0.285156" stop-color="#8C59F1"/>
<stop offset="0.289063" stop-color="#8D5AF1"/>
<stop offset="0.292969" stop-color="#8D5BF1"/>
<stop offset="0.296875" stop-color="#8E5CF1"/>
<stop offset="0.300781" stop-color="#8E5DF1"/>
<stop offset="0.304688" stop-color="#8F5EF1"/>
<stop offset="0.308594" stop-color="#905FF1"/>
<stop offset="0.3125" stop-color="#905FF1"/>
<stop offset="0.316406" stop-color="#9160F1"/>
<stop offset="0.320312" stop-color="#9261F1"/>
<stop offset="0.324219" stop-color="#9262F2"/>
<stop offset="0.328125" stop-color="#9363F2"/>
<stop offset="0.332031" stop-color="#9464F2"/>
<stop offset="0.335938" stop-color="#9465F2"/>
<stop offset="0.339844" stop-color="#9566F2"/>
<stop offset="0.34375" stop-color="#9567F2"/>
<stop offset="0.347656" stop-color="#9668F2"/>
<stop offset="0.351562" stop-color="#9769F2"/>
<stop offset="0.355469" stop-color="#9769F2"/>
<stop offset="0.359375" stop-color="#986AF2"/>
<stop offset="0.363281" stop-color="#996BF2"/>
<stop offset="0.367188" stop-color="#996CF2"/>
<stop offset="0.371094" stop-color="#9A6DF2"/>
<stop offset="0.375" stop-color="#9A6EF3"/>
<stop offset="0.378906" stop-color="#9B6FF3"/>
<stop offset="0.382812" stop-color="#9C70F3"/>
<stop offset="0.386719" stop-color="#9C71F3"/>
<stop offset="0.390625" stop-color="#9D72F3"/>
<stop offset="0.394531" stop-color="#9E73F3"/>
<stop offset="0.398438" stop-color="#9E73F3"/>
<stop offset="0.402344" stop-color="#9F74F3"/>
<stop offset="0.40625" stop-color="#9F75F3"/>
<stop offset="0.410156" stop-color="#A076F3"/>
<stop offset="0.414062" stop-color="#A177F3"/>
<stop offset="0.417969" stop-color="#A178F3"/>
<stop offset="0.421875" stop-color="#A279F3"/>
<stop offset="0.425781" stop-color="#A37AF4"/>
<stop offset="0.429688" stop-color="#A37BF4"/>
<stop offset="0.433594" stop-color="#A47CF4"/>
<stop offset="0.4375" stop-color="#A47CF4"/>
<stop offset="0.441406" stop-color="#A57DF4"/>
<stop offset="0.445312" stop-color="#A67EF4"/>
<stop offset="0.449219" stop-color="#A67FF4"/>
<stop offset="0.453125" stop-color="#A780F4"/>
<stop offset="0.457031" stop-color="#A881F4"/>
<stop offset="0.460937" stop-color="#A882F4"/>
<stop offset="0.464844" stop-color="#A983F4"/>
<stop offset="0.46875" stop-color="#AA84F4"/>
<stop offset="0.472656" stop-color="#AA85F5"/>
<stop offset="0.476562" stop-color="#AB86F5"/>
<stop offset="0.480469" stop-color="#AB86F5"/>
<stop offset="0.484375" stop-color="#AC87F5"/>
<stop offset="0.488281" stop-color="#AD88F5"/>
<stop offset="0.492188" stop-color="#AD89F5"/>
<stop offset="0.496094" stop-color="#AE8AF5"/>
<stop offset="0.5" stop-color="#AF8BF5"/>
<stop offset="0.503906" stop-color="#AF8CF5"/>
<stop offset="0.507812" stop-color="#B08DF5"/>
<stop offset="0.511719" stop-color="#B08EF5"/>
<stop offset="0.515625" stop-color="#B18FF5"/>
<stop offset="0.519531" stop-color="#B290F5"/>
<stop offset="0.523438" stop-color="#B290F6"/>
<stop offset="0.527344" stop-color="#B391F6"/>
<stop offset="0.53125" stop-color="#B492F6"/>
<stop offset="0.535156" stop-color="#B493F6"/>
<stop offset="0.539062" stop-color="#B594F6"/>
<stop offset="0.542969" stop-color="#B595F6"/>
<stop offset="0.546875" stop-color="#B696F6"/>
<stop offset="0.550781" stop-color="#B797F6"/>
<stop offset="0.554688" stop-color="#B798F6"/>
<stop offset="0.558594" stop-color="#B899F6"/>
<stop offset="0.5625" stop-color="#B999F6"/>
<stop offset="0.566406" stop-color="#B99AF6"/>
<stop offset="0.570312" stop-color="#BA9BF6"/>
<stop offset="0.574219" stop-color="#BA9CF7"/>
<stop offset="0.578125" stop-color="#BB9DF7"/>
<stop offset="0.582031" stop-color="#BC9EF7"/>
<stop offset="0.585938" stop-color="#BC9FF7"/>
<stop offset="0.589844" stop-color="#BDA0F7"/>
<stop offset="0.59375" stop-color="#BEA1F7"/>
<stop offset="0.597656" stop-color="#BEA2F7"/>
<stop offset="0.601562" stop-color="#BFA3F7"/>
<stop offset="0.605469" stop-color="#C0A3F7"/>
<stop offset="0.609375" stop-color="#C0A4F7"/>
<stop offset="0.613281" stop-color="#C1A5F7"/>
<stop offset="0.617188" stop-color="#C1A6F7"/>
<stop offset="0.621094" stop-color="#C2A7F7"/>
<stop offset="0.625" stop-color="#C3A8F8"/>
<stop offset="0.628906" stop-color="#C3A9F8"/>
<stop offset="0.632812" stop-color="#C4AAF8"/>
<stop offset="0.636719" stop-color="#C5ABF8"/>
<stop offset="0.640625" stop-color="#C5ACF8"/>
<stop offset="0.644531" stop-color="#C6ADF8"/>
<stop offset="0.648437" stop-color="#C6ADF8"/>
<stop offset="0.652344" stop-color="#C7AEF8"/>
<stop offset="0.65625" stop-color="#C8AFF8"/>
<stop offset="0.660156" stop-color="#C8B0F8"/>
<stop offset="0.664062" stop-color="#C9B1F8"/>
<stop offset="0.667969" stop-color="#CAB2F8"/>
<stop offset="0.671875" stop-color="#CAB3F8"/>
<stop offset="0.675781" stop-color="#CBB4F9"/>
<stop offset="0.679688" stop-color="#CBB5F9"/>
<stop offset="0.683594" stop-color="#CCB6F9"/>
<stop offset="0.6875" stop-color="#CDB6F9"/>
<stop offset="0.691406" stop-color="#CDB7F9"/>
<stop offset="0.695312" stop-color="#CEB8F9"/>
<stop offset="0.699219" stop-color="#CFB9F9"/>
<stop offset="0.703125" stop-color="#CFBAF9"/>
<stop offset="0.707031" stop-color="#D0BBF9"/>
<stop offset="0.710938" stop-color="#D0BCF9"/>
<stop offset="0.714844" stop-color="#D1BDF9"/>
<stop offset="0.71875" stop-color="#D2BEF9"/>
<stop offset="0.722656" stop-color="#D2BFF9"/>
<stop offset="0.726562" stop-color="#D3C0FA"/>
<stop offset="0.730469" stop-color="#D4C0FA"/>
<stop offset="0.734375" stop-color="#D4C1FA"/>
<stop offset="0.738281" stop-color="#D5C2FA"/>
<stop offset="0.742187" stop-color="#D6C3FA"/>
<stop offset="0.746094" stop-color="#D6C4FA"/>
<stop offset="0.75" stop-color="#D7C5FA"/>
<stop offset="0.753906" stop-color="#D7C6FA"/>
<stop offset="0.757813" stop-color="#D8C7FA"/>
<stop offset="0.761719" stop-color="#D9C8FA"/>
<stop offset="0.765625" stop-color="#D9C9FA"/>
<stop offset="0.769531" stop-color="#DACAFA"/>
<stop offset="0.773438" stop-color="#DBCAFA"/>
<stop offset="0.777344" stop-color="#DBCBFB"/>
<stop offset="0.78125" stop-color="#DCCCFB"/>
<stop offset="0.785156" stop-color="#DCCDFB"/>
<stop offset="0.789062" stop-color="#DDCEFB"/>
<stop offset="0.792969" stop-color="#DECFFB"/>
<stop offset="0.796875" stop-color="#DED0FB"/>
<stop offset="0.800781" stop-color="#DFD1FB"/>
<stop offset="0.804688" stop-color="#E0D2FB"/>
<stop offset="0.808594" stop-color="#E0D3FB"/>
<stop offset="0.8125" stop-color="#E1D3FB"/>
<stop offset="0.816406" stop-color="#E1D4FB"/>
<stop offset="0.820312" stop-color="#E2D5FB"/>
<stop offset="0.824219" stop-color="#E3D6FC"/>
<stop offset="0.828125" stop-color="#E3D7FC"/>
<stop offset="0.832031" stop-color="#E4D8FC"/>
<stop offset="0.835938" stop-color="#E5D9FC"/>
<stop offset="0.839844" stop-color="#E5DAFC"/>
<stop offset="0.84375" stop-color="#E6DBFC"/>
<stop offset="0.847656" stop-color="#E6DCFC"/>
<stop offset="0.851563" stop-color="#E7DDFC"/>
<stop offset="0.855469" stop-color="#E8DDFC"/>
<stop offset="0.859375" stop-color="#E8DEFC"/>
<stop offset="0.863281" stop-color="#E9DFFC"/>
<stop offset="0.867188" stop-color="#EAE0FC"/>
<stop offset="0.871094" stop-color="#EAE1FC"/>
<stop offset="0.875" stop-color="#EBE2FD"/>
<stop offset="0.878906" stop-color="#ECE3FD"/>
<stop offset="0.882812" stop-color="#ECE4FD"/>
<stop offset="0.886719" stop-color="#EDE5FD"/>
<stop offset="0.890625" stop-color="#EDE6FD"/>
<stop offset="0.894531" stop-color="#EEE7FD"/>
<stop offset="0.898438" stop-color="#EFE7FD"/>
<stop offset="0.902344" stop-color="#EFE8FD"/>
<stop offset="0.90625" stop-color="#F0E9FD"/>
<stop offset="0.910156" stop-color="#F1EAFD"/>
<stop offset="0.914062" stop-color="#F1EBFD"/>
<stop offset="0.917969" stop-color="#F2ECFD"/>
<stop offset="0.921875" stop-color="#F2EDFD"/>
<stop offset="0.925781" stop-color="#F3EEFE"/>
<stop offset="0.929688" stop-color="#F4EFFE"/>
<stop offset="0.933594" stop-color="#F4F0FE"/>
<stop offset="0.9375" stop-color="#F5F0FE"/>
<stop offset="0.941406" stop-color="#F6F1FE"/>
<stop offset="0.945312" stop-color="#F6F2FE"/>
<stop offset="0.949219" stop-color="#F7F3FE"/>
<stop offset="0.953125" stop-color="#F7F4FE"/>
<stop offset="0.957031" stop-color="#F8F5FE"/>
<stop offset="0.960938" stop-color="#F9F6FE"/>
<stop offset="0.964844" stop-color="#F9F7FE"/>
<stop offset="0.96875" stop-color="#FAF8FE"/>
<stop offset="0.972656" stop-color="#FBF9FE"/>
<stop offset="0.976562" stop-color="#FBFAFF"/>
<stop offset="0.980469" stop-color="#FCFAFF"/>
<stop offset="0.984375" stop-color="#FCFBFF"/>
<stop offset="0.988281" stop-color="#FDFCFF"/>
<stop offset="0.992188" stop-color="#FEFDFF"/>
<stop offset="0.996094" stop-color="#FEFEFF"/>
<stop offset="1" stop-color="white"/>
</linearGradient>
</defs>
</svg>
