<?xml version="1.0" standalone="no"?>
<!DOCTYPE svg PUBLIC "-//W3C//DTD SVG 20010904//EN"
 "http://www.w3.org/TR/2001/REC-SVG-20010904/DTD/svg10.dtd">
<svg version="1.0" xmlns="http://www.w3.org/2000/svg"
 width="512.000000pt" height="512.000000pt" viewBox="0 0 512.000000 512.000000"
 preserveAspectRatio="xMidYMid meet">

<g transform="translate(0.000000,512.000000) scale(0.100000,-0.100000)"
fill="#000000" stroke="none">
<path d="M2330 5110 c-1008 -91 -1877 -777 -2198 -1737 -180 -537 -172 -1147
20 -1678 50 -139 169 -383 244 -500 139 -218 356 -463 549 -618 594 -479 1342
-669 2090 -532 540 99 1059 389 1420 792 594 662 804 1553 570 2408 -86 314
-242 621 -453 895 -84 109 -323 348 -432 432 -525 405 -1166 595 -1810 538z
m140 -720 l0 -550 -27 0 c-70 1 -340 22 -448 35 -158 20 -405 67 -405 77 0 4
18 53 40 108 157 394 388 690 632 813 65 32 160 64 196 66 9 1 12 -115 12
-549z m266 529 c86 -27 130 -49 221 -111 199 -138 391 -409 527 -748 25 -63
45 -114 43 -115 -1 -1 -51 -11 -112 -23 -204 -39 -412 -63 -657 -77 l-118 -7
0 551 c0 465 2 551 14 551 8 0 45 -10 82 -21z m-786 -54 c0 -3 -32 -39 -70
-81 -185 -199 -342 -455 -430 -703 -18 -51 -38 -91 -46 -91 -48 0 -535 188
-567 219 -11 11 168 172 290 263 200 148 438 273 673 352 139 47 150 50 150
41z m1395 -52 c316 -107 671 -328 889 -551 l49 -50 -62 -32 c-152 -76 -505
-201 -521 -184 -4 5 -18 38 -30 74 -36 103 -152 337 -217 435 -69 104 -155
213 -238 303 -69 74 -74 74 130 5z m-2494 -797 c140 -67 301 -129 429 -167 41
-12 77 -23 78 -25 2 -1 -12 -67 -32 -146 -71 -279 -116 -594 -132 -900 l-6
-138 -510 0 -511 0 8 102 c26 378 154 763 363 1093 42 65 171 245 177 245 1 0
62 -29 136 -64z m3597 2 c153 -195 287 -446 374 -698 60 -177 103 -393 122
-622 l5 -58 -515 0 -514 0 0 78 c0 168 -29 447 -71 682 -17 97 -76 352 -95
413 -3 11 0 17 10 17 53 0 457 156 567 219 30 17 57 31 61 31 3 0 28 -28 56
-62z m-2805 -258 c213 -43 448 -72 700 -85 l127 -7 0 -514 0 -514 -555 0 -554
0 5 118 c12 271 55 582 116 827 45 183 48 195 57 195 5 0 52 -9 104 -20z
m1980 -132 c70 -285 109 -555 122 -835 l8 -153 -557 0 -556 0 0 514 0 514 128
6 c250 14 522 47 702 86 47 10 92 18 100 19 12 1 25 -36 53 -151z m-2425
-1346 c20 -316 58 -568 128 -846 19 -77 31 -142 27 -146 -4 -4 -42 -17 -83
-29 -124 -36 -287 -100 -426 -166 l-130 -62 -61 81 c-279 371 -446 811 -479
1264 l-7 92 510 0 510 0 11 -188z m1272 -327 l0 -515 -88 0 c-171 0 -525 -42
-752 -89 -52 -11 -96 -18 -98 -16 -2 2 -17 54 -33 117 -69 270 -122 631 -132
896 l-5 122 554 0 554 0 0 -515z m1276 378 c-14 -286 -63 -625 -126 -863 -17
-63 -33 -120 -35 -126 -2 -8 -30 -6 -97 8 -209 43 -547 82 -783 91 l-60 2 -3
513 -2 512 556 0 557 0 -7 -137z m1197 75 c-13 -183 -59 -427 -110 -583 -79
-246 -222 -517 -375 -716 l-60 -77 -141 68 c-137 66 -337 143 -442 170 -27 7
-53 16 -57 19 -3 3 4 47 18 96 80 296 144 744 144 1006 l0 79 514 0 514 0 -5
-62z m-2473 -1688 l0 -550 -32 7 c-62 11 -183 63 -248 105 -77 50 -202 168
-270 253 -75 94 -164 243 -228 382 -70 151 -106 242 -100 248 7 7 183 42 308
60 161 24 357 42 473 44 l97 1 0 -550z m488 535 c89 -8 206 -22 260 -30 104
-16 303 -53 308 -57 5 -6 -84 -215 -130 -307 -200 -395 -440 -622 -728 -685
l-28 -6 0 550 0 550 78 0 c42 0 150 -7 240 -15z m897 -176 c158 -50 427 -167
422 -183 -2 -6 -48 -51 -103 -100 -277 -250 -578 -420 -932 -529 -96 -30 -96
-33 16 89 172 188 342 474 417 706 22 66 23 68 38 63 7 -2 71 -23 142 -46z
m-2410 -36 c41 -120 145 -327 222 -443 69 -105 193 -259 252 -314 17 -17 31
-33 31 -37 0 -10 -143 34 -269 83 -217 85 -439 214 -626 365 -101 82 -223 199
-214 207 41 38 495 214 555 216 18 0 26 -13 49 -77z"/>
</g>
</svg>
