<?xml version="1.0" standalone="no"?>
<!DOCTYPE svg PUBLIC "-//W3C//DTD SVG 20010904//EN"
 "http://www.w3.org/TR/2001/REC-SVG-20010904/DTD/svg10.dtd">
<svg version="1.0" xmlns="http://www.w3.org/2000/svg"
 width="512.000000pt" height="512.000000pt" viewBox="0 0 512.000000 512.000000"
 preserveAspectRatio="xMidYMid meet">

<g transform="translate(0.000000,512.000000) scale(0.100000,-0.100000)"
fill="#000000" stroke="none">
<path d="M2 3913 c1 -665 3 -1185 5 -1158 2 28 10 100 19 160 111 796 583
1487 1281 1877 304 170 674 285 1018 317 53 5 -404 9 -1117 10 l-1208 1 2
-1207z"/>
<path d="M2745 5113 c223 -18 502 -78 690 -148 255 -94 560 -270 765 -443 114
-95 272 -257 360 -367 156 -196 318 -484 405 -719 67 -181 125 -441 144 -646
5 -48 9 437 10 1123 l1 1207 -1207 -2 c-665 -1 -1190 -3 -1168 -5z"/>
<path d="M2364 4916 c-241 -78 -465 -305 -641 -651 -61 -119 -133 -288 -133
-311 0 -13 7 -14 205 -49 159 -28 360 -51 548 -61 l127 -7 0 552 c0 518 -1
551 -17 551 -10 -1 -50 -11 -89 -24z"/>
<path d="M2640 4391 l0 -551 39 0 c88 0 354 22 486 41 129 17 356 58 363 64 2
2 -18 54 -43 116 -204 497 -499 816 -808 874 l-37 7 0 -551z"/>
<path d="M1800 4824 c-74 -24 -207 -80 -295 -123 -234 -116 -415 -242 -605
-419 l-75 -70 90 -42 c162 -76 447 -180 491 -180 6 0 26 42 44 93 90 251 235
484 456 735 26 28 43 52 38 52 -5 -1 -70 -21 -144 -46z"/>
<path d="M3217 4807 c79 -85 177 -211 248 -320 61 -94 168 -311 205 -417 13
-36 27 -69 31 -74 16 -18 364 106 520 184 l62 32 -49 50 c-229 235 -574 447
-914 560 -176 59 -173 60 -103 -15z"/>
<path d="M668 4023 c-204 -261 -370 -612 -443 -939 -28 -126 -55 -318 -55
-396 l0 -48 509 0 509 0 7 138 c14 299 61 617 131 900 20 79 34 145 32 146 -1
1 -57 19 -123 40 -144 45 -300 108 -424 170 -50 25 -92 46 -94 46 -2 0 -24
-26 -49 -57z"/>
<path d="M4290 4029 c-117 -60 -317 -139 -441 -175 -52 -16 -95 -28 -96 -28
-1 -1 16 -71 37 -156 73 -300 115 -584 127 -872 l6 -158 514 0 514 0 -6 63
c-37 388 -108 645 -260 943 -88 172 -268 438 -293 432 -4 -1 -50 -23 -102 -49z"/>
<path d="M1521 3748 c-40 -129 -95 -396 -121 -592 -18 -136 -39 -399 -40 -483
l0 -33 555 0 555 0 0 514 0 513 -127 7 c-252 13 -624 61 -753 96 -52 15 -58
13 -69 -22z"/>
<path d="M3549 3776 c-7 -6 -287 -55 -409 -71 -63 -8 -202 -20 -307 -27 l-193
-12 0 -513 0 -513 557 0 556 0 -6 153 c-12 277 -52 544 -124 840 -29 117 -39
147 -53 147 -9 0 -19 -2 -21 -4z"/>
<path d="M170 2421 c0 -75 28 -272 55 -395 71 -314 219 -634 415 -897 l71 -97
132 63 c135 64 294 126 427 166 41 13 79 26 83 29 4 4 -8 69 -27 146 -42 165
-79 362 -100 534 -15 120 -36 384 -36 463 l0 37 -510 0 -510 0 0 -49z"/>
<path d="M1364 2348 c10 -183 34 -395 62 -558 24 -143 90 -427 103 -448 5 -8
20 -8 51 -1 205 47 513 87 733 96 l157 6 0 514 0 513 -556 0 -556 0 6 -122z"/>
<path d="M2640 1955 l0 -515 88 0 c177 0 514 -39 737 -84 64 -13 117 -20 120
-16 2 4 20 70 39 146 68 271 110 559 123 837 l6 147 -556 0 -557 0 0 -515z"/>
<path d="M3917 2323 c-13 -293 -57 -601 -126 -874 -22 -85 -36 -157 -33 -160
4 -4 29 -12 56 -18 94 -23 302 -103 443 -171 l142 -68 37 44 c77 95 189 275
263 424 141 285 219 574 245 903 l5 67 -513 0 -513 0 -6 -147z"/>
<path d="M1 1208 l-1 -1208 1213 2 c666 1 1192 3 1167 5 -340 25 -686 122
-990 280 -778 402 -1296 1169 -1379 2043 -5 48 -9 -437 -10 -1122z"/>
<path d="M5106 2316 c-22 -315 -148 -724 -312 -1009 -435 -759 -1191 -1238
-2054 -1300 -25 -2 501 -4 1168 -5 l1212 -2 0 1205 c0 663 -2 1205 -4 1205 -1
0 -6 -42 -10 -94z"/>
<path d="M2215 1263 c-168 -12 -605 -79 -622 -96 -9 -9 59 -179 123 -307 142
-285 356 -527 549 -622 49 -25 121 -50 178 -62 l27 -6 0 550 0 550 -102 -2
c-57 -1 -125 -3 -153 -5z"/>
<path d="M2640 719 l0 -551 33 7 c279 60 541 311 732 700 55 113 128 286 122
291 -6 6 -148 34 -272 54 -156 26 -415 50 -527 50 l-88 0 0 -551z"/>
<path d="M3693 1112 c-29 -86 -103 -263 -140 -332 -64 -121 -180 -292 -259
-384 -38 -43 -84 -96 -102 -117 l-32 -38 82 26 c297 91 575 235 802 418 90 72
236 204 236 214 0 15 -238 119 -385 169 -175 59 -195 64 -202 44z"/>
<path d="M1260 1081 c-152 -50 -391 -152 -419 -177 -9 -8 113 -125 214 -207
258 -209 538 -352 885 -452 20 -6 13 6 -36 56 -192 201 -371 489 -459 742 -23
64 -31 77 -49 77 -11 0 -73 -18 -136 -39z"/>
</g>
</svg>
