<svg version="1.0" xmlns="http://www.w3.org/2000/svg" preserveAspectRatio="xMidYMid meet" viewBox="98.09 98.14 303.8 303.74">  <g transform="translate(0.000000,500.000000) scale(0.100000,-0.100000)" fill="#000000" stroke="none"> <path d="M2487 4013 c-3 -5 147 -217 334 -472 187 -255 339 -465 337 -466 -2 -2 -220 204 -485 456 -266 252 -485 459 -488 459 -28 0 58 -88 450 -461 250 -237 455 -434 455 -436 0 -2 -33 21 -72 50 -759 559 -1062 777 -1070 769 -11 -11 -38 10 572 -437 474 -347 561 -414 470 -363 -25 14 -313 177 -642 362 -328 185 -602 336 -608 336 -6 0 -10 -5 -8 -11 2 -6 287 -171 633 -366 347 -195 635 -359 640 -365 6 -5 -6 -3 -25 5 -19 8 -345 145 -725 305 -379 160 -696 292 -704 294 -7 2 -15 -2 -17 -8 -3 -6 300 -138 693 -304 673 -282 758 -319 740 -320 -5 0 -366 106 -803 235 -437 129 -797 235 -799 235 -3 0 -5 -6 -5 -13 0 -8 262 -90 758 -236 730 -216 900 -269 822 -255 -19 4 -413 75 -875 159 -742 135 -879 156 -853 130 2 -3 391 -75 864 -160 472 -86 864 -157 869 -160 20 -7 -38 -4 -895 60 -481 36 -892 65 -913 65 -26 0 -37 -4 -35 -12 3 -9 236 -30 864 -75 909 -66 1024 -76 984 -80 -14 -1 -450 -14 -970 -29 -520 -15 -949 -31 -954 -35 -5 -5 -7 -12 -3 -16 7 -7 1852 45 1875 53 8 2 19 1 25 -3 6 -4 -425 -65 -959 -136 -533 -71 -973 -133 -978 -138 -5 -5 -7 -11 -3 -15 5 -5 1181 147 1752 227 77 11 158 22 180 25 22 3 38 3 35 1 -3 -3 -444 -110 -980 -237 -536 -128 -979 -236 -984 -241 -5 -5 -7 -12 -3 -15 6 -6 411 89 1595 372 195 47 357 84 362 82 4 -2 -426 -154 -956 -338 -586 -204 -964 -340 -964 -347 0 -7 3 -13 6 -13 3 0 434 149 957 331 524 183 961 334 972 336 26 6 65 24 -915 -432 -984 -457 -955 -444 -943 -456 6 -6 356 152 914 412 952 444 980 456 964 442 -5 -5 -407 -245 -892 -532 -486 -288 -883 -528 -883 -533 0 -6 9 -8 19 -5 10 2 396 229 857 503 857 508 936 555 919 537 -5 -6 -378 -281 -827 -613 -698 -514 -847 -630 -813 -630 3 0 359 262 793 582 433 319 810 597 837 616 l50 34 -36 -34 c-20 -18 -361 -327 -757 -687 -397 -360 -722 -658 -722 -663 0 -5 6 -8 14 -6 8 2 341 300 741 663 710 645 820 742 744 659 -20 -21 -323 -358 -673 -747 -544 -605 -648 -727 -621 -727 2 0 306 335 675 745 368 410 672 745 675 745 3 0 -26 -42 -63 -92 -318 -432 -1074 -1471 -1079 -1484 -24 -64 88 82 585 762 623 851 595 813 589 799 -2 -5 -214 -370 -470 -811 -256 -440 -469 -808 -473 -817 -4 -11 -1 -17 7 -17 8 1 227 367 488 815 261 448 476 815 478 815 2 0 2 -3 0 -7 -28 -50 -738 -1645 -734 -1649 3 -3 10 -3 15 0 5 3 177 379 383 835 205 457 374 829 375 828 2 -1 -119 -375 -268 -830 -149 -455 -268 -830 -265 -833 3 -3 10 -4 14 -1 5 3 130 377 278 830 149 454 271 824 272 823 2 -2 -72 -361 -164 -799 -92 -438 -163 -800 -160 -804 4 -4 11 -2 16 3 4 5 82 363 172 796 90 434 165 784 167 779 3 -9 -122 -1386 -133 -1463 -4 -28 -2 -38 9 -38 18 0 15 -31 93 815 l68 740 6 -180 c4 -99 10 -324 14 -500 4 -176 8 -347 10 -380 2 -33 4 -128 5 -211 2 -140 9 -188 26 -171 4 3 -1 307 -10 674 -9 368 -16 688 -15 713 0 25 44 -243 98 -594 64 -423 101 -641 109 -644 6 -2 12 3 12 11 0 8 -43 299 -95 647 -52 348 -95 637 -94 644 0 9 114 -379 314 -1072 15 -50 35 -71 35 -34 0 9 -74 271 -164 582 -90 311 -163 566 -162 567 1 2 101 -215 222 -482 127 -282 225 -485 232 -485 8 0 11 7 8 18 -3 9 -104 234 -225 499 -120 266 -216 481 -212 479 3 -3 121 -178 261 -390 140 -212 261 -386 269 -386 7 0 11 6 8 14 -3 8 -123 191 -267 406 -144 216 -260 393 -258 395 2 1 131 -130 287 -291 156 -162 288 -294 293 -294 26 0 -19 51 -284 323 -159 163 -288 298 -288 301 0 6 196 -121 441 -285 82 -54 153 -99 159 -99 34 0 -22 41 -296 222 -169 111 -303 203 -298 205 5 2 135 -40 289 -92 244 -84 332 -106 299 -76 -5 5 -143 53 -306 107 -163 54 -295 100 -293 102 2 2 124 5 271 6 204 1 268 4 271 14 4 9 -57 12 -283 12 -168 0 -284 4 -279 9 6 5 111 48 235 97 124 48 231 93 238 100 38 33 -26 14 -251 -76 -136 -54 -247 -95 -246 -91 0 3 85 87 188 186 104 99 191 185 194 192 3 7 2 15 -3 18 -4 3 -94 -79 -199 -181 -106 -103 -193 -185 -196 -183 -2 3 52 123 121 267 68 145 124 268 124 273 0 39 -39 -30 -147 -257 -67 -142 -123 -250 -123 -239 0 11 21 163 46 338 26 175 44 321 40 324 -16 17 -27 -33 -65 -312 -23 -165 -45 -308 -49 -318 -4 -10 -24 154 -45 365 -21 211 -42 387 -46 391 -20 20 -21 -21 -7 -150 30 -266 57 -555 54 -571 -2 -9 -61 169 -131 394 -71 225 -133 413 -138 418 -29 31 -9 -44 104 -406 70 -221 125 -403 123 -405 -2 -2 -106 194 -232 437 -125 242 -232 439 -238 436 -6 -2 -10 -8 -9 -13 1 -5 86 -171 188 -368 220 -423 261 -503 247 -490 -5 6 -155 208 -332 450 -177 242 -326 441 -330 443 -5 2 -11 -1 -13 -5z"/> </g> </svg>