<svg width="60" height="40" viewBox="0 0 60 40" fill="none" xmlns="http://www.w3.org/2000/svg">
<g clip-path="url(#clip0_64_956)">
<path d="M23.6736 25.3735C23.718 25.4112 23.7579 25.4513 23.7932 25.4935C23.999 25.743 24.2213 26.0733 24.4034 26.3996C24.4075 26.4076 24.4124 26.4152 24.4166 26.4227C24.4433 26.3148 24.4677 26.2063 24.4843 26.109C24.4215 25.9478 24.1085 25.628 23.6736 25.3735ZM26.3073 31.8183C25.146 31.8183 22.4288 29.8022 22.4013 29.7771C21.5571 28.9855 21.3442 26.3559 21.3679 25.992C21.3935 25.6079 21.579 25.3062 21.8916 25.1436C22.0552 25.0577 22.2538 25.0126 22.4626 25.0035C22.3626 25.002 22.2629 25.0091 22.1628 25.0251C21.8201 25.0808 21.2065 25.3705 20.4963 25.7073C18.6199 26.5949 16.0501 27.8113 14.4103 26.8133C12.1073 25.4112 12 22 12 22C12.0045 21.8343 12.2923 21.616 12.4172 21.6185C12.5421 21.6245 12.6392 21.7651 12.6343 21.9312C12.6309 22.0567 12.5741 25.0331 14.5976 26.2646C16.0715 27.1612 18.6436 25.9438 20.3451 25.1386C21.1114 24.7756 21.7166 24.4895 22.1086 24.4267C23.186 24.251 24.3432 25.0055 24.7645 25.615C24.9045 25.8178 24.9617 26.0106 24.9334 26.1883C24.874 26.5773 24.7051 27.1195 24.6671 27.2395C24.663 27.253 24.6588 27.2666 24.6532 27.2801C24.5979 27.4247 24.4666 27.485 24.356 27.4157C24.2736 27.364 24.2255 27.2545 24.2262 27.1401C24.166 26.9568 23.8357 26.3605 23.4889 25.9408C23.2523 25.6531 22.486 25.4809 22.0556 25.7058C21.8325 25.8213 21.8224 25.9834 21.8182 26.0447C21.7953 26.3931 22.0379 28.6988 22.6609 29.2831C22.7666 29.3825 23.5908 29.9684 24.5084 30.49C26.132 31.4127 26.4179 31.2083 26.4292 31.1988C26.8972 30.8228 29.0794 26.8258 29.5166 23.5919C29.5391 23.4287 29.6565 23.3188 29.7791 23.3489C29.9022 23.3785 29.9838 23.5357 29.9616 23.6993C29.535 26.8544 27.3587 31.1546 26.6624 31.7159C26.5744 31.7867 26.4533 31.8183 26.3073 31.8183Z" fill="black"/>
<mask id="mask0_64_956" style="mask-type:luminance" maskUnits="userSpaceOnUse" x="0" y="12" width="33" height="23">
<path d="M0 12.4332H32.2131V34.2806H0V12.4332Z" fill="white"/>
</mask>
<g mask="url(#mask0_64_956)">
<path d="M24.3704 34.1526C23.533 34.1531 20.3836 31.242 20.0875 30.8599C19.8306 30.5271 19.8204 29.9538 20.0619 29.364C20.3809 28.5853 21.1325 27.8765 22.0286 28.1571C22.1498 28.1953 22.2254 28.3584 22.1968 28.5201C22.1682 28.6822 22.0463 28.7821 21.9248 28.744C21.2552 28.5336 20.7059 29.0497 20.4584 29.6531C20.3252 29.9789 20.3019 30.2972 20.4024 30.4267C20.5596 30.6295 21.3774 31.4056 22.3533 32.2083C23.6861 33.3047 24.2436 33.5658 24.3633 33.5507C25.3929 33.379 28.9456 32.5161 29.3643 32.0773C29.3959 31.8825 29.505 31.4769 29.7529 30.5567C30.1803 28.9744 30.8251 26.5838 31.2596 24.3805C31.9194 21.0316 31.6884 20.1044 31.4921 19.8494C29.2007 16.8805 19.5142 14.4337 15.8674 13.512C15.337 13.3775 14.9175 13.2721 14.6745 13.2038C12.8443 12.6837 0.388697 14.3067 0.263426 14.3228C0.138907 14.3384 0.0283077 14.2179 0.0162696 14.0517C0.00385535 13.8865 0.0948933 13.739 0.219412 13.7224C0.735168 13.6546 12.8707 12.0743 14.7685 12.613C15.0059 12.6807 15.4231 12.7861 15.9513 12.9197C19.6349 13.8504 29.4185 16.3218 31.8069 19.4167C32.7399 20.6265 31.5752 25.5843 30.1784 30.7605C29.9933 31.4453 29.8191 32.0914 29.8052 32.2113C29.7887 32.4699 29.7684 32.7997 27.24 33.4905C26.0095 33.8263 24.7071 34.1019 24.4189 34.1496C24.4035 34.1516 24.3877 34.1526 24.3704 34.1526Z" fill="black"/>
</g>
<path d="M26.9577 38.8218C25.6531 38.8218 23.317 38.0261 22.4378 36.8378C21.4898 35.5572 19.335 33.0823 18.5954 32.9187C15.0679 32.1391 13.828 29.7786 12.9228 28.0557C12.4451 27.1456 12.0681 26.4282 11.502 26.2128C10.0958 25.6777 4.47626 29.4357 2.43017 30.9282C2.32069 31.0085 2.18301 30.9553 2.12357 30.8082C2.06338 30.6621 2.10401 30.4794 2.21348 30.3996C2.98279 29.8384 9.78505 24.9322 11.6265 25.6325C12.3465 25.9066 12.7848 26.7425 13.293 27.7093C14.2004 29.4362 15.3286 31.5858 18.6699 32.3233C19.639 32.5376 22.0071 35.3966 22.7591 36.4136C23.5953 37.5442 26.17 38.3534 27.2497 38.2003C27.5724 38.1551 27.706 37.8002 27.762 37.51C27.9674 36.4453 27.4919 34.7028 26.34 33.6315C26.2377 33.5366 26.2129 33.3484 26.2844 33.2118C26.3555 33.0753 26.4961 33.0417 26.5988 33.137C27.3794 33.8634 27.7846 34.759 27.987 35.3825C28.2469 36.1842 28.3244 37.0141 28.1999 37.6611C28.0728 38.3218 27.7436 38.7374 27.2967 38.8002C27.1944 38.8148 27.0807 38.8218 26.9577 38.8218Z" fill="black"/>
<mask id="mask1_64_956" style="mask-type:luminance" maskUnits="userSpaceOnUse" x="33" y="24" width="27" height="16">
<path d="M33.1763 24.4152H60.0001V40H33.1763V24.4152Z" fill="white"/>
</mask>
<g mask="url(#mask1_64_956)">
<path d="M35.2798 40.0085C34.7686 40.0085 34.2807 39.8032 33.8458 39.3007C33.3586 38.7375 33.1318 37.7319 33.2236 36.5407C33.3534 34.8569 34.1862 32.5417 36.1349 31.0924C37.736 29.9016 38.4093 28.364 39.0037 27.0075C39.4661 25.9523 39.8652 25.0417 40.5958 24.5226C40.7064 24.4448 40.8433 24.5005 40.9016 24.6481C40.9599 24.7942 40.9181 24.9774 40.8083 25.0552C40.1902 25.4935 39.8212 26.3359 39.3938 27.3118C38.801 28.6647 38.0636 30.3489 36.355 31.619C34.5575 32.9553 33.7912 35.0698 33.6727 36.6029C33.5979 37.5808 33.7728 38.4187 34.1422 38.8449C35.6857 40.628 38.2792 37.6873 39.673 36.1074C39.8212 35.9383 39.9555 35.7867 40.0736 35.6571C40.1925 35.5271 40.2978 35.4061 40.3952 35.2967C41.3455 34.2169 41.5438 33.992 45.5919 33.2365C48.211 32.7465 49.6578 29.9769 50.8202 27.7515C51.579 26.2987 52.1783 25.1516 52.925 25.0452C54.7126 24.7887 58.2172 25.0291 59.8747 26.131C59.9861 26.2048 60.055 26.3509 59.9997 26.5C59.9436 26.6496 59.9997 27 59.4997 27C57.9776 25.9875 54.7454 25.3911 52.9731 25.6446C52.4311 25.7214 51.8562 26.8218 51.1911 28.0964C50.0423 30.2957 48.469 33.3077 45.6544 33.8333C41.7364 34.5653 41.5554 34.7701 40.6879 35.7555C40.5894 35.8685 40.4818 35.99 40.3603 36.123C40.2444 36.25 40.112 36.4001 39.9656 36.5663C38.8228 37.862 36.929 40.0085 35.2798 40.0085Z" fill="black"/>
</g>
<path d="M21.9337 28.6059C21.8141 28.6059 21.7147 28.4814 21.7083 28.3203C21.7016 28.1541 21.7975 28.0121 21.9216 28.0035C21.9623 28 22.0454 27.9945 22.1094 27.7816C22.2937 27.1642 22.0574 25.9257 21.9295 25.6827C21.8475 25.6371 21.7896 25.5286 21.7904 25.4021C21.7911 25.2365 21.8919 25.1024 22.0157 25.1024H22.0172C22.4901 25.1054 22.6199 26.7736 22.6255 27.1019C22.6496 28.4137 22.1579 28.5909 21.9457 28.6049C21.9416 28.6049 21.9374 28.6059 21.9337 28.6059Z" fill="black"/>
<mask id="mask2_64_956" style="mask-type:luminance" maskUnits="userSpaceOnUse" x="31" y="11" width="29" height="25">
<path d="M31.2393 11.4071H60.0001V35.9513H31.2393V11.4071Z" fill="white"/>
</mask>
<g mask="url(#mask2_64_956)">
<path d="M33.597 35.8876C33.5914 35.8876 33.5861 35.8876 33.5801 35.8866C33.4733 35.876 32.5162 35.7681 32.0881 35.1712C31.4245 34.247 31.2793 31.9302 31.2522 30.6315C31.2124 28.736 31.3711 26.7455 31.6465 25.6772C31.888 24.7425 31.9019 23.5412 31.9151 22.3805C31.9305 21.0266 31.9452 19.7475 32.3266 18.9639C32.6396 18.3208 33.7242 17.619 35.5513 16.8775C36.9741 16.3002 38.8106 15.7239 40.4647 15.3339C43.4521 14.6305 45.754 13.7535 47.6767 12.9865C50.1227 12.0116 53.2849 11.6421 55.5067 11.504C57.9098 11.3554 59.7629 11.4373 59.7817 11.4373C59.9066 11.4438 60.004 11.5829 59.9999 11.7495C59.9958 11.9162 59.8915 12.0472 59.7659 12.0407C59.7482 12.0392 57.909 11.9589 55.524 12.1064C53.3285 12.243 50.2073 12.607 47.8061 13.5643C45.871 14.3359 43.5544 15.2189 40.543 15.9277C37.175 16.7209 33.2208 18.233 32.7054 19.2922C32.3951 19.9302 32.3812 21.125 32.3673 22.3891C32.353 23.5984 32.339 24.8479 32.0738 25.874C31.5329 27.9699 31.5227 33.5136 32.4139 34.7545C32.6757 35.119 33.3683 35.2611 33.6136 35.2847C33.7377 35.2972 33.8314 35.4418 33.8224 35.6079C33.8133 35.7666 33.7148 35.8876 33.597 35.8876Z" fill="black"/>
</g>
<path d="M34.1624 31.1105C34.1034 31.1105 34.0439 31.0798 33.9999 31.0176C33.913 30.8981 33.916 30.7063 34.0059 30.5914C35.5908 28.5603 37.2949 26.2309 37.4037 25.8489C37.4702 25.4619 36.8038 24.4603 35.8592 23.0864C35.7745 22.9639 35.7678 22.6119 35.8592 22.5C35.9513 22.387 36.4459 22.377 36.5305 22.5C37.4462 23.8308 37.9732 25.236 37.8415 25.996C37.7388 26.5929 35.344 29.7124 34.3189 31.0266C34.2753 31.0828 34.2188 31.1105 34.1624 31.1105Z" fill="black"/>
<path d="M37.6916 26.3233C37.6273 26.3233 37.5637 26.2866 37.5189 26.2158C37.4388 26.0888 37.4505 25.8986 37.5464 25.7911C38.0343 25.2424 39.3201 24.5502 40.0793 25.4362C40.1733 25.5462 40.1827 25.7364 40.1007 25.8619C40.018 25.9874 39.875 26 39.7817 25.8905C39.2223 25.2379 38.1645 25.885 37.8372 26.2525C37.795 26.3002 37.7435 26.3233 37.6916 26.3233Z" fill="black"/>
<path d="M36.2897 30.0874C36.1789 30.0771 36.0925 29.9581 36.0913 29.8057C36.0907 29.6136 36.1849 28.2178 36.5002 27.5C36.5652 27.3538 36.8928 26.9219 37.0004 27C37.1072 27.0776 36.8594 27.3258 36.7951 27.473C36.6061 27.9021 36.5414 29.1086 36.5454 29.7695C36.5458 29.9354 36.4448 30.0772 36.3195 30.0882C36.31 30.0888 36.2999 30.0884 36.2897 30.0874Z" fill="black"/>
<mask id="mask3_64_956" style="mask-type:luminance" maskUnits="userSpaceOnUse" x="33" y="34" width="5" height="6">
<path d="M33.2192 34.5783H37.2211V40H33.2192V34.5783Z" fill="white"/>
</mask>
<g mask="url(#mask3_64_956)">
<path d="M35.3079 40.0015C35.2322 40.0015 35.1585 39.9508 35.1156 39.8589C35.0494 39.7163 35.0821 39.5306 35.1886 39.4433C36.1543 38.6466 36.7186 37.642 36.7363 36.6892C36.7457 36.1978 36.6001 35.7771 36.3375 35.5346C36.0486 35.2691 35.6773 35.1928 35.3184 35.3258C34.8798 35.4889 34.238 36.0396 33.6662 37.7379C33.615 37.8905 33.4818 37.9578 33.3675 37.8895C33.2539 37.8213 33.2035 37.6426 33.2539 37.4909C33.8975 35.5798 34.6657 34.9423 35.1969 34.745C35.6848 34.5632 36.1942 34.6692 36.5948 35.0386C36.9849 35.3976 37.2008 36.0055 37.1877 36.7043C37.1662 37.8644 36.5245 39.0497 35.4267 39.9563C35.3891 39.9874 35.3481 40.0015 35.3079 40.0015Z" fill="black"/>
</g>
<mask id="mask4_64_956" style="mask-type:luminance" maskUnits="userSpaceOnUse" x="31" y="0" width="2" height="10">
<path d="M31.1538 0H32.323V9.99146H31.1538V0Z" fill="white"/>
</mask>
<g mask="url(#mask4_64_956)">
<path d="M31.456 10.9483C31.2048 10.9483 31 10.8133 31 10.6466V1.30171C31 1.13454 31.2048 1 31.456 1C31.7087 1 31.9134 1.13454 31.9134 1.30171V10.6466C31.9134 10.8133 31.7087 10.9483 31.456 10.9483Z" fill="black"/>
</g>
<path d="M26 12.5C25.9481 12.5 25.8199 12.4776 25.7777 12.4294L17.0798 2.53081C16.9843 2.42288 16.9189 2.12599 17.0002 1.99999C17.3224 1.49999 17.9049 1.89201 18 1.99995L26.5 12C26.5952 12.1084 26.5809 12.3735 26.5 12.5C26.4552 12.5698 26 12.5 26 12.5Z" fill="black"/>
<path d="M36.2481 12.3514C36.1838 12.3514 36.121 12.3147 36.0754 12.245C35.9946 12.1185 36.0058 11.9282 36.101 11.8198L44.7985 1.92167C44.8937 1.81374 45.0363 1.8288 45.1175 1.95581C45.1984 2.08181 45.1871 2.27257 45.092 2.3805L36.3944 12.2791C36.3516 12.3273 36.2993 12.3514 36.2481 12.3514Z" fill="black"/>
<path d="M24.2621 28.6198C24.1442 28.6021 24.0641 28.4642 24.0821 28.3034L24.1905 27.3141C24.2081 27.1487 24.3241 27.0224 24.4488 27.0325C24.5738 27.0391 24.6596 27.1844 24.6413 27.3497L24.5328 28.339C24.5144 28.5048 24.3986 28.6306 24.2745 28.6206C24.2703 28.621 24.2662 28.6204 24.2621 28.6198Z" fill="black"/>
</g>
<defs>
<clipPath id="clip0_64_956">
<rect width="60" height="40" fill="white"/>
</clipPath>
</defs>
</svg>
