<svg xmlns="http://www.w3.org/2000/svg" xmlns:xlink="http://www.w3.org/1999/xlink" width="1920" zoomAndPan="magnify" viewBox="0 0 1440 809.999993" height="1080" preserveAspectRatio="xMidYMid meet" version="1.0"><defs><g/><clipPath id="c76e2a5355"><path d="M 87.347656 178.363281 L 1352.597656 178.363281 L 1352.597656 577.363281 L 87.347656 577.363281 Z M 87.347656 178.363281 " clip-rule="nonzero"/></clipPath><clipPath id="da99aac794"><path d="M 135.988281 126.34375 L 88.050781 126.34375 L 88.050781 119.15625 L 135.988281 119.15625 Z M 678.390625 103.789062 L 672.164062 100.191406 L 648.195312 141.710938 L 654.421875 145.308594 Z M 788.648438 103.789062 L 782.417969 100.191406 L 758.449219 141.710938 L 764.675781 145.308594 Z M 907.273438 116.691406 L 904.464844 110.070312 L 860.335938 128.804688 L 863.144531 135.425781 Z M 1018.027344 119.15625 L 970.089844 119.15625 L 970.089844 126.347656 L 1018.027344 126.347656 Z M 1127.78125 128.804688 L 1083.652344 110.074219 L 1080.84375 116.695312 L 1124.972656 135.425781 Z M 1234.054688 137.15625 L 1200.160156 103.257812 L 1195.078125 108.339844 L 1228.972656 142.238281 Z M 1339.917969 141.710938 L 1315.953125 100.191406 L 1309.726562 103.789062 L 1333.695312 145.308594 Z M 572.527344 218.605469 L 567.445312 213.523438 L 533.546875 247.421875 L 538.632812 252.503906 Z M 672.96875 210.792969 L 666.023438 208.929688 L 653.617188 255.238281 L 660.5625 257.097656 Z M 785.859375 212.136719 L 779.195312 209.441406 L 761.238281 253.890625 L 767.90625 256.585938 Z M 903.292969 218.605469 L 898.207031 213.523438 L 864.3125 247.421875 L 869.394531 252.503906 Z M 1018.027344 229.417969 L 970.089844 229.417969 L 970.089844 236.609375 L 1018.027344 236.609375 Z M 1123.800781 247.421875 L 1089.90625 213.523438 L 1084.820312 218.605469 L 1118.71875 252.503906 Z M 1226.878906 253.890625 L 1208.921875 209.441406 L 1202.257812 212.136719 L 1220.214844 256.585938 Z M 1334.5 255.234375 L 1322.089844 208.929688 L 1315.144531 210.789062 L 1327.550781 257.097656 Z M 568.136719 324.3125 L 561.910156 320.71875 L 537.941406 362.238281 L 544.167969 365.832031 Z M 666.890625 319.304688 L 659.699219 319.304688 L 659.699219 367.246094 L 666.890625 367.246094 Z M 777.144531 319.304688 L 769.953125 319.304688 L 769.953125 367.246094 L 777.144531 367.246094 Z M 887.398438 319.304688 L 880.207031 319.304688 L 880.207031 367.246094 L 887.398438 367.246094 Z M 1018.027344 339.683594 L 970.089844 339.683594 L 970.089844 346.875 L 1018.027344 346.875 Z M 1107.90625 319.304688 L 1100.714844 319.304688 L 1100.714844 367.246094 L 1107.90625 367.246094 Z M 1218.164062 319.304688 L 1210.972656 319.304688 L 1210.972656 367.246094 L 1218.164062 367.246094 Z M 1328.417969 319.304688 L 1321.226562 319.304688 L 1321.226562 367.246094 L 1328.417969 367.246094 Z M 135.988281 449.945312 L 88.050781 449.945312 L 88.050781 457.136719 L 135.988281 457.136719 Z M 246.242188 449.945312 L 198.308594 449.945312 L 198.308594 457.136719 L 246.246094 457.136719 L 246.246094 449.945312 Z M 356.757812 454.046875 L 355.839844 446.914062 L 308.292969 453.035156 L 309.214844 460.164062 Z M 465.132812 444.164062 L 461.398438 438.019531 L 420.433594 462.917969 L 424.167969 469.0625 Z M 562.714844 431.316406 L 555.769531 429.457031 L 543.363281 475.765625 L 550.308594 477.625 Z M 672.96875 475.765625 L 660.5625 429.457031 L 653.617188 431.316406 L 666.023438 477.625 Z M 785.121094 474.835938 L 768.726562 429.785156 L 761.972656 432.246094 L 778.367188 477.296875 Z M 903.292969 467.945312 L 869.394531 434.046875 L 864.3125 439.132812 L 898.207031 473.03125 Z M 1018.027344 449.945312 L 970.089844 449.945312 L 970.089844 457.136719 L 1018.027344 457.136719 Z M 1123.800781 439.132812 L 1118.71875 434.046875 L 1084.820312 467.945312 L 1089.90625 473.03125 Z M 1226.878906 432.664062 L 1220.214844 429.96875 L 1202.257812 474.417969 L 1208.921875 477.113281 Z M 1334.5 431.316406 L 1327.550781 429.457031 L 1315.144531 475.765625 L 1322.089844 477.625 Z M 562.714844 586.027344 L 550.308594 539.71875 L 543.363281 541.582031 L 555.769531 587.886719 Z M 677.71875 583.28125 L 655.214844 540.953125 L 648.863281 544.328125 L 671.371094 586.65625 Z M 793.039062 578.210938 L 759.140625 544.3125 L 754.058594 549.398438 L 787.953125 583.296875 Z M 907.273438 569.863281 L 863.144531 551.128906 L 860.335938 557.75 L 904.464844 576.480469 Z M 1018.027344 560.210938 L 970.089844 560.210938 L 970.089844 567.402344 L 1018.027344 567.402344 Z M 1127.78125 557.75 L 1124.972656 551.128906 L 1080.84375 569.863281 L 1083.652344 576.480469 Z M 1234.054688 549.398438 L 1228.972656 544.3125 L 1195.074219 578.210938 L 1200.160156 583.296875 Z M 1339.917969 544.84375 L 1333.695312 541.246094 L 1309.726562 582.765625 L 1315.949219 586.363281 Z M 567.464844 693.542969 L 544.957031 651.214844 L 538.609375 654.59375 L 561.113281 696.921875 Z M 682.78125 688.476562 L 648.886719 654.578125 L 643.800781 659.660156 L 677.695312 693.558594 Z M 796.105469 682.941406 L 754.589844 658.96875 L 750.992188 665.195312 L 792.507812 689.167969 Z M 907.886719 676.800781 L 861.582031 664.390625 L 859.71875 671.335938 L 906.023438 683.742188 Z M 1018.027344 670.476562 L 970.089844 670.476562 L 970.089844 677.667969 L 1018.027344 677.667969 Z M 1128.398438 671.335938 L 1126.535156 664.394531 L 1080.230469 676.800781 L 1082.089844 683.746094 Z M 1237.121094 665.199219 L 1233.527344 658.972656 L 1192.011719 682.945312 L 1195.605469 689.167969 Z M 1344.3125 659.660156 L 1339.226562 654.578125 L 1305.332031 688.476562 L 1310.414062 693.558594 Z M 135.988281 780.738281 L 88.050781 780.738281 L 88.050781 787.929688 L 135.988281 787.929688 Z M 246.484375 785.484375 L 199.46875 776.128906 L 198.0625 783.183594 L 245.082031 792.535156 Z M 356.046875 790.183594 L 311.757812 771.835938 L 309.007812 778.480469 L 353.292969 796.828125 Z M 465.058594 793.890625 L 424.292969 768.660156 L 420.511719 774.777344 L 461.273438 800.003906 Z M 572.527344 798.742188 L 538.632812 764.84375 L 533.546875 769.925781 L 567.445312 803.824219 Z M 684.183594 796.625 L 646.929688 766.453125 L 642.40625 772.039062 L 679.660156 802.210938 Z M 795.609375 794.375 L 755.40625 768.261719 L 751.488281 774.292969 L 791.695312 800.402344 Z M 906.789062 792.011719 L 864.078125 770.25 L 860.816406 776.65625 L 903.527344 798.421875 Z M 1017.71875 789.566406 L 972.96875 772.386719 L 970.394531 779.101562 L 1015.148438 796.28125 Z M 1128.398438 787.066406 L 1082.089844 774.65625 L 1080.230469 781.601562 L 1126.535156 794.007812 Z M 1238.800781 784.53125 L 1191.453125 777.03125 L 1190.332031 784.132812 L 1237.675781 791.632812 Z M 1348.789062 780.738281 L 1300.851562 780.738281 L 1300.851562 787.929688 L 1348.789062 787.929688 Z M 135.40625 888.230469 L 132.507812 881.648438 L 88.632812 900.960938 L 91.53125 907.542969 Z M 246.242188 891 L 198.308594 891 L 198.308594 898.191406 L 246.246094 898.191406 L 246.246094 891 Z M 355.570312 902.117188 L 312.710938 880.648438 L 309.488281 887.078125 L 352.351562 908.546875 Z M 462.273438 909.003906 L 428.378906 875.105469 L 423.292969 880.191406 L 457.191406 914.089844 Z M 682.78125 909.003906 L 648.886719 875.105469 L 643.800781 880.191406 L 677.695312 914.089844 Z M 135.175781 997.710938 L 132.058594 991.230469 L 88.859375 1012.015625 L 91.976562 1018.492188 Z M 246.242188 1001.265625 L 198.308594 1001.265625 L 198.308594 1008.457031 L 246.246094 1008.457031 L 246.246094 1001.265625 Z M 354.652344 1014.761719 L 314.28125 988.90625 L 310.40625 994.960938 L 350.773438 1020.816406 Z M 461.078125 1020.757812 L 429.957031 984.292969 L 424.488281 988.960938 L 455.609375 1025.425781 Z M 793.039062 1019.269531 L 759.140625 985.367188 L 754.058594 990.453125 L 787.953125 1024.351562 Z M 135.988281 1111.53125 L 88.050781 1111.53125 L 88.050781 1118.722656 L 135.988281 1118.722656 Z M 246.242188 1111.53125 L 198.308594 1111.53125 L 198.308594 1118.722656 L 246.246094 1118.722656 L 246.246094 1111.53125 Z M 356.5 1111.53125 L 308.5625 1111.53125 L 308.5625 1118.722656 L 356.5 1118.722656 Z M 447.753906 1138.847656 L 444.988281 1090.988281 L 437.8125 1091.402344 L 440.578125 1139.265625 Z M 903.292969 1129.53125 L 869.394531 1095.632812 L 864.3125 1100.71875 L 898.207031 1134.617188 Z M 1238.535156 1111.53125 L 1190.597656 1111.53125 L 1190.597656 1118.722656 L 1238.535156 1118.722656 Z M 1348.789062 1111.53125 L 1300.851562 1111.53125 L 1300.851562 1118.722656 L 1348.789062 1118.722656 Z M 135.382812 1231.828125 L 91.566406 1212.375 L 88.648438 1218.949219 L 132.464844 1238.398438 Z M 246.242188 1221.792969 L 198.308594 1221.792969 L 198.308594 1228.984375 L 246.246094 1228.984375 L 246.246094 1221.792969 Z M 351.828125 1210.730469 L 346.679688 1205.710938 L 313.222656 1240.046875 L 318.375 1245.066406 Z M 456.207031 1205.207031 L 449.695312 1202.15625 L 429.359375 1245.570312 L 435.871094 1248.617188 Z M 897.6875 1245.257812 L 876.359375 1202.320312 L 869.917969 1205.519531 L 891.242188 1248.457031 Z M 1006.007812 1246.476562 L 988.820312 1201.722656 L 982.105469 1204.300781 L 999.292969 1249.054688 Z M 1116.929688 1246.082031 L 1098.316406 1201.902344 L 1091.691406 1204.695312 L 1110.304688 1248.875 Z M 1238.765625 1226.726562 L 1191.820312 1217.007812 L 1190.367188 1224.046875 L 1237.308594 1233.769531 Z M 1349.050781 1225.953125 L 1301.824219 1217.738281 L 1300.59375 1224.824219 L 1347.820312 1233.039062 Z M 136.0625 1332.617188 L 134.117188 1325.695312 L 87.972656 1338.691406 L 89.921875 1345.613281 Z M 244.371094 1325.695312 L 240.476562 1319.648438 L 200.175781 1345.613281 L 204.070312 1351.660156 Z M 347.984375 1316.984375 L 341.828125 1313.269531 L 317.070312 1354.320312 L 323.226562 1358.035156 Z M 451.679688 1313.105469 L 444.671875 1311.488281 L 433.886719 1358.199219 L 440.894531 1359.816406 Z M 890.394531 1358.976562 L 884.34375 1311.421875 L 877.210938 1312.328125 L 883.261719 1359.886719 Z M 997.652344 1311.683594 L 990.460938 1311.683594 L 990.460938 1359.625 L 997.652344 1359.625 Z M 1108.007812 1311.699219 L 1100.816406 1311.667969 L 1100.613281 1359.609375 L 1107.804688 1359.636719 Z M 1223.441406 1358.207031 L 1212.699219 1311.484375 L 1205.691406 1313.097656 L 1216.433594 1359.816406 Z M 1345.09375 1348.9375 L 1309.339844 1317.003906 L 1304.550781 1322.367188 L 1340.304688 1354.300781 Z M 135.988281 229.417969 L 88.050781 229.417969 L 88.050781 236.609375 L 135.988281 236.609375 Z M 246.484375 231.863281 L 245.082031 224.808594 L 198.0625 234.164062 L 199.46875 241.214844 Z M 356.046875 227.160156 L 353.292969 220.515625 L 309.007812 238.863281 L 311.757812 245.507812 Z M 465.058594 223.457031 L 461.273438 217.34375 L 420.511719 242.570312 L 424.292969 248.6875 Z M 246.703125 119.15625 L 198.765625 119.15625 L 198.765625 126.347656 L 246.703125 126.347656 Z M 357.199219 121.597656 L 355.792969 114.546875 L 308.777344 123.898438 L 310.183594 130.953125 Z M 466.765625 116.898438 L 464.011719 110.253906 L 419.722656 128.601562 L 422.476562 135.246094 Z M 575.769531 113.191406 L 571.988281 107.078125 L 531.222656 132.304688 L 535.007812 138.421875 Z M 570.917969 905.917969 L 540.75 868.660156 L 535.160156 873.183594 L 565.328125 910.441406 Z M 569.109375 1017.960938 L 543 977.75 L 536.96875 981.667969 L 563.078125 1021.875 Z M 567.121094 1129.804688 L 545.359375 1087.089844 L 538.949219 1090.351562 L 560.710938 1133.070312 Z M 564.984375 1241.429688 L 547.808594 1196.675781 L 541.09375 1199.25 L 558.269531 1244.007812 Z M 562.714844 1352.832031 L 550.308594 1306.523438 L 543.363281 1308.382812 L 555.769531 1354.691406 Z M 681.171875 1017.0625 L 651.003906 979.804688 L 645.414062 984.328125 L 675.582031 1021.585938 Z M 679.363281 1129.101562 L 653.253906 1088.894531 L 647.222656 1092.8125 L 673.332031 1133.019531 Z M 677.378906 1240.949219 L 655.617188 1198.230469 L 649.207031 1201.496094 L 670.96875 1244.210938 Z M 675.238281 1352.574219 L 658.0625 1307.820312 L 651.347656 1310.394531 L 668.523438 1355.152344 Z M 791.425781 1130.128906 L 761.257812 1092.871094 L 755.667969 1097.394531 L 785.835938 1134.652344 Z M 789.617188 1242.171875 L 763.507812 1201.964844 L 757.476562 1205.878906 L 783.585938 1246.085938 Z M 787.632812 1354.015625 L 765.871094 1311.300781 L 759.460938 1314.5625 L 781.222656 1357.28125 Z M 797.980469 906.890625 L 760.726562 876.71875 L 756.199219 882.304688 L 793.453125 912.476562 Z M 909.40625 904.636719 L 869.203125 878.523438 L 865.285156 884.554688 L 905.492188 910.667969 Z M 1020.585938 902.273438 L 977.875 880.511719 L 974.613281 886.917969 L 1017.324219 908.683594 Z M 1131.519531 899.832031 L 1086.765625 882.648438 L 1084.191406 889.363281 L 1128.945312 906.542969 Z M 1242.195312 897.328125 L 1195.890625 884.917969 L 1194.027344 891.863281 L 1240.332031 904.273438 Z M 1352.597656 894.792969 L 1305.25 887.296875 L 1304.128906 894.398438 L 1351.476562 901.894531 Z M 905.972656 1017.152344 L 868.71875 986.980469 L 864.191406 992.570312 L 901.445312 1022.738281 Z M 1017.398438 1014.902344 L 977.195312 988.789062 L 973.277344 994.820312 L 1013.480469 1020.933594 Z M 1128.582031 1012.539062 L 1085.871094 990.773438 L 1082.609375 997.183594 L 1125.320312 1018.945312 Z M 1239.511719 1010.09375 L 1194.757812 992.914062 L 1192.183594 999.625 L 1236.9375 1016.808594 Z M 1350.183594 1007.589844 L 1303.882812 995.183594 L 1302.019531 1002.128906 L 1348.324219 1014.535156 Z M 1016.210938 1117.523438 L 973.28125 1096.195312 L 970.082031 1102.636719 L 1013.015625 1123.964844 Z M 1127.632812 1109.539062 L 1080.078125 1103.484375 L 1079.171875 1110.617188 L 1126.722656 1116.667969 Z M 461.8125 328.871094 L 456.730469 323.785156 L 422.832031 357.683594 L 427.914062 362.769531 Z M 135.769531 342.128906 L 134.363281 335.074219 L 87.347656 344.425781 L 88.753906 351.480469 Z M 245.332031 337.425781 L 242.582031 330.78125 L 198.292969 349.128906 L 201.042969 355.773438 Z M 354.339844 333.71875 L 350.558594 327.605469 L 309.792969 352.835938 L 313.574219 358.949219 Z M 136.226562 675.21875 L 89.210938 665.867188 L 87.808594 672.917969 L 134.824219 682.273438 Z M 245.792969 679.917969 L 201.503906 661.570312 L 198.753906 668.214844 L 243.039062 686.5625 Z M 354.800781 683.628906 L 314.035156 658.398438 L 310.253906 664.511719 L 351.015625 689.742188 Z M 462.273438 688.476562 L 428.378906 654.578125 L 423.292969 659.660156 L 457.191406 693.558594 Z M 135.988281 560.210938 L 88.050781 560.210938 L 88.050781 567.402344 L 135.988281 567.402344 Z M 246.242188 560.210938 L 198.308594 560.210938 L 198.308594 567.402344 L 246.246094 567.402344 L 246.246094 560.210938 Z M 356.757812 563.300781 L 309.214844 557.179688 L 308.292969 564.3125 L 355.839844 570.429688 Z M 465.132812 573.179688 L 424.167969 548.28125 L 420.433594 554.425781 L 461.398438 579.328125 Z M 465.132812 573.179688 " clip-rule="nonzero"/></clipPath><linearGradient x1="-0.00000120117" gradientTransform="matrix(2.5305, 0, 0, 2.530711, 87.34937, 100.191729)" y1="248.881" x2="499.999988" gradientUnits="userSpaceOnUse" y2="248.881" id="6c15fa56b5"><stop stop-opacity="1" stop-color="rgb(36.898804%, 8.999634%, 92.199707%)" offset="0"/><stop stop-opacity="1" stop-color="rgb(37.14447%, 9.355164%, 92.230225%)" offset="0.00390625"/><stop stop-opacity="1" stop-color="rgb(37.391663%, 9.710693%, 92.260742%)" offset="0.0078125"/><stop stop-opacity="1" stop-color="rgb(37.637329%, 10.066223%, 92.29126%)" offset="0.0117187"/><stop stop-opacity="1" stop-color="rgb(37.884521%, 10.421753%, 92.321777%)" offset="0.015625"/><stop stop-opacity="1" stop-color="rgb(38.130188%, 10.775757%, 92.350769%)" offset="0.0195312"/><stop stop-opacity="1" stop-color="rgb(38.37738%, 11.131287%, 92.381287%)" offset="0.0234375"/><stop stop-opacity="1" stop-color="rgb(38.624573%, 11.486816%, 92.411804%)" offset="0.0273438"/><stop stop-opacity="1" stop-color="rgb(38.871765%, 11.842346%, 92.442322%)" offset="0.03125"/><stop stop-opacity="1" stop-color="rgb(39.117432%, 12.197876%, 92.472839%)" offset="0.0351562"/><stop stop-opacity="1" stop-color="rgb(39.364624%, 12.553406%, 92.503357%)" offset="0.0390625"/><stop stop-opacity="1" stop-color="rgb(39.610291%, 12.908936%, 92.533875%)" offset="0.0429687"/><stop stop-opacity="1" stop-color="rgb(39.857483%, 13.264465%, 92.564392%)" offset="0.046875"/><stop stop-opacity="1" stop-color="rgb(40.103149%, 13.619995%, 92.59491%)" offset="0.0507812"/><stop stop-opacity="1" stop-color="rgb(40.350342%, 13.975525%, 92.625427%)" offset="0.0546875"/><stop stop-opacity="1" stop-color="rgb(40.596008%, 14.331055%, 92.655945%)" offset="0.0585937"/><stop stop-opacity="1" stop-color="rgb(40.843201%, 14.686584%, 92.686462%)" offset="0.0625"/><stop stop-opacity="1" stop-color="rgb(41.088867%, 15.042114%, 92.71698%)" offset="0.0664062"/><stop stop-opacity="1" stop-color="rgb(41.33606%, 15.397644%, 92.747498%)" offset="0.0703125"/><stop stop-opacity="1" stop-color="rgb(41.581726%, 15.753174%, 92.778015%)" offset="0.0742188"/><stop stop-opacity="1" stop-color="rgb(41.828918%, 16.108704%, 92.808533%)" offset="0.078125"/><stop stop-opacity="1" stop-color="rgb(42.074585%, 16.464233%, 92.83905%)" offset="0.0820312"/><stop stop-opacity="1" stop-color="rgb(42.321777%, 16.819763%, 92.869568%)" offset="0.0859375"/><stop stop-opacity="1" stop-color="rgb(42.567444%, 17.175293%, 92.900085%)" offset="0.0898437"/><stop stop-opacity="1" stop-color="rgb(42.814636%, 17.530823%, 92.930603%)" offset="0.09375"/><stop stop-opacity="1" stop-color="rgb(43.060303%, 17.886353%, 92.961121%)" offset="0.0976563"/><stop stop-opacity="1" stop-color="rgb(43.307495%, 18.241882%, 92.991638%)" offset="0.101562"/><stop stop-opacity="1" stop-color="rgb(43.553162%, 18.597412%, 93.022156%)" offset="0.105469"/><stop stop-opacity="1" stop-color="rgb(43.800354%, 18.952942%, 93.052673%)" offset="0.109375"/><stop stop-opacity="1" stop-color="rgb(44.046021%, 19.308472%, 93.083191%)" offset="0.113281"/><stop stop-opacity="1" stop-color="rgb(44.293213%, 19.664001%, 93.113708%)" offset="0.117188"/><stop stop-opacity="1" stop-color="rgb(44.538879%, 20.018005%, 93.144226%)" offset="0.121094"/><stop stop-opacity="1" stop-color="rgb(44.786072%, 20.373535%, 93.174744%)" offset="0.125"/><stop stop-opacity="1" stop-color="rgb(45.033264%, 20.729065%, 93.205261%)" offset="0.128906"/><stop stop-opacity="1" stop-color="rgb(45.280457%, 21.084595%, 93.235779%)" offset="0.132812"/><stop stop-opacity="1" stop-color="rgb(45.526123%, 21.440125%, 93.266296%)" offset="0.136719"/><stop stop-opacity="1" stop-color="rgb(45.773315%, 21.795654%, 93.296814%)" offset="0.140625"/><stop stop-opacity="1" stop-color="rgb(46.018982%, 22.151184%, 93.325806%)" offset="0.144531"/><stop stop-opacity="1" stop-color="rgb(46.266174%, 22.506714%, 93.356323%)" offset="0.148437"/><stop stop-opacity="1" stop-color="rgb(46.511841%, 22.862244%, 93.386841%)" offset="0.152344"/><stop stop-opacity="1" stop-color="rgb(46.759033%, 23.217773%, 93.417358%)" offset="0.15625"/><stop stop-opacity="1" stop-color="rgb(47.0047%, 23.573303%, 93.447876%)" offset="0.160156"/><stop stop-opacity="1" stop-color="rgb(47.251892%, 23.928833%, 93.478394%)" offset="0.164062"/><stop stop-opacity="1" stop-color="rgb(47.497559%, 24.284363%, 93.508911%)" offset="0.167969"/><stop stop-opacity="1" stop-color="rgb(47.744751%, 24.639893%, 93.539429%)" offset="0.171875"/><stop stop-opacity="1" stop-color="rgb(47.990417%, 24.995422%, 93.569946%)" offset="0.175781"/><stop stop-opacity="1" stop-color="rgb(48.23761%, 25.350952%, 93.600464%)" offset="0.179687"/><stop stop-opacity="1" stop-color="rgb(48.483276%, 25.706482%, 93.630981%)" offset="0.183594"/><stop stop-opacity="1" stop-color="rgb(48.730469%, 26.062012%, 93.661499%)" offset="0.1875"/><stop stop-opacity="1" stop-color="rgb(48.976135%, 26.417542%, 93.692017%)" offset="0.191406"/><stop stop-opacity="1" stop-color="rgb(49.223328%, 26.773071%, 93.722534%)" offset="0.195312"/><stop stop-opacity="1" stop-color="rgb(49.468994%, 27.128601%, 93.753052%)" offset="0.199219"/><stop stop-opacity="1" stop-color="rgb(49.716187%, 27.484131%, 93.783569%)" offset="0.203125"/><stop stop-opacity="1" stop-color="rgb(49.961853%, 27.839661%, 93.814087%)" offset="0.207031"/><stop stop-opacity="1" stop-color="rgb(50.209045%, 28.19519%, 93.844604%)" offset="0.210937"/><stop stop-opacity="1" stop-color="rgb(50.454712%, 28.549194%, 93.875122%)" offset="0.214844"/><stop stop-opacity="1" stop-color="rgb(50.701904%, 28.904724%, 93.90564%)" offset="0.21875"/><stop stop-opacity="1" stop-color="rgb(50.947571%, 29.260254%, 93.936157%)" offset="0.222656"/><stop stop-opacity="1" stop-color="rgb(51.194763%, 29.615784%, 93.966675%)" offset="0.226562"/><stop stop-opacity="1" stop-color="rgb(51.44043%, 29.971313%, 93.997192%)" offset="0.230469"/><stop stop-opacity="1" stop-color="rgb(51.687622%, 30.326843%, 94.02771%)" offset="0.234375"/><stop stop-opacity="1" stop-color="rgb(51.934814%, 30.682373%, 94.058228%)" offset="0.238281"/><stop stop-opacity="1" stop-color="rgb(52.182007%, 31.037903%, 94.088745%)" offset="0.242187"/><stop stop-opacity="1" stop-color="rgb(52.427673%, 31.393433%, 94.119263%)" offset="0.246094"/><stop stop-opacity="1" stop-color="rgb(52.674866%, 31.748962%, 94.14978%)" offset="0.25"/><stop stop-opacity="1" stop-color="rgb(52.920532%, 32.104492%, 94.180298%)" offset="0.253906"/><stop stop-opacity="1" stop-color="rgb(53.167725%, 32.460022%, 94.210815%)" offset="0.257812"/><stop stop-opacity="1" stop-color="rgb(53.413391%, 32.815552%, 94.241333%)" offset="0.261719"/><stop stop-opacity="1" stop-color="rgb(53.660583%, 33.171082%, 94.271851%)" offset="0.265625"/><stop stop-opacity="1" stop-color="rgb(53.90625%, 33.526611%, 94.300842%)" offset="0.269531"/><stop stop-opacity="1" stop-color="rgb(54.153442%, 33.882141%, 94.33136%)" offset="0.273438"/><stop stop-opacity="1" stop-color="rgb(54.399109%, 34.237671%, 94.361877%)" offset="0.277344"/><stop stop-opacity="1" stop-color="rgb(54.646301%, 34.593201%, 94.392395%)" offset="0.28125"/><stop stop-opacity="1" stop-color="rgb(54.891968%, 34.94873%, 94.422913%)" offset="0.285156"/><stop stop-opacity="1" stop-color="rgb(55.13916%, 35.30426%, 94.45343%)" offset="0.289063"/><stop stop-opacity="1" stop-color="rgb(55.384827%, 35.65979%, 94.483948%)" offset="0.292969"/><stop stop-opacity="1" stop-color="rgb(55.632019%, 36.01532%, 94.514465%)" offset="0.296875"/><stop stop-opacity="1" stop-color="rgb(55.877686%, 36.37085%, 94.544983%)" offset="0.300781"/><stop stop-opacity="1" stop-color="rgb(56.124878%, 36.726379%, 94.5755%)" offset="0.304688"/><stop stop-opacity="1" stop-color="rgb(56.370544%, 37.081909%, 94.606018%)" offset="0.308594"/><stop stop-opacity="1" stop-color="rgb(56.617737%, 37.437439%, 94.636536%)" offset="0.3125"/><stop stop-opacity="1" stop-color="rgb(56.863403%, 37.791443%, 94.667053%)" offset="0.316406"/><stop stop-opacity="1" stop-color="rgb(57.110596%, 38.146973%, 94.697571%)" offset="0.320312"/><stop stop-opacity="1" stop-color="rgb(57.356262%, 38.502502%, 94.728088%)" offset="0.324219"/><stop stop-opacity="1" stop-color="rgb(57.603455%, 38.858032%, 94.758606%)" offset="0.328125"/><stop stop-opacity="1" stop-color="rgb(57.849121%, 39.213562%, 94.789124%)" offset="0.332031"/><stop stop-opacity="1" stop-color="rgb(58.096313%, 39.569092%, 94.819641%)" offset="0.335938"/><stop stop-opacity="1" stop-color="rgb(58.34198%, 39.924622%, 94.850159%)" offset="0.339844"/><stop stop-opacity="1" stop-color="rgb(58.589172%, 40.280151%, 94.880676%)" offset="0.34375"/><stop stop-opacity="1" stop-color="rgb(58.836365%, 40.635681%, 94.911194%)" offset="0.347656"/><stop stop-opacity="1" stop-color="rgb(59.083557%, 40.991211%, 94.941711%)" offset="0.351562"/><stop stop-opacity="1" stop-color="rgb(59.329224%, 41.346741%, 94.972229%)" offset="0.355469"/><stop stop-opacity="1" stop-color="rgb(59.576416%, 41.702271%, 95.002747%)" offset="0.359375"/><stop stop-opacity="1" stop-color="rgb(59.822083%, 42.0578%, 95.033264%)" offset="0.363281"/><stop stop-opacity="1" stop-color="rgb(60.069275%, 42.41333%, 95.063782%)" offset="0.367188"/><stop stop-opacity="1" stop-color="rgb(60.314941%, 42.76886%, 95.094299%)" offset="0.371094"/><stop stop-opacity="1" stop-color="rgb(60.562134%, 43.12439%, 95.124817%)" offset="0.375"/><stop stop-opacity="1" stop-color="rgb(60.8078%, 43.479919%, 95.155334%)" offset="0.378906"/><stop stop-opacity="1" stop-color="rgb(61.054993%, 43.835449%, 95.185852%)" offset="0.382812"/><stop stop-opacity="1" stop-color="rgb(61.300659%, 44.190979%, 95.214844%)" offset="0.386719"/><stop stop-opacity="1" stop-color="rgb(61.547852%, 44.546509%, 95.245361%)" offset="0.390625"/><stop stop-opacity="1" stop-color="rgb(61.793518%, 44.902039%, 95.275879%)" offset="0.394531"/><stop stop-opacity="1" stop-color="rgb(62.04071%, 45.257568%, 95.306396%)" offset="0.398438"/><stop stop-opacity="1" stop-color="rgb(62.286377%, 45.613098%, 95.336914%)" offset="0.402344"/><stop stop-opacity="1" stop-color="rgb(62.533569%, 45.968628%, 95.367432%)" offset="0.40625"/><stop stop-opacity="1" stop-color="rgb(62.779236%, 46.322632%, 95.397949%)" offset="0.410156"/><stop stop-opacity="1" stop-color="rgb(63.026428%, 46.678162%, 95.428467%)" offset="0.414062"/><stop stop-opacity="1" stop-color="rgb(63.272095%, 47.033691%, 95.458984%)" offset="0.417969"/><stop stop-opacity="1" stop-color="rgb(63.519287%, 47.389221%, 95.489502%)" offset="0.421875"/><stop stop-opacity="1" stop-color="rgb(63.764954%, 47.744751%, 95.52002%)" offset="0.425781"/><stop stop-opacity="1" stop-color="rgb(64.012146%, 48.100281%, 95.550537%)" offset="0.429688"/><stop stop-opacity="1" stop-color="rgb(64.257812%, 48.455811%, 95.581055%)" offset="0.433594"/><stop stop-opacity="1" stop-color="rgb(64.505005%, 48.81134%, 95.611572%)" offset="0.4375"/><stop stop-opacity="1" stop-color="rgb(64.750671%, 49.16687%, 95.64209%)" offset="0.441406"/><stop stop-opacity="1" stop-color="rgb(64.997864%, 49.5224%, 95.672607%)" offset="0.445312"/><stop stop-opacity="1" stop-color="rgb(65.24353%, 49.87793%, 95.703125%)" offset="0.449219"/><stop stop-opacity="1" stop-color="rgb(65.490723%, 50.233459%, 95.733643%)" offset="0.453125"/><stop stop-opacity="1" stop-color="rgb(65.737915%, 50.588989%, 95.76416%)" offset="0.457031"/><stop stop-opacity="1" stop-color="rgb(65.985107%, 50.944519%, 95.794678%)" offset="0.460937"/><stop stop-opacity="1" stop-color="rgb(66.230774%, 51.300049%, 95.825195%)" offset="0.464844"/><stop stop-opacity="1" stop-color="rgb(66.477966%, 51.655579%, 95.855713%)" offset="0.46875"/><stop stop-opacity="1" stop-color="rgb(66.723633%, 52.011108%, 95.88623%)" offset="0.472656"/><stop stop-opacity="1" stop-color="rgb(66.970825%, 52.366638%, 95.916748%)" offset="0.476562"/><stop stop-opacity="1" stop-color="rgb(67.216492%, 52.722168%, 95.947266%)" offset="0.480469"/><stop stop-opacity="1" stop-color="rgb(67.463684%, 53.077698%, 95.977783%)" offset="0.484375"/><stop stop-opacity="1" stop-color="rgb(67.709351%, 53.433228%, 96.008301%)" offset="0.488281"/><stop stop-opacity="1" stop-color="rgb(67.956543%, 53.788757%, 96.038818%)" offset="0.492188"/><stop stop-opacity="1" stop-color="rgb(68.202209%, 54.144287%, 96.069336%)" offset="0.496094"/><stop stop-opacity="1" stop-color="rgb(68.449402%, 54.499817%, 96.099854%)" offset="0.5"/><stop stop-opacity="1" stop-color="rgb(68.695068%, 54.855347%, 96.130371%)" offset="0.503906"/><stop stop-opacity="1" stop-color="rgb(68.942261%, 55.210876%, 96.160889%)" offset="0.507812"/><stop stop-opacity="1" stop-color="rgb(69.187927%, 55.56488%, 96.18988%)" offset="0.511719"/><stop stop-opacity="1" stop-color="rgb(69.43512%, 55.92041%, 96.220398%)" offset="0.515625"/><stop stop-opacity="1" stop-color="rgb(69.680786%, 56.27594%, 96.250916%)" offset="0.519531"/><stop stop-opacity="1" stop-color="rgb(69.927979%, 56.63147%, 96.281433%)" offset="0.523438"/><stop stop-opacity="1" stop-color="rgb(70.173645%, 56.987%, 96.311951%)" offset="0.527344"/><stop stop-opacity="1" stop-color="rgb(70.420837%, 57.342529%, 96.342468%)" offset="0.53125"/><stop stop-opacity="1" stop-color="rgb(70.666504%, 57.698059%, 96.372986%)" offset="0.535156"/><stop stop-opacity="1" stop-color="rgb(70.913696%, 58.053589%, 96.403503%)" offset="0.539062"/><stop stop-opacity="1" stop-color="rgb(71.159363%, 58.409119%, 96.434021%)" offset="0.542969"/><stop stop-opacity="1" stop-color="rgb(71.406555%, 58.764648%, 96.464539%)" offset="0.546875"/><stop stop-opacity="1" stop-color="rgb(71.652222%, 59.120178%, 96.495056%)" offset="0.550781"/><stop stop-opacity="1" stop-color="rgb(71.899414%, 59.475708%, 96.525574%)" offset="0.554688"/><stop stop-opacity="1" stop-color="rgb(72.145081%, 59.831238%, 96.556091%)" offset="0.558594"/><stop stop-opacity="1" stop-color="rgb(72.392273%, 60.186768%, 96.586609%)" offset="0.5625"/><stop stop-opacity="1" stop-color="rgb(72.639465%, 60.542297%, 96.617126%)" offset="0.566406"/><stop stop-opacity="1" stop-color="rgb(72.886658%, 60.897827%, 96.647644%)" offset="0.570312"/><stop stop-opacity="1" stop-color="rgb(73.132324%, 61.253357%, 96.678162%)" offset="0.574219"/><stop stop-opacity="1" stop-color="rgb(73.379517%, 61.608887%, 96.708679%)" offset="0.578125"/><stop stop-opacity="1" stop-color="rgb(73.625183%, 61.964417%, 96.739197%)" offset="0.582031"/><stop stop-opacity="1" stop-color="rgb(73.872375%, 62.319946%, 96.769714%)" offset="0.585938"/><stop stop-opacity="1" stop-color="rgb(74.118042%, 62.675476%, 96.800232%)" offset="0.589844"/><stop stop-opacity="1" stop-color="rgb(74.365234%, 63.031006%, 96.83075%)" offset="0.59375"/><stop stop-opacity="1" stop-color="rgb(74.610901%, 63.386536%, 96.861267%)" offset="0.597656"/><stop stop-opacity="1" stop-color="rgb(74.858093%, 63.742065%, 96.891785%)" offset="0.601562"/><stop stop-opacity="1" stop-color="rgb(75.10376%, 64.096069%, 96.922302%)" offset="0.605469"/><stop stop-opacity="1" stop-color="rgb(75.350952%, 64.451599%, 96.95282%)" offset="0.609375"/><stop stop-opacity="1" stop-color="rgb(75.596619%, 64.807129%, 96.983337%)" offset="0.613281"/><stop stop-opacity="1" stop-color="rgb(75.843811%, 65.162659%, 97.013855%)" offset="0.617188"/><stop stop-opacity="1" stop-color="rgb(76.089478%, 65.518188%, 97.044373%)" offset="0.621094"/><stop stop-opacity="1" stop-color="rgb(76.33667%, 65.873718%, 97.07489%)" offset="0.625"/><stop stop-opacity="1" stop-color="rgb(76.582336%, 66.229248%, 97.105408%)" offset="0.628906"/><stop stop-opacity="1" stop-color="rgb(76.829529%, 66.584778%, 97.135925%)" offset="0.632812"/><stop stop-opacity="1" stop-color="rgb(77.075195%, 66.940308%, 97.164917%)" offset="0.636719"/><stop stop-opacity="1" stop-color="rgb(77.322388%, 67.295837%, 97.195435%)" offset="0.640625"/><stop stop-opacity="1" stop-color="rgb(77.568054%, 67.651367%, 97.225952%)" offset="0.644531"/><stop stop-opacity="1" stop-color="rgb(77.815247%, 68.006897%, 97.25647%)" offset="0.648437"/><stop stop-opacity="1" stop-color="rgb(78.060913%, 68.362427%, 97.286987%)" offset="0.652344"/><stop stop-opacity="1" stop-color="rgb(78.308105%, 68.717957%, 97.317505%)" offset="0.65625"/><stop stop-opacity="1" stop-color="rgb(78.553772%, 69.073486%, 97.348022%)" offset="0.660156"/><stop stop-opacity="1" stop-color="rgb(78.800964%, 69.429016%, 97.37854%)" offset="0.664062"/><stop stop-opacity="1" stop-color="rgb(79.046631%, 69.784546%, 97.409058%)" offset="0.667969"/><stop stop-opacity="1" stop-color="rgb(79.293823%, 70.140076%, 97.439575%)" offset="0.671875"/><stop stop-opacity="1" stop-color="rgb(79.541016%, 70.495605%, 97.470093%)" offset="0.675781"/><stop stop-opacity="1" stop-color="rgb(79.788208%, 70.851135%, 97.50061%)" offset="0.679688"/><stop stop-opacity="1" stop-color="rgb(80.033875%, 71.206665%, 97.531128%)" offset="0.683594"/><stop stop-opacity="1" stop-color="rgb(80.281067%, 71.562195%, 97.561646%)" offset="0.6875"/><stop stop-opacity="1" stop-color="rgb(80.526733%, 71.917725%, 97.592163%)" offset="0.691406"/><stop stop-opacity="1" stop-color="rgb(80.773926%, 72.273254%, 97.622681%)" offset="0.695312"/><stop stop-opacity="1" stop-color="rgb(81.019592%, 72.628784%, 97.653198%)" offset="0.699219"/><stop stop-opacity="1" stop-color="rgb(81.266785%, 72.984314%, 97.683716%)" offset="0.703125"/><stop stop-opacity="1" stop-color="rgb(81.512451%, 73.338318%, 97.714233%)" offset="0.707031"/><stop stop-opacity="1" stop-color="rgb(81.759644%, 73.693848%, 97.744751%)" offset="0.710938"/><stop stop-opacity="1" stop-color="rgb(82.00531%, 74.049377%, 97.775269%)" offset="0.714844"/><stop stop-opacity="1" stop-color="rgb(82.252502%, 74.404907%, 97.805786%)" offset="0.71875"/><stop stop-opacity="1" stop-color="rgb(82.498169%, 74.760437%, 97.836304%)" offset="0.722656"/><stop stop-opacity="1" stop-color="rgb(82.745361%, 75.115967%, 97.866821%)" offset="0.726562"/><stop stop-opacity="1" stop-color="rgb(82.991028%, 75.471497%, 97.897339%)" offset="0.730469"/><stop stop-opacity="1" stop-color="rgb(83.23822%, 75.827026%, 97.927856%)" offset="0.734375"/><stop stop-opacity="1" stop-color="rgb(83.483887%, 76.182556%, 97.958374%)" offset="0.738281"/><stop stop-opacity="1" stop-color="rgb(83.731079%, 76.538086%, 97.988892%)" offset="0.742187"/><stop stop-opacity="1" stop-color="rgb(83.976746%, 76.893616%, 98.019409%)" offset="0.746094"/><stop stop-opacity="1" stop-color="rgb(84.223938%, 77.249146%, 98.049927%)" offset="0.75"/><stop stop-opacity="1" stop-color="rgb(84.469604%, 77.604675%, 98.078918%)" offset="0.753906"/><stop stop-opacity="1" stop-color="rgb(84.716797%, 77.960205%, 98.109436%)" offset="0.757813"/><stop stop-opacity="1" stop-color="rgb(84.962463%, 78.315735%, 98.139954%)" offset="0.761719"/><stop stop-opacity="1" stop-color="rgb(85.209656%, 78.671265%, 98.170471%)" offset="0.765625"/><stop stop-opacity="1" stop-color="rgb(85.455322%, 79.026794%, 98.200989%)" offset="0.769531"/><stop stop-opacity="1" stop-color="rgb(85.702515%, 79.382324%, 98.231506%)" offset="0.773438"/><stop stop-opacity="1" stop-color="rgb(85.948181%, 79.737854%, 98.262024%)" offset="0.777344"/><stop stop-opacity="1" stop-color="rgb(86.195374%, 80.093384%, 98.292542%)" offset="0.78125"/><stop stop-opacity="1" stop-color="rgb(86.442566%, 80.448914%, 98.323059%)" offset="0.785156"/><stop stop-opacity="1" stop-color="rgb(86.689758%, 80.804443%, 98.353577%)" offset="0.789062"/><stop stop-opacity="1" stop-color="rgb(86.935425%, 81.159973%, 98.384094%)" offset="0.792969"/><stop stop-opacity="1" stop-color="rgb(87.182617%, 81.515503%, 98.414612%)" offset="0.796875"/><stop stop-opacity="1" stop-color="rgb(87.428284%, 81.869507%, 98.445129%)" offset="0.800781"/><stop stop-opacity="1" stop-color="rgb(87.675476%, 82.225037%, 98.475647%)" offset="0.804688"/><stop stop-opacity="1" stop-color="rgb(87.921143%, 82.580566%, 98.506165%)" offset="0.808594"/><stop stop-opacity="1" stop-color="rgb(88.168335%, 82.936096%, 98.536682%)" offset="0.8125"/><stop stop-opacity="1" stop-color="rgb(88.414001%, 83.291626%, 98.5672%)" offset="0.816406"/><stop stop-opacity="1" stop-color="rgb(88.661194%, 83.647156%, 98.597717%)" offset="0.820312"/><stop stop-opacity="1" stop-color="rgb(88.90686%, 84.002686%, 98.628235%)" offset="0.824219"/><stop stop-opacity="1" stop-color="rgb(89.154053%, 84.358215%, 98.658752%)" offset="0.828125"/><stop stop-opacity="1" stop-color="rgb(89.399719%, 84.713745%, 98.68927%)" offset="0.832031"/><stop stop-opacity="1" stop-color="rgb(89.646912%, 85.069275%, 98.719788%)" offset="0.835938"/><stop stop-opacity="1" stop-color="rgb(89.892578%, 85.424805%, 98.750305%)" offset="0.839844"/><stop stop-opacity="1" stop-color="rgb(90.139771%, 85.780334%, 98.780823%)" offset="0.84375"/><stop stop-opacity="1" stop-color="rgb(90.385437%, 86.135864%, 98.81134%)" offset="0.847656"/><stop stop-opacity="1" stop-color="rgb(90.632629%, 86.491394%, 98.841858%)" offset="0.851563"/><stop stop-opacity="1" stop-color="rgb(90.878296%, 86.846924%, 98.872375%)" offset="0.855469"/><stop stop-opacity="1" stop-color="rgb(91.125488%, 87.202454%, 98.902893%)" offset="0.859375"/><stop stop-opacity="1" stop-color="rgb(91.371155%, 87.557983%, 98.933411%)" offset="0.863281"/><stop stop-opacity="1" stop-color="rgb(91.618347%, 87.913513%, 98.963928%)" offset="0.867188"/><stop stop-opacity="1" stop-color="rgb(91.864014%, 88.269043%, 98.994446%)" offset="0.871094"/><stop stop-opacity="1" stop-color="rgb(92.111206%, 88.624573%, 99.024963%)" offset="0.875"/><stop stop-opacity="1" stop-color="rgb(92.356873%, 88.980103%, 99.053955%)" offset="0.878906"/><stop stop-opacity="1" stop-color="rgb(92.604065%, 89.335632%, 99.084473%)" offset="0.882812"/><stop stop-opacity="1" stop-color="rgb(92.849731%, 89.691162%, 99.11499%)" offset="0.886719"/><stop stop-opacity="1" stop-color="rgb(93.096924%, 90.046692%, 99.145508%)" offset="0.890625"/><stop stop-opacity="1" stop-color="rgb(93.344116%, 90.402222%, 99.176025%)" offset="0.894531"/><stop stop-opacity="1" stop-color="rgb(93.591309%, 90.757751%, 99.206543%)" offset="0.898438"/><stop stop-opacity="1" stop-color="rgb(93.836975%, 91.111755%, 99.237061%)" offset="0.902344"/><stop stop-opacity="1" stop-color="rgb(94.084167%, 91.467285%, 99.267578%)" offset="0.90625"/><stop stop-opacity="1" stop-color="rgb(94.329834%, 91.822815%, 99.298096%)" offset="0.910156"/><stop stop-opacity="1" stop-color="rgb(94.577026%, 92.178345%, 99.328613%)" offset="0.914062"/><stop stop-opacity="1" stop-color="rgb(94.822693%, 92.533875%, 99.359131%)" offset="0.917969"/><stop stop-opacity="1" stop-color="rgb(95.069885%, 92.889404%, 99.389648%)" offset="0.921875"/><stop stop-opacity="1" stop-color="rgb(95.315552%, 93.244934%, 99.420166%)" offset="0.925781"/><stop stop-opacity="1" stop-color="rgb(95.562744%, 93.600464%, 99.450684%)" offset="0.929688"/><stop stop-opacity="1" stop-color="rgb(95.808411%, 93.955994%, 99.481201%)" offset="0.933594"/><stop stop-opacity="1" stop-color="rgb(96.055603%, 94.311523%, 99.511719%)" offset="0.9375"/><stop stop-opacity="1" stop-color="rgb(96.30127%, 94.667053%, 99.542236%)" offset="0.941406"/><stop stop-opacity="1" stop-color="rgb(96.548462%, 95.022583%, 99.572754%)" offset="0.945312"/><stop stop-opacity="1" stop-color="rgb(96.794128%, 95.378113%, 99.603271%)" offset="0.949219"/><stop stop-opacity="1" stop-color="rgb(97.041321%, 95.733643%, 99.633789%)" offset="0.953125"/><stop stop-opacity="1" stop-color="rgb(97.286987%, 96.089172%, 99.664307%)" offset="0.957031"/><stop stop-opacity="1" stop-color="rgb(97.53418%, 96.444702%, 99.694824%)" offset="0.960938"/><stop stop-opacity="1" stop-color="rgb(97.779846%, 96.800232%, 99.725342%)" offset="0.964844"/><stop stop-opacity="1" stop-color="rgb(98.027039%, 97.155762%, 99.755859%)" offset="0.96875"/><stop stop-opacity="1" stop-color="rgb(98.272705%, 97.511292%, 99.786377%)" offset="0.972656"/><stop stop-opacity="1" stop-color="rgb(98.519897%, 97.866821%, 99.816895%)" offset="0.976562"/><stop stop-opacity="1" stop-color="rgb(98.765564%, 98.222351%, 99.847412%)" offset="0.980469"/><stop stop-opacity="1" stop-color="rgb(99.012756%, 98.577881%, 99.87793%)" offset="0.984375"/><stop stop-opacity="1" stop-color="rgb(99.258423%, 98.933411%, 99.908447%)" offset="0.988281"/><stop stop-opacity="1" stop-color="rgb(99.505615%, 99.28894%, 99.938965%)" offset="0.992188"/><stop stop-opacity="1" stop-color="rgb(99.751282%, 99.642944%, 99.967957%)" offset="0.996094"/><stop stop-opacity="1" stop-color="rgb(99.998474%, 99.998474%, 99.998474%)" offset="1"/></linearGradient></defs><rect x="-144" width="1728" fill="#ffffff" y="-80.999999" height="971.999992" fill-opacity="1"/><rect x="-144" width="1728" fill="#111a2e" y="-80.999999" height="971.999992" fill-opacity="1"/><g clip-path="url(#c76e2a5355)"><g clip-path="url(#da99aac794)"><path fill="url(#6c15fa56b5)" d="M 87.347656 178.363281 L 87.347656 577.363281 L 1352.597656 577.363281 L 1352.597656 178.363281 Z M 87.347656 178.363281 " fill-rule="nonzero"/></g></g><g fill="#ffffff" fill-opacity="1"><g transform="translate(646.783286, 61.500017)"><g><path d="M 10.09375 -6.59375 L 3.875 -6.59375 L 3.875 0 L 1.953125 0 L 1.953125 -14.9375 L 11.125 -14.9375 L 11.125 -13.3125 L 3.875 -13.3125 L 3.875 -8.203125 L 10.09375 -8.203125 Z M 10.09375 -6.59375 "/></g></g></g><g fill="#ffffff" fill-opacity="1"><g transform="translate(659.378309, 61.500017)"><g><path d="M 2.078125 -11.09375 L 7.75 -11.09375 L 7.75 -1.640625 L 11.375 -1.640625 L 11.375 0 L 2.078125 0 L 2.078125 -1.640625 L 5.859375 -1.640625 L 5.859375 -9.4375 L 2.078125 -9.4375 Z M 5.609375 -14 C 5.609375 -14.320312 5.703125 -14.585938 5.890625 -14.796875 C 6.078125 -15.015625 6.363281 -15.125 6.75 -15.125 C 7.125 -15.125 7.40625 -15.015625 7.59375 -14.796875 C 7.789062 -14.585938 7.890625 -14.320312 7.890625 -14 C 7.890625 -13.695312 7.789062 -13.441406 7.59375 -13.234375 C 7.40625 -13.035156 7.125 -12.9375 6.75 -12.9375 C 6.363281 -12.9375 6.078125 -13.035156 5.890625 -13.234375 C 5.703125 -13.441406 5.609375 -13.695312 5.609375 -14 Z M 5.609375 -14 "/></g></g></g><g fill="#ffffff" fill-opacity="1"><g transform="translate(671.973332, 61.500017)"><g><path d="M 9.046875 -11.296875 C 9.234375 -11.296875 9.421875 -11.289062 9.609375 -11.28125 C 9.796875 -11.269531 9.976562 -11.253906 10.15625 -11.234375 C 10.332031 -11.210938 10.492188 -11.179688 10.640625 -11.140625 C 10.785156 -11.109375 10.90625 -11.070312 11 -11.03125 L 10.75 -9.171875 C 10.375 -9.253906 10.019531 -9.3125 9.6875 -9.34375 C 9.363281 -9.382812 9.019531 -9.40625 8.65625 -9.40625 C 7.769531 -9.40625 7.050781 -9.203125 6.5 -8.796875 C 5.945312 -8.398438 5.539062 -7.835938 5.28125 -7.109375 L 5.28125 0 L 3.375 0 L 3.375 -11.09375 L 5.171875 -11.09375 L 5.265625 -9.328125 C 5.722656 -9.941406 6.265625 -10.421875 6.890625 -10.765625 C 7.523438 -11.117188 8.242188 -11.296875 9.046875 -11.296875 Z M 9.046875 -11.296875 "/></g></g></g><g fill="#ffffff" fill-opacity="1"><g transform="translate(684.568356, 61.500017)"><g><path d="M 9.15625 -2.9375 C 9.15625 -3.164062 9.109375 -3.367188 9.015625 -3.546875 C 8.929688 -3.734375 8.78125 -3.898438 8.5625 -4.046875 C 8.351562 -4.203125 8.070312 -4.34375 7.71875 -4.46875 C 7.375 -4.59375 6.941406 -4.707031 6.421875 -4.8125 C 5.785156 -4.9375 5.207031 -5.09375 4.6875 -5.28125 C 4.164062 -5.46875 3.71875 -5.6875 3.34375 -5.9375 C 2.976562 -6.195312 2.691406 -6.5 2.484375 -6.84375 C 2.273438 -7.1875 2.171875 -7.585938 2.171875 -8.046875 C 2.171875 -8.492188 2.273438 -8.914062 2.484375 -9.3125 C 2.703125 -9.707031 3 -10.050781 3.375 -10.34375 C 3.757812 -10.632812 4.21875 -10.863281 4.75 -11.03125 C 5.28125 -11.207031 5.863281 -11.296875 6.5 -11.296875 C 7.1875 -11.296875 7.800781 -11.207031 8.34375 -11.03125 C 8.894531 -10.851562 9.359375 -10.609375 9.734375 -10.296875 C 10.117188 -9.984375 10.414062 -9.613281 10.625 -9.1875 C 10.832031 -8.769531 10.9375 -8.316406 10.9375 -7.828125 L 9.046875 -7.828125 C 9.046875 -8.066406 8.984375 -8.300781 8.859375 -8.53125 C 8.734375 -8.757812 8.5625 -8.960938 8.34375 -9.140625 C 8.125 -9.316406 7.859375 -9.457031 7.546875 -9.5625 C 7.234375 -9.675781 6.882812 -9.734375 6.5 -9.734375 C 6.09375 -9.734375 5.738281 -9.6875 5.4375 -9.59375 C 5.132812 -9.507812 4.878906 -9.394531 4.671875 -9.25 C 4.472656 -9.101562 4.320312 -8.925781 4.21875 -8.71875 C 4.125 -8.519531 4.078125 -8.316406 4.078125 -8.109375 C 4.078125 -7.890625 4.113281 -7.691406 4.1875 -7.515625 C 4.269531 -7.347656 4.410156 -7.195312 4.609375 -7.0625 C 4.816406 -6.925781 5.085938 -6.800781 5.421875 -6.6875 C 5.765625 -6.582031 6.195312 -6.476562 6.71875 -6.375 C 7.394531 -6.226562 8.003906 -6.0625 8.546875 -5.875 C 9.085938 -5.6875 9.539062 -5.460938 9.90625 -5.203125 C 10.28125 -4.941406 10.5625 -4.632812 10.75 -4.28125 C 10.945312 -3.9375 11.046875 -3.535156 11.046875 -3.078125 C 11.046875 -2.585938 10.9375 -2.140625 10.71875 -1.734375 C 10.5 -1.328125 10.191406 -0.976562 9.796875 -0.6875 C 9.398438 -0.40625 8.921875 -0.1875 8.359375 -0.03125 C 7.804688 0.125 7.203125 0.203125 6.546875 0.203125 C 5.796875 0.203125 5.125 0.101562 4.53125 -0.09375 C 3.945312 -0.300781 3.453125 -0.566406 3.046875 -0.890625 C 2.640625 -1.222656 2.328125 -1.609375 2.109375 -2.046875 C 1.898438 -2.484375 1.796875 -2.941406 1.796875 -3.421875 L 3.6875 -3.421875 C 3.71875 -3.023438 3.820312 -2.691406 4 -2.421875 C 4.1875 -2.160156 4.414062 -1.945312 4.6875 -1.78125 C 4.957031 -1.613281 5.253906 -1.492188 5.578125 -1.421875 C 5.910156 -1.359375 6.234375 -1.328125 6.546875 -1.328125 C 7.347656 -1.328125 7.976562 -1.472656 8.4375 -1.765625 C 8.90625 -2.066406 9.144531 -2.457031 9.15625 -2.9375 Z M 9.15625 -2.9375 "/></g></g></g><g fill="#ffffff" fill-opacity="1"><g transform="translate(697.163379, 61.500017)"><g><path d="M 6.28125 -13.78125 L 6.28125 -11.09375 L 10.5 -11.09375 L 10.5 -9.625 L 6.28125 -9.625 L 6.28125 -3.59375 C 6.28125 -3.164062 6.332031 -2.8125 6.4375 -2.53125 C 6.550781 -2.25 6.703125 -2.023438 6.890625 -1.859375 C 7.078125 -1.691406 7.296875 -1.570312 7.546875 -1.5 C 7.796875 -1.4375 8.0625 -1.40625 8.34375 -1.40625 C 8.550781 -1.40625 8.765625 -1.414062 8.984375 -1.4375 C 9.203125 -1.46875 9.414062 -1.5 9.625 -1.53125 C 9.832031 -1.5625 10.023438 -1.59375 10.203125 -1.625 C 10.390625 -1.664062 10.539062 -1.703125 10.65625 -1.734375 L 10.921875 -0.390625 C 10.765625 -0.296875 10.570312 -0.210938 10.34375 -0.140625 C 10.125 -0.0664062 9.878906 -0.00390625 9.609375 0.046875 C 9.335938 0.0976562 9.050781 0.132812 8.75 0.15625 C 8.457031 0.1875 8.164062 0.203125 7.875 0.203125 C 7.382812 0.203125 6.925781 0.132812 6.5 0 C 6.070312 -0.144531 5.695312 -0.367188 5.375 -0.671875 C 5.0625 -0.972656 4.816406 -1.363281 4.640625 -1.84375 C 4.460938 -2.332031 4.375 -2.914062 4.375 -3.59375 L 4.375 -9.625 L 1.453125 -9.625 L 1.453125 -11.09375 L 4.375 -11.09375 L 4.375 -13.78125 Z M 6.28125 -13.78125 "/></g></g></g><g fill="#ffffff" fill-opacity="1"><g transform="translate(709.758402, 61.500017)"><g/></g></g><g fill="#ffffff" fill-opacity="1"><g transform="translate(722.353425, 61.500017)"><g><path d="M 3.859375 -5.984375 L 3.859375 0 L 1.953125 0 L 1.953125 -14.9375 L 6.796875 -14.9375 C 7.460938 -14.914062 8.09375 -14.804688 8.6875 -14.609375 C 9.289062 -14.410156 9.816406 -14.125 10.265625 -13.75 C 10.722656 -13.375 11.082031 -12.910156 11.34375 -12.359375 C 11.601562 -11.804688 11.734375 -11.171875 11.734375 -10.453125 C 11.734375 -9.734375 11.601562 -9.097656 11.34375 -8.546875 C 11.082031 -7.992188 10.722656 -7.53125 10.265625 -7.15625 C 9.816406 -6.78125 9.289062 -6.492188 8.6875 -6.296875 C 8.09375 -6.097656 7.460938 -5.992188 6.796875 -5.984375 Z M 3.859375 -7.546875 L 6.796875 -7.546875 C 7.234375 -7.554688 7.632812 -7.625 8 -7.75 C 8.375 -7.882812 8.695312 -8.078125 8.96875 -8.328125 C 9.238281 -8.578125 9.453125 -8.875 9.609375 -9.21875 C 9.765625 -9.570312 9.84375 -9.972656 9.84375 -10.421875 C 9.84375 -10.878906 9.765625 -11.285156 9.609375 -11.640625 C 9.453125 -12.003906 9.238281 -12.3125 8.96875 -12.5625 C 8.707031 -12.820312 8.390625 -13.019531 8.015625 -13.15625 C 7.640625 -13.289062 7.234375 -13.363281 6.796875 -13.375 L 3.859375 -13.375 Z M 3.859375 -7.546875 "/></g></g></g><g fill="#ffffff" fill-opacity="1"><g transform="translate(734.948448, 61.500017)"><g><path d="M 9.078125 0 C 9.003906 -0.144531 8.941406 -0.320312 8.890625 -0.53125 C 8.847656 -0.75 8.816406 -0.972656 8.796875 -1.203125 C 8.609375 -1.015625 8.394531 -0.832031 8.15625 -0.65625 C 7.914062 -0.488281 7.65625 -0.335938 7.375 -0.203125 C 7.09375 -0.078125 6.789062 0.0195312 6.46875 0.09375 C 6.144531 0.164062 5.800781 0.203125 5.4375 0.203125 C 4.851562 0.203125 4.320312 0.117188 3.84375 -0.046875 C 3.375 -0.222656 2.972656 -0.453125 2.640625 -0.734375 C 2.304688 -1.023438 2.046875 -1.367188 1.859375 -1.765625 C 1.679688 -2.171875 1.59375 -2.609375 1.59375 -3.078125 C 1.59375 -3.679688 1.710938 -4.210938 1.953125 -4.671875 C 2.203125 -5.128906 2.546875 -5.507812 2.984375 -5.8125 C 3.429688 -6.125 3.96875 -6.351562 4.59375 -6.5 C 5.21875 -6.65625 5.921875 -6.734375 6.703125 -6.734375 L 8.765625 -6.734375 L 8.765625 -7.59375 C 8.765625 -7.925781 8.703125 -8.226562 8.578125 -8.5 C 8.453125 -8.769531 8.273438 -9 8.046875 -9.1875 C 7.828125 -9.375 7.554688 -9.515625 7.234375 -9.609375 C 6.910156 -9.710938 6.546875 -9.765625 6.140625 -9.765625 C 5.765625 -9.765625 5.425781 -9.71875 5.125 -9.625 C 4.832031 -9.53125 4.582031 -9.40625 4.375 -9.25 C 4.175781 -9.09375 4.019531 -8.90625 3.90625 -8.6875 C 3.789062 -8.476562 3.734375 -8.253906 3.734375 -8.015625 L 1.828125 -8.015625 C 1.828125 -8.421875 1.925781 -8.816406 2.125 -9.203125 C 2.332031 -9.597656 2.625 -9.945312 3 -10.25 C 3.382812 -10.5625 3.847656 -10.8125 4.390625 -11 C 4.929688 -11.195312 5.550781 -11.296875 6.25 -11.296875 C 6.875 -11.296875 7.457031 -11.21875 8 -11.0625 C 8.539062 -10.914062 9.003906 -10.6875 9.390625 -10.375 C 9.785156 -10.0625 10.097656 -9.671875 10.328125 -9.203125 C 10.554688 -8.742188 10.671875 -8.203125 10.671875 -7.578125 L 10.671875 -2.421875 C 10.671875 -2.046875 10.703125 -1.648438 10.765625 -1.234375 C 10.835938 -0.828125 10.929688 -0.472656 11.046875 -0.171875 L 11.046875 0 Z M 5.71875 -1.453125 C 6.09375 -1.453125 6.4375 -1.5 6.75 -1.59375 C 7.070312 -1.6875 7.363281 -1.8125 7.625 -1.96875 C 7.894531 -2.125 8.125 -2.300781 8.3125 -2.5 C 8.507812 -2.707031 8.660156 -2.921875 8.765625 -3.140625 L 8.765625 -5.390625 L 7 -5.390625 C 5.894531 -5.390625 5.035156 -5.222656 4.421875 -4.890625 C 3.804688 -4.566406 3.5 -4.050781 3.5 -3.34375 C 3.5 -3.070312 3.546875 -2.816406 3.640625 -2.578125 C 3.734375 -2.347656 3.867188 -2.148438 4.046875 -1.984375 C 4.234375 -1.816406 4.46875 -1.6875 4.75 -1.59375 C 5.03125 -1.5 5.351562 -1.453125 5.71875 -1.453125 Z M 5.71875 -1.453125 "/></g></g></g><g fill="#ffffff" fill-opacity="1"><g transform="translate(747.543471, 61.500017)"><g><path d="M 1.4375 -5.640625 C 1.4375 -6.460938 1.535156 -7.222656 1.734375 -7.921875 C 1.941406 -8.617188 2.234375 -9.210938 2.609375 -9.703125 C 2.992188 -10.203125 3.457031 -10.59375 4 -10.875 C 4.550781 -11.15625 5.171875 -11.296875 5.859375 -11.296875 C 6.546875 -11.296875 7.144531 -11.175781 7.65625 -10.9375 C 8.175781 -10.695312 8.617188 -10.347656 8.984375 -9.890625 L 9.078125 -11.09375 L 10.796875 -11.09375 L 10.796875 -0.234375 C 10.796875 0.492188 10.679688 1.140625 10.453125 1.703125 C 10.222656 2.273438 9.898438 2.757812 9.484375 3.15625 C 9.078125 3.550781 8.582031 3.851562 8 4.0625 C 7.425781 4.269531 6.789062 4.375 6.09375 4.375 C 5.8125 4.375 5.484375 4.335938 5.109375 4.265625 C 4.742188 4.203125 4.367188 4.097656 3.984375 3.953125 C 3.609375 3.804688 3.242188 3.609375 2.890625 3.359375 C 2.546875 3.117188 2.242188 2.816406 1.984375 2.453125 L 2.96875 1.3125 C 3.207031 1.59375 3.445312 1.828125 3.6875 2.015625 C 3.9375 2.210938 4.1875 2.367188 4.4375 2.484375 C 4.6875 2.609375 4.9375 2.691406 5.1875 2.734375 C 5.445312 2.785156 5.703125 2.8125 5.953125 2.8125 C 6.410156 2.8125 6.816406 2.75 7.171875 2.625 C 7.535156 2.5 7.84375 2.3125 8.09375 2.0625 C 8.351562 1.8125 8.550781 1.5 8.6875 1.125 C 8.832031 0.757812 8.90625 0.335938 8.90625 -0.140625 L 8.90625 -1.09375 C 8.53125 -0.675781 8.09375 -0.351562 7.59375 -0.125 C 7.09375 0.09375 6.507812 0.203125 5.84375 0.203125 C 5.164062 0.203125 4.550781 0.0625 4 -0.21875 C 3.457031 -0.507812 2.992188 -0.90625 2.609375 -1.40625 C 2.234375 -1.914062 1.941406 -2.515625 1.734375 -3.203125 C 1.535156 -3.890625 1.4375 -4.628906 1.4375 -5.421875 Z M 3.328125 -5.421875 C 3.328125 -4.878906 3.382812 -4.363281 3.5 -3.875 C 3.613281 -3.394531 3.789062 -2.96875 4.03125 -2.59375 C 4.28125 -2.226562 4.59375 -1.9375 4.96875 -1.71875 C 5.34375 -1.507812 5.789062 -1.40625 6.3125 -1.40625 C 6.644531 -1.40625 6.941406 -1.441406 7.203125 -1.515625 C 7.460938 -1.597656 7.695312 -1.710938 7.90625 -1.859375 C 8.113281 -2.003906 8.300781 -2.175781 8.46875 -2.375 C 8.632812 -2.570312 8.78125 -2.789062 8.90625 -3.03125 L 8.90625 -8.109375 C 8.78125 -8.335938 8.632812 -8.546875 8.46875 -8.734375 C 8.300781 -8.929688 8.113281 -9.097656 7.90625 -9.234375 C 7.695312 -9.378906 7.460938 -9.488281 7.203125 -9.5625 C 6.941406 -9.644531 6.65625 -9.6875 6.34375 -9.6875 C 5.800781 -9.6875 5.34375 -9.578125 4.96875 -9.359375 C 4.59375 -9.140625 4.28125 -8.84375 4.03125 -8.46875 C 3.789062 -8.101562 3.613281 -7.675781 3.5 -7.1875 C 3.382812 -6.695312 3.328125 -6.179688 3.328125 -5.640625 Z M 3.328125 -5.421875 "/></g></g></g><g fill="#ffffff" fill-opacity="1"><g transform="translate(760.138494, 61.500017)"><g><path d="M 6.6875 0.203125 C 5.90625 0.203125 5.1875 0.0703125 4.53125 -0.1875 C 3.882812 -0.457031 3.328125 -0.832031 2.859375 -1.3125 C 2.390625 -1.789062 2.023438 -2.359375 1.765625 -3.015625 C 1.515625 -3.671875 1.390625 -4.382812 1.390625 -5.15625 L 1.390625 -5.59375 C 1.390625 -6.488281 1.53125 -7.285156 1.8125 -7.984375 C 2.101562 -8.691406 2.484375 -9.289062 2.953125 -9.78125 C 3.429688 -10.269531 3.972656 -10.644531 4.578125 -10.90625 C 5.179688 -11.164062 5.800781 -11.296875 6.4375 -11.296875 C 7.238281 -11.296875 7.9375 -11.15625 8.53125 -10.875 C 9.132812 -10.601562 9.632812 -10.222656 10.03125 -9.734375 C 10.425781 -9.242188 10.71875 -8.664062 10.90625 -8 C 11.101562 -7.34375 11.203125 -6.628906 11.203125 -5.859375 L 11.203125 -5 L 3.28125 -5 C 3.300781 -4.5 3.394531 -4.023438 3.5625 -3.578125 C 3.738281 -3.128906 3.976562 -2.738281 4.28125 -2.40625 C 4.59375 -2.082031 4.957031 -1.820312 5.375 -1.625 C 5.800781 -1.4375 6.269531 -1.34375 6.78125 -1.34375 C 7.457031 -1.34375 8.054688 -1.476562 8.578125 -1.75 C 9.109375 -2.019531 9.550781 -2.382812 9.90625 -2.84375 L 11.0625 -1.9375 C 10.875 -1.65625 10.640625 -1.382812 10.359375 -1.125 C 10.085938 -0.875 9.769531 -0.648438 9.40625 -0.453125 C 9.050781 -0.253906 8.644531 -0.0976562 8.1875 0.015625 C 7.726562 0.140625 7.226562 0.203125 6.6875 0.203125 Z M 6.4375 -9.734375 C 6.050781 -9.734375 5.6875 -9.664062 5.34375 -9.53125 C 5.007812 -9.394531 4.703125 -9.191406 4.421875 -8.921875 C 4.148438 -8.648438 3.921875 -8.316406 3.734375 -7.921875 C 3.546875 -7.523438 3.414062 -7.070312 3.34375 -6.5625 L 9.3125 -6.5625 L 9.3125 -6.703125 C 9.289062 -7.078125 9.21875 -7.441406 9.09375 -7.796875 C 8.976562 -8.160156 8.800781 -8.484375 8.5625 -8.765625 C 8.332031 -9.054688 8.039062 -9.289062 7.6875 -9.46875 C 7.34375 -9.644531 6.925781 -9.734375 6.4375 -9.734375 Z M 6.4375 -9.734375 "/></g></g></g><g fill="#ffffff" fill-opacity="1"><g transform="translate(615.283288, 88.500016)"><g><path d="M 11.453125 -4.484375 C 11.367188 -3.796875 11.191406 -3.160156 10.921875 -2.578125 C 10.648438 -2.003906 10.300781 -1.507812 9.875 -1.09375 C 9.445312 -0.6875 8.941406 -0.367188 8.359375 -0.140625 C 7.773438 0.0859375 7.125 0.203125 6.40625 0.203125 C 5.789062 0.203125 5.234375 0.117188 4.734375 -0.046875 C 4.234375 -0.222656 3.785156 -0.460938 3.390625 -0.765625 C 2.992188 -1.078125 2.65625 -1.441406 2.375 -1.859375 C 2.09375 -2.273438 1.859375 -2.726562 1.671875 -3.21875 C 1.484375 -3.71875 1.34375 -4.238281 1.25 -4.78125 C 1.15625 -5.320312 1.101562 -5.867188 1.09375 -6.421875 L 1.09375 -8.5 C 1.101562 -9.050781 1.15625 -9.597656 1.25 -10.140625 C 1.34375 -10.679688 1.484375 -11.195312 1.671875 -11.6875 C 1.859375 -12.175781 2.09375 -12.628906 2.375 -13.046875 C 2.65625 -13.472656 2.992188 -13.835938 3.390625 -14.140625 C 3.785156 -14.453125 4.226562 -14.695312 4.71875 -14.875 C 5.21875 -15.050781 5.78125 -15.140625 6.40625 -15.140625 C 7.15625 -15.140625 7.820312 -15.023438 8.40625 -14.796875 C 9 -14.566406 9.503906 -14.238281 9.921875 -13.8125 C 10.347656 -13.394531 10.6875 -12.890625 10.9375 -12.296875 C 11.195312 -11.710938 11.367188 -11.066406 11.453125 -10.359375 L 9.5625 -10.359375 C 9.5 -10.804688 9.390625 -11.222656 9.234375 -11.609375 C 9.085938 -12.003906 8.882812 -12.347656 8.625 -12.640625 C 8.375 -12.929688 8.066406 -13.160156 7.703125 -13.328125 C 7.335938 -13.503906 6.90625 -13.59375 6.40625 -13.59375 C 5.957031 -13.59375 5.5625 -13.515625 5.21875 -13.359375 C 4.875 -13.210938 4.578125 -13.015625 4.328125 -12.765625 C 4.078125 -12.515625 3.867188 -12.21875 3.703125 -11.875 C 3.535156 -11.539062 3.398438 -11.1875 3.296875 -10.8125 C 3.191406 -10.4375 3.113281 -10.050781 3.0625 -9.65625 C 3.019531 -9.269531 3 -8.890625 3 -8.515625 L 3 -6.421875 C 3 -6.046875 3.019531 -5.660156 3.0625 -5.265625 C 3.113281 -4.878906 3.191406 -4.492188 3.296875 -4.109375 C 3.398438 -3.734375 3.53125 -3.378906 3.6875 -3.046875 C 3.851562 -2.710938 4.0625 -2.414062 4.3125 -2.15625 C 4.570312 -1.90625 4.867188 -1.703125 5.203125 -1.546875 C 5.546875 -1.398438 5.945312 -1.328125 6.40625 -1.328125 C 6.90625 -1.328125 7.335938 -1.40625 7.703125 -1.5625 C 8.066406 -1.726562 8.375 -1.953125 8.625 -2.234375 C 8.882812 -2.515625 9.085938 -2.847656 9.234375 -3.234375 C 9.390625 -3.617188 9.5 -4.035156 9.5625 -4.484375 Z M 11.453125 -4.484375 "/></g></g></g><g fill="#ffffff" fill-opacity="1"><g transform="translate(627.878311, 88.500016)"><g><path d="M 1.25 -5.65625 C 1.25 -6.445312 1.363281 -7.1875 1.59375 -7.875 C 1.832031 -8.5625 2.164062 -9.15625 2.59375 -9.65625 C 3.03125 -10.164062 3.554688 -10.566406 4.171875 -10.859375 C 4.796875 -11.148438 5.5 -11.296875 6.28125 -11.296875 C 7.070312 -11.296875 7.78125 -11.148438 8.40625 -10.859375 C 9.03125 -10.566406 9.554688 -10.164062 9.984375 -9.65625 C 10.421875 -9.15625 10.753906 -8.5625 10.984375 -7.875 C 11.222656 -7.1875 11.34375 -6.445312 11.34375 -5.65625 L 11.34375 -5.421875 C 11.34375 -4.617188 11.222656 -3.875 10.984375 -3.1875 C 10.753906 -2.507812 10.421875 -1.914062 9.984375 -1.40625 C 9.554688 -0.90625 9.03125 -0.507812 8.40625 -0.21875 C 7.78125 0.0625 7.082031 0.203125 6.3125 0.203125 C 5.519531 0.203125 4.8125 0.0625 4.1875 -0.21875 C 3.5625 -0.507812 3.03125 -0.90625 2.59375 -1.40625 C 2.164062 -1.914062 1.832031 -2.507812 1.59375 -3.1875 C 1.363281 -3.875 1.25 -4.617188 1.25 -5.421875 Z M 3.140625 -5.421875 C 3.140625 -4.878906 3.203125 -4.359375 3.328125 -3.859375 C 3.460938 -3.367188 3.660156 -2.929688 3.921875 -2.546875 C 4.191406 -2.171875 4.523438 -1.875 4.921875 -1.65625 C 5.316406 -1.4375 5.78125 -1.328125 6.3125 -1.328125 C 6.820312 -1.328125 7.273438 -1.4375 7.671875 -1.65625 C 8.066406 -1.875 8.394531 -2.171875 8.65625 -2.546875 C 8.914062 -2.929688 9.109375 -3.367188 9.234375 -3.859375 C 9.367188 -4.359375 9.4375 -4.878906 9.4375 -5.421875 L 9.4375 -5.65625 C 9.4375 -6.1875 9.367188 -6.703125 9.234375 -7.203125 C 9.109375 -7.703125 8.910156 -8.140625 8.640625 -8.515625 C 8.378906 -8.890625 8.050781 -9.1875 7.65625 -9.40625 C 7.269531 -9.625 6.8125 -9.734375 6.28125 -9.734375 C 5.757812 -9.734375 5.300781 -9.625 4.90625 -9.40625 C 4.519531 -9.1875 4.191406 -8.890625 3.921875 -8.515625 C 3.660156 -8.140625 3.460938 -7.703125 3.328125 -7.203125 C 3.203125 -6.703125 3.140625 -6.1875 3.140625 -5.65625 Z M 3.140625 -5.421875 "/></g></g></g><g fill="#ffffff" fill-opacity="1"><g transform="translate(640.473334, 88.500016)"><g><path d="M 2.078125 -15.75 L 7.75 -15.75 L 7.75 -1.640625 L 11.375 -1.640625 L 11.375 0 L 2.078125 0 L 2.078125 -1.640625 L 5.859375 -1.640625 L 5.859375 -14.09375 L 2.078125 -14.09375 Z M 2.078125 -15.75 "/></g></g></g><g fill="#ffffff" fill-opacity="1"><g transform="translate(653.068357, 88.500016)"><g><path d="M 1.25 -5.65625 C 1.25 -6.445312 1.363281 -7.1875 1.59375 -7.875 C 1.832031 -8.5625 2.164062 -9.15625 2.59375 -9.65625 C 3.03125 -10.164062 3.554688 -10.566406 4.171875 -10.859375 C 4.796875 -11.148438 5.5 -11.296875 6.28125 -11.296875 C 7.070312 -11.296875 7.78125 -11.148438 8.40625 -10.859375 C 9.03125 -10.566406 9.554688 -10.164062 9.984375 -9.65625 C 10.421875 -9.15625 10.753906 -8.5625 10.984375 -7.875 C 11.222656 -7.1875 11.34375 -6.445312 11.34375 -5.65625 L 11.34375 -5.421875 C 11.34375 -4.617188 11.222656 -3.875 10.984375 -3.1875 C 10.753906 -2.507812 10.421875 -1.914062 9.984375 -1.40625 C 9.554688 -0.90625 9.03125 -0.507812 8.40625 -0.21875 C 7.78125 0.0625 7.082031 0.203125 6.3125 0.203125 C 5.519531 0.203125 4.8125 0.0625 4.1875 -0.21875 C 3.5625 -0.507812 3.03125 -0.90625 2.59375 -1.40625 C 2.164062 -1.914062 1.832031 -2.507812 1.59375 -3.1875 C 1.363281 -3.875 1.25 -4.617188 1.25 -5.421875 Z M 3.140625 -5.421875 C 3.140625 -4.878906 3.203125 -4.359375 3.328125 -3.859375 C 3.460938 -3.367188 3.660156 -2.929688 3.921875 -2.546875 C 4.191406 -2.171875 4.523438 -1.875 4.921875 -1.65625 C 5.316406 -1.4375 5.78125 -1.328125 6.3125 -1.328125 C 6.820312 -1.328125 7.273438 -1.4375 7.671875 -1.65625 C 8.066406 -1.875 8.394531 -2.171875 8.65625 -2.546875 C 8.914062 -2.929688 9.109375 -3.367188 9.234375 -3.859375 C 9.367188 -4.359375 9.4375 -4.878906 9.4375 -5.421875 L 9.4375 -5.65625 C 9.4375 -6.1875 9.367188 -6.703125 9.234375 -7.203125 C 9.109375 -7.703125 8.910156 -8.140625 8.640625 -8.515625 C 8.378906 -8.890625 8.050781 -9.1875 7.65625 -9.40625 C 7.269531 -9.625 6.8125 -9.734375 6.28125 -9.734375 C 5.757812 -9.734375 5.300781 -9.625 4.90625 -9.40625 C 4.519531 -9.1875 4.191406 -8.890625 3.921875 -8.515625 C 3.660156 -8.140625 3.460938 -7.703125 3.328125 -7.203125 C 3.203125 -6.703125 3.140625 -6.1875 3.140625 -5.65625 Z M 3.140625 -5.421875 "/></g></g></g><g fill="#ffffff" fill-opacity="1"><g transform="translate(665.66338, 88.500016)"><g><path d="M 9.046875 -11.296875 C 9.234375 -11.296875 9.421875 -11.289062 9.609375 -11.28125 C 9.796875 -11.269531 9.976562 -11.253906 10.15625 -11.234375 C 10.332031 -11.210938 10.492188 -11.179688 10.640625 -11.140625 C 10.785156 -11.109375 10.90625 -11.070312 11 -11.03125 L 10.75 -9.171875 C 10.375 -9.253906 10.019531 -9.3125 9.6875 -9.34375 C 9.363281 -9.382812 9.019531 -9.40625 8.65625 -9.40625 C 7.769531 -9.40625 7.050781 -9.203125 6.5 -8.796875 C 5.945312 -8.398438 5.539062 -7.835938 5.28125 -7.109375 L 5.28125 0 L 3.375 0 L 3.375 -11.09375 L 5.171875 -11.09375 L 5.265625 -9.328125 C 5.722656 -9.941406 6.265625 -10.421875 6.890625 -10.765625 C 7.523438 -11.117188 8.242188 -11.296875 9.046875 -11.296875 Z M 9.046875 -11.296875 "/></g></g></g><g fill="#ffffff" fill-opacity="1"><g transform="translate(678.258403, 88.500016)"><g/></g></g><g fill="#ffffff" fill-opacity="1"><g transform="translate(690.853426, 88.500016)"><g><path d="M 10.078125 -5.75 L 2.234375 -5.75 L 2.234375 -7.3125 L 10.078125 -7.3125 Z M 10.078125 -5.75 "/></g></g></g><g fill="#ffffff" fill-opacity="1"><g transform="translate(703.458692, 88.500016)"><g/></g></g><g fill="#ffffff" fill-opacity="1"><g transform="translate(716.053715, 88.500016)"><g><path d="M 7.25 -4.203125 L 4.546875 -4.203125 L 3.71875 0 L 2.25 0 L 3.078125 -4.203125 L 0.625 -4.203125 L 0.625 -5.609375 L 3.34375 -5.609375 L 4.046875 -9.234375 L 1.40625 -9.234375 L 1.40625 -10.671875 L 4.328125 -10.671875 L 5.171875 -14.9375 L 6.640625 -14.9375 L 5.796875 -10.671875 L 8.5 -10.671875 L 9.34375 -14.9375 L 10.8125 -14.9375 L 9.96875 -10.671875 L 12.0625 -10.671875 L 12.0625 -9.234375 L 9.6875 -9.234375 L 8.984375 -5.609375 L 11.296875 -5.609375 L 11.296875 -4.203125 L 8.71875 -4.203125 L 7.890625 0 L 6.421875 0 Z M 4.8125 -5.609375 L 7.515625 -5.609375 L 8.21875 -9.234375 L 5.515625 -9.234375 Z M 4.8125 -5.609375 "/></g></g></g><g fill="#ffffff" fill-opacity="1"><g transform="translate(728.648739, 88.500016)"><g><path d="M 7.9375 0 L 6.046875 0 L 6.046875 -12.515625 L 2.140625 -11.015625 L 2.140625 -12.75 L 7.78125 -14.9375 L 7.9375 -14.9375 Z M 7.9375 0 "/></g></g></g><g fill="#ffffff" fill-opacity="1"><g transform="translate(741.243762, 88.500016)"><g><path d="M 7.9375 0 L 6.046875 0 L 6.046875 -12.515625 L 2.140625 -11.015625 L 2.140625 -12.75 L 7.78125 -14.9375 L 7.9375 -14.9375 Z M 7.9375 0 "/></g></g></g><g fill="#ffffff" fill-opacity="1"><g transform="translate(753.838785, 88.500016)"><g><path d="M 7.9375 0 L 6.046875 0 L 6.046875 -12.515625 L 2.140625 -11.015625 L 2.140625 -12.75 L 7.78125 -14.9375 L 7.9375 -14.9375 Z M 7.9375 0 "/></g></g></g><g fill="#ffffff" fill-opacity="1"><g transform="translate(766.433808, 88.500016)"><g><path d="M 9.078125 0 C 9.003906 -0.144531 8.941406 -0.320312 8.890625 -0.53125 C 8.847656 -0.75 8.816406 -0.972656 8.796875 -1.203125 C 8.609375 -1.015625 8.394531 -0.832031 8.15625 -0.65625 C 7.914062 -0.488281 7.65625 -0.335938 7.375 -0.203125 C 7.09375 -0.078125 6.789062 0.0195312 6.46875 0.09375 C 6.144531 0.164062 5.800781 0.203125 5.4375 0.203125 C 4.851562 0.203125 4.320312 0.117188 3.84375 -0.046875 C 3.375 -0.222656 2.972656 -0.453125 2.640625 -0.734375 C 2.304688 -1.023438 2.046875 -1.367188 1.859375 -1.765625 C 1.679688 -2.171875 1.59375 -2.609375 1.59375 -3.078125 C 1.59375 -3.679688 1.710938 -4.210938 1.953125 -4.671875 C 2.203125 -5.128906 2.546875 -5.507812 2.984375 -5.8125 C 3.429688 -6.125 3.96875 -6.351562 4.59375 -6.5 C 5.21875 -6.65625 5.921875 -6.734375 6.703125 -6.734375 L 8.765625 -6.734375 L 8.765625 -7.59375 C 8.765625 -7.925781 8.703125 -8.226562 8.578125 -8.5 C 8.453125 -8.769531 8.273438 -9 8.046875 -9.1875 C 7.828125 -9.375 7.554688 -9.515625 7.234375 -9.609375 C 6.910156 -9.710938 6.546875 -9.765625 6.140625 -9.765625 C 5.765625 -9.765625 5.425781 -9.71875 5.125 -9.625 C 4.832031 -9.53125 4.582031 -9.40625 4.375 -9.25 C 4.175781 -9.09375 4.019531 -8.90625 3.90625 -8.6875 C 3.789062 -8.476562 3.734375 -8.253906 3.734375 -8.015625 L 1.828125 -8.015625 C 1.828125 -8.421875 1.925781 -8.816406 2.125 -9.203125 C 2.332031 -9.597656 2.625 -9.945312 3 -10.25 C 3.382812 -10.5625 3.847656 -10.8125 4.390625 -11 C 4.929688 -11.195312 5.550781 -11.296875 6.25 -11.296875 C 6.875 -11.296875 7.457031 -11.21875 8 -11.0625 C 8.539062 -10.914062 9.003906 -10.6875 9.390625 -10.375 C 9.785156 -10.0625 10.097656 -9.671875 10.328125 -9.203125 C 10.554688 -8.742188 10.671875 -8.203125 10.671875 -7.578125 L 10.671875 -2.421875 C 10.671875 -2.046875 10.703125 -1.648438 10.765625 -1.234375 C 10.835938 -0.828125 10.929688 -0.472656 11.046875 -0.171875 L 11.046875 0 Z M 5.71875 -1.453125 C 6.09375 -1.453125 6.4375 -1.5 6.75 -1.59375 C 7.070312 -1.6875 7.363281 -1.8125 7.625 -1.96875 C 7.894531 -2.125 8.125 -2.300781 8.3125 -2.5 C 8.507812 -2.707031 8.660156 -2.921875 8.765625 -3.140625 L 8.765625 -5.390625 L 7 -5.390625 C 5.894531 -5.390625 5.035156 -5.222656 4.421875 -4.890625 C 3.804688 -4.566406 3.5 -4.050781 3.5 -3.34375 C 3.5 -3.070312 3.546875 -2.816406 3.640625 -2.578125 C 3.734375 -2.347656 3.867188 -2.148438 4.046875 -1.984375 C 4.234375 -1.816406 4.46875 -1.6875 4.75 -1.59375 C 5.03125 -1.5 5.351562 -1.453125 5.71875 -1.453125 Z M 5.71875 -1.453125 "/></g></g></g><g fill="#ffffff" fill-opacity="1"><g transform="translate(779.028831, 88.500016)"><g><path d="M 10.9375 0 L 1.15625 0 L 1.15625 -1.359375 L 6.046875 -6.796875 C 6.484375 -7.285156 6.847656 -7.71875 7.140625 -8.09375 C 7.441406 -8.46875 7.679688 -8.8125 7.859375 -9.125 C 8.035156 -9.445312 8.160156 -9.75 8.234375 -10.03125 C 8.304688 -10.3125 8.34375 -10.601562 8.34375 -10.90625 C 8.34375 -11.28125 8.28125 -11.628906 8.15625 -11.953125 C 8.039062 -12.273438 7.867188 -12.554688 7.640625 -12.796875 C 7.410156 -13.035156 7.132812 -13.222656 6.8125 -13.359375 C 6.488281 -13.503906 6.125 -13.578125 5.71875 -13.578125 C 5.21875 -13.578125 4.78125 -13.503906 4.40625 -13.359375 C 4.039062 -13.210938 3.738281 -13.007812 3.5 -12.75 C 3.257812 -12.488281 3.078125 -12.171875 2.953125 -11.796875 C 2.835938 -11.421875 2.78125 -11 2.78125 -10.53125 L 0.875 -10.53125 C 0.875 -11.15625 0.984375 -11.742188 1.203125 -12.296875 C 1.421875 -12.859375 1.734375 -13.347656 2.140625 -13.765625 C 2.554688 -14.179688 3.0625 -14.515625 3.65625 -14.765625 C 4.257812 -15.015625 4.945312 -15.140625 5.71875 -15.140625 C 6.414062 -15.140625 7.046875 -15.035156 7.609375 -14.828125 C 8.171875 -14.617188 8.644531 -14.328125 9.03125 -13.953125 C 9.425781 -13.585938 9.726562 -13.148438 9.9375 -12.640625 C 10.144531 -12.140625 10.25 -11.59375 10.25 -11 C 10.25 -10.550781 10.171875 -10.109375 10.015625 -9.671875 C 9.867188 -9.242188 9.664062 -8.816406 9.40625 -8.390625 C 9.15625 -7.960938 8.859375 -7.539062 8.515625 -7.125 C 8.179688 -6.71875 7.828125 -6.304688 7.453125 -5.890625 L 3.453125 -1.546875 L 10.9375 -1.546875 Z M 10.9375 0 "/></g></g></g><g fill="#ffffff" fill-opacity="1"><g transform="translate(791.623854, 88.500016)"><g><path d="M 6.6875 0.203125 C 5.90625 0.203125 5.1875 0.0703125 4.53125 -0.1875 C 3.882812 -0.457031 3.328125 -0.832031 2.859375 -1.3125 C 2.390625 -1.789062 2.023438 -2.359375 1.765625 -3.015625 C 1.515625 -3.671875 1.390625 -4.382812 1.390625 -5.15625 L 1.390625 -5.59375 C 1.390625 -6.488281 1.53125 -7.285156 1.8125 -7.984375 C 2.101562 -8.691406 2.484375 -9.289062 2.953125 -9.78125 C 3.429688 -10.269531 3.972656 -10.644531 4.578125 -10.90625 C 5.179688 -11.164062 5.800781 -11.296875 6.4375 -11.296875 C 7.238281 -11.296875 7.9375 -11.15625 8.53125 -10.875 C 9.132812 -10.601562 9.632812 -10.222656 10.03125 -9.734375 C 10.425781 -9.242188 10.71875 -8.664062 10.90625 -8 C 11.101562 -7.34375 11.203125 -6.628906 11.203125 -5.859375 L 11.203125 -5 L 3.28125 -5 C 3.300781 -4.5 3.394531 -4.023438 3.5625 -3.578125 C 3.738281 -3.128906 3.976562 -2.738281 4.28125 -2.40625 C 4.59375 -2.082031 4.957031 -1.820312 5.375 -1.625 C 5.800781 -1.4375 6.269531 -1.34375 6.78125 -1.34375 C 7.457031 -1.34375 8.054688 -1.476562 8.578125 -1.75 C 9.109375 -2.019531 9.550781 -2.382812 9.90625 -2.84375 L 11.0625 -1.9375 C 10.875 -1.65625 10.640625 -1.382812 10.359375 -1.125 C 10.085938 -0.875 9.769531 -0.648438 9.40625 -0.453125 C 9.050781 -0.253906 8.644531 -0.0976562 8.1875 0.015625 C 7.726562 0.140625 7.226562 0.203125 6.6875 0.203125 Z M 6.4375 -9.734375 C 6.050781 -9.734375 5.6875 -9.664062 5.34375 -9.53125 C 5.007812 -9.394531 4.703125 -9.191406 4.421875 -8.921875 C 4.148438 -8.648438 3.921875 -8.316406 3.734375 -7.921875 C 3.546875 -7.523438 3.414062 -7.070312 3.34375 -6.5625 L 9.3125 -6.5625 L 9.3125 -6.703125 C 9.289062 -7.078125 9.21875 -7.441406 9.09375 -7.796875 C 8.976562 -8.160156 8.800781 -8.484375 8.5625 -8.765625 C 8.332031 -9.054688 8.039062 -9.289062 7.6875 -9.46875 C 7.34375 -9.644531 6.925781 -9.734375 6.4375 -9.734375 Z M 6.4375 -9.734375 "/></g></g></g></svg>