<svg width="406" height="406" viewBox="0 0 406 406" fill="none" xmlns="http://www.w3.org/2000/svg">
<path d="M201.6 1.60003C201.2 2.26669 221.2 30.5334 246.133 64.5334C271.066 98.5334 291.333 126.533 291.066 126.667C290.8 126.933 261.733 99.4667 226.4 65.8667C190.933 32.2667 161.733 4.66669 161.333 4.66669C157.6 4.66669 169.066 16.4 221.333 66.1334C254.666 97.7334 282 124 282 124.267C282 124.533 277.6 121.467 272.4 117.6C171.2 43.0667 130.8 14 129.733 15.0667C128.266 16.5334 124.666 13.7334 206 73.3334C269.2 119.6 280.8 128.533 268.666 121.733C265.333 119.867 226.933 98.1334 183.066 73.4667C139.333 48.8 102.8 28.6667 102 28.6667C101.2 28.6667 100.666 29.3334 100.933 30.1334C101.2 30.9334 139.2 52.9334 185.333 78.9334C231.6 104.933 270 126.8 270.666 127.6C271.466 128.267 269.866 128 267.333 126.933C264.8 125.867 221.333 107.6 170.666 86.2667C120.133 64.9334 77.8664 47.3334 76.7998 47.0667C75.8664 46.8 74.7998 47.3334 74.5331 48.1334C74.1331 48.9334 114.533 66.5334 166.933 88.6667C256.666 126.267 268 131.2 265.6 131.333C264.933 131.333 216.8 117.2 158.533 100C100.266 82.8 52.2664 68.6667 51.9998 68.6667C51.5998 68.6667 51.3331 69.4667 51.3331 70.4C51.3331 71.4667 86.2664 82.4 152.4 101.867C249.733 130.667 272.4 137.733 262 135.867C259.466 135.333 206.933 125.867 145.333 114.667C46.3998 96.6667 28.1331 93.8667 31.5998 97.3334C31.8664 97.7334 83.7331 107.333 146.8 118.667C209.733 130.133 262 139.6 262.666 140C265.333 140.933 257.6 140.533 143.333 132C79.1998 127.2 24.3998 123.333 21.5998 123.333C18.1331 123.333 16.6664 123.867 16.9331 124.933C17.3331 126.133 48.3998 128.933 132.133 134.933C253.333 143.733 268.666 145.067 263.333 145.6C261.466 145.733 203.333 147.467 134 149.467C64.6664 151.467 7.46643 153.6 6.79977 154.133C6.1331 154.8 5.86643 155.733 6.39977 156.267C7.3331 157.2 253.333 150.267 256.4 149.2C257.466 148.933 258.933 149.067 259.733 149.6C260.533 150.133 203.066 158.267 131.866 167.733C60.7998 177.2 2.1331 185.467 1.46643 186.133C0.799767 186.8 0.5331 187.6 1.06643 188.133C1.7331 188.8 158.533 168.533 234.666 157.867C244.933 156.4 255.733 154.933 258.666 154.533C261.6 154.133 263.733 154.133 263.333 154.4C262.933 154.8 204.133 169.067 132.666 186C61.1998 203.067 2.1331 217.467 1.46643 218.133C0.799767 218.8 0.5331 219.733 1.06643 220.133C1.86643 220.933 55.8664 208.267 213.733 170.533C239.733 164.267 261.333 159.333 262 159.6C262.533 159.867 205.2 180.133 134.533 204.667C56.3998 231.867 5.99977 250 5.99977 250.933C5.99977 251.867 6.39977 252.667 6.79977 252.667C7.19977 252.667 64.6664 232.8 134.4 208.533C204.266 184.133 262.533 164 264 163.733C267.466 162.933 272.666 160.533 142 221.333C10.7998 282.267 14.6664 280.533 16.2664 282.133C17.0664 282.933 63.7331 261.867 138.133 227.2C265.066 168 268.8 166.4 266.666 168.267C266 168.933 212.4 200.933 147.733 239.2C82.9331 277.6 29.9998 309.6 29.9998 310.267C29.9998 311.067 31.1998 311.333 32.5331 310.933C33.8664 310.667 85.3331 280.4 146.8 243.867C261.066 176.133 271.6 169.867 269.333 172.267C268.666 173.067 218.933 209.733 159.066 254C65.9998 322.533 46.1331 338 50.6664 338C51.0664 338 98.5331 303.067 156.4 260.4C214.133 217.867 264.4 180.8 268 178.267L274.666 173.733L269.866 178.267C267.2 180.667 221.733 221.867 168.933 269.867C116 317.867 72.6664 357.6 72.6664 358.267C72.6664 358.933 73.4664 359.333 74.5331 359.067C75.5998 358.8 120 319.067 173.333 270.667C268 184.667 282.666 171.733 272.533 182.8C269.866 185.6 229.466 230.533 182.8 282.4C110.266 363.067 96.3998 379.333 99.9998 379.333C100.266 379.333 140.8 334.667 190 280C239.066 225.333 279.6 180.667 280 180.667C280.4 180.667 276.533 186.267 271.6 192.933C229.2 250.533 128.4 389.067 127.733 390.8C124.533 399.333 139.466 379.867 205.733 289.2C288.8 175.733 285.066 180.8 284.266 182.667C284 183.333 255.733 232 221.6 290.8C187.466 349.467 159.066 398.533 158.533 399.733C158 401.2 158.4 402 159.466 402C160.533 401.867 189.733 353.067 224.533 293.333C259.333 233.6 288 184.667 288.266 184.667C288.533 184.667 288.533 185.067 288.266 185.6C284.533 192.267 189.866 404.933 190.4 405.467C190.8 405.867 191.733 405.867 192.4 405.467C193.066 405.067 216 354.933 243.466 294.133C270.8 233.2 293.333 183.6 293.466 183.733C293.733 183.867 277.6 233.733 257.733 294.4C237.866 355.067 222 405.067 222.4 405.467C222.8 405.867 223.733 406 224.266 405.6C224.933 405.2 241.6 355.333 261.333 294.933C281.2 234.4 297.466 185.067 297.6 185.2C297.866 185.467 288 233.333 275.733 291.733C263.466 350.133 254 398.4 254.4 398.933C254.933 399.467 255.866 399.2 256.533 398.533C257.066 397.867 267.466 350.133 279.466 292.4C291.466 234.533 301.466 187.867 301.733 188.533C302.133 189.733 285.466 373.333 284 383.6C283.466 387.333 283.733 388.667 285.2 388.667C287.6 388.667 287.2 392.8 297.6 280L306.666 181.333L307.466 205.333C308 218.533 308.8 248.533 309.333 272C309.866 295.467 310.4 318.267 310.666 322.667C310.933 327.067 311.2 339.733 311.333 350.8C311.6 369.467 312.533 375.867 314.8 373.6C315.333 373.2 314.666 332.667 313.466 283.733C312.266 234.667 311.333 192 311.466 188.667C311.466 185.333 317.333 221.067 324.533 267.867C333.066 324.267 338 353.333 339.066 353.733C339.866 354 340.666 353.333 340.666 352.267C340.666 351.2 334.933 312.4 328 266C321.066 219.6 315.333 181.067 315.466 180.133C315.466 178.933 330.666 230.667 357.333 323.067C359.333 329.733 362 332.533 362 327.6C362 326.4 352.133 291.467 340.133 250C328.133 208.533 318.4 174.533 318.533 174.4C318.666 174.133 332 203.067 348.133 238.667C365.066 276.267 378.133 303.333 379.066 303.333C380.133 303.333 380.533 302.4 380.133 300.933C379.733 299.733 366.266 269.733 350.133 234.4C334.133 198.933 321.333 170.267 321.866 170.533C322.266 170.933 338 194.267 356.666 222.533C375.333 250.8 391.466 274 392.533 274C393.466 274 394 273.2 393.6 272.133C393.2 271.067 377.2 246.667 358 218C338.8 189.2 323.333 165.6 323.6 165.333C323.866 165.2 341.066 182.667 361.866 204.133C382.666 225.733 400.266 243.333 400.933 243.333C404.4 243.333 398.4 236.533 363.066 200.267C341.866 178.533 324.666 160.533 324.666 160.133C324.666 159.333 350.8 176.267 383.466 198.133C394.4 205.333 403.866 211.333 404.666 211.333C409.2 211.333 401.733 205.867 365.2 181.733C342.666 166.933 324.8 154.667 325.466 154.4C326.133 154.133 343.466 159.733 364 166.667C396.533 177.867 408.266 180.8 403.866 176.8C403.2 176.133 384.8 169.733 363.066 162.533C341.333 155.333 323.733 149.2 324 148.933C324.266 148.667 340.533 148.267 360.133 148.133C387.333 148 395.866 147.6 396.266 146.267C396.8 145.067 388.666 144.667 358.533 144.667C336.133 144.667 320.666 144.133 321.333 143.467C322.133 142.8 336.133 137.067 352.666 130.533C369.2 124.133 383.466 118.133 384.4 117.2C389.466 112.8 380.933 115.333 350.933 127.333C332.8 134.533 318 140 318.133 139.467C318.133 139.067 329.466 127.867 343.2 114.667C357.066 101.467 368.666 90 369.066 89.0667C369.466 88.1334 369.333 87.0667 368.666 86.6667C368.133 86.2667 356.133 97.2 342.133 110.8C328 124.533 316.4 135.467 316 135.2C315.733 134.8 322.933 118.8 332.133 99.6C341.2 80.2667 348.666 63.8667 348.666 63.2C348.666 58 343.466 67.2 329.066 97.4667C320.133 116.4 312.666 130.8 312.666 129.333C312.666 127.867 315.466 107.6 318.8 84.2667C322.266 60.9334 324.666 41.4667 324.133 41.0667C322 38.8 320.533 45.4667 315.466 82.6667C312.4 104.667 309.466 123.733 308.933 125.067C308.4 126.4 305.733 104.533 302.933 76.4C300.133 48.2667 297.333 24.8 296.8 24.2667C294.133 21.6 294 27.0667 295.866 44.2667C299.866 79.7334 303.466 118.267 303.066 120.4C302.8 121.6 294.933 97.8667 285.6 67.8667C276.133 37.8667 267.866 12.8 267.2 12.1334C263.333 8.00003 266 18 281.066 66.2667C290.4 95.7334 297.733 120 297.466 120.267C297.2 120.533 283.333 94.4 266.533 62C249.866 29.7334 235.6 3.46669 234.8 3.86669C234 4.13336 233.466 4.93336 233.6 5.60003C233.733 6.26669 245.066 28.4 258.666 54.6667C288 111.067 293.466 121.733 291.6 120C290.933 119.2 270.933 92.2667 247.333 60C223.733 27.7334 203.866 1.20003 203.333 0.933361C202.666 0.666694 201.866 1.06669 201.6 1.60003Z" fill="black"/>
</svg>
