<svg xmlns="http://www.w3.org/2000/svg" xmlns:xlink="http://www.w3.org/1999/xlink" width="1920" zoomAndPan="magnify" viewBox="0 0 1440 809.999993" height="1080" preserveAspectRatio="xMidYMid meet" version="1.0"><defs><clipPath id="cd836a3aec"><path d="M 761.671875 91 L 1380.421875 91 L 1380.421875 707.421875 L 761.671875 707.421875 Z M 761.671875 91 " clip-rule="nonzero"/></clipPath><clipPath id="956d514f4a"><path d="M 785.460938 103.949219 L 762.015625 103.949219 L 762.015625 100.433594 L 785.460938 100.433594 Z M 1050.710938 92.917969 L 1047.667969 91.160156 L 1035.945312 111.460938 L 1038.992188 113.222656 Z M 1104.632812 92.917969 L 1101.585938 91.160156 L 1089.863281 111.460938 L 1092.910156 113.222656 Z M 1162.644531 99.226562 L 1161.269531 95.992188 L 1139.691406 105.152344 L 1141.0625 108.386719 Z M 1216.804688 100.433594 L 1193.363281 100.433594 L 1193.363281 103.949219 L 1216.804688 103.949219 Z M 1270.480469 105.152344 L 1248.898438 95.992188 L 1247.527344 99.230469 L 1269.105469 108.390625 Z M 1322.453125 109.234375 L 1305.875 92.660156 L 1303.390625 95.144531 L 1319.964844 111.722656 Z M 1374.222656 111.460938 L 1362.5 91.160156 L 1359.457031 92.917969 L 1371.179688 113.222656 Z M 998.941406 149.0625 L 996.457031 146.578125 L 979.878906 163.152344 L 982.367188 165.640625 Z M 1048.0625 145.242188 L 1044.664062 144.332031 L 1038.597656 166.976562 L 1041.996094 167.886719 Z M 1103.269531 145.898438 L 1100.007812 144.582031 L 1091.226562 166.316406 L 1094.488281 167.632812 Z M 1160.695312 149.0625 L 1158.210938 146.578125 L 1141.632812 163.152344 L 1144.121094 165.640625 Z M 1216.804688 154.351562 L 1193.363281 154.351562 L 1193.363281 157.867188 L 1216.804688 157.867188 Z M 1268.535156 163.152344 L 1251.957031 146.578125 L 1249.472656 149.0625 L 1266.046875 165.640625 Z M 1318.941406 166.316406 L 1310.160156 144.582031 L 1306.902344 145.898438 L 1315.683594 167.632812 Z M 1371.570312 166.976562 L 1365.503906 144.332031 L 1362.105469 145.242188 L 1368.175781 167.882812 Z M 996.792969 200.753906 L 993.75 198.996094 L 982.027344 219.296875 L 985.074219 221.054688 Z M 1045.089844 198.304688 L 1041.570312 198.304688 L 1041.570312 221.746094 L 1045.089844 221.746094 Z M 1099.007812 198.304688 L 1095.488281 198.304688 L 1095.488281 221.746094 L 1099.007812 221.746094 Z M 1152.925781 198.304688 L 1149.40625 198.304688 L 1149.40625 221.746094 L 1152.925781 221.746094 Z M 1216.804688 208.269531 L 1193.363281 208.269531 L 1193.363281 211.785156 L 1216.804688 211.785156 Z M 1260.761719 198.304688 L 1257.242188 198.304688 L 1257.242188 221.746094 L 1260.761719 221.746094 Z M 1314.679688 198.304688 L 1311.164062 198.304688 L 1311.164062 221.746094 L 1314.679688 221.746094 Z M 1368.597656 198.304688 L 1365.082031 198.304688 L 1365.082031 221.746094 L 1368.597656 221.746094 Z M 785.460938 262.1875 L 762.015625 262.1875 L 762.015625 265.703125 L 785.460938 265.703125 Z M 839.378906 262.1875 L 815.933594 262.1875 L 815.933594 265.703125 L 839.378906 265.703125 Z M 893.421875 264.191406 L 892.972656 260.703125 L 869.722656 263.695312 L 870.171875 267.183594 Z M 946.421875 259.359375 L 944.59375 256.355469 L 924.5625 268.53125 L 926.390625 271.535156 Z M 994.144531 253.078125 L 990.746094 252.167969 L 984.679688 274.8125 L 988.078125 275.722656 Z M 1048.0625 274.8125 L 1041.996094 252.167969 L 1038.597656 253.078125 L 1044.664062 275.722656 Z M 1102.90625 274.359375 L 1094.890625 252.328125 L 1091.585938 253.53125 L 1099.605469 275.5625 Z M 1160.695312 270.988281 L 1144.121094 254.414062 L 1141.632812 256.898438 L 1158.210938 273.476562 Z M 1216.804688 262.1875 L 1193.363281 262.1875 L 1193.363281 265.703125 L 1216.804688 265.703125 Z M 1268.535156 256.898438 L 1266.046875 254.414062 L 1249.472656 270.988281 L 1251.957031 273.476562 Z M 1318.941406 253.734375 L 1315.683594 252.417969 L 1306.902344 274.152344 L 1310.160156 275.472656 Z M 1371.570312 253.078125 L 1368.175781 252.167969 L 1362.105469 274.8125 L 1365.503906 275.722656 Z M 994.144531 328.730469 L 988.078125 306.085938 L 984.679688 306.996094 L 990.746094 329.640625 Z M 1050.382812 327.386719 L 1039.378906 306.6875 L 1036.273438 308.339844 L 1047.28125 329.039062 Z M 1106.777344 324.910156 L 1090.203125 308.332031 L 1087.714844 310.816406 L 1104.292969 327.394531 Z M 1162.644531 320.824219 L 1141.0625 311.664062 L 1139.691406 314.902344 L 1161.269531 324.0625 Z M 1216.804688 316.105469 L 1193.363281 316.105469 L 1193.363281 319.621094 L 1216.804688 319.621094 Z M 1270.480469 314.902344 L 1269.105469 311.664062 L 1247.527344 320.824219 L 1248.898438 324.0625 Z M 1322.453125 310.816406 L 1319.964844 308.332031 L 1303.390625 324.910156 L 1305.875 327.394531 Z M 1374.222656 308.589844 L 1371.179688 306.832031 L 1359.457031 327.132812 L 1362.5 328.894531 Z M 996.464844 381.304688 L 985.460938 360.605469 L 982.355469 362.257812 L 993.359375 382.957031 Z M 1052.859375 378.824219 L 1036.28125 362.25 L 1033.796875 364.734375 L 1050.375 381.3125 Z M 1108.277344 376.121094 L 1087.976562 364.398438 L 1086.21875 367.441406 L 1106.519531 379.164062 Z M 1162.945312 373.117188 L 1140.296875 367.046875 L 1139.386719 370.445312 L 1162.03125 376.511719 Z M 1216.804688 370.023438 L 1193.363281 370.023438 L 1193.363281 373.539062 L 1216.804688 373.539062 Z M 1270.78125 370.445312 L 1269.871094 367.050781 L 1247.226562 373.117188 L 1248.136719 376.511719 Z M 1323.953125 367.445312 L 1322.191406 364.398438 L 1301.890625 376.121094 L 1303.648438 379.164062 Z M 1376.371094 364.734375 L 1373.882812 362.25 L 1357.308594 378.824219 L 1359.792969 381.3125 Z M 785.460938 423.941406 L 762.015625 423.941406 L 762.015625 427.457031 L 785.460938 427.457031 Z M 839.496094 426.261719 L 816.503906 421.6875 L 815.816406 425.136719 L 838.808594 429.710938 Z M 893.074219 428.5625 L 871.417969 419.589844 L 870.070312 422.835938 L 891.730469 431.808594 Z M 946.386719 430.371094 L 926.449219 418.035156 L 924.601562 421.027344 L 944.535156 433.363281 Z M 998.941406 432.746094 L 982.367188 416.167969 L 979.878906 418.65625 L 996.457031 435.230469 Z M 1053.546875 431.710938 L 1035.328125 416.957031 L 1033.113281 419.6875 L 1051.332031 434.441406 Z M 1108.035156 430.609375 L 1088.375 417.839844 L 1086.460938 420.789062 L 1106.121094 433.558594 Z M 1162.40625 429.453125 L 1141.519531 418.8125 L 1139.925781 421.945312 L 1160.8125 432.589844 Z M 1216.65625 428.257812 L 1194.769531 419.859375 L 1193.511719 423.140625 L 1215.398438 431.542969 Z M 1270.78125 427.035156 L 1248.136719 420.96875 L 1247.226562 424.363281 L 1269.871094 430.429688 Z M 1324.773438 425.796875 L 1301.617188 422.128906 L 1301.070312 425.601562 L 1324.222656 429.269531 Z M 1378.5625 423.941406 L 1355.117188 423.941406 L 1355.117188 427.457031 L 1378.5625 427.457031 Z M 785.175781 476.503906 L 783.757812 473.285156 L 762.300781 482.730469 L 763.71875 485.949219 Z M 839.378906 477.859375 L 815.933594 477.859375 L 815.933594 481.375 L 839.378906 481.375 Z M 892.84375 483.292969 L 871.882812 472.796875 L 870.308594 475.941406 L 891.269531 486.4375 Z M 945.023438 486.664062 L 928.449219 470.085938 L 925.960938 472.574219 L 942.539062 489.148438 Z M 1052.859375 486.664062 L 1036.28125 470.085938 L 1033.796875 472.574219 L 1050.375 489.148438 Z M 785.0625 530.039062 L 783.539062 526.871094 L 762.410156 537.035156 L 763.9375 540.203125 Z M 839.378906 531.777344 L 815.933594 531.777344 L 815.933594 535.296875 L 839.378906 535.296875 Z M 892.394531 538.375 L 872.652344 525.734375 L 870.753906 528.695312 L 890.496094 541.339844 Z M 944.4375 541.308594 L 929.21875 523.476562 L 926.546875 525.761719 L 941.765625 543.589844 Z M 1106.777344 540.582031 L 1090.203125 524.003906 L 1087.714844 526.492188 L 1104.292969 543.066406 Z M 785.460938 585.695312 L 762.015625 585.695312 L 762.015625 589.214844 L 785.460938 589.214844 Z M 839.378906 585.695312 L 815.933594 585.695312 L 815.933594 589.214844 L 839.378906 589.214844 Z M 893.296875 585.695312 L 869.851562 585.695312 L 869.851562 589.214844 L 893.296875 589.214844 Z M 937.921875 599.054688 L 936.570312 575.652344 L 933.0625 575.855469 L 934.414062 599.257812 Z M 1160.695312 594.5 L 1144.121094 577.921875 L 1141.632812 580.410156 L 1158.210938 596.984375 Z M 1324.644531 585.695312 L 1301.199219 585.695312 L 1301.199219 589.214844 L 1324.644531 589.214844 Z M 1378.5625 585.695312 L 1355.117188 585.695312 L 1355.117188 589.214844 L 1378.5625 589.214844 Z M 785.164062 644.519531 L 763.734375 635.007812 L 762.308594 638.222656 L 783.738281 647.734375 Z M 839.378906 639.613281 L 815.933594 639.613281 L 815.933594 643.128906 L 839.378906 643.128906 Z M 891.011719 634.203125 L 888.496094 631.75 L 872.132812 648.539062 L 874.652344 650.992188 Z M 942.058594 631.503906 L 938.875 630.011719 L 928.925781 651.238281 L 932.113281 652.730469 Z M 1157.957031 651.085938 L 1147.527344 630.09375 L 1144.375 631.65625 L 1154.804688 652.652344 Z M 1210.929688 651.683594 L 1202.523438 629.800781 L 1199.238281 631.058594 L 1207.644531 652.945312 Z M 1265.171875 651.492188 L 1256.070312 629.886719 L 1252.832031 631.253906 L 1261.933594 652.855469 Z M 1324.753906 642.027344 L 1301.796875 637.273438 L 1301.085938 640.714844 L 1324.042969 645.46875 Z M 1378.6875 641.648438 L 1355.59375 637.632812 L 1354.988281 641.097656 L 1378.085938 645.113281 Z M 785.496094 693.804688 L 784.542969 690.421875 L 761.980469 696.777344 L 762.933594 700.160156 Z M 838.460938 690.421875 L 836.558594 687.464844 L 816.851562 700.160156 L 818.753906 703.117188 Z M 889.132812 686.164062 L 886.121094 684.34375 L 874.015625 704.417969 L 877.027344 706.234375 Z M 939.84375 684.265625 L 936.417969 683.472656 L 931.140625 706.316406 L 934.566406 707.105469 Z M 1154.390625 706.695312 L 1151.429688 683.441406 L 1147.941406 683.886719 L 1150.902344 707.140625 Z M 1206.84375 683.570312 L 1203.324219 683.570312 L 1203.324219 707.011719 L 1206.84375 707.011719 Z M 1260.808594 683.578125 L 1257.292969 683.5625 L 1257.195312 707.003906 L 1260.710938 707.019531 Z M 1317.261719 706.320312 L 1312.007812 683.472656 L 1308.582031 684.261719 L 1313.832031 707.105469 Z M 1376.753906 701.785156 L 1359.269531 686.171875 L 1356.925781 688.792969 L 1374.410156 704.410156 Z M 785.460938 154.351562 L 762.015625 154.351562 L 762.015625 157.867188 L 785.460938 157.867188 Z M 839.496094 155.546875 L 838.808594 152.097656 L 815.816406 156.671875 L 816.503906 160.121094 Z M 893.074219 153.246094 L 891.730469 149.996094 L 870.070312 158.96875 L 871.417969 162.21875 Z M 946.386719 151.4375 L 944.535156 148.445312 L 924.601562 160.78125 L 926.449219 163.773438 Z M 839.601562 100.433594 L 816.160156 100.433594 L 816.160156 103.949219 L 839.601562 103.949219 Z M 893.640625 101.628906 L 892.953125 98.179688 L 869.960938 102.753906 L 870.644531 106.203125 Z M 947.21875 99.328125 L 945.875 96.082031 L 924.214844 105.050781 L 925.5625 108.300781 Z M 1000.527344 97.515625 L 998.679688 94.527344 L 978.742188 106.863281 L 980.59375 109.851562 Z M 998.15625 485.152344 L 983.402344 466.933594 L 980.667969 469.148438 L 995.421875 487.367188 Z M 997.269531 539.941406 L 984.5 520.28125 L 981.550781 522.195312 L 994.320312 541.855469 Z M 996.296875 594.632812 L 985.65625 573.746094 L 982.519531 575.339844 L 993.164062 596.226562 Z M 995.253906 649.214844 L 986.851562 627.332031 L 983.570312 628.589844 L 991.96875 650.476562 Z M 994.144531 703.691406 L 988.078125 681.046875 L 984.679688 681.957031 L 990.746094 704.601562 Z M 1052.074219 539.5 L 1037.320312 521.28125 L 1034.585938 523.496094 L 1049.339844 541.714844 Z M 1051.1875 594.289062 L 1038.417969 574.628906 L 1035.46875 576.542969 L 1048.238281 596.203125 Z M 1050.21875 648.980469 L 1039.574219 628.09375 L 1036.441406 629.6875 L 1047.082031 650.578125 Z M 1049.171875 703.566406 L 1040.769531 681.679688 L 1037.488281 682.941406 L 1045.886719 704.824219 Z M 1105.992188 594.789062 L 1091.238281 576.570312 L 1088.503906 578.785156 L 1103.257812 597.003906 Z M 1105.105469 649.578125 L 1092.335938 629.917969 L 1089.386719 631.832031 L 1102.15625 651.492188 Z M 1104.136719 704.269531 L 1093.492188 683.382812 L 1090.359375 684.976562 L 1101 705.867188 Z M 1109.195312 485.628906 L 1090.976562 470.875 L 1088.761719 473.605469 L 1106.980469 488.359375 Z M 1163.6875 484.527344 L 1144.027344 471.757812 L 1142.109375 474.707031 L 1161.773438 487.476562 Z M 1218.058594 483.371094 L 1197.171875 472.730469 L 1195.574219 475.863281 L 1216.464844 486.503906 Z M 1272.308594 482.175781 L 1250.421875 473.777344 L 1249.164062 477.058594 L 1271.050781 485.460938 Z M 1326.429688 480.953125 L 1303.789062 474.886719 L 1302.875 478.28125 L 1325.519531 484.347656 Z M 1380.421875 479.714844 L 1357.269531 476.046875 L 1356.71875 479.519531 L 1379.875 483.1875 Z M 1162.007812 539.546875 L 1143.789062 524.792969 L 1141.574219 527.523438 L 1159.792969 542.277344 Z M 1216.5 538.445312 L 1196.835938 525.675781 L 1194.921875 528.625 L 1214.582031 541.394531 Z M 1270.871094 537.289062 L 1249.984375 526.648438 L 1248.386719 529.78125 L 1269.277344 540.421875 Z M 1325.121094 536.09375 L 1303.234375 527.691406 L 1301.972656 530.976562 L 1323.859375 539.378906 Z M 1379.242188 534.871094 L 1356.597656 528.804688 L 1355.6875 532.199219 L 1378.332031 538.265625 Z M 1215.917969 588.625 L 1194.921875 578.199219 L 1193.359375 581.347656 L 1214.355469 591.777344 Z M 1270.40625 584.722656 L 1247.152344 581.761719 L 1246.707031 585.25 L 1269.960938 588.210938 Z M 944.796875 202.980469 L 942.3125 200.496094 L 925.734375 217.070312 L 928.222656 219.558594 Z M 785.351562 209.464844 L 784.664062 206.015625 L 761.671875 210.589844 L 762.359375 214.039062 Z M 838.933594 207.164062 L 837.585938 203.917969 L 815.929688 212.890625 L 817.273438 216.136719 Z M 892.242188 205.355469 L 890.390625 202.363281 L 870.457031 214.699219 L 872.304688 217.691406 Z M 785.578125 372.34375 L 762.585938 367.769531 L 761.898438 371.21875 L 784.890625 375.792969 Z M 839.15625 374.640625 L 817.5 365.671875 L 816.152344 368.917969 L 837.8125 377.890625 Z M 892.464844 376.453125 L 872.53125 364.117188 L 870.679688 367.109375 L 890.617188 379.445312 Z M 945.023438 378.824219 L 928.449219 362.25 L 925.960938 364.734375 L 942.539062 381.3125 Z M 785.460938 316.105469 L 762.015625 316.105469 L 762.015625 319.621094 L 785.460938 319.621094 Z M 839.378906 316.105469 L 815.933594 316.105469 L 815.933594 319.621094 L 839.378906 319.621094 Z M 893.421875 317.617188 L 870.171875 314.625 L 869.722656 318.109375 L 892.972656 321.101562 Z M 946.421875 322.449219 L 926.390625 310.273438 L 924.5625 313.277344 L 944.59375 325.453125 Z M 946.421875 322.449219 " clip-rule="nonzero"/></clipPath><linearGradient x1="-0.0000288779" gradientTransform="matrix(1.2375, 0, 0, 1.237498, 761.67334, 91.159869)" y1="248.881" x2="499.999932" gradientUnits="userSpaceOnUse" y2="248.881" id="16261163ad"><stop stop-opacity="1" stop-color="rgb(100%, 100%, 100%)" offset="0"/><stop stop-opacity="1" stop-color="rgb(99.752808%, 99.64447%, 99.969482%)" offset="0.00390625"/><stop stop-opacity="1" stop-color="rgb(99.505615%, 99.28894%, 99.938965%)" offset="0.0078125"/><stop stop-opacity="1" stop-color="rgb(99.258423%, 98.933411%, 99.908447%)" offset="0.0117187"/><stop stop-opacity="1" stop-color="rgb(99.012756%, 98.577881%, 99.87793%)" offset="0.015625"/><stop stop-opacity="1" stop-color="rgb(98.765564%, 98.222351%, 99.847412%)" offset="0.0195312"/><stop stop-opacity="1" stop-color="rgb(98.519897%, 97.866821%, 99.816895%)" offset="0.0234375"/><stop stop-opacity="1" stop-color="rgb(98.272705%, 97.511292%, 99.786377%)" offset="0.0273437"/><stop stop-opacity="1" stop-color="rgb(98.027039%, 97.155762%, 99.755859%)" offset="0.03125"/><stop stop-opacity="1" stop-color="rgb(97.779846%, 96.800232%, 99.725342%)" offset="0.0351562"/><stop stop-opacity="1" stop-color="rgb(97.53418%, 96.444702%, 99.694824%)" offset="0.0390625"/><stop stop-opacity="1" stop-color="rgb(97.286987%, 96.089172%, 99.664307%)" offset="0.0429688"/><stop stop-opacity="1" stop-color="rgb(97.041321%, 95.733643%, 99.633789%)" offset="0.046875"/><stop stop-opacity="1" stop-color="rgb(96.794128%, 95.378113%, 99.603271%)" offset="0.0507812"/><stop stop-opacity="1" stop-color="rgb(96.548462%, 95.022583%, 99.572754%)" offset="0.0546875"/><stop stop-opacity="1" stop-color="rgb(96.30127%, 94.667053%, 99.542236%)" offset="0.0585938"/><stop stop-opacity="1" stop-color="rgb(96.055603%, 94.311523%, 99.511719%)" offset="0.0625"/><stop stop-opacity="1" stop-color="rgb(95.808411%, 93.955994%, 99.481201%)" offset="0.0664062"/><stop stop-opacity="1" stop-color="rgb(95.562744%, 93.600464%, 99.450684%)" offset="0.0703125"/><stop stop-opacity="1" stop-color="rgb(95.315552%, 93.244934%, 99.420166%)" offset="0.0742187"/><stop stop-opacity="1" stop-color="rgb(95.069885%, 92.889404%, 99.389648%)" offset="0.078125"/><stop stop-opacity="1" stop-color="rgb(94.822693%, 92.533875%, 99.359131%)" offset="0.0820312"/><stop stop-opacity="1" stop-color="rgb(94.577026%, 92.178345%, 99.328613%)" offset="0.0859375"/><stop stop-opacity="1" stop-color="rgb(94.329834%, 91.822815%, 99.298096%)" offset="0.0898438"/><stop stop-opacity="1" stop-color="rgb(94.084167%, 91.467285%, 99.267578%)" offset="0.09375"/><stop stop-opacity="1" stop-color="rgb(93.836975%, 91.111755%, 99.237061%)" offset="0.0976562"/><stop stop-opacity="1" stop-color="rgb(93.591309%, 90.757751%, 99.206543%)" offset="0.101562"/><stop stop-opacity="1" stop-color="rgb(93.344116%, 90.402222%, 99.176025%)" offset="0.105469"/><stop stop-opacity="1" stop-color="rgb(93.096924%, 90.046692%, 99.145508%)" offset="0.109375"/><stop stop-opacity="1" stop-color="rgb(92.849731%, 89.691162%, 99.11499%)" offset="0.113281"/><stop stop-opacity="1" stop-color="rgb(92.604065%, 89.335632%, 99.084473%)" offset="0.117187"/><stop stop-opacity="1" stop-color="rgb(92.356873%, 88.980103%, 99.053955%)" offset="0.121094"/><stop stop-opacity="1" stop-color="rgb(92.111206%, 88.624573%, 99.024963%)" offset="0.125"/><stop stop-opacity="1" stop-color="rgb(91.864014%, 88.269043%, 98.994446%)" offset="0.128906"/><stop stop-opacity="1" stop-color="rgb(91.618347%, 87.913513%, 98.963928%)" offset="0.132812"/><stop stop-opacity="1" stop-color="rgb(91.371155%, 87.557983%, 98.933411%)" offset="0.136719"/><stop stop-opacity="1" stop-color="rgb(91.125488%, 87.202454%, 98.902893%)" offset="0.140625"/><stop stop-opacity="1" stop-color="rgb(90.878296%, 86.846924%, 98.872375%)" offset="0.144531"/><stop stop-opacity="1" stop-color="rgb(90.632629%, 86.491394%, 98.841858%)" offset="0.148437"/><stop stop-opacity="1" stop-color="rgb(90.385437%, 86.135864%, 98.81134%)" offset="0.152344"/><stop stop-opacity="1" stop-color="rgb(90.139771%, 85.780334%, 98.780823%)" offset="0.15625"/><stop stop-opacity="1" stop-color="rgb(89.892578%, 85.424805%, 98.750305%)" offset="0.160156"/><stop stop-opacity="1" stop-color="rgb(89.646912%, 85.069275%, 98.719788%)" offset="0.164062"/><stop stop-opacity="1" stop-color="rgb(89.399719%, 84.713745%, 98.68927%)" offset="0.167969"/><stop stop-opacity="1" stop-color="rgb(89.154053%, 84.358215%, 98.658752%)" offset="0.171875"/><stop stop-opacity="1" stop-color="rgb(88.90686%, 84.002686%, 98.628235%)" offset="0.175781"/><stop stop-opacity="1" stop-color="rgb(88.661194%, 83.647156%, 98.597717%)" offset="0.179688"/><stop stop-opacity="1" stop-color="rgb(88.414001%, 83.291626%, 98.5672%)" offset="0.183594"/><stop stop-opacity="1" stop-color="rgb(88.168335%, 82.936096%, 98.536682%)" offset="0.1875"/><stop stop-opacity="1" stop-color="rgb(87.921143%, 82.580566%, 98.506165%)" offset="0.191406"/><stop stop-opacity="1" stop-color="rgb(87.675476%, 82.226562%, 98.475647%)" offset="0.195312"/><stop stop-opacity="1" stop-color="rgb(87.428284%, 81.871033%, 98.445129%)" offset="0.199219"/><stop stop-opacity="1" stop-color="rgb(87.182617%, 81.515503%, 98.414612%)" offset="0.203125"/><stop stop-opacity="1" stop-color="rgb(86.935425%, 81.159973%, 98.384094%)" offset="0.207031"/><stop stop-opacity="1" stop-color="rgb(86.689758%, 80.804443%, 98.353577%)" offset="0.210938"/><stop stop-opacity="1" stop-color="rgb(86.442566%, 80.448914%, 98.323059%)" offset="0.214844"/><stop stop-opacity="1" stop-color="rgb(86.195374%, 80.093384%, 98.292542%)" offset="0.21875"/><stop stop-opacity="1" stop-color="rgb(85.948181%, 79.737854%, 98.262024%)" offset="0.222656"/><stop stop-opacity="1" stop-color="rgb(85.702515%, 79.382324%, 98.231506%)" offset="0.226563"/><stop stop-opacity="1" stop-color="rgb(85.455322%, 79.026794%, 98.200989%)" offset="0.230469"/><stop stop-opacity="1" stop-color="rgb(85.209656%, 78.671265%, 98.170471%)" offset="0.234375"/><stop stop-opacity="1" stop-color="rgb(84.962463%, 78.315735%, 98.139954%)" offset="0.238281"/><stop stop-opacity="1" stop-color="rgb(84.716797%, 77.960205%, 98.109436%)" offset="0.242188"/><stop stop-opacity="1" stop-color="rgb(84.469604%, 77.604675%, 98.078918%)" offset="0.246094"/><stop stop-opacity="1" stop-color="rgb(84.223938%, 77.249146%, 98.049927%)" offset="0.25"/><stop stop-opacity="1" stop-color="rgb(83.976746%, 76.893616%, 98.019409%)" offset="0.253906"/><stop stop-opacity="1" stop-color="rgb(83.731079%, 76.538086%, 97.988892%)" offset="0.257812"/><stop stop-opacity="1" stop-color="rgb(83.483887%, 76.182556%, 97.958374%)" offset="0.261719"/><stop stop-opacity="1" stop-color="rgb(83.23822%, 75.827026%, 97.927856%)" offset="0.265625"/><stop stop-opacity="1" stop-color="rgb(82.991028%, 75.471497%, 97.897339%)" offset="0.269531"/><stop stop-opacity="1" stop-color="rgb(82.745361%, 75.115967%, 97.866821%)" offset="0.273437"/><stop stop-opacity="1" stop-color="rgb(82.498169%, 74.760437%, 97.836304%)" offset="0.277344"/><stop stop-opacity="1" stop-color="rgb(82.252502%, 74.404907%, 97.805786%)" offset="0.28125"/><stop stop-opacity="1" stop-color="rgb(82.00531%, 74.049377%, 97.775269%)" offset="0.285156"/><stop stop-opacity="1" stop-color="rgb(81.759644%, 73.693848%, 97.744751%)" offset="0.289062"/><stop stop-opacity="1" stop-color="rgb(81.512451%, 73.338318%, 97.714233%)" offset="0.292969"/><stop stop-opacity="1" stop-color="rgb(81.266785%, 72.984314%, 97.683716%)" offset="0.296875"/><stop stop-opacity="1" stop-color="rgb(81.019592%, 72.628784%, 97.653198%)" offset="0.300781"/><stop stop-opacity="1" stop-color="rgb(80.773926%, 72.273254%, 97.622681%)" offset="0.304687"/><stop stop-opacity="1" stop-color="rgb(80.526733%, 71.917725%, 97.592163%)" offset="0.308594"/><stop stop-opacity="1" stop-color="rgb(80.281067%, 71.562195%, 97.561646%)" offset="0.3125"/><stop stop-opacity="1" stop-color="rgb(80.033875%, 71.206665%, 97.531128%)" offset="0.316406"/><stop stop-opacity="1" stop-color="rgb(79.788208%, 70.851135%, 97.50061%)" offset="0.320312"/><stop stop-opacity="1" stop-color="rgb(79.541016%, 70.495605%, 97.470093%)" offset="0.324219"/><stop stop-opacity="1" stop-color="rgb(79.293823%, 70.140076%, 97.439575%)" offset="0.328125"/><stop stop-opacity="1" stop-color="rgb(79.046631%, 69.784546%, 97.409058%)" offset="0.332031"/><stop stop-opacity="1" stop-color="rgb(78.800964%, 69.429016%, 97.37854%)" offset="0.335938"/><stop stop-opacity="1" stop-color="rgb(78.553772%, 69.073486%, 97.348022%)" offset="0.339844"/><stop stop-opacity="1" stop-color="rgb(78.308105%, 68.717957%, 97.317505%)" offset="0.34375"/><stop stop-opacity="1" stop-color="rgb(78.060913%, 68.362427%, 97.286987%)" offset="0.347656"/><stop stop-opacity="1" stop-color="rgb(77.815247%, 68.006897%, 97.25647%)" offset="0.351562"/><stop stop-opacity="1" stop-color="rgb(77.568054%, 67.651367%, 97.225952%)" offset="0.355469"/><stop stop-opacity="1" stop-color="rgb(77.322388%, 67.295837%, 97.195435%)" offset="0.359375"/><stop stop-opacity="1" stop-color="rgb(77.075195%, 66.940308%, 97.164917%)" offset="0.363281"/><stop stop-opacity="1" stop-color="rgb(76.829529%, 66.584778%, 97.135925%)" offset="0.367188"/><stop stop-opacity="1" stop-color="rgb(76.582336%, 66.229248%, 97.105408%)" offset="0.371094"/><stop stop-opacity="1" stop-color="rgb(76.33667%, 65.873718%, 97.07489%)" offset="0.375"/><stop stop-opacity="1" stop-color="rgb(76.089478%, 65.518188%, 97.044373%)" offset="0.378906"/><stop stop-opacity="1" stop-color="rgb(75.843811%, 65.162659%, 97.013855%)" offset="0.382812"/><stop stop-opacity="1" stop-color="rgb(75.596619%, 64.807129%, 96.983337%)" offset="0.386719"/><stop stop-opacity="1" stop-color="rgb(75.350952%, 64.453125%, 96.95282%)" offset="0.390625"/><stop stop-opacity="1" stop-color="rgb(75.10376%, 64.097595%, 96.922302%)" offset="0.394531"/><stop stop-opacity="1" stop-color="rgb(74.858093%, 63.742065%, 96.891785%)" offset="0.398437"/><stop stop-opacity="1" stop-color="rgb(74.610901%, 63.386536%, 96.861267%)" offset="0.402344"/><stop stop-opacity="1" stop-color="rgb(74.365234%, 63.031006%, 96.83075%)" offset="0.40625"/><stop stop-opacity="1" stop-color="rgb(74.118042%, 62.675476%, 96.800232%)" offset="0.410156"/><stop stop-opacity="1" stop-color="rgb(73.872375%, 62.319946%, 96.769714%)" offset="0.414062"/><stop stop-opacity="1" stop-color="rgb(73.625183%, 61.964417%, 96.739197%)" offset="0.417969"/><stop stop-opacity="1" stop-color="rgb(73.379517%, 61.608887%, 96.708679%)" offset="0.421875"/><stop stop-opacity="1" stop-color="rgb(73.132324%, 61.253357%, 96.678162%)" offset="0.425781"/><stop stop-opacity="1" stop-color="rgb(72.886658%, 60.897827%, 96.647644%)" offset="0.429687"/><stop stop-opacity="1" stop-color="rgb(72.639465%, 60.542297%, 96.617126%)" offset="0.433594"/><stop stop-opacity="1" stop-color="rgb(72.392273%, 60.186768%, 96.586609%)" offset="0.4375"/><stop stop-opacity="1" stop-color="rgb(72.145081%, 59.831238%, 96.556091%)" offset="0.441406"/><stop stop-opacity="1" stop-color="rgb(71.899414%, 59.475708%, 96.525574%)" offset="0.445312"/><stop stop-opacity="1" stop-color="rgb(71.652222%, 59.120178%, 96.495056%)" offset="0.449219"/><stop stop-opacity="1" stop-color="rgb(71.406555%, 58.764648%, 96.464539%)" offset="0.453125"/><stop stop-opacity="1" stop-color="rgb(71.159363%, 58.409119%, 96.434021%)" offset="0.457031"/><stop stop-opacity="1" stop-color="rgb(70.913696%, 58.053589%, 96.403503%)" offset="0.460937"/><stop stop-opacity="1" stop-color="rgb(70.666504%, 57.698059%, 96.372986%)" offset="0.464844"/><stop stop-opacity="1" stop-color="rgb(70.420837%, 57.342529%, 96.342468%)" offset="0.46875"/><stop stop-opacity="1" stop-color="rgb(70.173645%, 56.987%, 96.311951%)" offset="0.472656"/><stop stop-opacity="1" stop-color="rgb(69.927979%, 56.63147%, 96.281433%)" offset="0.476562"/><stop stop-opacity="1" stop-color="rgb(69.680786%, 56.27594%, 96.250916%)" offset="0.480469"/><stop stop-opacity="1" stop-color="rgb(69.43512%, 55.92041%, 96.220398%)" offset="0.484375"/><stop stop-opacity="1" stop-color="rgb(69.187927%, 55.56488%, 96.18988%)" offset="0.488281"/><stop stop-opacity="1" stop-color="rgb(68.942261%, 55.210876%, 96.160889%)" offset="0.492187"/><stop stop-opacity="1" stop-color="rgb(68.695068%, 54.855347%, 96.130371%)" offset="0.496094"/><stop stop-opacity="1" stop-color="rgb(68.449402%, 54.499817%, 96.099854%)" offset="0.5"/><stop stop-opacity="1" stop-color="rgb(68.202209%, 54.144287%, 96.069336%)" offset="0.503906"/><stop stop-opacity="1" stop-color="rgb(67.956543%, 53.788757%, 96.038818%)" offset="0.507812"/><stop stop-opacity="1" stop-color="rgb(67.709351%, 53.433228%, 96.008301%)" offset="0.511719"/><stop stop-opacity="1" stop-color="rgb(67.463684%, 53.077698%, 95.977783%)" offset="0.515625"/><stop stop-opacity="1" stop-color="rgb(67.216492%, 52.722168%, 95.947266%)" offset="0.519531"/><stop stop-opacity="1" stop-color="rgb(66.970825%, 52.366638%, 95.916748%)" offset="0.523438"/><stop stop-opacity="1" stop-color="rgb(66.723633%, 52.011108%, 95.88623%)" offset="0.527344"/><stop stop-opacity="1" stop-color="rgb(66.477966%, 51.655579%, 95.855713%)" offset="0.53125"/><stop stop-opacity="1" stop-color="rgb(66.230774%, 51.300049%, 95.825195%)" offset="0.535156"/><stop stop-opacity="1" stop-color="rgb(65.985107%, 50.944519%, 95.794678%)" offset="0.539062"/><stop stop-opacity="1" stop-color="rgb(65.737915%, 50.588989%, 95.76416%)" offset="0.542969"/><stop stop-opacity="1" stop-color="rgb(65.490723%, 50.233459%, 95.733643%)" offset="0.546875"/><stop stop-opacity="1" stop-color="rgb(65.24353%, 49.87793%, 95.703125%)" offset="0.550781"/><stop stop-opacity="1" stop-color="rgb(64.997864%, 49.5224%, 95.672607%)" offset="0.554688"/><stop stop-opacity="1" stop-color="rgb(64.750671%, 49.16687%, 95.64209%)" offset="0.558594"/><stop stop-opacity="1" stop-color="rgb(64.505005%, 48.81134%, 95.611572%)" offset="0.5625"/><stop stop-opacity="1" stop-color="rgb(64.257812%, 48.455811%, 95.581055%)" offset="0.566406"/><stop stop-opacity="1" stop-color="rgb(64.012146%, 48.100281%, 95.550537%)" offset="0.570312"/><stop stop-opacity="1" stop-color="rgb(63.764954%, 47.744751%, 95.52002%)" offset="0.574219"/><stop stop-opacity="1" stop-color="rgb(63.519287%, 47.389221%, 95.489502%)" offset="0.578125"/><stop stop-opacity="1" stop-color="rgb(63.272095%, 47.033691%, 95.458984%)" offset="0.582031"/><stop stop-opacity="1" stop-color="rgb(63.026428%, 46.679688%, 95.428467%)" offset="0.585938"/><stop stop-opacity="1" stop-color="rgb(62.779236%, 46.324158%, 95.397949%)" offset="0.589844"/><stop stop-opacity="1" stop-color="rgb(62.533569%, 45.968628%, 95.367432%)" offset="0.59375"/><stop stop-opacity="1" stop-color="rgb(62.286377%, 45.613098%, 95.336914%)" offset="0.597656"/><stop stop-opacity="1" stop-color="rgb(62.04071%, 45.257568%, 95.306396%)" offset="0.601562"/><stop stop-opacity="1" stop-color="rgb(61.793518%, 44.902039%, 95.275879%)" offset="0.605469"/><stop stop-opacity="1" stop-color="rgb(61.547852%, 44.546509%, 95.245361%)" offset="0.609375"/><stop stop-opacity="1" stop-color="rgb(61.300659%, 44.190979%, 95.214844%)" offset="0.613281"/><stop stop-opacity="1" stop-color="rgb(61.054993%, 43.835449%, 95.185852%)" offset="0.617188"/><stop stop-opacity="1" stop-color="rgb(60.8078%, 43.479919%, 95.155334%)" offset="0.621094"/><stop stop-opacity="1" stop-color="rgb(60.562134%, 43.12439%, 95.124817%)" offset="0.625"/><stop stop-opacity="1" stop-color="rgb(60.314941%, 42.76886%, 95.094299%)" offset="0.628906"/><stop stop-opacity="1" stop-color="rgb(60.069275%, 42.41333%, 95.063782%)" offset="0.632813"/><stop stop-opacity="1" stop-color="rgb(59.822083%, 42.0578%, 95.033264%)" offset="0.636719"/><stop stop-opacity="1" stop-color="rgb(59.576416%, 41.702271%, 95.002747%)" offset="0.640625"/><stop stop-opacity="1" stop-color="rgb(59.329224%, 41.346741%, 94.972229%)" offset="0.644531"/><stop stop-opacity="1" stop-color="rgb(59.083557%, 40.991211%, 94.941711%)" offset="0.648438"/><stop stop-opacity="1" stop-color="rgb(58.836365%, 40.635681%, 94.911194%)" offset="0.652344"/><stop stop-opacity="1" stop-color="rgb(58.589172%, 40.280151%, 94.880676%)" offset="0.65625"/><stop stop-opacity="1" stop-color="rgb(58.34198%, 39.924622%, 94.850159%)" offset="0.660156"/><stop stop-opacity="1" stop-color="rgb(58.096313%, 39.569092%, 94.819641%)" offset="0.664063"/><stop stop-opacity="1" stop-color="rgb(57.849121%, 39.213562%, 94.789124%)" offset="0.667969"/><stop stop-opacity="1" stop-color="rgb(57.603455%, 38.858032%, 94.758606%)" offset="0.671875"/><stop stop-opacity="1" stop-color="rgb(57.356262%, 38.502502%, 94.728088%)" offset="0.675781"/><stop stop-opacity="1" stop-color="rgb(57.110596%, 38.146973%, 94.697571%)" offset="0.679688"/><stop stop-opacity="1" stop-color="rgb(56.863403%, 37.791443%, 94.667053%)" offset="0.683594"/><stop stop-opacity="1" stop-color="rgb(56.617737%, 37.437439%, 94.636536%)" offset="0.6875"/><stop stop-opacity="1" stop-color="rgb(56.370544%, 37.081909%, 94.606018%)" offset="0.691406"/><stop stop-opacity="1" stop-color="rgb(56.124878%, 36.726379%, 94.5755%)" offset="0.695313"/><stop stop-opacity="1" stop-color="rgb(55.877686%, 36.37085%, 94.544983%)" offset="0.699219"/><stop stop-opacity="1" stop-color="rgb(55.632019%, 36.01532%, 94.514465%)" offset="0.703125"/><stop stop-opacity="1" stop-color="rgb(55.384827%, 35.65979%, 94.483948%)" offset="0.707031"/><stop stop-opacity="1" stop-color="rgb(55.13916%, 35.30426%, 94.45343%)" offset="0.710938"/><stop stop-opacity="1" stop-color="rgb(54.891968%, 34.94873%, 94.422913%)" offset="0.714844"/><stop stop-opacity="1" stop-color="rgb(54.646301%, 34.593201%, 94.392395%)" offset="0.71875"/><stop stop-opacity="1" stop-color="rgb(54.399109%, 34.237671%, 94.361877%)" offset="0.722656"/><stop stop-opacity="1" stop-color="rgb(54.153442%, 33.882141%, 94.33136%)" offset="0.726563"/><stop stop-opacity="1" stop-color="rgb(53.90625%, 33.526611%, 94.300842%)" offset="0.730469"/><stop stop-opacity="1" stop-color="rgb(53.660583%, 33.171082%, 94.271851%)" offset="0.734375"/><stop stop-opacity="1" stop-color="rgb(53.413391%, 32.815552%, 94.241333%)" offset="0.738281"/><stop stop-opacity="1" stop-color="rgb(53.167725%, 32.460022%, 94.210815%)" offset="0.742188"/><stop stop-opacity="1" stop-color="rgb(52.920532%, 32.104492%, 94.180298%)" offset="0.746094"/><stop stop-opacity="1" stop-color="rgb(52.674866%, 31.748962%, 94.14978%)" offset="0.75"/><stop stop-opacity="1" stop-color="rgb(52.427673%, 31.393433%, 94.119263%)" offset="0.753906"/><stop stop-opacity="1" stop-color="rgb(52.182007%, 31.037903%, 94.088745%)" offset="0.757812"/><stop stop-opacity="1" stop-color="rgb(51.934814%, 30.682373%, 94.058228%)" offset="0.761719"/><stop stop-opacity="1" stop-color="rgb(51.687622%, 30.326843%, 94.02771%)" offset="0.765625"/><stop stop-opacity="1" stop-color="rgb(51.44043%, 29.971313%, 93.997192%)" offset="0.769531"/><stop stop-opacity="1" stop-color="rgb(51.194763%, 29.615784%, 93.966675%)" offset="0.773437"/><stop stop-opacity="1" stop-color="rgb(50.947571%, 29.260254%, 93.936157%)" offset="0.777344"/><stop stop-opacity="1" stop-color="rgb(50.701904%, 28.90625%, 93.90564%)" offset="0.78125"/><stop stop-opacity="1" stop-color="rgb(50.454712%, 28.55072%, 93.875122%)" offset="0.785156"/><stop stop-opacity="1" stop-color="rgb(50.209045%, 28.19519%, 93.844604%)" offset="0.789062"/><stop stop-opacity="1" stop-color="rgb(49.961853%, 27.839661%, 93.814087%)" offset="0.792969"/><stop stop-opacity="1" stop-color="rgb(49.716187%, 27.484131%, 93.783569%)" offset="0.796875"/><stop stop-opacity="1" stop-color="rgb(49.468994%, 27.128601%, 93.753052%)" offset="0.800781"/><stop stop-opacity="1" stop-color="rgb(49.223328%, 26.773071%, 93.722534%)" offset="0.804687"/><stop stop-opacity="1" stop-color="rgb(48.976135%, 26.417542%, 93.692017%)" offset="0.808594"/><stop stop-opacity="1" stop-color="rgb(48.730469%, 26.062012%, 93.661499%)" offset="0.8125"/><stop stop-opacity="1" stop-color="rgb(48.483276%, 25.706482%, 93.630981%)" offset="0.816406"/><stop stop-opacity="1" stop-color="rgb(48.23761%, 25.350952%, 93.600464%)" offset="0.820312"/><stop stop-opacity="1" stop-color="rgb(47.990417%, 24.995422%, 93.569946%)" offset="0.824219"/><stop stop-opacity="1" stop-color="rgb(47.744751%, 24.639893%, 93.539429%)" offset="0.828125"/><stop stop-opacity="1" stop-color="rgb(47.497559%, 24.284363%, 93.508911%)" offset="0.832031"/><stop stop-opacity="1" stop-color="rgb(47.251892%, 23.928833%, 93.478394%)" offset="0.835937"/><stop stop-opacity="1" stop-color="rgb(47.0047%, 23.573303%, 93.447876%)" offset="0.839844"/><stop stop-opacity="1" stop-color="rgb(46.759033%, 23.217773%, 93.417358%)" offset="0.84375"/><stop stop-opacity="1" stop-color="rgb(46.511841%, 22.862244%, 93.386841%)" offset="0.847656"/><stop stop-opacity="1" stop-color="rgb(46.266174%, 22.506714%, 93.356323%)" offset="0.851562"/><stop stop-opacity="1" stop-color="rgb(46.018982%, 22.151184%, 93.325806%)" offset="0.855469"/><stop stop-opacity="1" stop-color="rgb(45.773315%, 21.795654%, 93.296814%)" offset="0.859375"/><stop stop-opacity="1" stop-color="rgb(45.526123%, 21.440125%, 93.266296%)" offset="0.863281"/><stop stop-opacity="1" stop-color="rgb(45.280457%, 21.084595%, 93.235779%)" offset="0.867187"/><stop stop-opacity="1" stop-color="rgb(45.033264%, 20.729065%, 93.205261%)" offset="0.871094"/><stop stop-opacity="1" stop-color="rgb(44.786072%, 20.373535%, 93.174744%)" offset="0.875"/><stop stop-opacity="1" stop-color="rgb(44.538879%, 20.018005%, 93.144226%)" offset="0.878906"/><stop stop-opacity="1" stop-color="rgb(44.293213%, 19.664001%, 93.113708%)" offset="0.882812"/><stop stop-opacity="1" stop-color="rgb(44.046021%, 19.308472%, 93.083191%)" offset="0.886719"/><stop stop-opacity="1" stop-color="rgb(43.800354%, 18.952942%, 93.052673%)" offset="0.890625"/><stop stop-opacity="1" stop-color="rgb(43.553162%, 18.597412%, 93.022156%)" offset="0.894531"/><stop stop-opacity="1" stop-color="rgb(43.307495%, 18.241882%, 92.991638%)" offset="0.898438"/><stop stop-opacity="1" stop-color="rgb(43.060303%, 17.886353%, 92.961121%)" offset="0.902344"/><stop stop-opacity="1" stop-color="rgb(42.814636%, 17.530823%, 92.930603%)" offset="0.90625"/><stop stop-opacity="1" stop-color="rgb(42.567444%, 17.175293%, 92.900085%)" offset="0.910156"/><stop stop-opacity="1" stop-color="rgb(42.321777%, 16.819763%, 92.869568%)" offset="0.914062"/><stop stop-opacity="1" stop-color="rgb(42.074585%, 16.464233%, 92.83905%)" offset="0.917969"/><stop stop-opacity="1" stop-color="rgb(41.828918%, 16.108704%, 92.808533%)" offset="0.921875"/><stop stop-opacity="1" stop-color="rgb(41.581726%, 15.753174%, 92.778015%)" offset="0.925781"/><stop stop-opacity="1" stop-color="rgb(41.33606%, 15.397644%, 92.747498%)" offset="0.929688"/><stop stop-opacity="1" stop-color="rgb(41.088867%, 15.042114%, 92.71698%)" offset="0.933594"/><stop stop-opacity="1" stop-color="rgb(40.843201%, 14.686584%, 92.686462%)" offset="0.9375"/><stop stop-opacity="1" stop-color="rgb(40.596008%, 14.331055%, 92.655945%)" offset="0.941406"/><stop stop-opacity="1" stop-color="rgb(40.350342%, 13.975525%, 92.625427%)" offset="0.945312"/><stop stop-opacity="1" stop-color="rgb(40.103149%, 13.619995%, 92.59491%)" offset="0.949219"/><stop stop-opacity="1" stop-color="rgb(39.857483%, 13.264465%, 92.564392%)" offset="0.953125"/><stop stop-opacity="1" stop-color="rgb(39.610291%, 12.908936%, 92.533875%)" offset="0.957031"/><stop stop-opacity="1" stop-color="rgb(39.364624%, 12.553406%, 92.503357%)" offset="0.960938"/><stop stop-opacity="1" stop-color="rgb(39.117432%, 12.197876%, 92.472839%)" offset="0.964844"/><stop stop-opacity="1" stop-color="rgb(38.871765%, 11.842346%, 92.442322%)" offset="0.96875"/><stop stop-opacity="1" stop-color="rgb(38.624573%, 11.486816%, 92.411804%)" offset="0.972656"/><stop stop-opacity="1" stop-color="rgb(38.378906%, 11.132812%, 92.382812%)" offset="0.976562"/><stop stop-opacity="1" stop-color="rgb(38.131714%, 10.777283%, 92.352295%)" offset="0.980469"/><stop stop-opacity="1" stop-color="rgb(37.884521%, 10.421753%, 92.321777%)" offset="0.984375"/><stop stop-opacity="1" stop-color="rgb(37.637329%, 10.066223%, 92.29126%)" offset="0.988281"/><stop stop-opacity="1" stop-color="rgb(37.391663%, 9.710693%, 92.260742%)" offset="0.992188"/><stop stop-opacity="1" stop-color="rgb(37.14447%, 9.355164%, 92.230225%)" offset="0.996094"/><stop stop-opacity="1" stop-color="rgb(36.898804%, 8.999634%, 92.199707%)" offset="1"/></linearGradient><clipPath id="56f7ddb88d"><path d="M 30.136719 539 L 70 539 L 70 587.808594 L 30.136719 587.808594 Z M 30.136719 539 " clip-rule="nonzero"/></clipPath><clipPath id="ac1fb7e962"><path d="M 30.136719 542 L 98 542 L 98 567 L 30.136719 567 Z M 30.136719 542 " clip-rule="nonzero"/></clipPath><clipPath id="cd4d369d43"><path d="M 30.136719 546 L 98 546 L 98 570 L 30.136719 570 Z M 30.136719 546 " clip-rule="nonzero"/></clipPath><clipPath id="febfdcbe76"><path d="M 30.136719 550 L 98 550 L 98 575 L 30.136719 575 Z M 30.136719 550 " clip-rule="nonzero"/></clipPath><clipPath id="da7f19a31d"><path d="M 30.136719 554 L 98 554 L 98 578 L 30.136719 578 Z M 30.136719 554 " clip-rule="nonzero"/></clipPath><clipPath id="53ba06ea8f"><path d="M 30.136719 557 L 98 557 L 98 582 L 30.136719 582 Z M 30.136719 557 " clip-rule="nonzero"/></clipPath><clipPath id="1531070b99"><path d="M 122 533 L 149.386719 533 L 149.386719 550 L 122 550 Z M 122 533 " clip-rule="nonzero"/></clipPath><clipPath id="80952fdc33"><path d="M 30.136719 561 L 98 561 L 98 585 L 30.136719 585 Z M 30.136719 561 " clip-rule="nonzero"/></clipPath><clipPath id="af78a65fb7"><path d="M 122 536 L 149.386719 536 L 149.386719 553 L 122 553 Z M 122 536 " clip-rule="nonzero"/></clipPath><clipPath id="c7f4fd0f25"><path d="M 30.136719 492.558594 L 149 492.558594 L 149 563 L 30.136719 563 Z M 30.136719 492.558594 " clip-rule="nonzero"/></clipPath><clipPath id="10339558a1"><path d="M 68 539 L 149.386719 539 L 149.386719 587.808594 L 68 587.808594 Z M 68 539 " clip-rule="nonzero"/></clipPath><clipPath id="aabe3421f8"><path d="M 147 514 L 149.386719 514 L 149.386719 541 L 147 541 Z M 147 514 " clip-rule="nonzero"/></clipPath><clipPath id="6fcb966835"><path d="M 101 312 L 128.101562 312 L 128.101562 329 L 101 329 Z M 101 312 " clip-rule="nonzero"/></clipPath><clipPath id="999518176d"><path d="M 51.601562 364 L 79 364 L 79 381 L 51.601562 381 Z M 51.601562 364 " clip-rule="nonzero"/></clipPath><clipPath id="1b035ccb2c"><path d="M 114 320 L 128.101562 320 L 128.101562 371 L 114 371 Z M 114 320 " clip-rule="nonzero"/></clipPath><clipPath id="53052fd5e4"><path d="M 64 371 L 79 371 L 79 399.421875 L 64 399.421875 Z M 64 371 " clip-rule="nonzero"/></clipPath><clipPath id="934fa6ea94"><path d="M 51.601562 371 L 66 371 L 66 399.421875 L 51.601562 399.421875 Z M 51.601562 371 " clip-rule="nonzero"/></clipPath><clipPath id="1736d7bfc3"><path d="M 71 304.171875 L 97 304.171875 L 97 336 L 71 336 Z M 71 304.171875 " clip-rule="nonzero"/></clipPath><clipPath id="844e2f46d7"><path d="M 85.320312 317 L 90.464844 317 L 90.464844 327 L 85.320312 327 Z M 85.320312 317 " clip-rule="nonzero"/></clipPath><clipPath id="9bdf9d87ec"><path d="M 85.558594 328.324219 L 85.527344 318.566406 L 90.191406 315.878906 L 90.21875 325.636719 Z M 85.558594 328.324219 " clip-rule="nonzero"/></clipPath></defs><rect x="-144" width="1728" fill="#ffffff" y="-80.999999" height="971.999992" fill-opacity="1"/><rect x="-144" width="1728" fill="#111a2e" y="-80.999999" height="971.999992" fill-opacity="1"/><g clip-path="url(#cd836a3aec)"><g clip-path="url(#956d514f4a)"><path fill="url(#16261163ad)" d="M 761.671875 91.160156 L 761.671875 707.140625 L 1380.421875 707.140625 L 1380.421875 91.160156 Z M 761.671875 91.160156 " fill-rule="nonzero"/></g></g><g clip-path="url(#56f7ddb88d)"><path fill="#000000" d="M 69.070312 587.792969 C 68.992188 587.792969 68.917969 587.773438 68.847656 587.730469 L 30.390625 565.433594 C 30.242188 565.347656 30.167969 565.214844 30.167969 565.042969 L 30.167969 539.507812 C 30.167969 539.335938 30.242188 539.207031 30.394531 539.121094 C 30.542969 539.03125 30.691406 539.03125 30.839844 539.121094 L 69.296875 561.417969 C 69.445312 561.503906 69.519531 561.636719 69.519531 561.808594 L 69.519531 587.34375 C 69.519531 587.46875 69.476562 587.574219 69.386719 587.660156 C 69.300781 587.746094 69.195312 587.792969 69.070312 587.792969 Z M 31.0625 564.785156 L 68.625 586.566406 L 68.625 562.066406 L 31.0625 540.289062 Z M 31.0625 564.785156 " fill-opacity="1" fill-rule="nonzero"/></g><path fill="#000000" d="M 96.128906 545.894531 L 58.734375 523.40625 C 58.667969 523.363281 58.613281 523.308594 58.574219 523.238281 C 58.535156 523.171875 58.515625 523.097656 58.519531 523.015625 C 58.519531 522.9375 58.539062 522.863281 58.578125 522.792969 C 58.617188 522.726562 58.671875 522.671875 58.742188 522.632812 L 83.816406 508.050781 C 83.964844 507.960938 84.117188 507.960938 84.265625 508.050781 L 122.210938 530.320312 C 122.351562 530.402344 122.425781 530.527344 122.429688 530.695312 L 123.035156 555.875 C 123.039062 556.050781 122.964844 556.183594 122.816406 556.273438 L 96.804688 571.5625 C 96.65625 571.652344 96.503906 571.652344 96.351562 571.566406 C 96.203125 571.480469 96.128906 571.351562 96.128906 571.179688 L 96.128906 545.894531 M 121.542969 530.96875 L 84.039062 508.960938 L 59.847656 523.027344 L 96.804688 545.257812 C 96.949219 545.34375 97.023438 545.472656 97.023438 545.640625 L 97.023438 570.394531 L 122.132812 555.636719 L 121.539062 530.96875 " fill-opacity="1" fill-rule="nonzero"/><path fill="#000000" d="M 46.109375 545.234375 C 46.03125 545.234375 45.960938 545.214844 45.894531 545.175781 C 45.824219 545.140625 45.773438 545.089844 45.730469 545.023438 C 45.691406 544.957031 45.667969 544.886719 45.664062 544.808594 C 45.660156 544.734375 45.671875 544.660156 45.707031 544.589844 C 47.160156 541.601562 47.539062 539.105469 46.808594 537.363281 C 46.425781 536.402344 45.753906 535.726562 44.792969 535.335938 C 44.675781 535.296875 44.59375 535.222656 44.539062 535.113281 C 44.484375 535.003906 44.476562 534.890625 44.511719 534.773438 C 44.550781 534.65625 44.621094 534.570312 44.730469 534.515625 C 44.839844 534.457031 44.953125 534.449219 45.070312 534.484375 C 45.648438 534.710938 46.160156 535.039062 46.605469 535.476562 C 47.046875 535.910156 47.386719 536.417969 47.625 536.992188 C 48.484375 539.007812 48.109375 541.699219 46.511719 544.984375 C 46.429688 545.148438 46.296875 545.234375 46.109375 545.234375 Z M 46.109375 545.234375 " fill-opacity="1" fill-rule="nonzero"/><path fill="#000000" d="M 76.039062 554.585938 C 75.945312 554.585938 75.859375 554.558594 75.78125 554.5 C 68.15625 549.097656 62.644531 554.238281 62.414062 554.457031 C 62.324219 554.542969 62.21875 554.582031 62.09375 554.578125 C 61.972656 554.574219 61.871094 554.527344 61.785156 554.441406 C 61.703125 554.351562 61.660156 554.246094 61.660156 554.125 C 61.660156 554.003906 61.707031 553.898438 61.792969 553.8125 C 61.851562 553.753906 68.054688 547.929688 76.296875 553.769531 C 76.476562 553.894531 76.53125 554.0625 76.464844 554.273438 C 76.398438 554.480469 76.257812 554.585938 76.039062 554.585938 Z M 76.039062 554.585938 " fill-opacity="1" fill-rule="nonzero"/><path fill="#000000" d="M 110.164062 503.359375 C 106.609375 503.359375 103.816406 500.71875 103.695312 500.601562 C 103.609375 500.515625 103.566406 500.410156 103.5625 500.289062 C 103.5625 500.164062 103.605469 500.0625 103.6875 499.972656 C 103.773438 499.882812 103.875 499.839844 104 499.835938 C 104.121094 499.832031 104.226562 499.871094 104.316406 499.953125 C 104.347656 499.980469 107.195312 502.664062 110.554688 502.449219 C 112.429688 502.332031 114.140625 501.335938 115.632812 499.492188 C 115.710938 499.394531 115.808594 499.339844 115.933594 499.324219 C 116.054688 499.308594 116.164062 499.339844 116.261719 499.414062 C 116.359375 499.492188 116.417969 499.589844 116.433594 499.714844 C 116.445312 499.835938 116.417969 499.945312 116.339844 500.042969 L 116.332031 500.054688 C 114.667969 502.105469 112.742188 503.210938 110.605469 503.34375 C 110.457031 503.355469 110.308594 503.359375 110.164062 503.359375 Z M 110.164062 503.359375 " fill-opacity="1" fill-rule="nonzero"/><path fill="#000000" d="M 135.3125 519.921875 C 135.238281 519.921875 135.171875 519.902344 135.105469 519.871094 C 132.71875 518.621094 131.53125 517.230469 131.585938 515.742188 C 131.683594 513.050781 135.871094 511.210938 136.046875 511.132812 C 136.160156 511.082031 136.273438 511.082031 136.390625 511.128906 C 136.503906 511.171875 136.585938 511.253906 136.636719 511.367188 C 136.683594 511.480469 136.6875 511.59375 136.640625 511.707031 C 136.597656 511.824219 136.515625 511.90625 136.402344 511.957031 C 135.335938 512.417969 132.542969 514.011719 132.480469 515.777344 C 132.441406 516.890625 133.464844 518 135.519531 519.074219 C 135.730469 519.183594 135.804688 519.351562 135.75 519.578125 C 135.691406 519.808594 135.546875 519.921875 135.3125 519.921875 Z M 135.3125 519.921875 " fill-opacity="1" fill-rule="nonzero"/><path fill="#000000" d="M 63.355469 547.128906 C 58.964844 547.128906 55.527344 545.050781 55.527344 542.398438 C 55.527344 539.746094 58.964844 537.667969 63.355469 537.667969 C 67.742188 537.667969 71.179688 539.746094 71.179688 542.398438 C 71.179688 545.050781 67.742188 547.128906 63.355469 547.128906 Z M 63.355469 538.5625 C 59.597656 538.5625 56.425781 540.320312 56.425781 542.398438 C 56.425781 544.476562 59.597656 546.230469 63.355469 546.230469 C 67.113281 546.230469 70.285156 544.476562 70.285156 542.398438 C 70.285156 540.320312 67.113281 538.5625 63.355469 538.5625 Z M 63.355469 538.5625 " fill-opacity="1" fill-rule="nonzero"/><path fill="#000000" d="M 115.714844 516.902344 C 111.328125 516.902344 107.890625 514.824219 107.890625 512.171875 C 107.890625 509.519531 111.328125 507.441406 115.714844 507.441406 C 120.105469 507.441406 123.542969 509.519531 123.542969 512.171875 C 123.542969 514.824219 120.105469 516.902344 115.714844 516.902344 Z M 115.714844 508.339844 C 111.957031 508.339844 108.785156 510.09375 108.785156 512.171875 C 108.785156 514.25 111.957031 516.007812 115.714844 516.007812 C 119.472656 516.007812 122.644531 514.25 122.644531 512.171875 C 122.644531 510.09375 119.472656 508.339844 115.714844 508.339844 Z M 115.714844 508.339844 " fill-opacity="1" fill-rule="nonzero"/><path fill="#000000" d="M 86.378906 539.957031 L 86.359375 539.957031 C 77.976562 539.625 73.441406 536.636719 71.109375 534.1875 C 68.558594 531.503906 68.023438 528.914062 68 528.808594 C 67.976562 528.6875 68 528.574219 68.070312 528.472656 C 68.136719 528.367188 68.234375 528.304688 68.355469 528.28125 C 68.476562 528.257812 68.585938 528.277344 68.691406 528.347656 C 68.792969 528.417969 68.855469 528.511719 68.878906 528.632812 C 68.886719 528.664062 69.40625 531.117188 71.796875 533.609375 C 74.015625 535.921875 78.347656 538.742188 86.394531 539.058594 C 86.519531 539.0625 86.625 539.109375 86.710938 539.199219 C 86.796875 539.285156 86.839844 539.394531 86.835938 539.515625 C 86.832031 539.640625 86.789062 539.746094 86.699219 539.832031 C 86.609375 539.917969 86.503906 539.960938 86.378906 539.957031 Z M 86.378906 539.957031 " fill-opacity="1" fill-rule="nonzero"/><path fill="#000000" d="M 109.113281 523.605469 C 108.917969 523.605469 108.78125 523.515625 108.703125 523.332031 C 104.457031 513.355469 94.175781 514.492188 93.738281 514.546875 C 93.617188 514.5625 93.507812 514.53125 93.410156 514.457031 C 93.3125 514.378906 93.257812 514.28125 93.242188 514.15625 C 93.226562 514.035156 93.257812 513.925781 93.332031 513.828125 C 93.410156 513.730469 93.507812 513.671875 93.628906 513.65625 C 93.746094 513.644531 105.011719 512.378906 109.527344 522.980469 C 109.554688 523.050781 109.566406 523.125 109.5625 523.199219 C 109.554688 523.273438 109.53125 523.34375 109.488281 523.40625 C 109.445312 523.46875 109.394531 523.515625 109.328125 523.550781 C 109.261719 523.589844 109.191406 523.605469 109.113281 523.605469 Z M 109.113281 523.605469 " fill-opacity="1" fill-rule="nonzero"/><g clip-path="url(#ac1fb7e962)"><path fill="#000000" d="M 69.074219 566.027344 C 68.992188 566.027344 68.917969 566.007812 68.847656 565.964844 L 30.390625 543.421875 C 30.28125 543.359375 30.214844 543.269531 30.183594 543.148438 C 30.152344 543.027344 30.167969 542.914062 30.230469 542.808594 C 30.292969 542.703125 30.382812 542.632812 30.503906 542.601562 C 30.621094 542.570312 30.734375 542.585938 30.84375 542.648438 L 69.074219 565.058594 L 96.339844 548.894531 C 96.445312 548.832031 96.558594 548.816406 96.679688 548.847656 C 96.800781 548.878906 96.890625 548.949219 96.953125 549.054688 C 97.019531 549.160156 97.035156 549.273438 97.003906 549.394531 C 96.972656 549.515625 96.902344 549.605469 96.796875 549.667969 L 69.304688 565.964844 C 69.230469 566.007812 69.15625 566.027344 69.074219 566.027344 Z M 69.074219 566.027344 " fill-opacity="1" fill-rule="nonzero"/></g><path fill="#000000" d="M 122.226562 534.519531 C 122 534.519531 121.855469 534.410156 121.792969 534.191406 C 121.734375 533.972656 121.800781 533.804688 122 533.6875 L 147.792969 518.398438 C 147.898438 518.332031 148.011719 518.316406 148.132812 518.347656 C 148.253906 518.375 148.347656 518.445312 148.410156 518.550781 C 148.472656 518.660156 148.488281 518.773438 148.457031 518.894531 C 148.425781 519.015625 148.355469 519.105469 148.25 519.167969 L 122.457031 534.457031 C 122.386719 534.5 122.308594 534.519531 122.226562 534.519531 Z M 122.226562 534.519531 " fill-opacity="1" fill-rule="nonzero"/><g clip-path="url(#cd4d369d43)"><path fill="#000000" d="M 69.074219 569.917969 C 68.992188 569.917969 68.917969 569.898438 68.847656 569.859375 L 30.390625 547.515625 C 30.273438 547.457031 30.199219 547.367188 30.164062 547.242188 C 30.125 547.117188 30.140625 547 30.203125 546.890625 C 30.269531 546.777344 30.363281 546.707031 30.492188 546.675781 C 30.617188 546.648438 30.734375 546.667969 30.839844 546.742188 L 69.070312 568.949219 L 96.339844 552.84375 C 96.445312 552.78125 96.558594 552.765625 96.679688 552.796875 C 96.796875 552.828125 96.890625 552.898438 96.953125 553.003906 C 97.015625 553.109375 97.03125 553.222656 97 553.34375 C 96.96875 553.464844 96.902344 553.554688 96.792969 553.617188 L 69.300781 569.855469 C 69.230469 569.898438 69.15625 569.917969 69.074219 569.917969 Z M 69.074219 569.917969 " fill-opacity="1" fill-rule="nonzero"/></g><path fill="#000000" d="M 122.226562 538.527344 C 122 538.527344 121.855469 538.417969 121.792969 538.195312 C 121.734375 537.976562 121.800781 537.808594 122 537.691406 L 147.792969 522.457031 C 147.902344 522.394531 148.015625 522.378906 148.132812 522.410156 C 148.253906 522.441406 148.34375 522.511719 148.40625 522.617188 C 148.472656 522.722656 148.488281 522.835938 148.457031 522.957031 C 148.425781 523.078125 148.355469 523.167969 148.25 523.230469 L 122.453125 538.464844 C 122.382812 538.507812 122.308594 538.527344 122.226562 538.527344 Z M 122.226562 538.527344 " fill-opacity="1" fill-rule="nonzero"/><g clip-path="url(#febfdcbe76)"><path fill="#000000" d="M 69.160156 574.277344 C 69.078125 574.277344 69.003906 574.257812 68.933594 574.214844 L 30.390625 551.558594 C 30.277344 551.496094 30.207031 551.40625 30.175781 551.285156 C 30.140625 551.164062 30.15625 551.046875 30.21875 550.941406 C 30.285156 550.832031 30.375 550.761719 30.5 550.730469 C 30.621094 550.703125 30.734375 550.71875 30.84375 550.785156 L 69.15625 573.308594 L 96.339844 557.019531 C 96.445312 556.957031 96.558594 556.941406 96.675781 556.96875 C 96.796875 557 96.890625 557.070312 96.953125 557.175781 C 97.015625 557.28125 97.035156 557.394531 97.003906 557.515625 C 96.972656 557.632812 96.90625 557.726562 96.796875 557.789062 L 69.390625 574.214844 C 69.320312 574.257812 69.242188 574.277344 69.160156 574.277344 Z M 69.160156 574.277344 " fill-opacity="1" fill-rule="nonzero"/></g><path fill="#000000" d="M 122.226562 542.476562 C 122 542.476562 121.855469 542.367188 121.792969 542.148438 C 121.734375 541.929688 121.800781 541.761719 121.996094 541.644531 L 148.03125 526.042969 C 148.136719 525.980469 148.25 525.964844 148.367188 525.996094 C 148.488281 526.023438 148.582031 526.09375 148.644531 526.199219 C 148.707031 526.304688 148.722656 526.417969 148.695312 526.539062 C 148.664062 526.65625 148.597656 526.75 148.488281 526.8125 L 122.457031 542.414062 C 122.386719 542.457031 122.308594 542.476562 122.226562 542.476562 Z M 122.226562 542.476562 " fill-opacity="1" fill-rule="nonzero"/><g clip-path="url(#da7f19a31d)"><path fill="#000000" d="M 69.070312 577.976562 C 68.988281 577.976562 68.910156 577.957031 68.839844 577.914062 L 30.386719 554.96875 C 30.277344 554.90625 30.207031 554.816406 30.171875 554.695312 C 30.140625 554.574219 30.15625 554.457031 30.222656 554.347656 C 30.285156 554.242188 30.378906 554.171875 30.5 554.144531 C 30.625 554.113281 30.738281 554.132812 30.84375 554.199219 L 69.070312 577.007812 L 96.339844 560.667969 C 96.445312 560.601562 96.558594 560.585938 96.675781 560.617188 C 96.796875 560.648438 96.890625 560.714844 96.953125 560.820312 C 97.015625 560.925781 97.03125 561.039062 97.003906 561.160156 C 96.972656 561.28125 96.902344 561.371094 96.796875 561.4375 L 69.300781 577.914062 C 69.230469 577.957031 69.152344 577.976562 69.070312 577.976562 Z M 69.070312 577.976562 " fill-opacity="1" fill-rule="nonzero"/></g><path fill="#000000" d="M 122.378906 546.03125 C 122.152344 546.03125 122.007812 545.921875 121.945312 545.703125 C 121.886719 545.484375 121.953125 545.316406 122.148438 545.199219 L 148.261719 529.550781 C 148.367188 529.488281 148.480469 529.472656 148.601562 529.5 C 148.71875 529.53125 148.8125 529.597656 148.875 529.707031 C 148.9375 529.8125 148.957031 529.925781 148.925781 530.046875 C 148.894531 530.164062 148.828125 530.257812 148.722656 530.320312 L 122.609375 545.96875 C 122.539062 546.011719 122.460938 546.03125 122.378906 546.03125 Z M 122.378906 546.03125 " fill-opacity="1" fill-rule="nonzero"/><g clip-path="url(#53ba06ea8f)"><path fill="#000000" d="M 69.160156 581.625 C 69.078125 581.625 69.003906 581.601562 68.933594 581.5625 L 30.386719 558.683594 C 30.28125 558.621094 30.210938 558.527344 30.183594 558.410156 C 30.152344 558.289062 30.167969 558.175781 30.230469 558.070312 C 30.292969 557.964844 30.386719 557.894531 30.503906 557.863281 C 30.625 557.832031 30.738281 557.851562 30.84375 557.914062 L 69.160156 580.65625 L 96.339844 564.367188 C 96.445312 564.304688 96.558594 564.289062 96.675781 564.316406 C 96.796875 564.347656 96.890625 564.417969 96.953125 564.523438 C 97.015625 564.628906 97.03125 564.742188 97.003906 564.863281 C 96.972656 564.980469 96.902344 565.074219 96.796875 565.136719 L 69.390625 581.5625 C 69.320312 581.601562 69.242188 581.625 69.160156 581.625 Z M 69.160156 581.625 " fill-opacity="1" fill-rule="nonzero"/></g><g clip-path="url(#1531070b99)"><path fill="#000000" d="M 122.511719 549.652344 C 122.285156 549.652344 122.140625 549.542969 122.078125 549.324219 C 122.019531 549.105469 122.085938 548.9375 122.28125 548.820312 L 148.414062 533.160156 C 148.519531 533.097656 148.632812 533.082031 148.753906 533.109375 C 148.871094 533.140625 148.964844 533.207031 149.027344 533.316406 C 149.089844 533.421875 149.109375 533.535156 149.078125 533.65625 C 149.046875 533.777344 148.980469 533.867188 148.871094 533.929688 L 122.742188 549.589844 C 122.671875 549.632812 122.59375 549.652344 122.511719 549.652344 Z M 122.511719 549.652344 " fill-opacity="1" fill-rule="nonzero"/></g><g clip-path="url(#80952fdc33)"><path fill="#000000" d="M 69.070312 584.90625 C 68.988281 584.90625 68.914062 584.886719 68.84375 584.84375 L 30.386719 562.167969 C 30.277344 562.109375 30.207031 562.015625 30.175781 561.894531 C 30.144531 561.773438 30.160156 561.660156 30.222656 561.550781 C 30.285156 561.445312 30.378906 561.375 30.5 561.34375 C 30.621094 561.3125 30.734375 561.332031 30.84375 561.398438 L 69.066406 583.9375 L 96.339844 567.597656 C 96.445312 567.53125 96.558594 567.515625 96.675781 567.546875 C 96.796875 567.574219 96.890625 567.644531 96.953125 567.75 C 97.015625 567.855469 97.035156 567.96875 97.003906 568.089844 C 96.972656 568.210938 96.90625 568.300781 96.796875 568.363281 L 69.300781 584.84375 C 69.230469 584.886719 69.152344 584.90625 69.070312 584.90625 Z M 69.070312 584.90625 " fill-opacity="1" fill-rule="nonzero"/></g><g clip-path="url(#af78a65fb7)"><path fill="#000000" d="M 122.511719 552.882812 C 122.285156 552.882812 122.140625 552.773438 122.078125 552.554688 C 122.019531 552.335938 122.085938 552.167969 122.28125 552.050781 L 148.542969 536.3125 C 148.652344 536.246094 148.765625 536.230469 148.882812 536.261719 C 149.003906 536.289062 149.09375 536.359375 149.160156 536.464844 C 149.222656 536.570312 149.238281 536.683594 149.210938 536.804688 C 149.179688 536.925781 149.109375 537.015625 149.003906 537.078125 L 122.742188 552.820312 C 122.671875 552.863281 122.59375 552.882812 122.511719 552.882812 Z M 122.511719 552.882812 " fill-opacity="1" fill-rule="nonzero"/></g><g clip-path="url(#c7f4fd0f25)"><path fill="#000000" d="M 69.070312 562.230469 C 68.988281 562.230469 68.914062 562.210938 68.84375 562.171875 L 30.390625 539.890625 C 30.324219 539.851562 30.269531 539.796875 30.226562 539.726562 C 30.1875 539.65625 30.167969 539.582031 30.167969 539.503906 C 30.167969 539.421875 30.1875 539.347656 30.226562 539.277344 C 30.269531 539.210938 30.324219 539.15625 30.390625 539.113281 L 110.128906 492.660156 C 110.277344 492.570312 110.429688 492.570312 110.582031 492.660156 L 148.097656 514.761719 C 148.164062 514.804688 148.21875 514.859375 148.257812 514.925781 C 148.296875 514.996094 148.316406 515.070312 148.316406 515.148438 C 148.316406 515.230469 148.296875 515.304688 148.257812 515.371094 C 148.21875 515.441406 148.164062 515.496094 148.097656 515.535156 L 121.980469 530.992188 C 121.875 531.054688 121.761719 531.070312 121.644531 531.039062 C 121.523438 531.007812 121.433594 530.941406 121.367188 530.835938 C 121.304688 530.726562 121.289062 530.613281 121.320312 530.496094 C 121.351562 530.375 121.417969 530.285156 121.527344 530.222656 L 146.988281 515.152344 L 110.351562 493.566406 L 31.507812 539.5 L 69.066406 561.265625 L 96.066406 545.289062 C 96.171875 545.222656 96.285156 545.207031 96.40625 545.234375 C 96.527344 545.265625 96.621094 545.335938 96.683594 545.441406 C 96.746094 545.550781 96.761719 545.664062 96.730469 545.785156 C 96.699219 545.90625 96.628906 545.996094 96.519531 546.058594 L 69.296875 562.167969 C 69.226562 562.210938 69.152344 562.230469 69.070312 562.230469 Z M 69.070312 562.230469 " fill-opacity="1" fill-rule="nonzero"/></g><g clip-path="url(#10339558a1)"><path fill="#000000" d="M 69.160156 587.769531 C 68.933594 587.769531 68.789062 587.660156 68.730469 587.441406 C 68.667969 587.21875 68.738281 587.050781 68.933594 586.933594 L 96.453125 570.734375 L 148.707031 540.042969 C 148.8125 539.976562 148.925781 539.957031 149.050781 539.988281 C 149.171875 540.015625 149.265625 540.085938 149.328125 540.195312 C 149.390625 540.304688 149.40625 540.417969 149.375 540.539062 C 149.339844 540.664062 149.269531 540.753906 149.160156 540.816406 L 96.90625 571.507812 L 69.386719 587.707031 C 69.316406 587.75 69.242188 587.769531 69.160156 587.769531 Z M 69.160156 587.769531 " fill-opacity="1" fill-rule="nonzero"/></g><g clip-path="url(#aabe3421f8)"><path fill="#000000" d="M 148.929688 540.875 C 148.8125 540.875 148.707031 540.835938 148.621094 540.75 C 148.535156 540.667969 148.488281 540.566406 148.484375 540.445312 L 147.421875 515.171875 C 147.417969 515.046875 147.457031 514.941406 147.539062 514.847656 C 147.625 514.757812 147.726562 514.710938 147.851562 514.703125 C 147.972656 514.699219 148.082031 514.738281 148.171875 514.824219 C 148.261719 514.90625 148.3125 515.007812 148.316406 515.132812 L 149.378906 540.410156 C 149.382812 540.53125 149.34375 540.640625 149.261719 540.730469 C 149.179688 540.824219 149.074219 540.871094 148.949219 540.875 Z M 148.929688 540.875 " fill-opacity="1" fill-rule="nonzero"/></g><path fill="#000000" d="M 119.125 529.445312 C 118.894531 529.445312 118.753906 529.332031 118.691406 529.113281 C 118.632812 528.894531 118.699219 528.726562 118.898438 528.609375 L 141.644531 515.269531 L 110.410156 496.921875 L 87.238281 510.539062 C 87.132812 510.597656 87.019531 510.609375 86.902344 510.578125 C 86.785156 510.546875 86.695312 510.480469 86.632812 510.375 C 86.570312 510.269531 86.554688 510.15625 86.585938 510.039062 C 86.613281 509.917969 86.679688 509.828125 86.785156 509.765625 L 110.183594 496.015625 C 110.335938 495.929688 110.488281 495.929688 110.640625 496.015625 L 142.757812 514.882812 C 142.824219 514.921875 142.878906 514.976562 142.917969 515.046875 C 142.960938 515.113281 142.980469 515.1875 142.980469 515.269531 C 142.980469 515.347656 142.960938 515.421875 142.917969 515.492188 C 142.878906 515.558594 142.824219 515.613281 142.757812 515.65625 L 119.351562 529.382812 C 119.28125 529.421875 119.207031 529.445312 119.125 529.445312 Z M 119.125 529.445312 " fill-opacity="1" fill-rule="nonzero"/><path fill="#000000" d="M 69.160156 558.746094 C 69.082031 558.746094 69.007812 558.726562 68.9375 558.6875 L 36.53125 540.066406 C 36.460938 540.027344 36.40625 539.972656 36.367188 539.902344 C 36.328125 539.835938 36.304688 539.757812 36.304688 539.679688 C 36.304688 539.601562 36.324219 539.523438 36.363281 539.457031 C 36.402344 539.386719 36.457031 539.332031 36.527344 539.292969 L 61.699219 524.5 C 61.808594 524.441406 61.917969 524.425781 62.035156 524.457031 C 62.15625 524.492188 62.246094 524.558594 62.304688 524.664062 C 62.367188 524.769531 62.382812 524.882812 62.355469 525 C 62.324219 525.117188 62.257812 525.210938 62.152344 525.273438 L 37.644531 539.671875 L 69.15625 557.78125 L 93.351562 543.59375 C 93.457031 543.523438 93.570312 543.507812 93.695312 543.535156 C 93.816406 543.566406 93.910156 543.636719 93.976562 543.746094 C 94.039062 543.855469 94.054688 543.96875 94.019531 544.09375 C 93.988281 544.214844 93.914062 544.304688 93.804688 544.367188 L 69.386719 558.683594 C 69.316406 558.726562 69.242188 558.746094 69.160156 558.746094 Z M 69.160156 558.746094 " fill-opacity="1" fill-rule="nonzero"/><g clip-path="url(#6fcb966835)"><path fill="#000000" d="M 114.402344 328.480469 C 114.324219 328.480469 114.25 328.460938 114.179688 328.421875 L 101.558594 320.773438 C 101.496094 320.734375 101.445312 320.679688 101.40625 320.613281 C 101.371094 320.550781 101.351562 320.480469 101.351562 320.40625 C 101.351562 320.328125 101.371094 320.257812 101.410156 320.195312 C 101.445312 320.128906 101.496094 320.078125 101.5625 320.039062 L 114.183594 312.464844 C 114.328125 312.375 114.472656 312.375 114.617188 312.457031 L 127.898438 320.070312 C 128.039062 320.152344 128.113281 320.277344 128.113281 320.441406 C 128.113281 320.605469 128.039062 320.730469 127.898438 320.8125 L 114.617188 328.425781 C 114.550781 328.464844 114.480469 328.480469 114.402344 328.480469 Z M 102.609375 320.40625 L 114.410156 327.558594 L 126.820312 320.441406 L 114.410156 313.324219 Z M 102.609375 320.40625 " fill-opacity="1" fill-rule="nonzero"/></g><path fill="#000000" d="M 89.425781 352.15625 C 89.351562 352.15625 89.28125 352.140625 89.21875 352.105469 L 76.195312 345.003906 C 76.050781 344.925781 75.976562 344.800781 75.972656 344.632812 C 75.972656 344.46875 76.042969 344.34375 76.1875 344.257812 L 89.152344 336.789062 C 89.289062 336.710938 89.429688 336.707031 89.566406 336.78125 L 102.53125 343.738281 C 102.679688 343.820312 102.753906 343.941406 102.757812 344.109375 C 102.761719 344.273438 102.691406 344.402344 102.546875 344.484375 L 89.640625 352.097656 C 89.574219 352.136719 89.503906 352.15625 89.425781 352.15625 Z M 77.277344 344.621094 L 89.417969 351.238281 L 101.457031 344.132812 L 89.375 337.648438 Z M 77.277344 344.621094 " fill-opacity="1" fill-rule="nonzero"/><g clip-path="url(#999518176d)"><path fill="#000000" d="M 64.652344 380.402344 C 64.570312 380.402344 64.496094 380.382812 64.429688 380.339844 L 51.808594 372.691406 C 51.742188 372.652344 51.691406 372.601562 51.65625 372.535156 C 51.621094 372.472656 51.601562 372.402344 51.601562 372.324219 C 51.601562 372.25 51.621094 372.179688 51.65625 372.117188 C 51.695312 372.050781 51.746094 372 51.808594 371.960938 L 64.433594 364.382812 C 64.574219 364.296875 64.722656 364.296875 64.867188 364.378906 L 78.144531 371.992188 C 78.289062 372.074219 78.359375 372.199219 78.359375 372.363281 C 78.359375 372.527344 78.289062 372.652344 78.144531 372.734375 L 64.867188 380.347656 C 64.800781 380.382812 64.726562 380.402344 64.652344 380.402344 Z M 52.859375 372.328125 L 64.65625 379.476562 L 77.070312 372.363281 L 64.65625 365.246094 Z M 52.859375 372.328125 " fill-opacity="1" fill-rule="nonzero"/></g><path fill="#000000" d="M 89.46875 385.8125 C 89.351562 385.8125 89.25 385.769531 89.167969 385.6875 C 89.082031 385.601562 89.042969 385.503906 89.042969 385.382812 L 89.042969 352.027344 C 89.042969 351.90625 89.082031 351.804688 89.167969 351.722656 C 89.25 351.640625 89.351562 351.597656 89.46875 351.597656 C 89.589844 351.597656 89.6875 351.640625 89.773438 351.722656 C 89.855469 351.804688 89.898438 351.90625 89.898438 352.027344 L 89.898438 384.644531 L 101.902344 377.777344 L 101.902344 344.117188 C 101.902344 344 101.941406 343.898438 102.027344 343.8125 C 102.109375 343.730469 102.210938 343.6875 102.328125 343.6875 C 102.449219 343.6875 102.546875 343.730469 102.632812 343.8125 C 102.714844 343.898438 102.757812 344 102.757812 344.117188 L 102.757812 378.027344 C 102.757812 378.191406 102.6875 378.316406 102.542969 378.398438 L 89.683594 385.753906 C 89.617188 385.792969 89.546875 385.8125 89.46875 385.8125 Z M 89.46875 385.8125 " fill-opacity="1" fill-rule="nonzero"/><path fill="#000000" d="M 101.78125 344.210938 C 101.664062 344.210938 101.5625 344.167969 101.480469 344.085938 C 101.394531 344 101.351562 343.898438 101.351562 343.78125 L 101.351562 320.40625 C 101.351562 320.289062 101.394531 320.1875 101.480469 320.101562 C 101.5625 320.019531 101.664062 319.976562 101.78125 319.976562 C 101.898438 319.976562 102 320.019531 102.085938 320.101562 C 102.167969 320.1875 102.210938 320.289062 102.210938 320.40625 L 102.210938 343.78125 C 102.210938 343.898438 102.167969 344 102.085938 344.085938 C 102 344.167969 101.898438 344.210938 101.78125 344.210938 Z M 101.78125 344.210938 " fill-opacity="1" fill-rule="nonzero"/><path fill="#000000" d="M 114.730469 370.734375 C 114.648438 370.734375 114.570312 370.710938 114.5 370.664062 L 102.097656 362.726562 C 101.996094 362.664062 101.933594 362.574219 101.90625 362.457031 C 101.878906 362.339844 101.898438 362.230469 101.960938 362.128906 C 102.027344 362.027344 102.117188 361.964844 102.234375 361.941406 C 102.351562 361.917969 102.460938 361.9375 102.5625 362.003906 L 114.296875 369.519531 L 113.976562 328.058594 C 113.972656 327.9375 114.015625 327.835938 114.097656 327.753906 C 114.179688 327.667969 114.28125 327.625 114.402344 327.625 C 114.523438 327.625 114.621094 327.667969 114.707031 327.75 C 114.789062 327.832031 114.832031 327.933594 114.832031 328.050781 L 115.160156 370.300781 C 115.160156 370.417969 115.121094 370.519531 115.035156 370.605469 C 114.953125 370.691406 114.851562 370.730469 114.730469 370.730469 Z M 114.730469 370.734375 " fill-opacity="1" fill-rule="nonzero"/><g clip-path="url(#1b035ccb2c)"><path fill="#000000" d="M 114.730469 370.734375 C 114.515625 370.734375 114.378906 370.628906 114.320312 370.421875 C 114.261719 370.214844 114.324219 370.054688 114.503906 369.941406 L 127.253906 362.019531 L 127.253906 320.441406 C 127.253906 320.324219 127.296875 320.222656 127.378906 320.140625 C 127.464844 320.054688 127.566406 320.015625 127.683594 320.015625 C 127.800781 320.015625 127.902344 320.054688 127.984375 320.140625 C 128.070312 320.222656 128.113281 320.324219 128.113281 320.441406 L 128.113281 362.253906 C 128.113281 362.414062 128.042969 362.535156 127.910156 362.617188 L 114.957031 370.667969 C 114.890625 370.710938 114.8125 370.734375 114.730469 370.734375 Z M 114.730469 370.734375 " fill-opacity="1" fill-rule="nonzero"/></g><g clip-path="url(#53052fd5e4)"><path fill="#000000" d="M 64.652344 399.398438 C 64.535156 399.398438 64.433594 399.355469 64.347656 399.273438 C 64.265625 399.1875 64.222656 399.089844 64.222656 398.96875 L 64.222656 379.976562 C 64.222656 379.855469 64.265625 379.757812 64.347656 379.671875 C 64.433594 379.589844 64.535156 379.546875 64.652344 379.546875 C 64.769531 379.546875 64.871094 379.589844 64.957031 379.671875 C 65.039062 379.757812 65.082031 379.855469 65.082031 379.976562 L 65.082031 398.230469 L 77.910156 390.859375 L 77.503906 372.371094 C 77.5 372.253906 77.539062 372.152344 77.621094 372.066406 C 77.703125 371.980469 77.804688 371.9375 77.921875 371.933594 C 78.039062 371.933594 78.140625 371.972656 78.226562 372.054688 C 78.3125 372.136719 78.359375 372.234375 78.359375 372.351562 L 78.769531 391.09375 C 78.773438 391.261719 78.703125 391.390625 78.554688 391.472656 L 64.867188 399.339844 C 64.800781 399.378906 64.726562 399.398438 64.652344 399.398438 Z M 64.652344 399.398438 " fill-opacity="1" fill-rule="nonzero"/></g><g clip-path="url(#934fa6ea94)"><path fill="#000000" d="M 64.652344 399.398438 C 64.570312 399.398438 64.496094 399.375 64.429688 399.335938 L 51.804688 391.632812 C 51.667969 391.546875 51.601562 391.425781 51.601562 391.265625 L 51.601562 372.328125 C 51.601562 372.207031 51.644531 372.109375 51.726562 372.023438 C 51.808594 371.941406 51.910156 371.898438 52.03125 371.898438 C 52.148438 371.898438 52.25 371.941406 52.332031 372.023438 C 52.417969 372.109375 52.457031 372.207031 52.457031 372.328125 L 52.457031 391.027344 L 64.875 398.601562 C 65.058594 398.714844 65.125 398.875 65.066406 399.085938 C 65.003906 399.292969 64.867188 399.398438 64.652344 399.398438 Z M 64.652344 399.398438 " fill-opacity="1" fill-rule="nonzero"/></g><path fill="#000000" d="M 76.0625 371.71875 L 76.058594 371.71875 C 75.9375 371.71875 75.839844 371.675781 75.753906 371.589844 C 75.671875 371.503906 75.632812 371.402344 75.632812 371.285156 L 75.976562 344.625 C 75.976562 344.507812 76.019531 344.40625 76.101562 344.324219 C 76.1875 344.242188 76.285156 344.203125 76.402344 344.203125 L 76.410156 344.203125 C 76.527344 344.203125 76.628906 344.246094 76.710938 344.332031 C 76.792969 344.414062 76.832031 344.515625 76.832031 344.636719 L 76.492188 371.296875 C 76.488281 371.414062 76.449219 371.511719 76.363281 371.597656 C 76.28125 371.679688 76.179688 371.71875 76.0625 371.71875 Z M 76.0625 371.71875 " fill-opacity="1" fill-rule="nonzero"/><path fill="#000000" d="M 89.46875 385.8125 C 89.390625 385.8125 89.316406 385.792969 89.246094 385.75 L 77.84375 378.839844 C 77.742188 378.777344 77.675781 378.6875 77.648438 378.574219 C 77.621094 378.460938 77.636719 378.351562 77.699219 378.25 C 77.761719 378.148438 77.847656 378.085938 77.964844 378.054688 C 78.078125 378.027344 78.1875 378.046875 78.289062 378.105469 L 89.691406 385.019531 C 89.878906 385.128906 89.941406 385.292969 89.882812 385.5 C 89.824219 385.707031 89.6875 385.8125 89.46875 385.8125 Z M 89.46875 385.8125 " fill-opacity="1" fill-rule="nonzero"/><path fill="#000000" d="M 81.84375 337.128906 C 80.460938 337.152344 79.1875 336.789062 78.027344 336.03125 C 73.398438 332.921875 73.847656 324.144531 79.023438 316.464844 C 81.507812 312.777344 84.703125 309.878906 88.015625 308.304688 C 91.402344 306.691406 94.523438 306.648438 96.800781 308.175781 C 101.425781 311.285156 100.976562 320.0625 95.800781 327.738281 C 91.867188 333.578125 86.3125 337.128906 81.84375 337.128906 Z M 92.941406 307.917969 C 91.335938 307.964844 89.816406 308.351562 88.382812 309.078125 C 85.207031 310.589844 82.136719 313.382812 79.734375 316.945312 C 74.824219 324.230469 74.269531 332.472656 78.503906 335.320312 C 82.742188 338.164062 90.179688 334.546875 95.09375 327.261719 C 100.003906 319.972656 100.554688 311.730469 96.320312 308.886719 C 95.292969 308.214844 94.167969 307.894531 92.941406 307.917969 Z M 95.445312 327.5 Z M 95.445312 327.5 " fill-opacity="1" fill-rule="nonzero"/><path fill="#000000" d="M 83.140625 333.5 C 82.246094 333.515625 81.421875 333.28125 80.675781 332.789062 C 79.109375 331.738281 78.394531 329.65625 78.664062 326.9375 C 78.921875 324.3125 80.074219 321.375 81.898438 318.664062 C 83.726562 315.953125 86.019531 313.785156 88.359375 312.554688 C 90.78125 311.28125 92.976562 311.160156 94.546875 312.210938 C 97.746094 314.363281 97.210938 320.570312 93.320312 326.339844 C 91.492188 329.046875 89.199219 331.21875 86.863281 332.449219 C 85.707031 333.101562 84.46875 333.453125 83.140625 333.5 Z M 92.078125 312.359375 C 90.890625 312.40625 89.785156 312.722656 88.757812 313.3125 C 86.542969 314.476562 84.359375 316.546875 82.609375 319.140625 C 80.859375 321.738281 79.761719 324.535156 79.515625 327.023438 C 79.277344 329.414062 79.859375 331.210938 81.15625 332.078125 C 82.449219 332.949219 84.332031 332.8125 86.464844 331.691406 C 88.679688 330.527344 90.863281 328.457031 92.613281 325.859375 C 96.171875 320.578125 96.824219 314.773438 94.066406 312.921875 C 93.460938 312.53125 92.796875 312.339844 92.078125 312.359375 Z M 92.078125 312.359375 " fill-opacity="1" fill-rule="nonzero"/><g clip-path="url(#1736d7bfc3)"><path fill="#000000" d="M 78.035156 335.9375 C 77.945312 335.9375 77.863281 335.914062 77.789062 335.859375 C 77.289062 335.503906 76.824219 335.15625 76.332031 334.789062 C 75.796875 334.390625 75.246094 333.980469 74.625 333.535156 C 70.011719 330.253906 70.453125 321.664062 75.632812 313.980469 C 78.117188 310.292969 81.3125 307.394531 84.625 305.816406 C 88.011719 304.207031 91.132812 304.164062 93.410156 305.691406 C 94.082031 306.144531 94.78125 306.671875 95.460938 307.183594 C 95.90625 307.519531 96.371094 307.871094 96.808594 308.183594 C 96.90625 308.253906 96.964844 308.347656 96.984375 308.464844 C 97.003906 308.578125 96.976562 308.6875 96.910156 308.78125 C 96.839844 308.878906 96.746094 308.9375 96.628906 308.953125 C 96.511719 308.972656 96.40625 308.949219 96.308594 308.878906 C 95.863281 308.558594 95.394531 308.207031 94.945312 307.867188 C 94.273438 307.363281 93.582031 306.839844 92.929688 306.402344 C 90.914062 305.046875 88.097656 305.113281 84.992188 306.589844 C 81.816406 308.101562 78.746094 310.894531 76.34375 314.457031 C 71.507812 321.632812 70.960938 329.878906 75.125 332.839844 C 75.753906 333.289062 76.308594 333.703125 76.847656 334.105469 C 77.335938 334.46875 77.796875 334.8125 78.285156 335.164062 C 78.457031 335.285156 78.507812 335.445312 78.445312 335.640625 C 78.378906 335.839844 78.246094 335.9375 78.035156 335.9375 Z M 78.035156 335.9375 " fill-opacity="1" fill-rule="nonzero"/></g><path fill="#000000" d="M 90.59375 308.238281 C 90.519531 308.238281 90.449219 308.21875 90.382812 308.183594 L 86.316406 305.890625 C 86.21875 305.832031 86.15625 305.746094 86.128906 305.632812 C 86.101562 305.523438 86.113281 305.417969 86.171875 305.316406 C 86.226562 305.21875 86.308594 305.152344 86.421875 305.117188 C 86.53125 305.085938 86.636719 305.09375 86.738281 305.144531 L 90.804688 307.4375 C 91 307.546875 91.066406 307.707031 91.011719 307.917969 C 90.953125 308.132812 90.816406 308.238281 90.59375 308.238281 Z M 90.59375 308.238281 " fill-opacity="1" fill-rule="nonzero"/><path fill="#000000" d="M 86.117188 310.304688 C 86.035156 310.304688 85.960938 310.28125 85.890625 310.238281 L 82.1875 307.960938 C 82.085938 307.898438 82.023438 307.808594 81.996094 307.695312 C 81.96875 307.578125 81.984375 307.472656 82.046875 307.371094 C 82.109375 307.269531 82.199219 307.207031 82.316406 307.179688 C 82.429688 307.152344 82.539062 307.167969 82.640625 307.230469 L 86.339844 309.511719 C 86.523438 309.625 86.585938 309.785156 86.527344 309.992188 C 86.46875 310.199219 86.332031 310.304688 86.117188 310.304688 Z M 86.117188 310.304688 " fill-opacity="1" fill-rule="nonzero"/><path fill="#000000" d="M 82.746094 313.054688 C 82.65625 313.054688 82.578125 313.03125 82.503906 312.980469 L 78.996094 310.613281 C 78.902344 310.546875 78.84375 310.457031 78.824219 310.339844 C 78.804688 310.226562 78.824219 310.121094 78.890625 310.027344 C 78.957031 309.929688 79.046875 309.871094 79.160156 309.847656 C 79.273438 309.824219 79.378906 309.84375 79.476562 309.90625 L 82.984375 312.273438 C 83.160156 312.390625 83.21875 312.550781 83.15625 312.753906 C 83.09375 312.953125 82.957031 313.054688 82.746094 313.054688 Z M 82.746094 313.054688 " fill-opacity="1" fill-rule="nonzero"/><path fill="#000000" d="M 79.65625 316.757812 C 79.570312 316.757812 79.488281 316.734375 79.414062 316.683594 L 75.953125 314.285156 C 75.859375 314.21875 75.796875 314.125 75.777344 314.011719 C 75.757812 313.894531 75.78125 313.785156 75.847656 313.691406 C 75.914062 313.59375 76.007812 313.535156 76.121094 313.511719 C 76.238281 313.492188 76.347656 313.515625 76.445312 313.582031 L 79.902344 315.980469 C 80.074219 316.097656 80.128906 316.257812 80.066406 316.457031 C 80.003906 316.660156 79.867188 316.757812 79.65625 316.757812 Z M 79.65625 316.757812 " fill-opacity="1" fill-rule="nonzero"/><path fill="#000000" d="M 77.320312 320.332031 C 77.230469 320.332031 77.148438 320.308594 77.074219 320.257812 L 73.808594 317.992188 C 73.710938 317.925781 73.652344 317.832031 73.628906 317.714844 C 73.609375 317.601562 73.632812 317.492188 73.699219 317.398438 C 73.765625 317.300781 73.859375 317.242188 73.976562 317.21875 C 74.089844 317.199219 74.199219 317.222656 74.296875 317.289062 L 77.566406 319.550781 C 77.738281 319.671875 77.792969 319.832031 77.730469 320.03125 C 77.667969 320.230469 77.53125 320.332031 77.320312 320.332031 Z M 77.320312 320.332031 " fill-opacity="1" fill-rule="nonzero"/><path fill="#000000" d="M 75.78125 324.925781 C 75.691406 324.925781 75.609375 324.902344 75.535156 324.851562 L 72.148438 322.503906 C 72.050781 322.4375 71.992188 322.34375 71.96875 322.226562 C 71.949219 322.113281 71.972656 322.003906 72.039062 321.90625 C 72.105469 321.8125 72.199219 321.75 72.316406 321.730469 C 72.433594 321.710938 72.539062 321.734375 72.636719 321.800781 L 76.023438 324.148438 C 76.199219 324.269531 76.253906 324.425781 76.191406 324.628906 C 76.128906 324.828125 75.992188 324.929688 75.78125 324.925781 Z M 75.78125 324.925781 " fill-opacity="1" fill-rule="nonzero"/><path fill="#000000" d="M 75.242188 329.554688 C 75.15625 329.554688 75.074219 329.53125 75 329.480469 L 71.652344 327.160156 C 71.550781 327.09375 71.488281 327.003906 71.46875 326.882812 C 71.445312 326.765625 71.46875 326.660156 71.535156 326.558594 C 71.605469 326.460938 71.699219 326.402344 71.816406 326.382812 C 71.933594 326.363281 72.042969 326.386719 72.140625 326.457031 L 75.488281 328.777344 C 75.660156 328.894531 75.714844 329.054688 75.652344 329.257812 C 75.589844 329.457031 75.453125 329.558594 75.242188 329.554688 Z M 75.242188 329.554688 " fill-opacity="1" fill-rule="nonzero"/><g clip-path="url(#844e2f46d7)"><g clip-path="url(#9bdf9d87ec)"><path fill="#000000" d="M 88.023438 317.128906 C 87.699219 317.339844 87.523438 317.640625 87.5 318.027344 C 87.496094 318.113281 87.5 318.195312 87.5 318.273438 C 87.5 318.363281 87.496094 318.371094 87.417969 318.429688 C 87.097656 318.675781 86.816406 318.960938 86.570312 319.285156 C 86.214844 319.742188 85.972656 320.257812 85.84375 320.824219 C 85.765625 321.191406 85.75 321.558594 85.804688 321.929688 C 85.816406 322.246094 85.953125 322.496094 86.210938 322.679688 C 86.34375 322.75 86.480469 322.800781 86.625 322.828125 C 86.996094 322.886719 87.371094 322.875 87.738281 322.796875 C 87.980469 322.742188 88.222656 322.738281 88.46875 322.773438 C 88.671875 322.804688 88.785156 322.921875 88.8125 323.125 C 88.835938 323.265625 88.84375 323.40625 88.835938 323.546875 C 88.808594 323.957031 88.644531 324.300781 88.34375 324.582031 C 88.222656 324.695312 88.089844 324.796875 87.941406 324.882812 C 87.8125 324.960938 87.675781 325.015625 87.527344 325.046875 C 87.410156 325.089844 87.296875 325.082031 87.1875 325.023438 C 87.078125 324.964844 87.007812 324.875 86.976562 324.753906 C 86.945312 324.648438 86.921875 324.542969 86.910156 324.433594 C 86.894531 324.316406 86.808594 324.277344 86.699219 324.332031 C 86.667969 324.347656 86.636719 324.367188 86.605469 324.386719 L 85.90625 324.789062 C 85.859375 324.8125 85.8125 324.839844 85.765625 324.871094 C 85.605469 324.957031 85.535156 325.089844 85.550781 325.269531 C 85.554688 325.308594 85.558594 325.34375 85.5625 325.386719 C 85.570312 325.625 85.628906 325.851562 85.730469 326.070312 C 85.816406 326.238281 85.945312 326.363281 86.113281 326.453125 C 86.28125 326.539062 86.460938 326.570312 86.648438 326.542969 C 86.84375 326.539062 87.035156 326.5 87.222656 326.429688 C 87.519531 326.328125 87.519531 326.257812 87.523438 326.429688 L 87.523438 326.589844 C 87.523438 326.921875 87.757812 327.054688 88.046875 326.890625 L 88.054688 326.886719 C 88.378906 326.671875 88.550781 326.375 88.574219 325.988281 L 88.574219 325.789062 C 88.574219 325.675781 88.574219 325.671875 88.675781 325.59375 C 88.910156 325.402344 89.125 325.191406 89.316406 324.957031 C 89.730469 324.472656 90.007812 323.917969 90.144531 323.296875 C 90.207031 323.011719 90.226562 322.722656 90.210938 322.429688 C 90.203125 322.179688 90.144531 321.941406 90.039062 321.714844 C 89.890625 321.445312 89.664062 321.292969 89.355469 321.257812 C 89 321.207031 88.648438 321.21875 88.296875 321.292969 C 88.023438 321.347656 87.75 321.351562 87.476562 321.296875 C 87.316406 321.265625 87.21875 321.167969 87.183594 321.007812 C 87.117188 320.722656 87.132812 320.441406 87.230469 320.167969 C 87.304688 319.910156 87.441406 319.695312 87.640625 319.515625 C 87.738281 319.429688 87.839844 319.355469 87.953125 319.289062 C 87.984375 319.269531 88.015625 319.253906 88.046875 319.238281 C 88.375 319.078125 88.617188 319.121094 88.742188 319.414062 C 88.785156 319.523438 88.8125 319.632812 88.824219 319.75 C 88.839844 319.90625 88.929688 319.933594 89.058594 319.859375 L 89.070312 319.851562 C 89.117188 319.820312 89.167969 319.792969 89.21875 319.765625 C 89.316406 319.710938 89.414062 319.65625 89.515625 319.597656 L 89.515625 319.59375 C 89.621094 319.535156 89.726562 319.472656 89.832031 319.414062 C 89.886719 319.382812 89.941406 319.351562 89.992188 319.320312 C 90.125 319.246094 90.191406 319.132812 90.183594 318.980469 C 90.171875 318.820312 90.152344 318.660156 90.121094 318.503906 C 90.097656 318.308594 90.019531 318.140625 89.890625 317.992188 C 89.761719 317.847656 89.601562 317.746094 89.414062 317.695312 C 89.148438 317.644531 88.890625 317.664062 88.636719 317.753906 C 88.589844 317.765625 88.550781 317.742188 88.550781 317.683594 L 88.550781 317.429688 C 88.550781 317.097656 88.316406 316.964844 88.023438 317.128906 " fill-opacity="1" fill-rule="nonzero"/></g></g></svg>