<svg xmlns="http://www.w3.org/2000/svg" xmlns:xlink="http://www.w3.org/1999/xlink" width="1920" zoomAndPan="magnify" viewBox="0 0 1440 809.999993" height="1080" preserveAspectRatio="xMidYMid meet" version="1.0"><defs><filter x="0%" y="0%" width="100%" height="100%" id="22ed3a1866"><feColorMatrix values="0 0 0 0 1 0 0 0 0 1 0 0 0 0 1 0 0 0 1 0" color-interpolation-filters="sRGB"/></filter><mask id="121110c502"><g filter="url(#22ed3a1866)"><rect x="-144" width="1728" fill="#000000" y="-80.999999" height="971.999992" fill-opacity="0.94"/></g></mask><clipPath id="3128010d89"><path d="M 0.863281 1.070312 L 630.863281 1.070312 L 630.863281 628.800781 L 0.863281 628.800781 Z M 0.863281 1.070312 " clip-rule="nonzero"/></clipPath><clipPath id="b986ed4a2c"><path d="M 606.644531 615.554688 L 630.515625 615.554688 L 630.515625 619.136719 L 606.644531 619.136719 Z M 336.570312 626.789062 L 339.667969 628.578125 L 351.605469 607.90625 L 348.503906 606.113281 Z M 281.671875 626.789062 L 284.769531 628.578125 L 296.707031 607.90625 L 293.605469 606.113281 Z M 222.605469 620.363281 L 224.003906 623.660156 L 245.976562 614.332031 L 244.578125 611.035156 Z M 167.457031 619.136719 L 191.324219 619.136719 L 191.324219 615.554688 L 167.457031 615.554688 Z M 112.808594 614.332031 L 134.78125 623.65625 L 136.179688 620.359375 L 114.207031 611.035156 Z M 59.890625 610.171875 L 76.765625 627.050781 L 79.296875 624.519531 L 62.421875 607.640625 Z M 7.179688 607.90625 L 19.113281 628.578125 L 22.210938 626.789062 L 10.277344 606.113281 Z M 389.28125 569.617188 L 391.8125 572.148438 L 408.691406 555.269531 L 406.160156 552.738281 Z M 339.269531 573.507812 L 342.726562 574.433594 L 348.90625 551.378906 L 345.445312 550.453125 Z M 283.058594 572.839844 L 286.375 574.183594 L 295.316406 552.050781 L 292 550.707031 Z M 224.585938 569.617188 L 227.117188 572.148438 L 243.996094 555.269531 L 241.464844 552.738281 Z M 167.457031 564.234375 L 191.324219 564.234375 L 191.324219 560.652344 L 167.457031 560.652344 Z M 114.789062 555.269531 L 131.667969 572.148438 L 134.199219 569.617188 L 117.320312 552.738281 Z M 63.464844 552.050781 L 72.40625 574.183594 L 75.722656 572.839844 L 66.78125 550.707031 Z M 9.878906 551.378906 L 16.054688 574.4375 L 19.515625 573.511719 L 13.335938 550.453125 Z M 391.46875 516.984375 L 394.566406 518.773438 L 406.503906 498.101562 L 403.402344 496.3125 Z M 342.296875 519.476562 L 345.878906 519.476562 L 345.878906 495.609375 L 342.296875 495.609375 Z M 287.398438 519.476562 L 290.980469 519.476562 L 290.980469 495.609375 L 287.398438 495.609375 Z M 232.5 519.476562 L 236.078125 519.476562 L 236.078125 495.609375 L 232.5 495.609375 Z M 167.457031 509.332031 L 191.324219 509.332031 L 191.324219 505.75 L 167.457031 505.75 Z M 122.703125 519.476562 L 126.285156 519.476562 L 126.285156 495.609375 L 122.703125 495.609375 Z M 67.804688 519.476562 L 71.382812 519.476562 L 71.382812 495.609375 L 67.804688 495.609375 Z M 12.90625 519.476562 L 16.484375 519.476562 L 16.484375 495.609375 L 12.90625 495.609375 Z M 606.644531 454.429688 L 630.515625 454.429688 L 630.515625 450.851562 L 606.644531 450.851562 Z M 551.746094 454.429688 L 575.617188 454.429688 L 575.617188 450.851562 L 551.746094 450.851562 Z M 496.71875 452.390625 L 497.175781 455.941406 L 520.851562 452.894531 L 520.394531 449.34375 Z M 442.757812 457.308594 L 444.617188 460.371094 L 465.011719 447.972656 L 463.152344 444.914062 Z M 394.167969 463.707031 L 397.625 464.632812 L 403.804688 441.574219 L 400.34375 440.648438 Z M 339.269531 441.574219 L 345.445312 464.632812 L 348.90625 463.707031 L 342.726562 440.648438 Z M 283.425781 442.039062 L 291.589844 464.46875 L 294.953125 463.242188 L 286.789062 440.8125 Z M 224.585938 445.46875 L 241.464844 462.347656 L 243.996094 459.816406 L 227.117188 442.9375 Z M 167.457031 454.429688 L 191.324219 454.429688 L 191.324219 450.851562 L 167.457031 450.851562 Z M 114.789062 459.816406 L 117.320312 462.347656 L 134.199219 445.46875 L 131.667969 442.9375 Z M 63.464844 463.035156 L 66.78125 464.378906 L 75.722656 442.246094 L 72.40625 440.902344 Z M 9.878906 463.707031 L 13.335938 464.632812 L 19.515625 441.574219 L 16.054688 440.648438 Z M 394.167969 386.675781 L 400.34375 409.730469 L 403.804688 408.804688 L 397.625 385.75 Z M 336.902344 388.042969 L 348.109375 409.117188 L 351.273438 407.4375 L 340.066406 386.359375 Z M 279.484375 390.566406 L 296.363281 407.445312 L 298.894531 404.914062 L 282.015625 388.035156 Z M 222.605469 394.722656 L 244.578125 404.050781 L 245.976562 400.753906 L 224.003906 391.425781 Z M 167.457031 399.53125 L 191.324219 399.53125 L 191.324219 395.949219 L 167.457031 395.949219 Z M 112.808594 400.753906 L 114.207031 404.050781 L 136.179688 394.722656 L 134.78125 391.425781 Z M 59.890625 404.914062 L 62.421875 407.445312 L 79.300781 390.566406 L 76.769531 388.035156 Z M 7.179688 407.179688 L 10.277344 408.972656 L 22.210938 388.296875 L 19.113281 386.507812 Z M 391.804688 333.140625 L 403.011719 354.214844 L 406.171875 352.535156 L 394.964844 331.460938 Z M 334.382812 335.664062 L 351.261719 352.542969 L 353.792969 350.011719 L 336.914062 333.132812 Z M 277.957031 338.417969 L 298.628906 350.355469 L 300.417969 347.253906 L 279.746094 335.320312 Z M 222.296875 341.476562 L 245.355469 347.65625 L 246.28125 344.199219 L 223.226562 338.019531 Z M 167.457031 344.628906 L 191.324219 344.628906 L 191.324219 341.046875 L 167.457031 341.046875 Z M 112.5 344.199219 L 113.429688 347.65625 L 136.484375 341.476562 L 135.558594 338.019531 Z M 58.363281 347.253906 L 60.152344 350.355469 L 80.824219 338.417969 L 79.035156 335.320312 Z M 4.992188 350.011719 L 7.523438 352.542969 L 24.398438 335.664062 L 21.867188 333.132812 Z M 606.644531 289.726562 L 630.515625 289.726562 L 630.515625 286.144531 L 606.644531 286.144531 Z M 551.625 287.363281 L 575.039062 292.019531 L 575.738281 288.507812 L 552.324219 283.851562 Z M 497.074219 285.023438 L 519.125 294.15625 L 520.496094 290.851562 L 498.445312 281.714844 Z M 442.792969 283.175781 L 463.089844 295.738281 L 464.976562 292.695312 L 444.679688 280.132812 Z M 389.28125 280.761719 L 406.160156 297.640625 L 408.691406 295.109375 L 391.8125 278.230469 Z M 333.683594 281.816406 L 352.234375 296.839844 L 354.488281 294.054688 L 335.9375 279.035156 Z M 278.203125 282.9375 L 298.222656 295.9375 L 300.171875 292.933594 L 280.152344 279.933594 Z M 222.84375 284.113281 L 244.109375 294.949219 L 245.734375 291.757812 L 224.46875 280.921875 Z M 167.609375 285.328125 L 189.890625 293.882812 L 191.171875 290.539062 L 168.890625 281.988281 Z M 112.5 286.574219 L 135.558594 292.753906 L 136.484375 289.296875 L 113.429688 283.117188 Z M 57.527344 287.835938 L 81.101562 291.570312 L 81.660156 288.035156 L 58.085938 284.300781 Z M 2.761719 289.726562 L 26.628906 289.726562 L 26.628906 286.144531 L 2.761719 286.144531 Z M 606.9375 236.203125 L 608.378906 239.480469 L 630.226562 229.863281 L 628.78125 226.585938 Z M 551.746094 234.824219 L 575.617188 234.824219 L 575.617188 231.242188 L 551.746094 231.242188 Z M 497.308594 229.289062 L 518.652344 239.980469 L 520.253906 236.777344 L 498.914062 226.089844 Z M 444.179688 225.859375 L 461.058594 242.738281 L 463.589844 240.207031 L 446.710938 223.328125 Z M 334.382812 225.859375 L 351.261719 242.738281 L 353.792969 240.207031 L 336.914062 223.328125 Z M 607.050781 181.691406 L 608.601562 184.917969 L 630.113281 174.570312 L 628.558594 171.34375 Z M 551.746094 179.921875 L 575.617188 179.921875 L 575.617188 176.339844 L 551.746094 176.339844 Z M 497.769531 173.203125 L 517.867188 186.074219 L 519.800781 183.0625 L 499.699219 170.1875 Z M 444.777344 170.214844 L 460.273438 188.375 L 462.996094 186.050781 L 447.5 167.894531 Z M 279.484375 170.957031 L 296.363281 187.835938 L 298.894531 185.304688 L 282.015625 168.425781 Z M 606.644531 125.019531 L 630.515625 125.019531 L 630.515625 121.4375 L 606.644531 121.4375 Z M 551.746094 125.019531 L 575.617188 125.019531 L 575.617188 121.4375 L 551.746094 121.4375 Z M 496.847656 125.019531 L 520.71875 125.019531 L 520.71875 121.4375 L 496.847656 121.4375 Z M 451.410156 111.417969 L 452.785156 135.25 L 456.359375 135.042969 L 454.984375 111.210938 Z M 224.585938 116.054688 L 241.464844 132.933594 L 243.996094 130.402344 L 227.117188 113.523438 Z M 57.660156 125.019531 L 81.527344 125.019531 L 81.527344 121.4375 L 57.660156 121.4375 Z M 2.761719 125.019531 L 26.628906 125.019531 L 26.628906 121.4375 L 2.761719 121.4375 Z M 606.945312 65.125 L 628.765625 74.808594 L 630.21875 71.535156 L 608.398438 61.851562 Z M 551.746094 70.121094 L 575.617188 70.121094 L 575.617188 66.539062 L 551.746094 66.539062 Z M 499.171875 75.628906 L 501.738281 78.125 L 518.394531 61.03125 L 515.832031 58.53125 Z M 447.199219 78.378906 L 450.441406 79.894531 L 460.570312 58.28125 L 457.328125 56.761719 Z M 227.378906 58.4375 L 237.996094 79.8125 L 241.203125 78.222656 L 230.585938 56.84375 Z M 173.441406 57.828125 L 182 80.113281 L 185.34375 78.828125 L 176.785156 56.546875 Z M 118.210938 58.023438 L 127.476562 80.023438 L 130.777344 78.632812 L 121.507812 56.636719 Z M 57.546875 67.664062 L 80.917969 72.503906 L 81.644531 68.996094 L 58.269531 64.15625 Z M 2.632812 68.046875 L 26.144531 72.136719 L 26.761719 68.609375 L 3.246094 64.519531 Z M 606.609375 14.9375 L 607.578125 18.382812 L 630.554688 11.914062 L 629.582031 8.46875 Z M 552.679688 18.382812 L 554.621094 21.394531 L 574.683594 8.46875 L 572.746094 5.457031 Z M 501.085938 22.722656 L 504.152344 24.570312 L 516.480469 4.132812 L 513.414062 2.28125 Z M 449.453125 24.652344 L 452.945312 25.457031 L 458.316406 2.199219 L 454.824219 1.394531 Z M 231.007812 1.8125 L 234.019531 25.492188 L 237.574219 25.039062 L 234.558594 1.359375 Z M 177.601562 25.363281 L 181.183594 25.363281 L 181.183594 1.492188 L 177.601562 1.492188 Z M 122.652344 25.355469 L 126.234375 25.367188 L 126.335938 1.5 L 122.753906 1.484375 Z M 65.175781 2.195312 L 70.523438 25.460938 L 74.015625 24.660156 L 68.664062 1.394531 Z M 4.601562 6.8125 L 22.402344 22.710938 L 24.789062 20.042969 L 6.988281 4.140625 Z M 606.644531 564.234375 L 630.515625 564.234375 L 630.515625 560.652344 L 606.644531 560.652344 Z M 551.625 563.015625 L 552.324219 566.53125 L 575.738281 561.871094 L 575.039062 558.359375 Z M 497.074219 565.359375 L 498.445312 568.667969 L 520.496094 559.53125 L 519.125 556.222656 Z M 442.792969 567.203125 L 444.679688 570.246094 L 464.976562 557.683594 L 463.089844 554.640625 Z M 551.519531 619.136719 L 575.386719 619.136719 L 575.386719 615.554688 L 551.519531 615.554688 Z M 496.5 617.917969 L 497.199219 621.429688 L 520.609375 616.773438 L 519.910156 613.261719 Z M 441.945312 620.261719 L 443.316406 623.566406 L 465.367188 614.433594 L 463.996094 611.125 Z M 387.667969 622.105469 L 389.550781 625.148438 L 409.847656 612.585938 L 407.964844 609.542969 Z M 390.082031 227.398438 L 405.105469 245.949219 L 407.886719 243.695312 L 392.867188 225.144531 Z M 390.984375 171.609375 L 403.984375 191.628906 L 406.988281 189.679688 L 393.988281 169.660156 Z M 391.972656 115.921875 L 402.808594 137.191406 L 406 135.566406 L 395.164062 114.296875 Z M 393.039062 60.339844 L 401.589844 82.625 L 404.933594 81.34375 L 396.382812 59.058594 Z M 394.167969 4.875 L 400.34375 27.929688 L 403.804688 27.003906 L 397.625 3.949219 Z M 335.183594 172.058594 L 350.207031 190.609375 L 352.992188 188.355469 L 337.96875 169.804688 Z M 336.085938 116.269531 L 349.085938 136.289062 L 352.089844 134.339844 L 339.089844 114.320312 Z M 337.074219 60.582031 L 347.910156 81.851562 L 351.101562 80.226562 L 340.265625 58.957031 Z M 338.140625 5 L 346.691406 27.285156 L 350.035156 26.003906 L 341.484375 3.71875 Z M 280.289062 115.761719 L 295.308594 134.3125 L 298.09375 132.058594 L 283.070312 113.507812 Z M 281.1875 59.972656 L 294.1875 79.992188 L 297.191406 78.042969 L 284.191406 58.023438 Z M 282.175781 4.285156 L 293.011719 25.554688 L 296.203125 23.925781 L 285.367188 2.660156 Z M 277.023438 226.914062 L 295.574219 241.9375 L 297.828125 239.152344 L 279.277344 224.132812 Z M 221.542969 228.035156 L 241.558594 241.035156 L 243.511719 238.035156 L 223.492188 225.03125 Z M 166.179688 229.210938 L 187.449219 240.046875 L 189.074219 236.855469 L 167.804688 226.019531 Z M 110.945312 230.429688 L 133.230469 238.984375 L 134.511719 235.640625 L 112.226562 227.085938 Z M 55.839844 231.675781 L 78.894531 237.851562 L 79.820312 234.394531 L 56.765625 228.214844 Z M 0.863281 232.9375 L 24.441406 236.667969 L 25 233.132812 L 1.425781 229.398438 Z M 223.25 172.011719 L 241.800781 187.035156 L 244.054688 184.253906 L 225.503906 169.230469 Z M 167.769531 173.132812 L 187.789062 186.132812 L 189.738281 183.132812 L 169.722656 170.128906 Z M 112.410156 174.308594 L 133.675781 185.144531 L 135.300781 181.957031 L 114.03125 171.117188 Z M 57.175781 175.527344 L 79.457031 184.082031 L 80.738281 180.738281 L 58.457031 172.183594 Z M 2.066406 176.773438 L 25.121094 182.949219 L 26.050781 179.492188 L 2.992188 173.316406 Z M 168.359375 122.035156 L 189.738281 132.65625 L 191.328125 129.449219 L 169.953125 118.828125 Z M 112.882812 126.011719 L 136.558594 129.027344 L 137.011719 125.476562 L 113.332031 122.460938 Z M 444.410156 514.714844 L 446.941406 517.246094 L 463.820312 500.371094 L 461.289062 497.835938 Z M 606.753906 508.113281 L 607.453125 511.625 L 630.863281 506.972656 L 630.164062 503.457031 Z M 552.199219 510.457031 L 553.570312 513.765625 L 575.625 504.628906 L 574.253906 501.320312 Z M 497.921875 512.300781 L 499.808594 515.34375 L 520.105469 502.785156 L 518.21875 499.738281 Z M 606.527344 342.265625 L 629.9375 346.921875 L 630.636719 343.410156 L 607.226562 338.753906 Z M 551.972656 339.925781 L 574.023438 349.058594 L 575.394531 345.753906 L 553.339844 336.617188 Z M 497.695312 338.078125 L 517.992188 350.640625 L 519.875 347.597656 L 499.578125 335.035156 Z M 444.179688 335.664062 L 461.058594 352.542969 L 463.589844 350.011719 L 446.710938 333.132812 Z M 606.644531 399.53125 L 630.515625 399.53125 L 630.515625 395.949219 L 606.644531 395.949219 Z M 551.746094 399.53125 L 575.617188 399.53125 L 575.617188 395.949219 L 551.746094 395.949219 Z M 496.71875 397.992188 L 520.394531 401.039062 L 520.851562 397.488281 L 497.175781 394.441406 Z M 442.757812 393.070312 L 463.152344 405.46875 L 465.011719 402.410156 L 444.617188 390.011719 Z M 442.757812 393.070312 " clip-rule="nonzero"/></clipPath><linearGradient x1="0.00000937524" gradientTransform="matrix(-1.26, 0, 0, -1.260071, 630.864476, 628.577744)" y1="248.881" x2="500" gradientUnits="userSpaceOnUse" y2="248.881" id="988171ff20"><stop stop-opacity="1" stop-color="rgb(99.998474%, 99.998474%, 99.998474%)" offset="0"/><stop stop-opacity="1" stop-color="rgb(99.751282%, 99.642944%, 99.967957%)" offset="0.00390625"/><stop stop-opacity="1" stop-color="rgb(99.505615%, 99.28894%, 99.938965%)" offset="0.0078125"/><stop stop-opacity="1" stop-color="rgb(99.258423%, 98.933411%, 99.908447%)" offset="0.0117188"/><stop stop-opacity="1" stop-color="rgb(99.012756%, 98.577881%, 99.87793%)" offset="0.015625"/><stop stop-opacity="1" stop-color="rgb(98.765564%, 98.222351%, 99.847412%)" offset="0.0195312"/><stop stop-opacity="1" stop-color="rgb(98.519897%, 97.866821%, 99.816895%)" offset="0.0234375"/><stop stop-opacity="1" stop-color="rgb(98.272705%, 97.511292%, 99.786377%)" offset="0.0273438"/><stop stop-opacity="1" stop-color="rgb(98.027039%, 97.155762%, 99.755859%)" offset="0.03125"/><stop stop-opacity="1" stop-color="rgb(97.779846%, 96.800232%, 99.725342%)" offset="0.0351563"/><stop stop-opacity="1" stop-color="rgb(97.53418%, 96.444702%, 99.694824%)" offset="0.0390625"/><stop stop-opacity="1" stop-color="rgb(97.286987%, 96.089172%, 99.664307%)" offset="0.0429687"/><stop stop-opacity="1" stop-color="rgb(97.041321%, 95.733643%, 99.633789%)" offset="0.046875"/><stop stop-opacity="1" stop-color="rgb(96.794128%, 95.378113%, 99.603271%)" offset="0.0507812"/><stop stop-opacity="1" stop-color="rgb(96.548462%, 95.022583%, 99.572754%)" offset="0.0546875"/><stop stop-opacity="1" stop-color="rgb(96.30127%, 94.667053%, 99.542236%)" offset="0.0585937"/><stop stop-opacity="1" stop-color="rgb(96.055603%, 94.311523%, 99.511719%)" offset="0.0625"/><stop stop-opacity="1" stop-color="rgb(95.808411%, 93.955994%, 99.481201%)" offset="0.0664062"/><stop stop-opacity="1" stop-color="rgb(95.562744%, 93.600464%, 99.450684%)" offset="0.0703125"/><stop stop-opacity="1" stop-color="rgb(95.315552%, 93.244934%, 99.420166%)" offset="0.0742187"/><stop stop-opacity="1" stop-color="rgb(95.069885%, 92.889404%, 99.389648%)" offset="0.078125"/><stop stop-opacity="1" stop-color="rgb(94.822693%, 92.533875%, 99.359131%)" offset="0.0820312"/><stop stop-opacity="1" stop-color="rgb(94.577026%, 92.178345%, 99.328613%)" offset="0.0859375"/><stop stop-opacity="1" stop-color="rgb(94.329834%, 91.822815%, 99.298096%)" offset="0.0898437"/><stop stop-opacity="1" stop-color="rgb(94.084167%, 91.467285%, 99.267578%)" offset="0.09375"/><stop stop-opacity="1" stop-color="rgb(93.836975%, 91.111755%, 99.237061%)" offset="0.0976562"/><stop stop-opacity="1" stop-color="rgb(93.591309%, 90.757751%, 99.206543%)" offset="0.101562"/><stop stop-opacity="1" stop-color="rgb(93.344116%, 90.402222%, 99.176025%)" offset="0.105469"/><stop stop-opacity="1" stop-color="rgb(93.096924%, 90.046692%, 99.145508%)" offset="0.109375"/><stop stop-opacity="1" stop-color="rgb(92.849731%, 89.691162%, 99.11499%)" offset="0.113281"/><stop stop-opacity="1" stop-color="rgb(92.604065%, 89.335632%, 99.084473%)" offset="0.117187"/><stop stop-opacity="1" stop-color="rgb(92.356873%, 88.980103%, 99.053955%)" offset="0.121094"/><stop stop-opacity="1" stop-color="rgb(92.111206%, 88.624573%, 99.024963%)" offset="0.125"/><stop stop-opacity="1" stop-color="rgb(91.864014%, 88.269043%, 98.994446%)" offset="0.128906"/><stop stop-opacity="1" stop-color="rgb(91.618347%, 87.913513%, 98.963928%)" offset="0.132813"/><stop stop-opacity="1" stop-color="rgb(91.371155%, 87.557983%, 98.933411%)" offset="0.136719"/><stop stop-opacity="1" stop-color="rgb(91.125488%, 87.202454%, 98.902893%)" offset="0.140625"/><stop stop-opacity="1" stop-color="rgb(90.878296%, 86.846924%, 98.872375%)" offset="0.144531"/><stop stop-opacity="1" stop-color="rgb(90.632629%, 86.491394%, 98.841858%)" offset="0.148438"/><stop stop-opacity="1" stop-color="rgb(90.385437%, 86.135864%, 98.81134%)" offset="0.152344"/><stop stop-opacity="1" stop-color="rgb(90.139771%, 85.780334%, 98.780823%)" offset="0.15625"/><stop stop-opacity="1" stop-color="rgb(89.892578%, 85.424805%, 98.750305%)" offset="0.160156"/><stop stop-opacity="1" stop-color="rgb(89.646912%, 85.069275%, 98.719788%)" offset="0.164062"/><stop stop-opacity="1" stop-color="rgb(89.399719%, 84.713745%, 98.68927%)" offset="0.167969"/><stop stop-opacity="1" stop-color="rgb(89.154053%, 84.358215%, 98.658752%)" offset="0.171875"/><stop stop-opacity="1" stop-color="rgb(88.90686%, 84.002686%, 98.628235%)" offset="0.175781"/><stop stop-opacity="1" stop-color="rgb(88.661194%, 83.647156%, 98.597717%)" offset="0.179687"/><stop stop-opacity="1" stop-color="rgb(88.414001%, 83.291626%, 98.5672%)" offset="0.183594"/><stop stop-opacity="1" stop-color="rgb(88.168335%, 82.936096%, 98.536682%)" offset="0.1875"/><stop stop-opacity="1" stop-color="rgb(87.921143%, 82.580566%, 98.506165%)" offset="0.191406"/><stop stop-opacity="1" stop-color="rgb(87.675476%, 82.225037%, 98.475647%)" offset="0.195312"/><stop stop-opacity="1" stop-color="rgb(87.428284%, 81.869507%, 98.445129%)" offset="0.199219"/><stop stop-opacity="1" stop-color="rgb(87.182617%, 81.515503%, 98.414612%)" offset="0.203125"/><stop stop-opacity="1" stop-color="rgb(86.935425%, 81.159973%, 98.384094%)" offset="0.207031"/><stop stop-opacity="1" stop-color="rgb(86.689758%, 80.804443%, 98.353577%)" offset="0.210937"/><stop stop-opacity="1" stop-color="rgb(86.442566%, 80.448914%, 98.323059%)" offset="0.214844"/><stop stop-opacity="1" stop-color="rgb(86.195374%, 80.093384%, 98.292542%)" offset="0.21875"/><stop stop-opacity="1" stop-color="rgb(85.948181%, 79.737854%, 98.262024%)" offset="0.222656"/><stop stop-opacity="1" stop-color="rgb(85.702515%, 79.382324%, 98.231506%)" offset="0.226562"/><stop stop-opacity="1" stop-color="rgb(85.455322%, 79.026794%, 98.200989%)" offset="0.230469"/><stop stop-opacity="1" stop-color="rgb(85.209656%, 78.671265%, 98.170471%)" offset="0.234375"/><stop stop-opacity="1" stop-color="rgb(84.962463%, 78.315735%, 98.139954%)" offset="0.238281"/><stop stop-opacity="1" stop-color="rgb(84.716797%, 77.960205%, 98.109436%)" offset="0.242187"/><stop stop-opacity="1" stop-color="rgb(84.469604%, 77.604675%, 98.078918%)" offset="0.246094"/><stop stop-opacity="1" stop-color="rgb(84.223938%, 77.249146%, 98.049927%)" offset="0.25"/><stop stop-opacity="1" stop-color="rgb(83.976746%, 76.893616%, 98.019409%)" offset="0.253906"/><stop stop-opacity="1" stop-color="rgb(83.731079%, 76.538086%, 97.988892%)" offset="0.257812"/><stop stop-opacity="1" stop-color="rgb(83.483887%, 76.182556%, 97.958374%)" offset="0.261719"/><stop stop-opacity="1" stop-color="rgb(83.23822%, 75.827026%, 97.927856%)" offset="0.265625"/><stop stop-opacity="1" stop-color="rgb(82.991028%, 75.471497%, 97.897339%)" offset="0.269531"/><stop stop-opacity="1" stop-color="rgb(82.745361%, 75.115967%, 97.866821%)" offset="0.273437"/><stop stop-opacity="1" stop-color="rgb(82.498169%, 74.760437%, 97.836304%)" offset="0.277344"/><stop stop-opacity="1" stop-color="rgb(82.252502%, 74.404907%, 97.805786%)" offset="0.28125"/><stop stop-opacity="1" stop-color="rgb(82.00531%, 74.049377%, 97.775269%)" offset="0.285156"/><stop stop-opacity="1" stop-color="rgb(81.759644%, 73.693848%, 97.744751%)" offset="0.289062"/><stop stop-opacity="1" stop-color="rgb(81.512451%, 73.338318%, 97.714233%)" offset="0.292969"/><stop stop-opacity="1" stop-color="rgb(81.266785%, 72.984314%, 97.683716%)" offset="0.296875"/><stop stop-opacity="1" stop-color="rgb(81.019592%, 72.628784%, 97.653198%)" offset="0.300781"/><stop stop-opacity="1" stop-color="rgb(80.773926%, 72.273254%, 97.622681%)" offset="0.304687"/><stop stop-opacity="1" stop-color="rgb(80.526733%, 71.917725%, 97.592163%)" offset="0.308594"/><stop stop-opacity="1" stop-color="rgb(80.281067%, 71.562195%, 97.561646%)" offset="0.3125"/><stop stop-opacity="1" stop-color="rgb(80.033875%, 71.206665%, 97.531128%)" offset="0.316406"/><stop stop-opacity="1" stop-color="rgb(79.788208%, 70.851135%, 97.50061%)" offset="0.320312"/><stop stop-opacity="1" stop-color="rgb(79.541016%, 70.495605%, 97.470093%)" offset="0.324219"/><stop stop-opacity="1" stop-color="rgb(79.293823%, 70.140076%, 97.439575%)" offset="0.328125"/><stop stop-opacity="1" stop-color="rgb(79.046631%, 69.784546%, 97.409058%)" offset="0.332031"/><stop stop-opacity="1" stop-color="rgb(78.800964%, 69.429016%, 97.37854%)" offset="0.335938"/><stop stop-opacity="1" stop-color="rgb(78.553772%, 69.073486%, 97.348022%)" offset="0.339844"/><stop stop-opacity="1" stop-color="rgb(78.308105%, 68.717957%, 97.317505%)" offset="0.34375"/><stop stop-opacity="1" stop-color="rgb(78.060913%, 68.362427%, 97.286987%)" offset="0.347656"/><stop stop-opacity="1" stop-color="rgb(77.815247%, 68.006897%, 97.25647%)" offset="0.351562"/><stop stop-opacity="1" stop-color="rgb(77.568054%, 67.651367%, 97.225952%)" offset="0.355469"/><stop stop-opacity="1" stop-color="rgb(77.322388%, 67.295837%, 97.195435%)" offset="0.359375"/><stop stop-opacity="1" stop-color="rgb(77.075195%, 66.940308%, 97.164917%)" offset="0.363281"/><stop stop-opacity="1" stop-color="rgb(76.829529%, 66.584778%, 97.135925%)" offset="0.367187"/><stop stop-opacity="1" stop-color="rgb(76.582336%, 66.229248%, 97.105408%)" offset="0.371094"/><stop stop-opacity="1" stop-color="rgb(76.33667%, 65.873718%, 97.07489%)" offset="0.375"/><stop stop-opacity="1" stop-color="rgb(76.089478%, 65.518188%, 97.044373%)" offset="0.378906"/><stop stop-opacity="1" stop-color="rgb(75.843811%, 65.162659%, 97.013855%)" offset="0.382812"/><stop stop-opacity="1" stop-color="rgb(75.596619%, 64.807129%, 96.983337%)" offset="0.386719"/><stop stop-opacity="1" stop-color="rgb(75.350952%, 64.451599%, 96.95282%)" offset="0.390625"/><stop stop-opacity="1" stop-color="rgb(75.10376%, 64.096069%, 96.922302%)" offset="0.394531"/><stop stop-opacity="1" stop-color="rgb(74.858093%, 63.742065%, 96.891785%)" offset="0.398437"/><stop stop-opacity="1" stop-color="rgb(74.610901%, 63.386536%, 96.861267%)" offset="0.402344"/><stop stop-opacity="1" stop-color="rgb(74.365234%, 63.031006%, 96.83075%)" offset="0.40625"/><stop stop-opacity="1" stop-color="rgb(74.118042%, 62.675476%, 96.800232%)" offset="0.410156"/><stop stop-opacity="1" stop-color="rgb(73.872375%, 62.319946%, 96.769714%)" offset="0.414062"/><stop stop-opacity="1" stop-color="rgb(73.625183%, 61.964417%, 96.739197%)" offset="0.417969"/><stop stop-opacity="1" stop-color="rgb(73.379517%, 61.608887%, 96.708679%)" offset="0.421875"/><stop stop-opacity="1" stop-color="rgb(73.132324%, 61.253357%, 96.678162%)" offset="0.425781"/><stop stop-opacity="1" stop-color="rgb(72.886658%, 60.897827%, 96.647644%)" offset="0.429687"/><stop stop-opacity="1" stop-color="rgb(72.639465%, 60.542297%, 96.617126%)" offset="0.433594"/><stop stop-opacity="1" stop-color="rgb(72.392273%, 60.186768%, 96.586609%)" offset="0.4375"/><stop stop-opacity="1" stop-color="rgb(72.145081%, 59.831238%, 96.556091%)" offset="0.441406"/><stop stop-opacity="1" stop-color="rgb(71.899414%, 59.475708%, 96.525574%)" offset="0.445312"/><stop stop-opacity="1" stop-color="rgb(71.652222%, 59.120178%, 96.495056%)" offset="0.449219"/><stop stop-opacity="1" stop-color="rgb(71.406555%, 58.764648%, 96.464539%)" offset="0.453125"/><stop stop-opacity="1" stop-color="rgb(71.159363%, 58.409119%, 96.434021%)" offset="0.457031"/><stop stop-opacity="1" stop-color="rgb(70.913696%, 58.053589%, 96.403503%)" offset="0.460938"/><stop stop-opacity="1" stop-color="rgb(70.666504%, 57.698059%, 96.372986%)" offset="0.464844"/><stop stop-opacity="1" stop-color="rgb(70.420837%, 57.342529%, 96.342468%)" offset="0.46875"/><stop stop-opacity="1" stop-color="rgb(70.173645%, 56.987%, 96.311951%)" offset="0.472656"/><stop stop-opacity="1" stop-color="rgb(69.927979%, 56.63147%, 96.281433%)" offset="0.476562"/><stop stop-opacity="1" stop-color="rgb(69.680786%, 56.27594%, 96.250916%)" offset="0.480469"/><stop stop-opacity="1" stop-color="rgb(69.43512%, 55.92041%, 96.220398%)" offset="0.484375"/><stop stop-opacity="1" stop-color="rgb(69.187927%, 55.56488%, 96.18988%)" offset="0.488281"/><stop stop-opacity="1" stop-color="rgb(68.942261%, 55.210876%, 96.160889%)" offset="0.492187"/><stop stop-opacity="1" stop-color="rgb(68.695068%, 54.855347%, 96.130371%)" offset="0.496094"/><stop stop-opacity="1" stop-color="rgb(68.449402%, 54.499817%, 96.099854%)" offset="0.5"/><stop stop-opacity="1" stop-color="rgb(68.202209%, 54.144287%, 96.069336%)" offset="0.503906"/><stop stop-opacity="1" stop-color="rgb(67.956543%, 53.788757%, 96.038818%)" offset="0.507812"/><stop stop-opacity="1" stop-color="rgb(67.709351%, 53.433228%, 96.008301%)" offset="0.511719"/><stop stop-opacity="1" stop-color="rgb(67.463684%, 53.077698%, 95.977783%)" offset="0.515625"/><stop stop-opacity="1" stop-color="rgb(67.216492%, 52.722168%, 95.947266%)" offset="0.519531"/><stop stop-opacity="1" stop-color="rgb(66.970825%, 52.366638%, 95.916748%)" offset="0.523438"/><stop stop-opacity="1" stop-color="rgb(66.723633%, 52.011108%, 95.88623%)" offset="0.527344"/><stop stop-opacity="1" stop-color="rgb(66.477966%, 51.655579%, 95.855713%)" offset="0.53125"/><stop stop-opacity="1" stop-color="rgb(66.230774%, 51.300049%, 95.825195%)" offset="0.535156"/><stop stop-opacity="1" stop-color="rgb(65.985107%, 50.944519%, 95.794678%)" offset="0.539062"/><stop stop-opacity="1" stop-color="rgb(65.737915%, 50.588989%, 95.76416%)" offset="0.542969"/><stop stop-opacity="1" stop-color="rgb(65.490723%, 50.233459%, 95.733643%)" offset="0.546875"/><stop stop-opacity="1" stop-color="rgb(65.24353%, 49.87793%, 95.703125%)" offset="0.550781"/><stop stop-opacity="1" stop-color="rgb(64.997864%, 49.5224%, 95.672607%)" offset="0.554688"/><stop stop-opacity="1" stop-color="rgb(64.750671%, 49.16687%, 95.64209%)" offset="0.558594"/><stop stop-opacity="1" stop-color="rgb(64.505005%, 48.81134%, 95.611572%)" offset="0.5625"/><stop stop-opacity="1" stop-color="rgb(64.257812%, 48.455811%, 95.581055%)" offset="0.566406"/><stop stop-opacity="1" stop-color="rgb(64.012146%, 48.100281%, 95.550537%)" offset="0.570312"/><stop stop-opacity="1" stop-color="rgb(63.764954%, 47.744751%, 95.52002%)" offset="0.574219"/><stop stop-opacity="1" stop-color="rgb(63.519287%, 47.389221%, 95.489502%)" offset="0.578125"/><stop stop-opacity="1" stop-color="rgb(63.272095%, 47.033691%, 95.458984%)" offset="0.582031"/><stop stop-opacity="1" stop-color="rgb(63.026428%, 46.678162%, 95.428467%)" offset="0.585938"/><stop stop-opacity="1" stop-color="rgb(62.779236%, 46.322632%, 95.397949%)" offset="0.589844"/><stop stop-opacity="1" stop-color="rgb(62.533569%, 45.968628%, 95.367432%)" offset="0.59375"/><stop stop-opacity="1" stop-color="rgb(62.286377%, 45.613098%, 95.336914%)" offset="0.597656"/><stop stop-opacity="1" stop-color="rgb(62.04071%, 45.257568%, 95.306396%)" offset="0.601562"/><stop stop-opacity="1" stop-color="rgb(61.793518%, 44.902039%, 95.275879%)" offset="0.605469"/><stop stop-opacity="1" stop-color="rgb(61.547852%, 44.546509%, 95.245361%)" offset="0.609375"/><stop stop-opacity="1" stop-color="rgb(61.300659%, 44.190979%, 95.214844%)" offset="0.613281"/><stop stop-opacity="1" stop-color="rgb(61.054993%, 43.835449%, 95.185852%)" offset="0.617188"/><stop stop-opacity="1" stop-color="rgb(60.8078%, 43.479919%, 95.155334%)" offset="0.621094"/><stop stop-opacity="1" stop-color="rgb(60.562134%, 43.12439%, 95.124817%)" offset="0.625"/><stop stop-opacity="1" stop-color="rgb(60.314941%, 42.76886%, 95.094299%)" offset="0.628906"/><stop stop-opacity="1" stop-color="rgb(60.069275%, 42.41333%, 95.063782%)" offset="0.632812"/><stop stop-opacity="1" stop-color="rgb(59.822083%, 42.0578%, 95.033264%)" offset="0.636719"/><stop stop-opacity="1" stop-color="rgb(59.576416%, 41.702271%, 95.002747%)" offset="0.640625"/><stop stop-opacity="1" stop-color="rgb(59.329224%, 41.346741%, 94.972229%)" offset="0.644531"/><stop stop-opacity="1" stop-color="rgb(59.083557%, 40.991211%, 94.941711%)" offset="0.648438"/><stop stop-opacity="1" stop-color="rgb(58.836365%, 40.635681%, 94.911194%)" offset="0.652344"/><stop stop-opacity="1" stop-color="rgb(58.589172%, 40.280151%, 94.880676%)" offset="0.65625"/><stop stop-opacity="1" stop-color="rgb(58.34198%, 39.924622%, 94.850159%)" offset="0.660156"/><stop stop-opacity="1" stop-color="rgb(58.096313%, 39.569092%, 94.819641%)" offset="0.664062"/><stop stop-opacity="1" stop-color="rgb(57.849121%, 39.213562%, 94.789124%)" offset="0.667969"/><stop stop-opacity="1" stop-color="rgb(57.603455%, 38.858032%, 94.758606%)" offset="0.671875"/><stop stop-opacity="1" stop-color="rgb(57.356262%, 38.502502%, 94.728088%)" offset="0.675781"/><stop stop-opacity="1" stop-color="rgb(57.110596%, 38.146973%, 94.697571%)" offset="0.679688"/><stop stop-opacity="1" stop-color="rgb(56.863403%, 37.791443%, 94.667053%)" offset="0.683594"/><stop stop-opacity="1" stop-color="rgb(56.617737%, 37.437439%, 94.636536%)" offset="0.6875"/><stop stop-opacity="1" stop-color="rgb(56.370544%, 37.081909%, 94.606018%)" offset="0.691406"/><stop stop-opacity="1" stop-color="rgb(56.124878%, 36.726379%, 94.5755%)" offset="0.695312"/><stop stop-opacity="1" stop-color="rgb(55.877686%, 36.37085%, 94.544983%)" offset="0.699219"/><stop stop-opacity="1" stop-color="rgb(55.632019%, 36.01532%, 94.514465%)" offset="0.703125"/><stop stop-opacity="1" stop-color="rgb(55.384827%, 35.65979%, 94.483948%)" offset="0.707031"/><stop stop-opacity="1" stop-color="rgb(55.13916%, 35.30426%, 94.45343%)" offset="0.710938"/><stop stop-opacity="1" stop-color="rgb(54.891968%, 34.94873%, 94.422913%)" offset="0.714844"/><stop stop-opacity="1" stop-color="rgb(54.646301%, 34.593201%, 94.392395%)" offset="0.71875"/><stop stop-opacity="1" stop-color="rgb(54.399109%, 34.237671%, 94.361877%)" offset="0.722656"/><stop stop-opacity="1" stop-color="rgb(54.153442%, 33.882141%, 94.33136%)" offset="0.726562"/><stop stop-opacity="1" stop-color="rgb(53.90625%, 33.526611%, 94.300842%)" offset="0.730469"/><stop stop-opacity="1" stop-color="rgb(53.660583%, 33.171082%, 94.271851%)" offset="0.734375"/><stop stop-opacity="1" stop-color="rgb(53.413391%, 32.815552%, 94.241333%)" offset="0.738281"/><stop stop-opacity="1" stop-color="rgb(53.167725%, 32.460022%, 94.210815%)" offset="0.742188"/><stop stop-opacity="1" stop-color="rgb(52.920532%, 32.104492%, 94.180298%)" offset="0.746094"/><stop stop-opacity="1" stop-color="rgb(52.674866%, 31.748962%, 94.14978%)" offset="0.75"/><stop stop-opacity="1" stop-color="rgb(52.427673%, 31.393433%, 94.119263%)" offset="0.753906"/><stop stop-opacity="1" stop-color="rgb(52.182007%, 31.037903%, 94.088745%)" offset="0.757812"/><stop stop-opacity="1" stop-color="rgb(51.934814%, 30.682373%, 94.058228%)" offset="0.761719"/><stop stop-opacity="1" stop-color="rgb(51.687622%, 30.326843%, 94.02771%)" offset="0.765625"/><stop stop-opacity="1" stop-color="rgb(51.44043%, 29.971313%, 93.997192%)" offset="0.769531"/><stop stop-opacity="1" stop-color="rgb(51.194763%, 29.615784%, 93.966675%)" offset="0.773438"/><stop stop-opacity="1" stop-color="rgb(50.947571%, 29.260254%, 93.936157%)" offset="0.777344"/><stop stop-opacity="1" stop-color="rgb(50.701904%, 28.904724%, 93.90564%)" offset="0.78125"/><stop stop-opacity="1" stop-color="rgb(50.454712%, 28.549194%, 93.875122%)" offset="0.785156"/><stop stop-opacity="1" stop-color="rgb(50.209045%, 28.19519%, 93.844604%)" offset="0.789062"/><stop stop-opacity="1" stop-color="rgb(49.961853%, 27.839661%, 93.814087%)" offset="0.792969"/><stop stop-opacity="1" stop-color="rgb(49.716187%, 27.484131%, 93.783569%)" offset="0.796875"/><stop stop-opacity="1" stop-color="rgb(49.468994%, 27.128601%, 93.753052%)" offset="0.800781"/><stop stop-opacity="1" stop-color="rgb(49.223328%, 26.773071%, 93.722534%)" offset="0.804688"/><stop stop-opacity="1" stop-color="rgb(48.976135%, 26.417542%, 93.692017%)" offset="0.808594"/><stop stop-opacity="1" stop-color="rgb(48.730469%, 26.062012%, 93.661499%)" offset="0.8125"/><stop stop-opacity="1" stop-color="rgb(48.483276%, 25.706482%, 93.630981%)" offset="0.816406"/><stop stop-opacity="1" stop-color="rgb(48.23761%, 25.350952%, 93.600464%)" offset="0.820312"/><stop stop-opacity="1" stop-color="rgb(47.990417%, 24.995422%, 93.569946%)" offset="0.824219"/><stop stop-opacity="1" stop-color="rgb(47.744751%, 24.639893%, 93.539429%)" offset="0.828125"/><stop stop-opacity="1" stop-color="rgb(47.497559%, 24.284363%, 93.508911%)" offset="0.832031"/><stop stop-opacity="1" stop-color="rgb(47.251892%, 23.928833%, 93.478394%)" offset="0.835938"/><stop stop-opacity="1" stop-color="rgb(47.0047%, 23.573303%, 93.447876%)" offset="0.839844"/><stop stop-opacity="1" stop-color="rgb(46.759033%, 23.217773%, 93.417358%)" offset="0.84375"/><stop stop-opacity="1" stop-color="rgb(46.511841%, 22.862244%, 93.386841%)" offset="0.847656"/><stop stop-opacity="1" stop-color="rgb(46.266174%, 22.506714%, 93.356323%)" offset="0.851562"/><stop stop-opacity="1" stop-color="rgb(46.018982%, 22.151184%, 93.325806%)" offset="0.855469"/><stop stop-opacity="1" stop-color="rgb(45.773315%, 21.795654%, 93.296814%)" offset="0.859375"/><stop stop-opacity="1" stop-color="rgb(45.526123%, 21.440125%, 93.266296%)" offset="0.863281"/><stop stop-opacity="1" stop-color="rgb(45.280457%, 21.084595%, 93.235779%)" offset="0.867188"/><stop stop-opacity="1" stop-color="rgb(45.033264%, 20.729065%, 93.205261%)" offset="0.871094"/><stop stop-opacity="1" stop-color="rgb(44.786072%, 20.373535%, 93.174744%)" offset="0.875"/><stop stop-opacity="1" stop-color="rgb(44.538879%, 20.018005%, 93.144226%)" offset="0.878906"/><stop stop-opacity="1" stop-color="rgb(44.293213%, 19.664001%, 93.113708%)" offset="0.882812"/><stop stop-opacity="1" stop-color="rgb(44.046021%, 19.308472%, 93.083191%)" offset="0.886719"/><stop stop-opacity="1" stop-color="rgb(43.800354%, 18.952942%, 93.052673%)" offset="0.890625"/><stop stop-opacity="1" stop-color="rgb(43.553162%, 18.597412%, 93.022156%)" offset="0.894531"/><stop stop-opacity="1" stop-color="rgb(43.307495%, 18.241882%, 92.991638%)" offset="0.898438"/><stop stop-opacity="1" stop-color="rgb(43.060303%, 17.886353%, 92.961121%)" offset="0.902344"/><stop stop-opacity="1" stop-color="rgb(42.814636%, 17.530823%, 92.930603%)" offset="0.90625"/><stop stop-opacity="1" stop-color="rgb(42.567444%, 17.175293%, 92.900085%)" offset="0.910156"/><stop stop-opacity="1" stop-color="rgb(42.321777%, 16.819763%, 92.869568%)" offset="0.914062"/><stop stop-opacity="1" stop-color="rgb(42.074585%, 16.464233%, 92.83905%)" offset="0.917969"/><stop stop-opacity="1" stop-color="rgb(41.828918%, 16.108704%, 92.808533%)" offset="0.921875"/><stop stop-opacity="1" stop-color="rgb(41.581726%, 15.753174%, 92.778015%)" offset="0.925781"/><stop stop-opacity="1" stop-color="rgb(41.33606%, 15.397644%, 92.747498%)" offset="0.929688"/><stop stop-opacity="1" stop-color="rgb(41.088867%, 15.042114%, 92.71698%)" offset="0.933594"/><stop stop-opacity="1" stop-color="rgb(40.843201%, 14.686584%, 92.686462%)" offset="0.9375"/><stop stop-opacity="1" stop-color="rgb(40.596008%, 14.331055%, 92.655945%)" offset="0.941406"/><stop stop-opacity="1" stop-color="rgb(40.350342%, 13.975525%, 92.625427%)" offset="0.945312"/><stop stop-opacity="1" stop-color="rgb(40.103149%, 13.619995%, 92.59491%)" offset="0.949219"/><stop stop-opacity="1" stop-color="rgb(39.857483%, 13.264465%, 92.564392%)" offset="0.953125"/><stop stop-opacity="1" stop-color="rgb(39.610291%, 12.908936%, 92.533875%)" offset="0.957031"/><stop stop-opacity="1" stop-color="rgb(39.364624%, 12.553406%, 92.503357%)" offset="0.960938"/><stop stop-opacity="1" stop-color="rgb(39.117432%, 12.197876%, 92.472839%)" offset="0.964844"/><stop stop-opacity="1" stop-color="rgb(38.871765%, 11.842346%, 92.442322%)" offset="0.96875"/><stop stop-opacity="1" stop-color="rgb(38.624573%, 11.486816%, 92.411804%)" offset="0.972656"/><stop stop-opacity="1" stop-color="rgb(38.37738%, 11.131287%, 92.381287%)" offset="0.976562"/><stop stop-opacity="1" stop-color="rgb(38.130188%, 10.775757%, 92.350769%)" offset="0.980469"/><stop stop-opacity="1" stop-color="rgb(37.884521%, 10.421753%, 92.321777%)" offset="0.984375"/><stop stop-opacity="1" stop-color="rgb(37.637329%, 10.066223%, 92.29126%)" offset="0.988281"/><stop stop-opacity="1" stop-color="rgb(37.391663%, 9.710693%, 92.260742%)" offset="0.992188"/><stop stop-opacity="1" stop-color="rgb(37.14447%, 9.355164%, 92.230225%)" offset="0.996094"/><stop stop-opacity="1" stop-color="rgb(36.898804%, 8.999634%, 92.199707%)" offset="1"/></linearGradient><clipPath id="c049ab3d2c"><rect x="0" width="631" y="0" height="629"/></clipPath></defs><rect x="-144" width="1728" fill="#ffffff" y="-80.999999" height="971.999992" fill-opacity="1"/><rect x="-144" width="1728" fill="#f4f6fc" y="-80.999999" height="971.999992" fill-opacity="1"/><g mask="url(#121110c502)"><g transform="matrix(1, 0, 0, 1, 54, 90)"><g clip-path="url(#c049ab3d2c)"><g clip-path="url(#3128010d89)"><g clip-path="url(#b986ed4a2c)"><path fill="url(#988171ff20)" d="M 630.863281 628.578125 L 630.863281 1.359375 L 0.863281 1.359375 L 0.863281 628.578125 Z M 630.863281 628.578125 " fill-rule="nonzero"/></g></g></g></g></g></svg>