<svg xmlns="http://www.w3.org/2000/svg" xmlns:xlink="http://www.w3.org/1999/xlink" width="1920" zoomAndPan="magnify" viewBox="0 0 1440 809.999993" height="1080" preserveAspectRatio="xMidYMid meet" version="1.0"><defs><g/><clipPath id="158182ba9e"><path d="M 187.859375 283.054688 L 351.359375 283.054688 L 351.359375 447.304688 L 187.859375 447.304688 Z M 187.859375 283.054688 " clip-rule="nonzero"/></clipPath></defs><rect x="-144" width="1728" fill="#ffffff" y="-80.999999" height="971.999992" fill-opacity="1"/><rect x="-144" width="1728" fill="#111a2e" y="-80.999999" height="971.999992" fill-opacity="1"/><g fill="#f4f4f4" fill-opacity="1"><g transform="translate(378.05111, 403.143013)"><g><path d="M 55.90625 -21.984375 C 55.90625 -24.648438 55.296875 -26.894531 54.078125 -28.71875 C 52.859375 -30.550781 51.296875 -32.09375 49.390625 -33.34375 C 47.484375 -34.601562 45.382812 -35.648438 43.09375 -36.484375 C 40.800781 -37.328125 38.597656 -38.085938 36.484375 -38.765625 C 33.421875 -39.753906 30.304688 -40.945312 27.140625 -42.34375 C 23.972656 -43.738281 21.085938 -45.453125 18.484375 -47.484375 C 15.878906 -49.515625 13.75 -51.910156 12.09375 -54.671875 C 10.4375 -57.441406 9.609375 -60.695312 9.609375 -64.4375 C 9.609375 -68.1875 10.4375 -71.53125 12.09375 -74.46875 C 13.75 -77.414062 15.910156 -79.90625 18.578125 -81.9375 C 21.242188 -83.96875 24.269531 -85.507812 27.65625 -86.5625 C 31.039062 -87.625 34.441406 -88.15625 37.859375 -88.15625 C 41.640625 -88.15625 45.28125 -87.523438 48.78125 -86.265625 C 52.289062 -85.015625 55.398438 -83.253906 58.109375 -80.984375 C 60.816406 -78.710938 62.984375 -75.960938 64.609375 -72.734375 C 66.242188 -69.515625 67.101562 -65.914062 67.1875 -61.9375 L 55.84375 -61.9375 C 55.519531 -64.4375 54.898438 -66.710938 53.984375 -68.765625 C 53.066406 -70.816406 51.851562 -72.578125 50.34375 -74.046875 C 48.832031 -75.523438 47.03125 -76.671875 44.9375 -77.484375 C 42.851562 -78.304688 40.492188 -78.71875 37.859375 -78.71875 C 35.753906 -78.71875 33.695312 -78.414062 31.6875 -77.8125 C 29.675781 -77.21875 27.882812 -76.320312 26.3125 -75.125 C 24.738281 -73.9375 23.484375 -72.460938 22.546875 -70.703125 C 21.609375 -68.953125 21.140625 -66.925781 21.140625 -64.625 C 21.179688 -62.113281 21.816406 -59.988281 23.046875 -58.25 C 24.285156 -56.519531 25.847656 -55.054688 27.734375 -53.859375 C 29.628906 -52.671875 31.679688 -51.675781 33.890625 -50.875 C 36.097656 -50.082031 38.179688 -49.390625 40.140625 -48.796875 C 42.285156 -48.117188 44.453125 -47.347656 46.640625 -46.484375 C 48.828125 -45.628906 50.9375 -44.644531 52.96875 -43.53125 C 55 -42.414062 56.890625 -41.160156 58.640625 -39.765625 C 60.398438 -38.378906 61.9375 -36.800781 63.25 -35.03125 C 64.5625 -33.257812 65.582031 -31.304688 66.3125 -29.171875 C 67.050781 -27.046875 67.421875 -24.6875 67.421875 -22.09375 C 67.421875 -18.195312 66.554688 -14.796875 64.828125 -11.890625 C 63.097656 -8.984375 60.859375 -6.5625 58.109375 -4.625 C 55.359375 -2.695312 52.25 -1.242188 48.78125 -0.265625 C 45.320312 0.703125 41.863281 1.1875 38.40625 1.1875 C 34.539062 1.1875 30.753906 0.59375 27.046875 -0.59375 C 23.347656 -1.789062 20.035156 -3.515625 17.109375 -5.765625 C 14.179688 -8.015625 11.800781 -10.757812 9.96875 -14 C 8.132812 -17.25 7.160156 -20.941406 7.046875 -25.078125 L 18.328125 -25.078125 C 18.691406 -22.367188 19.429688 -19.96875 20.546875 -17.875 C 21.660156 -15.789062 23.09375 -14.019531 24.84375 -12.5625 C 26.59375 -11.113281 28.613281 -10.019531 30.90625 -9.28125 C 33.195312 -8.550781 35.695312 -8.1875 38.40625 -8.1875 C 40.550781 -8.1875 42.664062 -8.453125 44.75 -8.984375 C 46.84375 -9.523438 48.707031 -10.363281 50.34375 -11.5 C 51.976562 -12.632812 53.3125 -14.066406 54.34375 -15.796875 C 55.382812 -17.523438 55.90625 -19.585938 55.90625 -21.984375 Z M 55.90625 -21.984375 "/></g></g></g><g fill="#f4f4f4" fill-opacity="1"><g transform="translate(451.445805, 403.143013)"><g><path d="M 34.15625 -22.9375 L 37.03125 -15.109375 L 56.734375 -64.625 L 69.09375 -64.625 L 36.3125 9.96875 C 35.550781 11.644531 34.582031 13.414062 33.40625 15.28125 C 32.238281 17.15625 30.816406 18.890625 29.140625 20.484375 C 27.472656 22.078125 25.523438 23.410156 23.296875 24.484375 C 21.066406 25.554688 18.5 26.09375 15.59375 26.09375 C 15.070312 26.09375 14.492188 26.0625 13.859375 26 C 13.222656 25.945312 12.582031 25.867188 11.9375 25.765625 C 11.300781 25.671875 10.703125 25.5625 10.140625 25.4375 C 9.585938 25.320312 9.132812 25.222656 8.78125 25.140625 L 10.578125 16.125 C 10.847656 16.125 11.222656 16.144531 11.703125 16.1875 C 12.179688 16.226562 12.675781 16.265625 13.1875 16.296875 C 13.707031 16.335938 14.207031 16.367188 14.6875 16.390625 C 15.164062 16.410156 15.546875 16.421875 15.828125 16.421875 C 17.335938 16.421875 18.71875 16.003906 19.96875 15.171875 C 21.226562 14.335938 22.34375 13.34375 23.3125 12.1875 C 24.289062 11.03125 25.128906 9.832031 25.828125 8.59375 C 26.523438 7.363281 27.070312 6.347656 27.46875 5.546875 L 31.890625 -3.046875 L 4.0625 -64.625 L 16.421875 -64.625 Z M 34.15625 -22.9375 "/></g></g></g><g fill="#f4f4f4" fill-opacity="1"><g transform="translate(524.840501, 403.143013)"><g><path d="M 53.328125 -17.140625 C 53.328125 -18.453125 53.066406 -19.632812 52.546875 -20.6875 C 52.035156 -21.75 51.160156 -22.71875 49.921875 -23.59375 C 48.691406 -24.46875 47.0625 -25.269531 45.03125 -26 C 43 -26.738281 40.472656 -27.410156 37.453125 -28.015625 C 33.742188 -28.765625 30.363281 -29.675781 27.3125 -30.75 C 24.269531 -31.832031 21.664062 -33.117188 19.5 -34.609375 C 17.332031 -36.097656 15.648438 -37.847656 14.453125 -39.859375 C 13.253906 -41.867188 12.65625 -44.207031 12.65625 -46.875 C 12.65625 -49.507812 13.269531 -51.96875 14.5 -54.25 C 15.738281 -56.539062 17.472656 -58.539062 19.703125 -60.25 C 21.929688 -61.96875 24.585938 -63.320312 27.671875 -64.3125 C 30.765625 -65.3125 34.160156 -65.8125 37.859375 -65.8125 C 41.847656 -65.8125 45.429688 -65.289062 48.609375 -64.25 C 51.796875 -63.21875 54.503906 -61.785156 56.734375 -59.953125 C 58.960938 -58.128906 60.679688 -55.992188 61.890625 -53.546875 C 63.109375 -51.097656 63.71875 -48.457031 63.71875 -45.625 L 52.671875 -45.625 C 52.671875 -47.019531 52.3125 -48.382812 51.59375 -49.71875 C 50.882812 -51.050781 49.890625 -52.234375 48.609375 -53.265625 C 47.335938 -54.304688 45.796875 -55.144531 43.984375 -55.78125 C 42.171875 -56.414062 40.128906 -56.734375 37.859375 -56.734375 C 35.515625 -56.734375 33.457031 -56.472656 31.6875 -55.953125 C 29.914062 -55.441406 28.441406 -54.75 27.265625 -53.875 C 26.085938 -53 25.195312 -51.984375 24.59375 -50.828125 C 24 -49.671875 23.703125 -48.472656 23.703125 -47.234375 C 23.703125 -45.960938 23.941406 -44.828125 24.421875 -43.828125 C 24.898438 -42.835938 25.726562 -41.941406 26.90625 -41.140625 C 28.082031 -40.347656 29.65625 -39.632812 31.625 -39 C 33.59375 -38.363281 36.09375 -37.742188 39.125 -37.140625 C 43.101562 -36.304688 46.664062 -35.34375 49.8125 -34.25 C 52.957031 -33.15625 55.601562 -31.84375 57.75 -30.3125 C 59.90625 -28.78125 61.546875 -27 62.671875 -24.96875 C 63.804688 -22.9375 64.375 -20.585938 64.375 -17.921875 C 64.375 -15.046875 63.726562 -12.429688 62.4375 -10.078125 C 61.144531 -7.734375 59.34375 -5.722656 57.03125 -4.046875 C 54.726562 -2.378906 51.960938 -1.085938 48.734375 -0.171875 C 45.503906 0.734375 41.976562 1.1875 38.15625 1.1875 C 33.78125 1.1875 29.878906 0.601562 26.453125 -0.5625 C 23.035156 -1.738281 20.140625 -3.289062 17.765625 -5.21875 C 15.398438 -7.15625 13.585938 -9.394531 12.328125 -11.9375 C 11.078125 -14.488281 10.453125 -17.140625 10.453125 -19.890625 L 21.5 -19.890625 C 21.65625 -17.617188 22.257812 -15.707031 23.3125 -14.15625 C 24.375 -12.601562 25.691406 -11.347656 27.265625 -10.390625 C 28.835938 -9.429688 30.578125 -8.753906 32.484375 -8.359375 C 34.398438 -7.960938 36.289062 -7.765625 38.15625 -7.765625 C 42.820312 -7.765625 46.503906 -8.617188 49.203125 -10.328125 C 51.910156 -12.046875 53.285156 -14.316406 53.328125 -17.140625 Z M 53.328125 -17.140625 "/></g></g></g><g fill="#f4f4f4" fill-opacity="1"><g transform="translate(598.235197, 403.143013)"><g><path d="M 36.546875 -80.265625 L 36.546875 -64.625 L 61.15625 -64.625 L 61.15625 -56.078125 L 36.546875 -56.078125 L 36.546875 -20.96875 C 36.546875 -18.457031 36.863281 -16.382812 37.5 -14.75 C 38.144531 -13.113281 39.023438 -11.804688 40.140625 -10.828125 C 41.253906 -9.859375 42.535156 -9.175781 43.984375 -8.78125 C 45.441406 -8.382812 46.984375 -8.1875 48.609375 -8.1875 C 49.804688 -8.1875 51.039062 -8.253906 52.3125 -8.390625 C 53.59375 -8.523438 54.835938 -8.691406 56.046875 -8.890625 C 57.265625 -9.097656 58.398438 -9.3125 59.453125 -9.53125 C 60.503906 -9.75 61.367188 -9.9375 62.046875 -10.09375 L 63.609375 -2.265625 C 62.691406 -1.710938 61.578125 -1.222656 60.265625 -0.796875 C 58.953125 -0.378906 57.515625 -0.0234375 55.953125 0.265625 C 54.398438 0.566406 52.757812 0.796875 51.03125 0.953125 C 49.300781 1.109375 47.582031 1.1875 45.875 1.1875 C 43 1.1875 40.316406 0.78125 37.828125 -0.03125 C 35.347656 -0.84375 33.191406 -2.132812 31.359375 -3.90625 C 29.523438 -5.675781 28.078125 -7.960938 27.015625 -10.765625 C 25.960938 -13.578125 25.4375 -16.976562 25.4375 -20.96875 L 25.4375 -56.078125 L 8.484375 -56.078125 L 8.484375 -64.625 L 25.4375 -64.625 L 25.4375 -80.265625 Z M 36.546875 -80.265625 "/></g></g></g><g fill="#f4f4f4" fill-opacity="1"><g transform="translate(671.629893, 403.143013)"><g><path d="M 38.9375 1.1875 C 34.394531 1.1875 30.222656 0.410156 26.421875 -1.140625 C 22.617188 -2.691406 19.363281 -4.859375 16.65625 -7.640625 C 13.945312 -10.429688 11.835938 -13.738281 10.328125 -17.5625 C 8.816406 -21.382812 8.0625 -25.546875 8.0625 -30.046875 L 8.0625 -32.546875 C 8.0625 -37.765625 8.894531 -42.429688 10.5625 -46.546875 C 12.238281 -50.671875 14.457031 -54.15625 17.21875 -57 C 19.988281 -59.851562 23.132812 -62.035156 26.65625 -63.546875 C 30.1875 -65.054688 33.800781 -65.8125 37.5 -65.8125 C 42.164062 -65.8125 46.238281 -65.003906 49.71875 -63.390625 C 53.195312 -61.785156 56.09375 -59.554688 58.40625 -56.703125 C 60.71875 -53.859375 62.441406 -50.503906 63.578125 -46.640625 C 64.710938 -42.773438 65.28125 -38.597656 65.28125 -34.109375 L 65.28125 -29.140625 L 19.109375 -29.140625 C 19.234375 -26.191406 19.800781 -23.425781 20.8125 -20.84375 C 21.832031 -18.257812 23.226562 -16 25 -14.0625 C 26.769531 -12.132812 28.890625 -10.613281 31.359375 -9.5 C 33.828125 -8.382812 36.550781 -7.828125 39.53125 -7.828125 C 43.476562 -7.828125 46.984375 -8.617188 50.046875 -10.203125 C 53.109375 -11.796875 55.65625 -13.910156 57.6875 -16.546875 L 64.4375 -11.28125 C 63.363281 -9.65625 62.019531 -8.09375 60.40625 -6.59375 C 58.789062 -5.101562 56.925781 -3.78125 54.8125 -2.625 C 52.707031 -1.46875 50.320312 -0.546875 47.65625 0.140625 C 44.988281 0.835938 42.082031 1.1875 38.9375 1.1875 Z M 37.5 -56.734375 C 35.269531 -56.734375 33.160156 -56.320312 31.171875 -55.5 C 29.179688 -54.6875 27.390625 -53.492188 25.796875 -51.921875 C 24.203125 -50.347656 22.859375 -48.414062 21.765625 -46.125 C 20.671875 -43.84375 19.90625 -41.207031 19.46875 -38.21875 L 54.234375 -38.21875 L 54.234375 -39.0625 C 54.109375 -41.207031 53.695312 -43.332031 53 -45.4375 C 52.300781 -47.550781 51.273438 -49.441406 49.921875 -51.109375 C 48.566406 -52.785156 46.863281 -54.140625 44.8125 -55.171875 C 42.769531 -56.210938 40.332031 -56.734375 37.5 -56.734375 Z M 37.5 -56.734375 "/></g></g></g><g fill="#f4f4f4" fill-opacity="1"><g transform="translate(745.024589, 403.143013)"><g><path d="M 15.46875 -64.625 L 15.765625 -58.53125 C 17.078125 -60.800781 18.796875 -62.570312 20.921875 -63.84375 C 23.054688 -65.113281 25.640625 -65.769531 28.671875 -65.8125 C 34.597656 -65.8125 38.554688 -63.503906 40.546875 -58.890625 C 41.828125 -60.960938 43.507812 -62.625 45.59375 -63.875 C 47.6875 -65.125 50.226562 -65.769531 53.21875 -65.8125 C 57.945312 -65.8125 61.585938 -64.359375 64.140625 -61.453125 C 66.691406 -58.546875 67.96875 -54.144531 67.96875 -48.25 L 67.96875 0 L 57.453125 0 L 57.453125 -48.375 C 57.453125 -53.789062 54.960938 -56.476562 49.984375 -56.4375 C 48.671875 -56.4375 47.535156 -56.253906 46.578125 -55.890625 C 45.628906 -55.535156 44.832031 -55.050781 44.1875 -54.4375 C 43.550781 -53.820312 43.054688 -53.101562 42.703125 -52.28125 C 42.347656 -51.46875 42.109375 -50.625 41.984375 -49.75 L 41.984375 0 L 31.46875 0 L 31.46875 -48.4375 C 31.46875 -51.019531 30.890625 -53.007812 29.734375 -54.40625 C 28.585938 -55.800781 26.757812 -56.476562 24.25 -56.4375 C 21.9375 -56.4375 20.144531 -55.976562 18.875 -55.0625 C 17.601562 -54.144531 16.664062 -52.929688 16.0625 -51.421875 L 16.0625 0 L 5.546875 0 L 5.546875 -64.625 Z M 15.46875 -64.625 "/></g></g></g><g fill="#f4f4f4" fill-opacity="1"><g transform="translate(818.419284, 403.143013)"><g/></g></g><g fill="#f4f4f4" fill-opacity="1"><g transform="translate(891.814005, 403.143013)"><g><path d="M 55.90625 -21.984375 C 55.90625 -24.648438 55.296875 -26.894531 54.078125 -28.71875 C 52.859375 -30.550781 51.296875 -32.09375 49.390625 -33.34375 C 47.484375 -34.601562 45.382812 -35.648438 43.09375 -36.484375 C 40.800781 -37.328125 38.597656 -38.085938 36.484375 -38.765625 C 33.421875 -39.753906 30.304688 -40.945312 27.140625 -42.34375 C 23.972656 -43.738281 21.085938 -45.453125 18.484375 -47.484375 C 15.878906 -49.515625 13.75 -51.910156 12.09375 -54.671875 C 10.4375 -57.441406 9.609375 -60.695312 9.609375 -64.4375 C 9.609375 -68.1875 10.4375 -71.53125 12.09375 -74.46875 C 13.75 -77.414062 15.910156 -79.90625 18.578125 -81.9375 C 21.242188 -83.96875 24.269531 -85.507812 27.65625 -86.5625 C 31.039062 -87.625 34.441406 -88.15625 37.859375 -88.15625 C 41.640625 -88.15625 45.28125 -87.523438 48.78125 -86.265625 C 52.289062 -85.015625 55.398438 -83.253906 58.109375 -80.984375 C 60.816406 -78.710938 62.984375 -75.960938 64.609375 -72.734375 C 66.242188 -69.515625 67.101562 -65.914062 67.1875 -61.9375 L 55.84375 -61.9375 C 55.519531 -64.4375 54.898438 -66.710938 53.984375 -68.765625 C 53.066406 -70.816406 51.851562 -72.578125 50.34375 -74.046875 C 48.832031 -75.523438 47.03125 -76.671875 44.9375 -77.484375 C 42.851562 -78.304688 40.492188 -78.71875 37.859375 -78.71875 C 35.753906 -78.71875 33.695312 -78.414062 31.6875 -77.8125 C 29.675781 -77.21875 27.882812 -76.320312 26.3125 -75.125 C 24.738281 -73.9375 23.484375 -72.460938 22.546875 -70.703125 C 21.609375 -68.953125 21.140625 -66.925781 21.140625 -64.625 C 21.179688 -62.113281 21.816406 -59.988281 23.046875 -58.25 C 24.285156 -56.519531 25.847656 -55.054688 27.734375 -53.859375 C 29.628906 -52.671875 31.679688 -51.675781 33.890625 -50.875 C 36.097656 -50.082031 38.179688 -49.390625 40.140625 -48.796875 C 42.285156 -48.117188 44.453125 -47.347656 46.640625 -46.484375 C 48.828125 -45.628906 50.9375 -44.644531 52.96875 -43.53125 C 55 -42.414062 56.890625 -41.160156 58.640625 -39.765625 C 60.398438 -38.378906 61.9375 -36.800781 63.25 -35.03125 C 64.5625 -33.257812 65.582031 -31.304688 66.3125 -29.171875 C 67.050781 -27.046875 67.421875 -24.6875 67.421875 -22.09375 C 67.421875 -18.195312 66.554688 -14.796875 64.828125 -11.890625 C 63.097656 -8.984375 60.859375 -6.5625 58.109375 -4.625 C 55.359375 -2.695312 52.25 -1.242188 48.78125 -0.265625 C 45.320312 0.703125 41.863281 1.1875 38.40625 1.1875 C 34.539062 1.1875 30.753906 0.59375 27.046875 -0.59375 C 23.347656 -1.789062 20.035156 -3.515625 17.109375 -5.765625 C 14.179688 -8.015625 11.800781 -10.757812 9.96875 -14 C 8.132812 -17.25 7.160156 -20.941406 7.046875 -25.078125 L 18.328125 -25.078125 C 18.691406 -22.367188 19.429688 -19.96875 20.546875 -17.875 C 21.660156 -15.789062 23.09375 -14.019531 24.84375 -12.5625 C 26.59375 -11.113281 28.613281 -10.019531 30.90625 -9.28125 C 33.195312 -8.550781 35.695312 -8.1875 38.40625 -8.1875 C 40.550781 -8.1875 42.664062 -8.453125 44.75 -8.984375 C 46.84375 -9.523438 48.707031 -10.363281 50.34375 -11.5 C 51.976562 -12.632812 53.3125 -14.066406 54.34375 -15.796875 C 55.382812 -17.523438 55.90625 -19.585938 55.90625 -21.984375 Z M 55.90625 -21.984375 "/></g></g></g><g fill="#f4f4f4" fill-opacity="1"><g transform="translate(965.208674, 403.143013)"><g><path d="M 36.546875 -80.265625 L 36.546875 -64.625 L 61.15625 -64.625 L 61.15625 -56.078125 L 36.546875 -56.078125 L 36.546875 -20.96875 C 36.546875 -18.457031 36.863281 -16.382812 37.5 -14.75 C 38.144531 -13.113281 39.023438 -11.804688 40.140625 -10.828125 C 41.253906 -9.859375 42.535156 -9.175781 43.984375 -8.78125 C 45.441406 -8.382812 46.984375 -8.1875 48.609375 -8.1875 C 49.804688 -8.1875 51.039062 -8.253906 52.3125 -8.390625 C 53.59375 -8.523438 54.835938 -8.691406 56.046875 -8.890625 C 57.265625 -9.097656 58.398438 -9.3125 59.453125 -9.53125 C 60.503906 -9.75 61.367188 -9.9375 62.046875 -10.09375 L 63.609375 -2.265625 C 62.691406 -1.710938 61.578125 -1.222656 60.265625 -0.796875 C 58.953125 -0.378906 57.515625 -0.0234375 55.953125 0.265625 C 54.398438 0.566406 52.757812 0.796875 51.03125 0.953125 C 49.300781 1.109375 47.582031 1.1875 45.875 1.1875 C 43 1.1875 40.316406 0.78125 37.828125 -0.03125 C 35.347656 -0.84375 33.191406 -2.132812 31.359375 -3.90625 C 29.523438 -5.675781 28.078125 -7.960938 27.015625 -10.765625 C 25.960938 -13.578125 25.4375 -16.976562 25.4375 -20.96875 L 25.4375 -56.078125 L 8.484375 -56.078125 L 8.484375 -64.625 L 25.4375 -64.625 L 25.4375 -80.265625 Z M 36.546875 -80.265625 "/></g></g></g><g fill="#f4f4f4" fill-opacity="1"><g transform="translate(1038.603343, 403.143013)"><g><path d="M 52.859375 0 C 52.421875 -0.832031 52.070312 -1.875 51.8125 -3.125 C 51.550781 -4.382812 51.363281 -5.691406 51.25 -7.046875 C 50.125 -5.929688 48.875 -4.875 47.5 -3.875 C 46.132812 -2.882812 44.625 -2.007812 42.96875 -1.25 C 41.3125 -0.5 39.546875 0.09375 37.671875 0.53125 C 35.804688 0.96875 33.820312 1.1875 31.71875 1.1875 C 28.289062 1.1875 25.191406 0.691406 22.421875 -0.296875 C 19.660156 -1.296875 17.3125 -2.640625 15.375 -4.328125 C 13.445312 -6.023438 11.953125 -8.035156 10.890625 -10.359375 C 9.835938 -12.691406 9.3125 -15.210938 9.3125 -17.921875 C 9.3125 -21.460938 10.019531 -24.566406 11.4375 -27.234375 C 12.851562 -29.898438 14.851562 -32.117188 17.4375 -33.890625 C 20.03125 -35.660156 23.144531 -36.984375 26.78125 -37.859375 C 30.425781 -38.734375 34.5 -39.171875 39 -39.171875 L 51.0625 -39.171875 L 51.0625 -44.25 C 51.0625 -46.207031 50.703125 -47.960938 49.984375 -49.515625 C 49.265625 -51.066406 48.25 -52.390625 46.9375 -53.484375 C 45.625 -54.578125 44.019531 -55.421875 42.125 -56.015625 C 40.238281 -56.617188 38.125 -56.921875 35.78125 -56.921875 C 33.582031 -56.921875 31.617188 -56.640625 29.890625 -56.078125 C 28.160156 -55.523438 26.695312 -54.789062 25.5 -53.875 C 24.300781 -52.957031 23.375 -51.867188 22.71875 -50.609375 C 22.0625 -49.359375 21.734375 -48.054688 21.734375 -46.703125 L 10.625 -46.703125 C 10.664062 -49.054688 11.273438 -51.363281 12.453125 -53.625 C 13.628906 -55.894531 15.320312 -57.9375 17.53125 -59.75 C 19.738281 -61.5625 22.425781 -63.023438 25.59375 -64.140625 C 28.757812 -65.253906 32.351562 -65.8125 36.375 -65.8125 C 40.03125 -65.8125 43.429688 -65.363281 46.578125 -64.46875 C 49.722656 -63.570312 52.441406 -62.21875 54.734375 -60.40625 C 57.023438 -58.59375 58.828125 -56.332031 60.140625 -53.625 C 61.453125 -50.914062 62.109375 -47.753906 62.109375 -44.140625 L 62.109375 -14.09375 C 62.109375 -11.945312 62.304688 -9.664062 62.703125 -7.25 C 63.109375 -4.84375 63.664062 -2.742188 64.375 -0.953125 L 64.375 0 Z M 33.328125 -8.421875 C 35.472656 -8.421875 37.484375 -8.695312 39.359375 -9.25 C 41.234375 -9.8125 42.9375 -10.550781 44.46875 -11.46875 C 46 -12.382812 47.320312 -13.425781 48.4375 -14.59375 C 49.550781 -15.769531 50.425781 -17 51.0625 -18.28125 L 51.0625 -31.359375 L 40.796875 -31.359375 C 34.335938 -31.359375 29.316406 -30.398438 25.734375 -28.484375 C 22.148438 -26.578125 20.359375 -23.570312 20.359375 -19.46875 C 20.359375 -17.875 20.628906 -16.398438 21.171875 -15.046875 C 21.710938 -13.691406 22.519531 -12.523438 23.59375 -11.546875 C 24.664062 -10.578125 26.015625 -9.8125 27.640625 -9.25 C 29.273438 -8.695312 31.171875 -8.421875 33.328125 -8.421875 Z M 33.328125 -8.421875 "/></g></g></g><g fill="#f4f4f4" fill-opacity="1"><g transform="translate(1111.998012, 403.143013)"><g><path d="M 36.546875 -80.265625 L 36.546875 -64.625 L 61.15625 -64.625 L 61.15625 -56.078125 L 36.546875 -56.078125 L 36.546875 -20.96875 C 36.546875 -18.457031 36.863281 -16.382812 37.5 -14.75 C 38.144531 -13.113281 39.023438 -11.804688 40.140625 -10.828125 C 41.253906 -9.859375 42.535156 -9.175781 43.984375 -8.78125 C 45.441406 -8.382812 46.984375 -8.1875 48.609375 -8.1875 C 49.804688 -8.1875 51.039062 -8.253906 52.3125 -8.390625 C 53.59375 -8.523438 54.835938 -8.691406 56.046875 -8.890625 C 57.265625 -9.097656 58.398438 -9.3125 59.453125 -9.53125 C 60.503906 -9.75 61.367188 -9.9375 62.046875 -10.09375 L 63.609375 -2.265625 C 62.691406 -1.710938 61.578125 -1.222656 60.265625 -0.796875 C 58.953125 -0.378906 57.515625 -0.0234375 55.953125 0.265625 C 54.398438 0.566406 52.757812 0.796875 51.03125 0.953125 C 49.300781 1.109375 47.582031 1.1875 45.875 1.1875 C 43 1.1875 40.316406 0.78125 37.828125 -0.03125 C 35.347656 -0.84375 33.191406 -2.132812 31.359375 -3.90625 C 29.523438 -5.675781 28.078125 -7.960938 27.015625 -10.765625 C 25.960938 -13.578125 25.4375 -16.976562 25.4375 -20.96875 L 25.4375 -56.078125 L 8.484375 -56.078125 L 8.484375 -64.625 L 25.4375 -64.625 L 25.4375 -80.265625 Z M 36.546875 -80.265625 "/></g></g></g><g fill="#f4f4f4" fill-opacity="1"><g transform="translate(1185.392682, 403.143013)"><g><path d="M 38.9375 1.1875 C 34.394531 1.1875 30.222656 0.410156 26.421875 -1.140625 C 22.617188 -2.691406 19.363281 -4.859375 16.65625 -7.640625 C 13.945312 -10.429688 11.835938 -13.738281 10.328125 -17.5625 C 8.816406 -21.382812 8.0625 -25.546875 8.0625 -30.046875 L 8.0625 -32.546875 C 8.0625 -37.765625 8.894531 -42.429688 10.5625 -46.546875 C 12.238281 -50.671875 14.457031 -54.15625 17.21875 -57 C 19.988281 -59.851562 23.132812 -62.035156 26.65625 -63.546875 C 30.1875 -65.054688 33.800781 -65.8125 37.5 -65.8125 C 42.164062 -65.8125 46.238281 -65.003906 49.71875 -63.390625 C 53.195312 -61.785156 56.09375 -59.554688 58.40625 -56.703125 C 60.71875 -53.859375 62.441406 -50.503906 63.578125 -46.640625 C 64.710938 -42.773438 65.28125 -38.597656 65.28125 -34.109375 L 65.28125 -29.140625 L 19.109375 -29.140625 C 19.234375 -26.191406 19.800781 -23.425781 20.8125 -20.84375 C 21.832031 -18.257812 23.226562 -16 25 -14.0625 C 26.769531 -12.132812 28.890625 -10.613281 31.359375 -9.5 C 33.828125 -8.382812 36.550781 -7.828125 39.53125 -7.828125 C 43.476562 -7.828125 46.984375 -8.617188 50.046875 -10.203125 C 53.109375 -11.796875 55.65625 -13.910156 57.6875 -16.546875 L 64.4375 -11.28125 C 63.363281 -9.65625 62.019531 -8.09375 60.40625 -6.59375 C 58.789062 -5.101562 56.925781 -3.78125 54.8125 -2.625 C 52.707031 -1.46875 50.320312 -0.546875 47.65625 0.140625 C 44.988281 0.835938 42.082031 1.1875 38.9375 1.1875 Z M 37.5 -56.734375 C 35.269531 -56.734375 33.160156 -56.320312 31.171875 -55.5 C 29.179688 -54.6875 27.390625 -53.492188 25.796875 -51.921875 C 24.203125 -50.347656 22.859375 -48.414062 21.765625 -46.125 C 20.671875 -43.84375 19.90625 -41.207031 19.46875 -38.21875 L 54.234375 -38.21875 L 54.234375 -39.0625 C 54.109375 -41.207031 53.695312 -43.332031 53 -45.4375 C 52.300781 -47.550781 51.273438 -49.441406 49.921875 -51.109375 C 48.566406 -52.785156 46.863281 -54.140625 44.8125 -55.171875 C 42.769531 -56.210938 40.332031 -56.734375 37.5 -56.734375 Z M 37.5 -56.734375 "/></g></g></g><g clip-path="url(#158182ba9e)"><path fill="#ffffff" d="M 350.972656 366.988281 L 316.875 344.371094 L 349.667969 355.339844 C 349.746094 355.363281 349.820312 355.375 349.898438 355.375 C 350.078125 355.375 350.238281 355.320312 350.375 355.203125 C 350.511719 355.085938 350.597656 354.941406 350.625 354.761719 C 350.652344 354.585938 350.621094 354.417969 350.527344 354.265625 C 350.4375 354.109375 350.304688 354.003906 350.132812 353.949219 L 316.371094 342.679688 L 347.183594 342.679688 C 347.382812 342.679688 347.554688 342.609375 347.699219 342.464844 C 347.839844 342.320312 347.910156 342.148438 347.910156 341.949219 C 347.910156 341.746094 347.839844 341.574219 347.699219 341.429688 C 347.554688 341.289062 347.382812 341.21875 347.183594 341.21875 L 315.710938 341.21875 L 342.746094 330.527344 C 342.933594 330.453125 343.066406 330.324219 343.144531 330.140625 C 343.222656 329.953125 343.226562 329.769531 343.152344 329.582031 C 343.078125 329.394531 342.949219 329.261719 342.765625 329.179688 C 342.582031 329.101562 342.398438 329.097656 342.210938 329.167969 L 315.019531 339.917969 L 336.417969 319.179688 C 336.574219 319.039062 336.65625 318.867188 336.664062 318.660156 C 336.671875 318.449219 336.601562 318.269531 336.457031 318.121094 C 336.3125 317.972656 336.136719 317.898438 335.929688 317.898438 C 335.71875 317.898438 335.546875 317.976562 335.402344 318.128906 L 314.246094 338.621094 L 328.304688 308.949219 C 328.378906 308.769531 328.378906 308.589844 328.308594 308.40625 C 328.238281 308.226562 328.117188 308.09375 327.941406 308.011719 C 327.765625 307.929688 327.585938 307.917969 327.402344 307.976562 C 327.21875 308.039062 327.078125 308.152344 326.988281 308.324219 L 313.28125 337.25 L 318.621094 300.183594 C 318.652344 299.980469 318.605469 299.800781 318.484375 299.636719 C 318.359375 299.472656 318.199219 299.375 317.996094 299.347656 C 317.796875 299.320312 317.613281 299.367188 317.449219 299.488281 C 317.285156 299.609375 317.191406 299.773438 317.164062 299.976562 L 311.984375 335.949219 L 307.648438 293.109375 C 307.628906 292.910156 307.539062 292.742188 307.382812 292.613281 C 307.226562 292.488281 307.046875 292.433594 306.847656 292.453125 C 306.644531 292.472656 306.480469 292.5625 306.351562 292.71875 C 306.222656 292.875 306.167969 293.054688 306.191406 293.257812 L 310.429688 334.882812 L 295.679688 287.914062 C 295.628906 287.710938 295.511719 287.558594 295.328125 287.457031 C 295.144531 287.355469 294.953125 287.335938 294.753906 287.398438 C 294.554688 287.460938 294.410156 287.585938 294.316406 287.773438 C 294.226562 287.964844 294.21875 288.15625 294.289062 288.351562 L 308.671875 334.164062 L 283.046875 284.707031 C 282.953125 284.527344 282.8125 284.40625 282.617188 284.347656 C 282.425781 284.285156 282.242188 284.300781 282.0625 284.394531 C 281.882812 284.488281 281.761719 284.632812 281.703125 284.824219 C 281.640625 285.015625 281.65625 285.203125 281.75 285.382812 L 306.863281 333.855469 L 270.066406 283.578125 C 269.953125 283.398438 269.792969 283.292969 269.585938 283.253906 C 269.378906 283.214844 269.191406 283.257812 269.023438 283.382812 C 268.851562 283.507812 268.753906 283.671875 268.730469 283.882812 C 268.703125 284.09375 268.757812 284.277344 268.894531 284.441406 L 306.46875 335.765625 L 253.351562 285.203125 C 253.207031 285.066406 253.03125 285 252.832031 285.003906 C 252.628906 285.007812 252.460938 285.085938 252.320312 285.234375 C 252.183594 285.378906 252.117188 285.554688 252.121094 285.753906 C 252.125 285.953125 252.203125 286.125 252.347656 286.265625 L 303.054688 334.542969 L 240.851562 288.816406 C 240.691406 288.6875 240.507812 288.636719 240.304688 288.667969 C 240.097656 288.695312 239.9375 288.792969 239.8125 288.957031 C 239.691406 289.125 239.648438 289.308594 239.683594 289.511719 C 239.714844 289.714844 239.816406 289.875 239.988281 289.992188 L 301.636719 335.320312 L 229.082031 294.371094 C 228.90625 294.269531 228.71875 294.246094 228.523438 294.300781 C 228.328125 294.351562 228.179688 294.46875 228.078125 294.644531 C 227.976562 294.820312 227.953125 295.007812 228.007812 295.203125 C 228.058594 295.398438 228.175781 295.546875 228.351562 295.648438 L 300.4375 336.332031 L 218.359375 301.734375 C 218.171875 301.65625 217.988281 301.652344 217.800781 301.730469 C 217.613281 301.804688 217.480469 301.9375 217.402344 302.125 C 217.324219 302.308594 217.320312 302.496094 217.398438 302.683594 C 217.472656 302.871094 217.605469 303.003906 217.789062 303.082031 L 299.484375 337.503906 L 208.949219 310.710938 C 208.753906 310.640625 208.5625 310.652344 208.375 310.746094 C 208.1875 310.84375 208.0625 310.992188 208.003906 311.191406 C 207.945312 311.394531 207.96875 311.585938 208.074219 311.769531 C 208.179688 311.949219 208.335938 312.0625 208.539062 312.113281 L 298.710938 338.796875 L 201.085938 321.070312 C 200.886719 321.035156 200.707031 321.074219 200.539062 321.191406 C 200.375 321.304688 200.273438 321.464844 200.238281 321.660156 C 200.203125 321.859375 200.242188 322.042969 200.355469 322.210938 C 200.472656 322.375 200.628906 322.476562 200.828125 322.511719 L 298.160156 340.191406 L 194.972656 332.550781 C 194.769531 332.535156 194.59375 332.59375 194.441406 332.726562 C 194.285156 332.855469 194.203125 333.023438 194.1875 333.226562 C 194.171875 333.429688 194.230469 333.605469 194.363281 333.757812 C 194.496094 333.914062 194.660156 333.996094 194.863281 334.011719 L 297.8125 341.632812 L 190.777344 344.855469 C 190.574219 344.855469 190.40625 344.929688 190.265625 345.074219 C 190.125 345.222656 190.054688 345.394531 190.058594 345.597656 C 190.0625 345.796875 190.136719 345.96875 190.28125 346.109375 C 190.425781 346.25 190.597656 346.320312 190.800781 346.316406 L 190.820312 346.316406 L 297.703125 343.097656 L 188.558594 357.671875 C 188.359375 357.683594 188.191406 357.765625 188.058594 357.917969 C 187.925781 358.070312 187.863281 358.246094 187.875 358.449219 C 187.890625 358.652344 187.972656 358.820312 188.125 358.953125 C 188.277344 359.085938 188.453125 359.144531 188.652344 359.132812 L 188.75 359.132812 L 297.726562 344.578125 L 188.421875 370.667969 C 188.246094 370.714844 188.109375 370.816406 188.007812 370.964844 C 187.90625 371.113281 187.863281 371.28125 187.886719 371.460938 C 187.90625 371.640625 187.984375 371.792969 188.117188 371.914062 C 188.25 372.035156 188.40625 372.101562 188.589844 372.105469 C 188.644531 372.105469 188.699219 372.097656 188.757812 372.082031 L 297.972656 346.003906 L 190.347656 383.523438 C 190.179688 383.582031 190.054688 383.6875 189.964844 383.839844 C 189.875 383.992188 189.847656 384.15625 189.875 384.332031 C 189.90625 384.507812 189.988281 384.652344 190.121094 384.765625 C 190.253906 384.878906 190.410156 384.9375 190.585938 384.941406 C 190.671875 384.941406 190.75 384.925781 190.828125 384.898438 L 298.390625 347.410156 L 194.289062 395.894531 C 194.136719 395.96875 194.019531 396.082031 193.945312 396.234375 C 193.871094 396.390625 193.851562 396.550781 193.886719 396.714844 C 193.925781 396.882812 194.011719 397.019531 194.144531 397.128906 C 194.277344 397.234375 194.429688 397.289062 194.601562 397.289062 C 194.707031 397.289062 194.808594 397.265625 194.90625 397.21875 L 298.984375 348.746094 L 200.148438 407.480469 C 200.007812 407.5625 199.90625 407.679688 199.84375 407.832031 C 199.785156 407.984375 199.773438 408.140625 199.816406 408.296875 C 199.859375 408.457031 199.945312 408.585938 200.074219 408.6875 C 200.203125 408.785156 200.351562 408.839844 200.511719 408.839844 C 200.644531 408.839844 200.765625 408.804688 200.878906 408.738281 L 299.738281 349.996094 L 207.773438 417.988281 C 207.644531 418.082031 207.558594 418.207031 207.511719 418.355469 C 207.460938 418.507812 207.464844 418.65625 207.511719 418.808594 C 207.5625 418.957031 207.652344 419.078125 207.777344 419.171875 C 207.90625 419.261719 208.050781 419.308594 208.207031 419.308594 C 208.375 419.308594 208.523438 419.257812 208.652344 419.152344 L 300.65625 351.160156 L 216.960938 427.121094 C 216.707031 427.34375 216.640625 427.613281 216.761719 427.929688 C 216.882812 428.246094 217.113281 428.402344 217.449219 428.398438 C 217.636719 428.398438 217.800781 428.335938 217.9375 428.210938 L 301.675781 352.171875 L 227.480469 434.679688 C 227.347656 434.832031 227.285156 435.007812 227.296875 435.207031 C 227.308594 435.410156 227.386719 435.578125 227.539062 435.710938 C 227.675781 435.835938 227.839844 435.902344 228.027344 435.902344 C 228.242188 435.898438 228.421875 435.816406 228.566406 435.65625 L 302.855469 353.042969 L 239.066406 440.464844 C 238.890625 440.703125 238.871094 440.957031 239.007812 441.226562 C 239.140625 441.492188 239.355469 441.625 239.65625 441.625 C 239.902344 441.625 240.101562 441.527344 240.246094 441.324219 L 304.132812 353.785156 L 251.421875 444.320312 C 251.320312 444.492188 251.292969 444.679688 251.34375 444.875 C 251.398438 445.066406 251.507812 445.214844 251.683594 445.316406 C 251.796875 445.386719 251.917969 445.417969 252.046875 445.417969 C 252.328125 445.417969 252.539062 445.292969 252.679688 445.050781 L 305.5 354.328125 L 264.21875 446.15625 C 264.136719 446.339844 264.132812 446.523438 264.203125 446.714844 C 264.273438 446.902344 264.402344 447.035156 264.585938 447.121094 C 264.679688 447.164062 264.78125 447.183594 264.882812 447.1875 C 265.199219 447.183594 265.417969 447.042969 265.546875 446.753906 L 306.945312 354.679688 L 277.148438 445.925781 C 277.085938 446.117188 277.101562 446.300781 277.191406 446.480469 C 277.285156 446.660156 277.425781 446.78125 277.617188 446.847656 C 277.6875 446.871094 277.765625 446.886719 277.84375 446.886719 C 278 446.886719 278.140625 446.839844 278.269531 446.746094 C 278.398438 446.652344 278.484375 446.53125 278.535156 446.382812 L 308.449219 354.8125 L 289.878906 443.640625 C 289.839844 443.839844 289.875 444.019531 289.984375 444.191406 C 290.09375 444.359375 290.246094 444.464844 290.445312 444.507812 C 290.496094 444.511719 290.546875 444.511719 290.59375 444.507812 C 290.765625 444.503906 290.921875 444.449219 291.054688 444.34375 C 291.1875 444.234375 291.269531 444.09375 291.304688 443.925781 L 309.960938 354.691406 L 302.0625 439.367188 C 302.042969 439.566406 302.097656 439.746094 302.226562 439.898438 C 302.355469 440.054688 302.515625 440.140625 302.71875 440.160156 L 302.785156 440.160156 C 302.976562 440.160156 303.140625 440.097656 303.28125 439.972656 C 303.417969 439.84375 303.5 439.6875 303.515625 439.5 L 311.457031 354.324219 L 313.414062 433.183594 C 313.417969 433.378906 313.492188 433.546875 313.632812 433.6875 C 313.773438 433.824219 313.945312 433.894531 314.140625 433.894531 L 314.160156 433.894531 C 314.359375 433.890625 314.527344 433.816406 314.664062 433.675781 C 314.804688 433.53125 314.871094 433.363281 314.871094 433.164062 L 312.898438 353.691406 L 323.632812 425.296875 C 323.660156 425.476562 323.742188 425.628906 323.882812 425.746094 C 324.019531 425.867188 324.179688 425.921875 324.363281 425.921875 L 324.472656 425.921875 C 324.671875 425.890625 324.832031 425.796875 324.949219 425.632812 C 325.070312 425.472656 325.117188 425.292969 325.085938 425.09375 L 314.226562 352.730469 L 332.464844 415.871094 C 332.511719 416.023438 332.597656 416.152344 332.730469 416.25 C 332.859375 416.347656 333.003906 416.394531 333.167969 416.394531 C 333.234375 416.394531 333.304688 416.386719 333.371094 416.367188 C 333.5625 416.308594 333.707031 416.195312 333.804688 416.015625 C 333.902344 415.839844 333.921875 415.65625 333.867188 415.464844 L 315.386719 351.492188 L 339.691406 405.175781 C 339.820312 405.464844 340.042969 405.609375 340.355469 405.609375 C 340.480469 405.609375 340.597656 405.578125 340.707031 405.519531 C 340.816406 405.460938 340.902344 405.378906 340.96875 405.273438 C 341.039062 405.167969 341.074219 405.054688 341.085938 404.929688 C 341.09375 404.804688 341.070312 404.6875 341.019531 404.574219 L 316.292969 349.925781 L 345.128906 393.425781 C 345.273438 393.640625 345.476562 393.75 345.738281 393.75 C 345.882812 393.75 346.015625 393.710938 346.136719 393.628906 C 346.304688 393.519531 346.410156 393.363281 346.449219 393.164062 C 346.488281 392.96875 346.453125 392.785156 346.34375 392.617188 L 316.871094 348.15625 L 348.644531 381.019531 C 348.789062 381.167969 348.964844 381.242188 349.167969 381.242188 C 349.492188 381.238281 349.714844 381.089844 349.839844 380.792969 C 349.964844 380.496094 349.914062 380.234375 349.691406 380 L 317.066406 346.257812 L 350.164062 368.210938 C 350.289062 368.289062 350.421875 368.328125 350.566406 368.328125 C 350.726562 368.328125 350.871094 368.28125 351 368.183594 C 351.128906 368.089844 351.214844 367.964844 351.261719 367.8125 C 351.308594 367.65625 351.304688 367.503906 351.253906 367.351562 C 351.199219 367.203125 351.105469 367.082031 350.972656 366.992188 Z M 350.972656 366.988281 " fill-opacity="1" fill-rule="nonzero"/></g></svg>